<svg xmlns="http://www.w3.org/2000/svg" xmlns:xlink="http://www.w3.org/1999/xlink" width="246" zoomAndPan="magnify" viewBox="0 0 184.5 54.75" height="73" preserveAspectRatio="xMidYMid meet" version="1.0"><defs><g/></defs><g fill="#000000" fill-opacity="0.4"><g transform="translate(37.856499, 36.023486)"><g><path d="M 12.671875 -9.078125 C 12.671875 -7.648438 12.492188 -6.363281 12.140625 -5.21875 C 11.796875 -4.070312 11.269531 -3.085938 10.5625 -2.265625 C 9.851562 -1.453125 8.96875 -0.820312 7.90625 -0.375 C 6.851562 0.0625 5.625 0.28125 4.21875 0.28125 C 3.582031 0.28125 2.953125 0.238281 2.328125 0.15625 C 1.703125 0.0820312 1.046875 -0.03125 0.359375 -0.1875 C 0.410156 -0.695312 0.457031 -1.207031 0.5 -1.71875 C 0.550781 -2.238281 0.597656 -2.753906 0.640625 -3.265625 C 0.679688 -3.546875 0.789062 -3.769531 0.96875 -3.9375 C 1.15625 -4.101562 1.425781 -4.1875 1.78125 -4.1875 C 1.976562 -4.1875 2.226562 -4.148438 2.53125 -4.078125 C 2.84375 -4.015625 3.226562 -3.984375 3.6875 -3.984375 C 4.3125 -3.984375 4.851562 -4.066406 5.3125 -4.234375 C 5.78125 -4.410156 6.171875 -4.695312 6.484375 -5.09375 C 6.796875 -5.488281 7.03125 -6.003906 7.1875 -6.640625 C 7.351562 -7.273438 7.4375 -8.046875 7.4375 -8.953125 L 7.4375 -25.3125 L 12.671875 -25.3125 Z M 12.671875 -9.078125 "/></g></g></g><g fill="#000000" fill-opacity="0.4"><g transform="translate(52.924951, 36.023486)"><g><path d="M 6.5 -15.015625 C 7.070312 -16.046875 7.726562 -16.851562 8.46875 -17.4375 C 9.21875 -18.03125 10.09375 -18.328125 11.09375 -18.328125 C 11.90625 -18.328125 12.566406 -18.140625 13.078125 -17.765625 L 12.765625 -14.203125 C 12.710938 -13.972656 12.625 -13.8125 12.5 -13.71875 C 12.375 -13.632812 12.207031 -13.59375 12 -13.59375 C 11.8125 -13.59375 11.539062 -13.617188 11.1875 -13.671875 C 10.84375 -13.722656 10.519531 -13.75 10.21875 -13.75 C 9.78125 -13.75 9.390625 -13.679688 9.046875 -13.546875 C 8.703125 -13.421875 8.394531 -13.242188 8.125 -13.015625 C 7.863281 -12.785156 7.625 -12.5 7.40625 -12.15625 C 7.1875 -11.820312 6.984375 -11.441406 6.796875 -11.015625 L 6.796875 0 L 1.984375 0 L 1.984375 -17.984375 L 4.828125 -17.984375 C 5.316406 -17.984375 5.65625 -17.894531 5.84375 -17.71875 C 6.03125 -17.550781 6.164062 -17.25 6.25 -16.8125 Z M 6.5 -15.015625 "/></g></g></g><g fill="#000000" fill-opacity="0.4"><g transform="translate(66.074965, 36.023486)"><g><path d="M 1.3125 -2.53125 C 1.3125 -2.914062 1.382812 -3.28125 1.53125 -3.625 C 1.675781 -3.96875 1.875 -4.265625 2.125 -4.515625 C 2.382812 -4.765625 2.6875 -4.960938 3.03125 -5.109375 C 3.375 -5.253906 3.75 -5.328125 4.15625 -5.328125 C 4.550781 -5.328125 4.921875 -5.253906 5.265625 -5.109375 C 5.617188 -4.960938 5.921875 -4.765625 6.171875 -4.515625 C 6.429688 -4.265625 6.632812 -3.96875 6.78125 -3.625 C 6.925781 -3.28125 7 -2.914062 7 -2.53125 C 7 -2.132812 6.925781 -1.765625 6.78125 -1.421875 C 6.632812 -1.085938 6.429688 -0.796875 6.171875 -0.546875 C 5.921875 -0.296875 5.617188 -0.101562 5.265625 0.03125 C 4.921875 0.175781 4.550781 0.25 4.15625 0.25 C 3.75 0.25 3.375 0.175781 3.03125 0.03125 C 2.6875 -0.101562 2.382812 -0.296875 2.125 -0.546875 C 1.875 -0.796875 1.675781 -1.085938 1.53125 -1.421875 C 1.382812 -1.765625 1.3125 -2.132812 1.3125 -2.53125 Z M 1.3125 -2.53125 "/></g></g></g><g fill="#000000" fill-opacity="0.4"><g transform="translate(74.376567, 36.023486)"><g/></g></g><g fill="#000000" fill-opacity="0.4"><g transform="translate(82.660727, 36.023486)"><g><path d="M 17.671875 -4.25 L 17.671875 0 L 2.65625 0 L 2.65625 -25.3125 L 7.890625 -25.3125 L 7.890625 -4.25 Z M 17.671875 -4.25 "/></g></g></g><g fill="#000000" fill-opacity="0.4"><g transform="translate(100.868444, 36.023486)"><g><path d="M 11.390625 -7.515625 C 10.210938 -7.460938 9.234375 -7.363281 8.453125 -7.21875 C 7.679688 -7.070312 7.0625 -6.878906 6.59375 -6.640625 C 6.132812 -6.410156 5.8125 -6.144531 5.625 -5.84375 C 5.4375 -5.550781 5.34375 -5.234375 5.34375 -4.890625 C 5.34375 -4.191406 5.535156 -3.695312 5.921875 -3.40625 C 6.304688 -3.113281 6.847656 -2.96875 7.546875 -2.96875 C 8.347656 -2.96875 9.039062 -3.109375 9.625 -3.390625 C 10.21875 -3.679688 10.804688 -4.128906 11.390625 -4.734375 Z M 1.59375 -15.484375 C 2.644531 -16.441406 3.8125 -17.15625 5.09375 -17.625 C 6.375 -18.09375 7.757812 -18.328125 9.25 -18.328125 C 10.3125 -18.328125 11.265625 -18.148438 12.109375 -17.796875 C 12.953125 -17.453125 13.664062 -16.96875 14.25 -16.34375 C 14.84375 -15.726562 15.296875 -14.988281 15.609375 -14.125 C 15.921875 -13.269531 16.078125 -12.328125 16.078125 -11.296875 L 16.078125 0 L 13.890625 0 C 13.429688 0 13.082031 -0.0625 12.84375 -0.1875 C 12.601562 -0.320312 12.410156 -0.59375 12.265625 -1 L 11.875 -2.140625 C 11.425781 -1.742188 10.988281 -1.394531 10.5625 -1.09375 C 10.132812 -0.789062 9.691406 -0.535156 9.234375 -0.328125 C 8.785156 -0.128906 8.300781 0.0195312 7.78125 0.125 C 7.269531 0.226562 6.691406 0.28125 6.046875 0.28125 C 5.265625 0.28125 4.546875 0.175781 3.890625 -0.03125 C 3.234375 -0.238281 2.671875 -0.550781 2.203125 -0.96875 C 1.734375 -1.382812 1.367188 -1.898438 1.109375 -2.515625 C 0.859375 -3.128906 0.734375 -3.835938 0.734375 -4.640625 C 0.734375 -5.304688 0.898438 -5.96875 1.234375 -6.625 C 1.578125 -7.289062 2.15625 -7.894531 2.96875 -8.4375 C 3.789062 -8.976562 4.882812 -9.425781 6.25 -9.78125 C 7.613281 -10.132812 9.328125 -10.332031 11.390625 -10.375 L 11.390625 -11.296875 C 11.390625 -12.429688 11.148438 -13.257812 10.671875 -13.78125 C 10.203125 -14.3125 9.519531 -14.578125 8.625 -14.578125 C 7.957031 -14.578125 7.398438 -14.5 6.953125 -14.34375 C 6.515625 -14.1875 6.128906 -14.019531 5.796875 -13.84375 C 5.460938 -13.664062 5.148438 -13.492188 4.859375 -13.328125 C 4.578125 -13.171875 4.242188 -13.09375 3.859375 -13.09375 C 3.515625 -13.09375 3.226562 -13.175781 3 -13.34375 C 2.78125 -13.519531 2.59375 -13.722656 2.4375 -13.953125 Z M 1.59375 -15.484375 "/></g></g></g><g fill="#000000" fill-opacity="0.4"><g transform="translate(118.72735, 36.023486)"><g><path d="M 6.5 -15.015625 C 7.070312 -16.046875 7.726562 -16.851562 8.46875 -17.4375 C 9.21875 -18.03125 10.09375 -18.328125 11.09375 -18.328125 C 11.90625 -18.328125 12.566406 -18.140625 13.078125 -17.765625 L 12.765625 -14.203125 C 12.710938 -13.972656 12.625 -13.8125 12.5 -13.71875 C 12.375 -13.632812 12.207031 -13.59375 12 -13.59375 C 11.8125 -13.59375 11.539062 -13.617188 11.1875 -13.671875 C 10.84375 -13.722656 10.519531 -13.75 10.21875 -13.75 C 9.78125 -13.75 9.390625 -13.679688 9.046875 -13.546875 C 8.703125 -13.421875 8.394531 -13.242188 8.125 -13.015625 C 7.863281 -12.785156 7.625 -12.5 7.40625 -12.15625 C 7.1875 -11.820312 6.984375 -11.441406 6.796875 -11.015625 L 6.796875 0 L 1.984375 0 L 1.984375 -17.984375 L 4.828125 -17.984375 C 5.316406 -17.984375 5.65625 -17.894531 5.84375 -17.71875 C 6.03125 -17.550781 6.164062 -17.25 6.25 -16.8125 Z M 6.5 -15.015625 "/></g></g></g><g fill="#000000" fill-opacity="0.4"><g transform="translate(131.877363, 36.023486)"><g><path d="M 11.390625 -7.515625 C 10.210938 -7.460938 9.234375 -7.363281 8.453125 -7.21875 C 7.679688 -7.070312 7.0625 -6.878906 6.59375 -6.640625 C 6.132812 -6.410156 5.8125 -6.144531 5.625 -5.84375 C 5.4375 -5.550781 5.34375 -5.234375 5.34375 -4.890625 C 5.34375 -4.191406 5.535156 -3.695312 5.921875 -3.40625 C 6.304688 -3.113281 6.847656 -2.96875 7.546875 -2.96875 C 8.347656 -2.96875 9.039062 -3.109375 9.625 -3.390625 C 10.21875 -3.679688 10.804688 -4.128906 11.390625 -4.734375 Z M 1.59375 -15.484375 C 2.644531 -16.441406 3.8125 -17.15625 5.09375 -17.625 C 6.375 -18.09375 7.757812 -18.328125 9.25 -18.328125 C 10.3125 -18.328125 11.265625 -18.148438 12.109375 -17.796875 C 12.953125 -17.453125 13.664062 -16.96875 14.25 -16.34375 C 14.84375 -15.726562 15.296875 -14.988281 15.609375 -14.125 C 15.921875 -13.269531 16.078125 -12.328125 16.078125 -11.296875 L 16.078125 0 L 13.890625 0 C 13.429688 0 13.082031 -0.0625 12.84375 -0.1875 C 12.601562 -0.320312 12.410156 -0.59375 12.265625 -1 L 11.875 -2.140625 C 11.425781 -1.742188 10.988281 -1.394531 10.5625 -1.09375 C 10.132812 -0.789062 9.691406 -0.535156 9.234375 -0.328125 C 8.785156 -0.128906 8.300781 0.0195312 7.78125 0.125 C 7.269531 0.226562 6.691406 0.28125 6.046875 0.28125 C 5.265625 0.28125 4.546875 0.175781 3.890625 -0.03125 C 3.234375 -0.238281 2.671875 -0.550781 2.203125 -0.96875 C 1.734375 -1.382812 1.367188 -1.898438 1.109375 -2.515625 C 0.859375 -3.128906 0.734375 -3.835938 0.734375 -4.640625 C 0.734375 -5.304688 0.898438 -5.96875 1.234375 -6.625 C 1.578125 -7.289062 2.15625 -7.894531 2.96875 -8.4375 C 3.789062 -8.976562 4.882812 -9.425781 6.25 -9.78125 C 7.613281 -10.132812 9.328125 -10.332031 11.390625 -10.375 L 11.390625 -11.296875 C 11.390625 -12.429688 11.148438 -13.257812 10.671875 -13.78125 C 10.203125 -14.3125 9.519531 -14.578125 8.625 -14.578125 C 7.957031 -14.578125 7.398438 -14.5 6.953125 -14.34375 C 6.515625 -14.1875 6.128906 -14.019531 5.796875 -13.84375 C 5.460938 -13.664062 5.148438 -13.492188 4.859375 -13.328125 C 4.578125 -13.171875 4.242188 -13.09375 3.859375 -13.09375 C 3.515625 -13.09375 3.226562 -13.175781 3 -13.34375 C 2.78125 -13.519531 2.59375 -13.722656 2.4375 -13.953125 Z M 1.59375 -15.484375 "/></g></g></g><g fill="#ffffff" fill-opacity="1"><g transform="translate(36.314479, 34.481466)"><g><path d="M 12.671875 -9.078125 C 12.671875 -7.648438 12.492188 -6.363281 12.140625 -5.21875 C 11.796875 -4.070312 11.269531 -3.085938 10.5625 -2.265625 C 9.851562 -1.453125 8.96875 -0.820312 7.90625 -0.375 C 6.851562 0.0625 5.625 0.28125 4.21875 0.28125 C 3.582031 0.28125 2.953125 0.238281 2.328125 0.15625 C 1.703125 0.0820312 1.046875 -0.03125 0.359375 -0.1875 C 0.410156 -0.695312 0.457031 -1.207031 0.5 -1.71875 C 0.550781 -2.238281 0.597656 -2.753906 0.640625 -3.265625 C 0.679688 -3.546875 0.789062 -3.769531 0.96875 -3.9375 C 1.15625 -4.101562 1.425781 -4.1875 1.78125 -4.1875 C 1.976562 -4.1875 2.226562 -4.148438 2.53125 -4.078125 C 2.84375 -4.015625 3.226562 -3.984375 3.6875 -3.984375 C 4.3125 -3.984375 4.851562 -4.066406 5.3125 -4.234375 C 5.78125 -4.410156 6.171875 -4.695312 6.484375 -5.09375 C 6.796875 -5.488281 7.03125 -6.003906 7.1875 -6.640625 C 7.351562 -7.273438 7.4375 -8.046875 7.4375 -8.953125 L 7.4375 -25.3125 L 12.671875 -25.3125 Z M 12.671875 -9.078125 "/></g></g></g><g fill="#ffffff" fill-opacity="1"><g transform="translate(51.382931, 34.481466)"><g><path d="M 6.5 -15.015625 C 7.070312 -16.046875 7.726562 -16.851562 8.46875 -17.4375 C 9.21875 -18.03125 10.09375 -18.328125 11.09375 -18.328125 C 11.90625 -18.328125 12.566406 -18.140625 13.078125 -17.765625 L 12.765625 -14.203125 C 12.710938 -13.972656 12.625 -13.8125 12.5 -13.71875 C 12.375 -13.632812 12.207031 -13.59375 12 -13.59375 C 11.8125 -13.59375 11.539062 -13.617188 11.1875 -13.671875 C 10.84375 -13.722656 10.519531 -13.75 10.21875 -13.75 C 9.78125 -13.75 9.390625 -13.679688 9.046875 -13.546875 C 8.703125 -13.421875 8.394531 -13.242188 8.125 -13.015625 C 7.863281 -12.785156 7.625 -12.5 7.40625 -12.15625 C 7.1875 -11.820312 6.984375 -11.441406 6.796875 -11.015625 L 6.796875 0 L 1.984375 0 L 1.984375 -17.984375 L 4.828125 -17.984375 C 5.316406 -17.984375 5.65625 -17.894531 5.84375 -17.71875 C 6.03125 -17.550781 6.164062 -17.25 6.25 -16.8125 Z M 6.5 -15.015625 "/></g></g></g><g fill="#ffffff" fill-opacity="1"><g transform="translate(64.532945, 34.481466)"><g><path d="M 1.3125 -2.53125 C 1.3125 -2.914062 1.382812 -3.28125 1.53125 -3.625 C 1.675781 -3.96875 1.875 -4.265625 2.125 -4.515625 C 2.382812 -4.765625 2.6875 -4.960938 3.03125 -5.109375 C 3.375 -5.253906 3.75 -5.328125 4.15625 -5.328125 C 4.550781 -5.328125 4.921875 -5.253906 5.265625 -5.109375 C 5.617188 -4.960938 5.921875 -4.765625 6.171875 -4.515625 C 6.429688 -4.265625 6.632812 -3.96875 6.78125 -3.625 C 6.925781 -3.28125 7 -2.914062 7 -2.53125 C 7 -2.132812 6.925781 -1.765625 6.78125 -1.421875 C 6.632812 -1.085938 6.429688 -0.796875 6.171875 -0.546875 C 5.921875 -0.296875 5.617188 -0.101562 5.265625 0.03125 C 4.921875 0.175781 4.550781 0.25 4.15625 0.25 C 3.75 0.25 3.375 0.175781 3.03125 0.03125 C 2.6875 -0.101562 2.382812 -0.296875 2.125 -0.546875 C 1.875 -0.796875 1.675781 -1.085938 1.53125 -1.421875 C 1.382812 -1.765625 1.3125 -2.132812 1.3125 -2.53125 Z M 1.3125 -2.53125 "/></g></g></g><g fill="#ffffff" fill-opacity="1"><g transform="translate(72.834547, 34.481466)"><g/></g></g><g fill="#ffffff" fill-opacity="1"><g transform="translate(81.118707, 34.481466)"><g><path d="M 17.671875 -4.25 L 17.671875 0 L 2.65625 0 L 2.65625 -25.3125 L 7.890625 -25.3125 L 7.890625 -4.25 Z M 17.671875 -4.25 "/></g></g></g><g fill="#ffffff" fill-opacity="1"><g transform="translate(99.326423, 34.481466)"><g><path d="M 11.390625 -7.515625 C 10.210938 -7.460938 9.234375 -7.363281 8.453125 -7.21875 C 7.679688 -7.070312 7.0625 -6.878906 6.59375 -6.640625 C 6.132812 -6.410156 5.8125 -6.144531 5.625 -5.84375 C 5.4375 -5.550781 5.34375 -5.234375 5.34375 -4.890625 C 5.34375 -4.191406 5.535156 -3.695312 5.921875 -3.40625 C 6.304688 -3.113281 6.847656 -2.96875 7.546875 -2.96875 C 8.347656 -2.96875 9.039062 -3.109375 9.625 -3.390625 C 10.21875 -3.679688 10.804688 -4.128906 11.390625 -4.734375 Z M 1.59375 -15.484375 C 2.644531 -16.441406 3.8125 -17.15625 5.09375 -17.625 C 6.375 -18.09375 7.757812 -18.328125 9.25 -18.328125 C 10.3125 -18.328125 11.265625 -18.148438 12.109375 -17.796875 C 12.953125 -17.453125 13.664062 -16.96875 14.25 -16.34375 C 14.84375 -15.726562 15.296875 -14.988281 15.609375 -14.125 C 15.921875 -13.269531 16.078125 -12.328125 16.078125 -11.296875 L 16.078125 0 L 13.890625 0 C 13.429688 0 13.082031 -0.0625 12.84375 -0.1875 C 12.601562 -0.320312 12.410156 -0.59375 12.265625 -1 L 11.875 -2.140625 C 11.425781 -1.742188 10.988281 -1.394531 10.5625 -1.09375 C 10.132812 -0.789062 9.691406 -0.535156 9.234375 -0.328125 C 8.785156 -0.128906 8.300781 0.0195312 7.78125 0.125 C 7.269531 0.226562 6.691406 0.28125 6.046875 0.28125 C 5.265625 0.28125 4.546875 0.175781 3.890625 -0.03125 C 3.234375 -0.238281 2.671875 -0.550781 2.203125 -0.96875 C 1.734375 -1.382812 1.367188 -1.898438 1.109375 -2.515625 C 0.859375 -3.128906 0.734375 -3.835938 0.734375 -4.640625 C 0.734375 -5.304688 0.898438 -5.96875 1.234375 -6.625 C 1.578125 -7.289062 2.15625 -7.894531 2.96875 -8.4375 C 3.789062 -8.976562 4.882812 -9.425781 6.25 -9.78125 C 7.613281 -10.132812 9.328125 -10.332031 11.390625 -10.375 L 11.390625 -11.296875 C 11.390625 -12.429688 11.148438 -13.257812 10.671875 -13.78125 C 10.203125 -14.3125 9.519531 -14.578125 8.625 -14.578125 C 7.957031 -14.578125 7.398438 -14.5 6.953125 -14.34375 C 6.515625 -14.1875 6.128906 -14.019531 5.796875 -13.84375 C 5.460938 -13.664062 5.148438 -13.492188 4.859375 -13.328125 C 4.578125 -13.171875 4.242188 -13.09375 3.859375 -13.09375 C 3.515625 -13.09375 3.226562 -13.175781 3 -13.34375 C 2.78125 -13.519531 2.59375 -13.722656 2.4375 -13.953125 Z M 1.59375 -15.484375 "/></g></g></g><g fill="#ffffff" fill-opacity="1"><g transform="translate(117.185329, 34.481466)"><g><path d="M 6.5 -15.015625 C 7.070312 -16.046875 7.726562 -16.851562 8.46875 -17.4375 C 9.21875 -18.03125 10.09375 -18.328125 11.09375 -18.328125 C 11.90625 -18.328125 12.566406 -18.140625 13.078125 -17.765625 L 12.765625 -14.203125 C 12.710938 -13.972656 12.625 -13.8125 12.5 -13.71875 C 12.375 -13.632812 12.207031 -13.59375 12 -13.59375 C 11.8125 -13.59375 11.539062 -13.617188 11.1875 -13.671875 C 10.84375 -13.722656 10.519531 -13.75 10.21875 -13.75 C 9.78125 -13.75 9.390625 -13.679688 9.046875 -13.546875 C 8.703125 -13.421875 8.394531 -13.242188 8.125 -13.015625 C 7.863281 -12.785156 7.625 -12.5 7.40625 -12.15625 C 7.1875 -11.820312 6.984375 -11.441406 6.796875 -11.015625 L 6.796875 0 L 1.984375 0 L 1.984375 -17.984375 L 4.828125 -17.984375 C 5.316406 -17.984375 5.65625 -17.894531 5.84375 -17.71875 C 6.03125 -17.550781 6.164062 -17.25 6.25 -16.8125 Z M 6.5 -15.015625 "/></g></g></g><g fill="#ffffff" fill-opacity="1"><g transform="translate(130.335343, 34.481466)"><g><path d="M 11.390625 -7.515625 C 10.210938 -7.460938 9.234375 -7.363281 8.453125 -7.21875 C 7.679688 -7.070312 7.0625 -6.878906 6.59375 -6.640625 C 6.132812 -6.410156 5.8125 -6.144531 5.625 -5.84375 C 5.4375 -5.550781 5.34375 -5.234375 5.34375 -4.890625 C 5.34375 -4.191406 5.535156 -3.695312 5.921875 -3.40625 C 6.304688 -3.113281 6.847656 -2.96875 7.546875 -2.96875 C 8.347656 -2.96875 9.039062 -3.109375 9.625 -3.390625 C 10.21875 -3.679688 10.804688 -4.128906 11.390625 -4.734375 Z M 1.59375 -15.484375 C 2.644531 -16.441406 3.8125 -17.15625 5.09375 -17.625 C 6.375 -18.09375 7.757812 -18.328125 9.25 -18.328125 C 10.3125 -18.328125 11.265625 -18.148438 12.109375 -17.796875 C 12.953125 -17.453125 13.664062 -16.96875 14.25 -16.34375 C 14.84375 -15.726562 15.296875 -14.988281 15.609375 -14.125 C 15.921875 -13.269531 16.078125 -12.328125 16.078125 -11.296875 L 16.078125 0 L 13.890625 0 C 13.429688 0 13.082031 -0.0625 12.84375 -0.1875 C 12.601562 -0.320312 12.410156 -0.59375 12.265625 -1 L 11.875 -2.140625 C 11.425781 -1.742188 10.988281 -1.394531 10.5625 -1.09375 C 10.132812 -0.789062 9.691406 -0.535156 9.234375 -0.328125 C 8.785156 -0.128906 8.300781 0.0195312 7.78125 0.125 C 7.269531 0.226562 6.691406 0.28125 6.046875 0.28125 C 5.265625 0.28125 4.546875 0.175781 3.890625 -0.03125 C 3.234375 -0.238281 2.671875 -0.550781 2.203125 -0.96875 C 1.734375 -1.382812 1.367188 -1.898438 1.109375 -2.515625 C 0.859375 -3.128906 0.734375 -3.835938 0.734375 -4.640625 C 0.734375 -5.304688 0.898438 -5.96875 1.234375 -6.625 C 1.578125 -7.289062 2.15625 -7.894531 2.96875 -8.4375 C 3.789062 -8.976562 4.882812 -9.425781 6.25 -9.78125 C 7.613281 -10.132812 9.328125 -10.332031 11.390625 -10.375 L 11.390625 -11.296875 C 11.390625 -12.429688 11.148438 -13.257812 10.671875 -13.78125 C 10.203125 -14.3125 9.519531 -14.578125 8.625 -14.578125 C 7.957031 -14.578125 7.398438 -14.5 6.953125 -14.34375 C 6.515625 -14.1875 6.128906 -14.019531 5.796875 -13.84375 C 5.460938 -13.664062 5.148438 -13.492188 4.859375 -13.328125 C 4.578125 -13.171875 4.242188 -13.09375 3.859375 -13.09375 C 3.515625 -13.09375 3.226562 -13.175781 3 -13.34375 C 2.78125 -13.519531 2.59375 -13.722656 2.4375 -13.953125 Z M 1.59375 -15.484375 "/></g></g></g></svg>