<svg xmlns="http://www.w3.org/2000/svg" xmlns:xlink="http://www.w3.org/1999/xlink" width="246" zoomAndPan="magnify" viewBox="0 0 184.5 54.75" height="73" preserveAspectRatio="xMidYMid meet" version="1.0"><defs><g/></defs><g fill="#ffffff" fill-opacity="1"><g transform="translate(65.322782, 30.168681)"><g><path d="M 6.046875 -4.328125 C 6.046875 -3.648438 5.960938 -3.035156 5.796875 -2.484375 C 5.628906 -1.941406 5.375 -1.472656 5.03125 -1.078125 C 4.695312 -0.691406 4.273438 -0.390625 3.765625 -0.171875 C 3.265625 0.0351562 2.679688 0.140625 2.015625 0.140625 C 1.710938 0.140625 1.410156 0.117188 1.109375 0.078125 C 0.816406 0.046875 0.503906 -0.0078125 0.171875 -0.09375 C 0.191406 -0.332031 0.210938 -0.570312 0.234375 -0.8125 C 0.265625 -1.0625 0.289062 -1.3125 0.3125 -1.5625 C 0.320312 -1.6875 0.367188 -1.789062 0.453125 -1.875 C 0.546875 -1.957031 0.675781 -2 0.84375 -2 C 0.9375 -2 1.054688 -1.984375 1.203125 -1.953125 C 1.359375 -1.921875 1.539062 -1.90625 1.75 -1.90625 C 2.050781 -1.90625 2.3125 -1.945312 2.53125 -2.03125 C 2.757812 -2.113281 2.945312 -2.25 3.09375 -2.4375 C 3.25 -2.625 3.363281 -2.867188 3.4375 -3.171875 C 3.507812 -3.472656 3.546875 -3.835938 3.546875 -4.265625 L 3.546875 -12.078125 L 6.046875 -12.078125 Z M 6.046875 -4.328125 "/></g></g></g><g fill="#ffffff" fill-opacity="1"><g transform="translate(72.518005, 30.168681)"><g><path d="M 3.109375 -7.171875 C 3.378906 -7.660156 3.691406 -8.046875 4.046875 -8.328125 C 4.398438 -8.609375 4.816406 -8.75 5.296875 -8.75 C 5.679688 -8.75 6 -8.660156 6.25 -8.484375 L 6.09375 -6.78125 C 6.0625 -6.664062 6.015625 -6.585938 5.953125 -6.546875 C 5.898438 -6.503906 5.828125 -6.484375 5.734375 -6.484375 C 5.640625 -6.484375 5.507812 -6.492188 5.34375 -6.515625 C 5.175781 -6.546875 5.019531 -6.5625 4.875 -6.5625 C 4.664062 -6.5625 4.476562 -6.53125 4.3125 -6.46875 C 4.15625 -6.40625 4.007812 -6.316406 3.875 -6.203125 C 3.75 -6.097656 3.632812 -5.960938 3.53125 -5.796875 C 3.425781 -5.640625 3.332031 -5.457031 3.25 -5.25 L 3.25 0 L 0.953125 0 L 0.953125 -8.59375 L 2.3125 -8.59375 C 2.539062 -8.59375 2.695312 -8.550781 2.78125 -8.46875 C 2.875 -8.382812 2.941406 -8.238281 2.984375 -8.03125 Z M 3.109375 -7.171875 "/></g></g></g><g fill="#ffffff" fill-opacity="1"><g transform="translate(78.797165, 30.168681)"><g><path d="M 0.625 -1.203125 C 0.625 -1.390625 0.65625 -1.5625 0.71875 -1.71875 C 0.789062 -1.882812 0.890625 -2.023438 1.015625 -2.140625 C 1.140625 -2.265625 1.28125 -2.363281 1.4375 -2.4375 C 1.601562 -2.507812 1.785156 -2.546875 1.984375 -2.546875 C 2.171875 -2.546875 2.347656 -2.507812 2.515625 -2.4375 C 2.679688 -2.363281 2.820312 -2.265625 2.9375 -2.140625 C 3.0625 -2.023438 3.160156 -1.882812 3.234375 -1.71875 C 3.304688 -1.5625 3.34375 -1.390625 3.34375 -1.203125 C 3.34375 -1.015625 3.304688 -0.835938 3.234375 -0.671875 C 3.160156 -0.515625 3.0625 -0.375 2.9375 -0.25 C 2.820312 -0.132812 2.679688 -0.046875 2.515625 0.015625 C 2.347656 0.078125 2.171875 0.109375 1.984375 0.109375 C 1.785156 0.109375 1.601562 0.078125 1.4375 0.015625 C 1.28125 -0.046875 1.140625 -0.132812 1.015625 -0.25 C 0.890625 -0.375 0.789062 -0.515625 0.71875 -0.671875 C 0.65625 -0.835938 0.625 -1.015625 0.625 -1.203125 Z M 0.625 -1.203125 "/></g></g></g><g fill="#ffffff" fill-opacity="1"><g transform="translate(82.761197, 30.168681)"><g/></g></g><g fill="#ffffff" fill-opacity="1"><g transform="translate(86.716902, 30.168681)"><g><path d="M 8.4375 -2.03125 L 8.4375 0 L 1.265625 0 L 1.265625 -12.078125 L 3.765625 -12.078125 L 3.765625 -2.03125 Z M 8.4375 -2.03125 "/></g></g></g><g fill="#ffffff" fill-opacity="1"><g transform="translate(95.411126, 30.168681)"><g><path d="M 5.4375 -3.59375 C 4.875 -3.5625 4.40625 -3.507812 4.03125 -3.4375 C 3.664062 -3.375 3.375 -3.285156 3.15625 -3.171875 C 2.9375 -3.054688 2.78125 -2.925781 2.6875 -2.78125 C 2.59375 -2.644531 2.546875 -2.492188 2.546875 -2.328125 C 2.546875 -1.992188 2.640625 -1.757812 2.828125 -1.625 C 3.015625 -1.488281 3.273438 -1.421875 3.609375 -1.421875 C 3.992188 -1.421875 4.320312 -1.488281 4.59375 -1.625 C 4.875 -1.757812 5.15625 -1.96875 5.4375 -2.25 Z M 0.765625 -7.390625 C 1.265625 -7.847656 1.816406 -8.1875 2.421875 -8.40625 C 3.035156 -8.632812 3.695312 -8.75 4.40625 -8.75 C 4.925781 -8.75 5.382812 -8.664062 5.78125 -8.5 C 6.1875 -8.332031 6.53125 -8.097656 6.8125 -7.796875 C 7.09375 -7.503906 7.304688 -7.148438 7.453125 -6.734375 C 7.597656 -6.328125 7.671875 -5.878906 7.671875 -5.390625 L 7.671875 0 L 6.625 0 C 6.40625 0 6.238281 -0.03125 6.125 -0.09375 C 6.019531 -0.15625 5.929688 -0.28125 5.859375 -0.46875 L 5.671875 -1.03125 C 5.453125 -0.832031 5.238281 -0.660156 5.03125 -0.515625 C 4.832031 -0.378906 4.625 -0.257812 4.40625 -0.15625 C 4.195312 -0.0625 3.96875 0.0078125 3.71875 0.0625 C 3.46875 0.113281 3.191406 0.140625 2.890625 0.140625 C 2.515625 0.140625 2.171875 0.0859375 1.859375 -0.015625 C 1.546875 -0.117188 1.273438 -0.269531 1.046875 -0.46875 C 0.828125 -0.664062 0.65625 -0.910156 0.53125 -1.203125 C 0.40625 -1.492188 0.34375 -1.832031 0.34375 -2.21875 C 0.34375 -2.53125 0.421875 -2.84375 0.578125 -3.15625 C 0.742188 -3.476562 1.019531 -3.765625 1.40625 -4.015625 C 1.800781 -4.273438 2.328125 -4.488281 2.984375 -4.65625 C 3.640625 -4.832031 4.457031 -4.929688 5.4375 -4.953125 L 5.4375 -5.390625 C 5.4375 -5.929688 5.320312 -6.328125 5.09375 -6.578125 C 4.863281 -6.835938 4.535156 -6.96875 4.109375 -6.96875 C 3.796875 -6.96875 3.53125 -6.925781 3.3125 -6.84375 C 3.101562 -6.769531 2.921875 -6.691406 2.765625 -6.609375 C 2.609375 -6.523438 2.457031 -6.441406 2.3125 -6.359375 C 2.175781 -6.285156 2.019531 -6.25 1.84375 -6.25 C 1.675781 -6.25 1.539062 -6.289062 1.4375 -6.375 C 1.332031 -6.457031 1.242188 -6.550781 1.171875 -6.65625 Z M 0.765625 -7.390625 "/></g></g></g><g fill="#ffffff" fill-opacity="1"><g transform="translate(103.938795, 30.168681)"><g><path d="M 3.109375 -7.171875 C 3.378906 -7.660156 3.691406 -8.046875 4.046875 -8.328125 C 4.398438 -8.609375 4.816406 -8.75 5.296875 -8.75 C 5.679688 -8.75 6 -8.660156 6.25 -8.484375 L 6.09375 -6.78125 C 6.0625 -6.664062 6.015625 -6.585938 5.953125 -6.546875 C 5.898438 -6.503906 5.828125 -6.484375 5.734375 -6.484375 C 5.640625 -6.484375 5.507812 -6.492188 5.34375 -6.515625 C 5.175781 -6.546875 5.019531 -6.5625 4.875 -6.5625 C 4.664062 -6.5625 4.476562 -6.53125 4.3125 -6.46875 C 4.15625 -6.40625 4.007812 -6.316406 3.875 -6.203125 C 3.75 -6.097656 3.632812 -5.960938 3.53125 -5.796875 C 3.425781 -5.640625 3.332031 -5.457031 3.25 -5.25 L 3.25 0 L 0.953125 0 L 0.953125 -8.59375 L 2.3125 -8.59375 C 2.539062 -8.59375 2.695312 -8.550781 2.78125 -8.46875 C 2.875 -8.382812 2.941406 -8.238281 2.984375 -8.03125 Z M 3.109375 -7.171875 "/></g></g></g><g fill="#ffffff" fill-opacity="1"><g transform="translate(110.217955, 30.168681)"><g><path d="M 5.4375 -3.59375 C 4.875 -3.5625 4.40625 -3.507812 4.03125 -3.4375 C 3.664062 -3.375 3.375 -3.285156 3.15625 -3.171875 C 2.9375 -3.054688 2.78125 -2.925781 2.6875 -2.78125 C 2.59375 -2.644531 2.546875 -2.492188 2.546875 -2.328125 C 2.546875 -1.992188 2.640625 -1.757812 2.828125 -1.625 C 3.015625 -1.488281 3.273438 -1.421875 3.609375 -1.421875 C 3.992188 -1.421875 4.320312 -1.488281 4.59375 -1.625 C 4.875 -1.757812 5.15625 -1.96875 5.4375 -2.25 Z M 0.765625 -7.390625 C 1.265625 -7.847656 1.816406 -8.1875 2.421875 -8.40625 C 3.035156 -8.632812 3.695312 -8.75 4.40625 -8.75 C 4.925781 -8.75 5.382812 -8.664062 5.78125 -8.5 C 6.1875 -8.332031 6.53125 -8.097656 6.8125 -7.796875 C 7.09375 -7.503906 7.304688 -7.148438 7.453125 -6.734375 C 7.597656 -6.328125 7.671875 -5.878906 7.671875 -5.390625 L 7.671875 0 L 6.625 0 C 6.40625 0 6.238281 -0.03125 6.125 -0.09375 C 6.019531 -0.15625 5.929688 -0.28125 5.859375 -0.46875 L 5.671875 -1.03125 C 5.453125 -0.832031 5.238281 -0.660156 5.03125 -0.515625 C 4.832031 -0.378906 4.625 -0.257812 4.40625 -0.15625 C 4.195312 -0.0625 3.96875 0.0078125 3.71875 0.0625 C 3.46875 0.113281 3.191406 0.140625 2.890625 0.140625 C 2.515625 0.140625 2.171875 0.0859375 1.859375 -0.015625 C 1.546875 -0.117188 1.273438 -0.269531 1.046875 -0.46875 C 0.828125 -0.664062 0.65625 -0.910156 0.53125 -1.203125 C 0.40625 -1.492188 0.34375 -1.832031 0.34375 -2.21875 C 0.34375 -2.53125 0.421875 -2.84375 0.578125 -3.15625 C 0.742188 -3.476562 1.019531 -3.765625 1.40625 -4.015625 C 1.800781 -4.273438 2.328125 -4.488281 2.984375 -4.65625 C 3.640625 -4.832031 4.457031 -4.929688 5.4375 -4.953125 L 5.4375 -5.390625 C 5.4375 -5.929688 5.320312 -6.328125 5.09375 -6.578125 C 4.863281 -6.835938 4.535156 -6.96875 4.109375 -6.96875 C 3.796875 -6.96875 3.53125 -6.925781 3.3125 -6.84375 C 3.101562 -6.769531 2.921875 -6.691406 2.765625 -6.609375 C 2.609375 -6.523438 2.457031 -6.441406 2.3125 -6.359375 C 2.175781 -6.285156 2.019531 -6.25 1.84375 -6.25 C 1.675781 -6.25 1.539062 -6.289062 1.4375 -6.375 C 1.332031 -6.457031 1.242188 -6.550781 1.171875 -6.65625 Z M 0.765625 -7.390625 "/></g></g></g></svg>