<svg xmlns="http://www.w3.org/2000/svg" xmlns:xlink="http://www.w3.org/1999/xlink" width="246" zoomAndPan="magnify" viewBox="0 0 184.5 54.75" height="73" preserveAspectRatio="xMidYMid meet" version="1.0"><defs><g/></defs><g fill="#a6a6a6" fill-opacity="0.4"><g transform="translate(10.185155, 36.695679)"><g><path d="M 10.4375 -18.984375 C 11.488281 -18.984375 12.382812 -18.832031 13.125 -18.53125 C 13.863281 -18.238281 14.582031 -17.820312 15.28125 -17.28125 C 15.46875 -17.125 15.632812 -17.046875 15.78125 -17.046875 C 16.125 -17.046875 16.351562 -17.570312 16.46875 -18.625 L 17.0625 -18.625 C 17 -17.425781 16.96875 -15.300781 16.96875 -12.25 L 16.359375 -12.25 C 16.203125 -13.550781 15.988281 -14.539062 15.71875 -15.21875 C 15.457031 -15.90625 15.015625 -16.503906 14.390625 -17.015625 C 13.953125 -17.429688 13.441406 -17.75 12.859375 -17.96875 C 12.273438 -18.1875 11.671875 -18.296875 11.046875 -18.296875 C 9.273438 -18.296875 7.957031 -17.429688 7.09375 -15.703125 C 6.238281 -13.984375 5.8125 -11.832031 5.8125 -9.25 C 5.8125 -6.695312 6.257812 -4.5625 7.15625 -2.84375 C 8.050781 -1.125 9.382812 -0.265625 11.15625 -0.265625 C 11.75 -0.265625 12.335938 -0.375 12.921875 -0.59375 C 13.515625 -0.8125 14.007812 -1.128906 14.40625 -1.546875 C 15.0625 -2.035156 15.515625 -2.648438 15.765625 -3.390625 C 16.015625 -4.128906 16.210938 -5.207031 16.359375 -6.625 L 16.96875 -6.625 C 16.96875 -3.445312 17 -1.238281 17.0625 0 L 16.46875 0 C 16.414062 -0.5625 16.335938 -0.957031 16.234375 -1.1875 C 16.140625 -1.425781 16.003906 -1.546875 15.828125 -1.546875 C 15.691406 -1.546875 15.507812 -1.476562 15.28125 -1.34375 C 14.488281 -0.78125 13.734375 -0.351562 13.015625 -0.0625 C 12.296875 0.226562 11.425781 0.375 10.40625 0.375 C 8.550781 0.375 6.925781 0 5.53125 -0.75 C 4.132812 -1.507812 3.050781 -2.601562 2.28125 -4.03125 C 1.507812 -5.46875 1.125 -7.175781 1.125 -9.15625 C 1.125 -11.082031 1.519531 -12.789062 2.3125 -14.28125 C 3.101562 -15.769531 4.203125 -16.925781 5.609375 -17.75 C 7.023438 -18.570312 8.632812 -18.984375 10.4375 -18.984375 Z M 10.4375 -18.984375 "/></g></g></g><g fill="#a6a6a6" fill-opacity="0.4"><g transform="translate(28.729814, 36.695679)"><g><path d="M 17.640625 -18.09375 C 17.066406 -18 16.644531 -17.847656 16.375 -17.640625 C 16.101562 -17.429688 15.914062 -17.097656 15.8125 -16.640625 C 15.71875 -16.191406 15.671875 -15.519531 15.671875 -14.625 L 15.671875 -7.65625 C 15.671875 -5.144531 15.3125 -3.285156 14.59375 -2.078125 C 14.125 -1.304688 13.441406 -0.703125 12.546875 -0.265625 C 11.648438 0.160156 10.550781 0.375 9.25 0.375 C 7.21875 0.375 5.640625 -0.0664062 4.515625 -0.953125 C 3.710938 -1.597656 3.171875 -2.414062 2.890625 -3.40625 C 2.609375 -4.394531 2.46875 -5.785156 2.46875 -7.578125 L 2.46875 -15.828125 C 2.46875 -16.492188 2.421875 -16.972656 2.328125 -17.265625 C 2.234375 -17.566406 2.050781 -17.769531 1.78125 -17.875 C 1.507812 -17.988281 1.082031 -18.0625 0.5 -18.09375 L 0.5 -18.625 C 1.394531 -18.570312 2.765625 -18.546875 4.609375 -18.546875 C 6.429688 -18.546875 7.820312 -18.570312 8.78125 -18.625 L 8.78125 -18.09375 C 8.15625 -18.0625 7.695312 -17.988281 7.40625 -17.875 C 7.113281 -17.769531 6.914062 -17.566406 6.8125 -17.265625 C 6.707031 -16.972656 6.65625 -16.492188 6.65625 -15.828125 L 6.65625 -5.921875 C 6.65625 -4.078125 6.921875 -2.71875 7.453125 -1.84375 C 7.984375 -0.976562 8.925781 -0.546875 10.28125 -0.546875 C 12.03125 -0.546875 13.265625 -1.140625 13.984375 -2.328125 C 14.703125 -3.515625 15.0625 -5.191406 15.0625 -7.359375 L 15.0625 -14.3125 C 15.0625 -15.320312 15 -16.070312 14.875 -16.5625 C 14.757812 -17.050781 14.523438 -17.40625 14.171875 -17.625 C 13.816406 -17.84375 13.265625 -18 12.515625 -18.09375 L 12.515625 -18.625 C 13.179688 -18.570312 14.128906 -18.546875 15.359375 -18.546875 C 16.335938 -18.546875 17.097656 -18.570312 17.640625 -18.625 Z M 17.640625 -18.09375 "/></g></g></g><g fill="#a6a6a6" fill-opacity="0.4"><g transform="translate(46.853597, 36.695679)"><g><path d="M 18.21875 -18.09375 C 17.644531 -18 17.222656 -17.847656 16.953125 -17.640625 C 16.679688 -17.429688 16.492188 -17.097656 16.390625 -16.640625 C 16.296875 -16.191406 16.25 -15.519531 16.25 -14.625 L 16.25 0.046875 L 15.625 0.03125 L 14.90625 0.046875 L 3.5 -14.40625 L 3.5 -4.3125 C 3.5 -3.28125 3.550781 -2.519531 3.65625 -2.03125 C 3.757812 -1.550781 3.984375 -1.203125 4.328125 -0.984375 C 4.679688 -0.765625 5.253906 -0.613281 6.046875 -0.53125 L 6.046875 0 C 5.359375 -0.0507812 4.410156 -0.078125 3.203125 -0.078125 C 2.242188 -0.078125 1.484375 -0.0507812 0.921875 0 L 0.921875 -0.53125 C 1.492188 -0.613281 1.914062 -0.757812 2.1875 -0.96875 C 2.46875 -1.175781 2.65625 -1.507812 2.75 -1.96875 C 2.84375 -2.425781 2.890625 -3.101562 2.890625 -4 L 2.890625 -15.828125 C 2.890625 -16.492188 2.84375 -16.972656 2.75 -17.265625 C 2.65625 -17.566406 2.46875 -17.769531 2.1875 -17.875 C 1.914062 -17.988281 1.492188 -18.0625 0.921875 -18.09375 L 0.921875 -18.625 C 1.484375 -18.570312 2.242188 -18.546875 3.203125 -18.546875 C 4.078125 -18.546875 4.832031 -18.570312 5.46875 -18.625 L 15.640625 -6.078125 L 15.640625 -14.3125 C 15.640625 -15.34375 15.585938 -16.097656 15.484375 -16.578125 C 15.378906 -17.054688 15.148438 -17.40625 14.796875 -17.625 C 14.453125 -17.84375 13.882812 -18 13.09375 -18.09375 L 13.09375 -18.625 C 13.78125 -18.570312 14.726562 -18.546875 15.9375 -18.546875 C 16.914062 -18.546875 17.675781 -18.570312 18.21875 -18.625 Z M 18.21875 -18.09375 "/></g></g></g><g fill="#a6a6a6" fill-opacity="0.4"><g transform="translate(65.845422, 36.695679)"><g><path d="M 10.65625 -18.984375 C 11.738281 -18.984375 12.648438 -18.832031 13.390625 -18.53125 C 14.140625 -18.238281 14.875 -17.820312 15.59375 -17.28125 C 15.800781 -17.125 15.976562 -17.046875 16.125 -17.046875 C 16.300781 -17.046875 16.441406 -17.171875 16.546875 -17.421875 C 16.648438 -17.671875 16.726562 -18.070312 16.78125 -18.625 L 17.375 -18.625 C 17.3125 -17.425781 17.28125 -15.300781 17.28125 -12.25 L 16.671875 -12.25 C 16.535156 -13.445312 16.328125 -14.410156 16.046875 -15.140625 C 15.773438 -15.878906 15.328125 -16.503906 14.703125 -17.015625 C 14.273438 -17.421875 13.753906 -17.734375 13.140625 -17.953125 C 12.535156 -18.179688 11.90625 -18.296875 11.25 -18.296875 C 10.03125 -18.296875 9.007812 -17.878906 8.1875 -17.046875 C 7.375 -16.210938 6.773438 -15.113281 6.390625 -13.75 C 6.003906 -12.382812 5.8125 -10.882812 5.8125 -9.25 C 5.8125 -3.1875 7.492188 -0.15625 10.859375 -0.15625 C 11.628906 -0.15625 12.253906 -0.332031 12.734375 -0.6875 C 12.953125 -0.84375 13.109375 -1.023438 13.203125 -1.234375 C 13.304688 -1.441406 13.359375 -1.710938 13.359375 -2.046875 L 13.359375 -4.625 C 13.359375 -5.445312 13.285156 -6.046875 13.140625 -6.421875 C 13.003906 -6.804688 12.753906 -7.066406 12.390625 -7.203125 C 12.035156 -7.347656 11.472656 -7.4375 10.703125 -7.46875 L 10.703125 -8 C 11.785156 -7.945312 13.285156 -7.921875 15.203125 -7.921875 C 16.765625 -7.921875 17.9375 -7.945312 18.71875 -8 L 18.71875 -7.46875 C 18.375 -7.4375 18.117188 -7.363281 17.953125 -7.25 C 17.796875 -7.144531 17.6875 -6.941406 17.625 -6.640625 C 17.570312 -6.347656 17.546875 -5.867188 17.546875 -5.203125 L 17.546875 0 L 17.015625 0 C 16.992188 -0.363281 16.914062 -0.703125 16.78125 -1.015625 C 16.65625 -1.335938 16.476562 -1.5 16.25 -1.5 C 15.945312 -1.5 15.472656 -1.316406 14.828125 -0.953125 C 13.304688 -0.0664062 11.867188 0.375 10.515625 0.375 C 7.484375 0.375 5.160156 -0.453125 3.546875 -2.109375 C 1.929688 -3.773438 1.125 -6.101562 1.125 -9.09375 C 1.125 -11.0625 1.53125 -12.789062 2.34375 -14.28125 C 3.164062 -15.769531 4.296875 -16.925781 5.734375 -17.75 C 7.171875 -18.570312 8.8125 -18.984375 10.65625 -18.984375 Z M 10.65625 -18.984375 "/></g></g></g><g fill="#a6a6a6" fill-opacity="0.4"><g transform="translate(85.17922, 36.695679)"><g><path d="M 17.640625 -18.09375 C 17.066406 -18 16.644531 -17.847656 16.375 -17.640625 C 16.101562 -17.429688 15.914062 -17.097656 15.8125 -16.640625 C 15.71875 -16.191406 15.671875 -15.519531 15.671875 -14.625 L 15.671875 -7.65625 C 15.671875 -5.144531 15.3125 -3.285156 14.59375 -2.078125 C 14.125 -1.304688 13.441406 -0.703125 12.546875 -0.265625 C 11.648438 0.160156 10.550781 0.375 9.25 0.375 C 7.21875 0.375 5.640625 -0.0664062 4.515625 -0.953125 C 3.710938 -1.597656 3.171875 -2.414062 2.890625 -3.40625 C 2.609375 -4.394531 2.46875 -5.785156 2.46875 -7.578125 L 2.46875 -15.828125 C 2.46875 -16.492188 2.421875 -16.972656 2.328125 -17.265625 C 2.234375 -17.566406 2.050781 -17.769531 1.78125 -17.875 C 1.507812 -17.988281 1.082031 -18.0625 0.5 -18.09375 L 0.5 -18.625 C 1.394531 -18.570312 2.765625 -18.546875 4.609375 -18.546875 C 6.429688 -18.546875 7.820312 -18.570312 8.78125 -18.625 L 8.78125 -18.09375 C 8.15625 -18.0625 7.695312 -17.988281 7.40625 -17.875 C 7.113281 -17.769531 6.914062 -17.566406 6.8125 -17.265625 C 6.707031 -16.972656 6.65625 -16.492188 6.65625 -15.828125 L 6.65625 -5.921875 C 6.65625 -4.078125 6.921875 -2.71875 7.453125 -1.84375 C 7.984375 -0.976562 8.925781 -0.546875 10.28125 -0.546875 C 12.03125 -0.546875 13.265625 -1.140625 13.984375 -2.328125 C 14.703125 -3.515625 15.0625 -5.191406 15.0625 -7.359375 L 15.0625 -14.3125 C 15.0625 -15.320312 15 -16.070312 14.875 -16.5625 C 14.757812 -17.050781 14.523438 -17.40625 14.171875 -17.625 C 13.816406 -17.84375 13.265625 -18 12.515625 -18.09375 L 12.515625 -18.625 C 13.179688 -18.570312 14.128906 -18.546875 15.359375 -18.546875 C 16.335938 -18.546875 17.097656 -18.570312 17.640625 -18.625 Z M 17.640625 -18.09375 "/></g></g></g><g fill="#a6a6a6" fill-opacity="0.4"><g transform="translate(103.303003, 36.695679)"><g><path d="M 18.21875 -18.09375 C 17.644531 -18 17.222656 -17.847656 16.953125 -17.640625 C 16.679688 -17.429688 16.492188 -17.097656 16.390625 -16.640625 C 16.296875 -16.191406 16.25 -15.519531 16.25 -14.625 L 16.25 0.046875 L 15.625 0.03125 L 14.90625 0.046875 L 3.5 -14.40625 L 3.5 -4.3125 C 3.5 -3.28125 3.550781 -2.519531 3.65625 -2.03125 C 3.757812 -1.550781 3.984375 -1.203125 4.328125 -0.984375 C 4.679688 -0.765625 5.253906 -0.613281 6.046875 -0.53125 L 6.046875 0 C 5.359375 -0.0507812 4.410156 -0.078125 3.203125 -0.078125 C 2.242188 -0.078125 1.484375 -0.0507812 0.921875 0 L 0.921875 -0.53125 C 1.492188 -0.613281 1.914062 -0.757812 2.1875 -0.96875 C 2.46875 -1.175781 2.65625 -1.507812 2.75 -1.96875 C 2.84375 -2.425781 2.890625 -3.101562 2.890625 -4 L 2.890625 -15.828125 C 2.890625 -16.492188 2.84375 -16.972656 2.75 -17.265625 C 2.65625 -17.566406 2.46875 -17.769531 2.1875 -17.875 C 1.914062 -17.988281 1.492188 -18.0625 0.921875 -18.09375 L 0.921875 -18.625 C 1.484375 -18.570312 2.242188 -18.546875 3.203125 -18.546875 C 4.078125 -18.546875 4.832031 -18.570312 5.46875 -18.625 L 15.640625 -6.078125 L 15.640625 -14.3125 C 15.640625 -15.34375 15.585938 -16.097656 15.484375 -16.578125 C 15.378906 -17.054688 15.148438 -17.40625 14.796875 -17.625 C 14.453125 -17.84375 13.882812 -18 13.09375 -18.09375 L 13.09375 -18.625 C 13.78125 -18.570312 14.726562 -18.546875 15.9375 -18.546875 C 16.914062 -18.546875 17.675781 -18.570312 18.21875 -18.625 Z M 18.21875 -18.09375 "/></g></g></g><g fill="#a6a6a6" fill-opacity="0.4"><g transform="translate(122.294828, 36.695679)"><g><path d="M 9.015625 -18.625 C 12.429688 -18.625 14.988281 -17.847656 16.6875 -16.296875 C 18.394531 -14.742188 19.25 -12.484375 19.25 -9.515625 C 19.25 -7.609375 18.832031 -5.9375 18 -4.5 C 17.164062 -3.070312 15.960938 -1.960938 14.390625 -1.171875 C 12.828125 -0.390625 10.957031 0 8.78125 0 L 7.15625 -0.03125 C 6.132812 -0.0625 5.394531 -0.078125 4.9375 -0.078125 C 3.132812 -0.078125 1.785156 -0.0507812 0.890625 0 L 0.890625 -0.53125 C 1.472656 -0.5625 1.898438 -0.628906 2.171875 -0.734375 C 2.441406 -0.835938 2.625 -1.035156 2.71875 -1.328125 C 2.8125 -1.628906 2.859375 -2.113281 2.859375 -2.78125 L 2.859375 -15.828125 C 2.859375 -16.492188 2.8125 -16.972656 2.71875 -17.265625 C 2.625 -17.566406 2.441406 -17.769531 2.171875 -17.875 C 1.898438 -17.988281 1.472656 -18.0625 0.890625 -18.09375 L 0.890625 -18.625 C 1.628906 -18.570312 2.691406 -18.546875 4.078125 -18.546875 L 4.890625 -18.546875 L 5.9375 -18.5625 C 7.375 -18.601562 8.398438 -18.625 9.015625 -18.625 Z M 9 -18.140625 C 8.445312 -18.140625 8.035156 -18.078125 7.765625 -17.953125 C 7.492188 -17.835938 7.304688 -17.617188 7.203125 -17.296875 C 7.097656 -16.984375 7.046875 -16.515625 7.046875 -15.890625 L 7.046875 -2.734375 C 7.046875 -2.097656 7.097656 -1.625 7.203125 -1.3125 C 7.304688 -1 7.492188 -0.78125 7.765625 -0.65625 C 8.035156 -0.53125 8.453125 -0.46875 9.015625 -0.46875 C 11.140625 -0.46875 12.648438 -1.207031 13.546875 -2.6875 C 14.441406 -4.175781 14.890625 -6.421875 14.890625 -9.421875 C 14.890625 -12.410156 14.425781 -14.609375 13.5 -16.015625 C 12.582031 -17.429688 11.082031 -18.140625 9 -18.140625 Z M 9 -18.140625 "/></g></g></g><g fill="#a6a6a6" fill-opacity="0.4"><g transform="translate(142.707105, 36.695679)"><g><path d="M 16.0625 -2.203125 C 16.289062 -1.628906 16.550781 -1.207031 16.84375 -0.9375 C 17.144531 -0.675781 17.4375 -0.539062 17.71875 -0.53125 L 17.71875 0 C 16.664062 -0.0507812 15.335938 -0.078125 13.734375 -0.078125 C 11.941406 -0.078125 10.609375 -0.0507812 9.734375 0 L 9.734375 -0.53125 C 10.398438 -0.5625 10.875 -0.640625 11.15625 -0.765625 C 11.4375 -0.898438 11.578125 -1.132812 11.578125 -1.46875 C 11.578125 -1.789062 11.46875 -2.210938 11.25 -2.734375 L 9.671875 -7.046875 L 3.9375 -7.046875 L 3.265625 -5.234375 C 2.773438 -3.972656 2.53125 -3 2.53125 -2.3125 C 2.53125 -1.664062 2.722656 -1.210938 3.109375 -0.953125 C 3.503906 -0.703125 4.085938 -0.5625 4.859375 -0.53125 L 4.859375 0 C 3.671875 -0.0507812 2.585938 -0.078125 1.609375 -0.078125 C 0.796875 -0.078125 0.128906 -0.0507812 -0.390625 0 L -0.390625 -0.53125 C 0.460938 -0.6875 1.210938 -1.601562 1.859375 -3.28125 L 7.859375 -18.671875 C 8.054688 -18.648438 8.363281 -18.640625 8.78125 -18.640625 C 9.207031 -18.640625 9.503906 -18.648438 9.671875 -18.671875 Z M 9.5 -7.578125 L 6.890625 -14.671875 L 4.15625 -7.578125 Z M 9.5 -7.578125 "/></g></g></g><g fill="#a6a6a6" fill-opacity="0.4"><g transform="translate(160.252188, 36.695679)"><g><path d="M 14.234375 -18.5625 C 15.035156 -18.5625 15.695312 -18.585938 16.21875 -18.640625 L 16.21875 -18.125 C 15.414062 -17.789062 14.578125 -16.769531 13.703125 -15.0625 L 10.59375 -8.921875 L 10.59375 -2.78125 C 10.59375 -2.113281 10.640625 -1.628906 10.734375 -1.328125 C 10.835938 -1.035156 11.019531 -0.835938 11.28125 -0.734375 C 11.539062 -0.628906 11.96875 -0.5625 12.5625 -0.53125 L 12.5625 0 C 11.625 -0.0507812 10.273438 -0.078125 8.515625 -0.078125 C 6.640625 -0.078125 5.28125 -0.0507812 4.4375 0 L 4.4375 -0.53125 C 5.019531 -0.5625 5.445312 -0.628906 5.71875 -0.734375 C 5.988281 -0.835938 6.171875 -1.035156 6.265625 -1.328125 C 6.367188 -1.628906 6.421875 -2.113281 6.421875 -2.78125 L 6.421875 -7.234375 L 1.34375 -16.625 C 0.800781 -17.601562 0.289062 -18.09375 -0.1875 -18.09375 L -0.1875 -18.640625 C 0.582031 -18.554688 1.617188 -18.515625 2.921875 -18.515625 C 4.546875 -18.515625 6.191406 -18.554688 7.859375 -18.640625 L 7.859375 -18.09375 C 7.242188 -18.09375 6.753906 -18.035156 6.390625 -17.921875 C 6.035156 -17.804688 5.859375 -17.597656 5.859375 -17.296875 C 5.859375 -17.140625 5.921875 -16.945312 6.046875 -16.71875 L 10.046875 -9.015625 L 12.09375 -13.125 C 12.78125 -14.507812 13.125 -15.597656 13.125 -16.390625 C 13.125 -16.984375 12.929688 -17.410156 12.546875 -17.671875 C 12.171875 -17.929688 11.632812 -18.082031 10.9375 -18.125 L 10.9375 -18.640625 C 12.132812 -18.585938 13.234375 -18.5625 14.234375 -18.5625 Z M 14.234375 -18.5625 "/></g></g></g><g fill="#ffffff" fill-opacity="1"><g transform="translate(9.022647, 35.53317)"><g><path d="M 10.4375 -18.984375 C 11.488281 -18.984375 12.382812 -18.832031 13.125 -18.53125 C 13.863281 -18.238281 14.582031 -17.820312 15.28125 -17.28125 C 15.46875 -17.125 15.632812 -17.046875 15.78125 -17.046875 C 16.125 -17.046875 16.351562 -17.570312 16.46875 -18.625 L 17.0625 -18.625 C 17 -17.425781 16.96875 -15.300781 16.96875 -12.25 L 16.359375 -12.25 C 16.203125 -13.550781 15.988281 -14.539062 15.71875 -15.21875 C 15.457031 -15.90625 15.015625 -16.503906 14.390625 -17.015625 C 13.953125 -17.429688 13.441406 -17.75 12.859375 -17.96875 C 12.273438 -18.1875 11.671875 -18.296875 11.046875 -18.296875 C 9.273438 -18.296875 7.957031 -17.429688 7.09375 -15.703125 C 6.238281 -13.984375 5.8125 -11.832031 5.8125 -9.25 C 5.8125 -6.695312 6.257812 -4.5625 7.15625 -2.84375 C 8.050781 -1.125 9.382812 -0.265625 11.15625 -0.265625 C 11.75 -0.265625 12.335938 -0.375 12.921875 -0.59375 C 13.515625 -0.8125 14.007812 -1.128906 14.40625 -1.546875 C 15.0625 -2.035156 15.515625 -2.648438 15.765625 -3.390625 C 16.015625 -4.128906 16.210938 -5.207031 16.359375 -6.625 L 16.96875 -6.625 C 16.96875 -3.445312 17 -1.238281 17.0625 0 L 16.46875 0 C 16.414062 -0.5625 16.335938 -0.957031 16.234375 -1.1875 C 16.140625 -1.425781 16.003906 -1.546875 15.828125 -1.546875 C 15.691406 -1.546875 15.507812 -1.476562 15.28125 -1.34375 C 14.488281 -0.78125 13.734375 -0.351562 13.015625 -0.0625 C 12.296875 0.226562 11.425781 0.375 10.40625 0.375 C 8.550781 0.375 6.925781 0 5.53125 -0.75 C 4.132812 -1.507812 3.050781 -2.601562 2.28125 -4.03125 C 1.507812 -5.46875 1.125 -7.175781 1.125 -9.15625 C 1.125 -11.082031 1.519531 -12.789062 2.3125 -14.28125 C 3.101562 -15.769531 4.203125 -16.925781 5.609375 -17.75 C 7.023438 -18.570312 8.632812 -18.984375 10.4375 -18.984375 Z M 10.4375 -18.984375 "/></g></g></g><g fill="#ffffff" fill-opacity="1"><g transform="translate(27.567305, 35.53317)"><g><path d="M 17.640625 -18.09375 C 17.066406 -18 16.644531 -17.847656 16.375 -17.640625 C 16.101562 -17.429688 15.914062 -17.097656 15.8125 -16.640625 C 15.71875 -16.191406 15.671875 -15.519531 15.671875 -14.625 L 15.671875 -7.65625 C 15.671875 -5.144531 15.3125 -3.285156 14.59375 -2.078125 C 14.125 -1.304688 13.441406 -0.703125 12.546875 -0.265625 C 11.648438 0.160156 10.550781 0.375 9.25 0.375 C 7.21875 0.375 5.640625 -0.0664062 4.515625 -0.953125 C 3.710938 -1.597656 3.171875 -2.414062 2.890625 -3.40625 C 2.609375 -4.394531 2.46875 -5.785156 2.46875 -7.578125 L 2.46875 -15.828125 C 2.46875 -16.492188 2.421875 -16.972656 2.328125 -17.265625 C 2.234375 -17.566406 2.050781 -17.769531 1.78125 -17.875 C 1.507812 -17.988281 1.082031 -18.0625 0.5 -18.09375 L 0.5 -18.625 C 1.394531 -18.570312 2.765625 -18.546875 4.609375 -18.546875 C 6.429688 -18.546875 7.820312 -18.570312 8.78125 -18.625 L 8.78125 -18.09375 C 8.15625 -18.0625 7.695312 -17.988281 7.40625 -17.875 C 7.113281 -17.769531 6.914062 -17.566406 6.8125 -17.265625 C 6.707031 -16.972656 6.65625 -16.492188 6.65625 -15.828125 L 6.65625 -5.921875 C 6.65625 -4.078125 6.921875 -2.71875 7.453125 -1.84375 C 7.984375 -0.976562 8.925781 -0.546875 10.28125 -0.546875 C 12.03125 -0.546875 13.265625 -1.140625 13.984375 -2.328125 C 14.703125 -3.515625 15.0625 -5.191406 15.0625 -7.359375 L 15.0625 -14.3125 C 15.0625 -15.320312 15 -16.070312 14.875 -16.5625 C 14.757812 -17.050781 14.523438 -17.40625 14.171875 -17.625 C 13.816406 -17.84375 13.265625 -18 12.515625 -18.09375 L 12.515625 -18.625 C 13.179688 -18.570312 14.128906 -18.546875 15.359375 -18.546875 C 16.335938 -18.546875 17.097656 -18.570312 17.640625 -18.625 Z M 17.640625 -18.09375 "/></g></g></g><g fill="#ffffff" fill-opacity="1"><g transform="translate(45.691089, 35.53317)"><g><path d="M 18.21875 -18.09375 C 17.644531 -18 17.222656 -17.847656 16.953125 -17.640625 C 16.679688 -17.429688 16.492188 -17.097656 16.390625 -16.640625 C 16.296875 -16.191406 16.25 -15.519531 16.25 -14.625 L 16.25 0.046875 L 15.625 0.03125 L 14.90625 0.046875 L 3.5 -14.40625 L 3.5 -4.3125 C 3.5 -3.28125 3.550781 -2.519531 3.65625 -2.03125 C 3.757812 -1.550781 3.984375 -1.203125 4.328125 -0.984375 C 4.679688 -0.765625 5.253906 -0.613281 6.046875 -0.53125 L 6.046875 0 C 5.359375 -0.0507812 4.410156 -0.078125 3.203125 -0.078125 C 2.242188 -0.078125 1.484375 -0.0507812 0.921875 0 L 0.921875 -0.53125 C 1.492188 -0.613281 1.914062 -0.757812 2.1875 -0.96875 C 2.46875 -1.175781 2.65625 -1.507812 2.75 -1.96875 C 2.84375 -2.425781 2.890625 -3.101562 2.890625 -4 L 2.890625 -15.828125 C 2.890625 -16.492188 2.84375 -16.972656 2.75 -17.265625 C 2.65625 -17.566406 2.46875 -17.769531 2.1875 -17.875 C 1.914062 -17.988281 1.492188 -18.0625 0.921875 -18.09375 L 0.921875 -18.625 C 1.484375 -18.570312 2.242188 -18.546875 3.203125 -18.546875 C 4.078125 -18.546875 4.832031 -18.570312 5.46875 -18.625 L 15.640625 -6.078125 L 15.640625 -14.3125 C 15.640625 -15.34375 15.585938 -16.097656 15.484375 -16.578125 C 15.378906 -17.054688 15.148438 -17.40625 14.796875 -17.625 C 14.453125 -17.84375 13.882812 -18 13.09375 -18.09375 L 13.09375 -18.625 C 13.78125 -18.570312 14.726562 -18.546875 15.9375 -18.546875 C 16.914062 -18.546875 17.675781 -18.570312 18.21875 -18.625 Z M 18.21875 -18.09375 "/></g></g></g><g fill="#ffffff" fill-opacity="1"><g transform="translate(64.682914, 35.53317)"><g><path d="M 10.65625 -18.984375 C 11.738281 -18.984375 12.648438 -18.832031 13.390625 -18.53125 C 14.140625 -18.238281 14.875 -17.820312 15.59375 -17.28125 C 15.800781 -17.125 15.976562 -17.046875 16.125 -17.046875 C 16.300781 -17.046875 16.441406 -17.171875 16.546875 -17.421875 C 16.648438 -17.671875 16.726562 -18.070312 16.78125 -18.625 L 17.375 -18.625 C 17.3125 -17.425781 17.28125 -15.300781 17.28125 -12.25 L 16.671875 -12.25 C 16.535156 -13.445312 16.328125 -14.410156 16.046875 -15.140625 C 15.773438 -15.878906 15.328125 -16.503906 14.703125 -17.015625 C 14.273438 -17.421875 13.753906 -17.734375 13.140625 -17.953125 C 12.535156 -18.179688 11.90625 -18.296875 11.25 -18.296875 C 10.03125 -18.296875 9.007812 -17.878906 8.1875 -17.046875 C 7.375 -16.210938 6.773438 -15.113281 6.390625 -13.75 C 6.003906 -12.382812 5.8125 -10.882812 5.8125 -9.25 C 5.8125 -3.1875 7.492188 -0.15625 10.859375 -0.15625 C 11.628906 -0.15625 12.253906 -0.332031 12.734375 -0.6875 C 12.953125 -0.84375 13.109375 -1.023438 13.203125 -1.234375 C 13.304688 -1.441406 13.359375 -1.710938 13.359375 -2.046875 L 13.359375 -4.625 C 13.359375 -5.445312 13.285156 -6.046875 13.140625 -6.421875 C 13.003906 -6.804688 12.753906 -7.066406 12.390625 -7.203125 C 12.035156 -7.347656 11.472656 -7.4375 10.703125 -7.46875 L 10.703125 -8 C 11.785156 -7.945312 13.285156 -7.921875 15.203125 -7.921875 C 16.765625 -7.921875 17.9375 -7.945312 18.71875 -8 L 18.71875 -7.46875 C 18.375 -7.4375 18.117188 -7.363281 17.953125 -7.25 C 17.796875 -7.144531 17.6875 -6.941406 17.625 -6.640625 C 17.570312 -6.347656 17.546875 -5.867188 17.546875 -5.203125 L 17.546875 0 L 17.015625 0 C 16.992188 -0.363281 16.914062 -0.703125 16.78125 -1.015625 C 16.65625 -1.335938 16.476562 -1.5 16.25 -1.5 C 15.945312 -1.5 15.472656 -1.316406 14.828125 -0.953125 C 13.304688 -0.0664062 11.867188 0.375 10.515625 0.375 C 7.484375 0.375 5.160156 -0.453125 3.546875 -2.109375 C 1.929688 -3.773438 1.125 -6.101562 1.125 -9.09375 C 1.125 -11.0625 1.53125 -12.789062 2.34375 -14.28125 C 3.164062 -15.769531 4.296875 -16.925781 5.734375 -17.75 C 7.171875 -18.570312 8.8125 -18.984375 10.65625 -18.984375 Z M 10.65625 -18.984375 "/></g></g></g><g fill="#ffffff" fill-opacity="1"><g transform="translate(84.016712, 35.53317)"><g><path d="M 17.640625 -18.09375 C 17.066406 -18 16.644531 -17.847656 16.375 -17.640625 C 16.101562 -17.429688 15.914062 -17.097656 15.8125 -16.640625 C 15.71875 -16.191406 15.671875 -15.519531 15.671875 -14.625 L 15.671875 -7.65625 C 15.671875 -5.144531 15.3125 -3.285156 14.59375 -2.078125 C 14.125 -1.304688 13.441406 -0.703125 12.546875 -0.265625 C 11.648438 0.160156 10.550781 0.375 9.25 0.375 C 7.21875 0.375 5.640625 -0.0664062 4.515625 -0.953125 C 3.710938 -1.597656 3.171875 -2.414062 2.890625 -3.40625 C 2.609375 -4.394531 2.46875 -5.785156 2.46875 -7.578125 L 2.46875 -15.828125 C 2.46875 -16.492188 2.421875 -16.972656 2.328125 -17.265625 C 2.234375 -17.566406 2.050781 -17.769531 1.78125 -17.875 C 1.507812 -17.988281 1.082031 -18.0625 0.5 -18.09375 L 0.5 -18.625 C 1.394531 -18.570312 2.765625 -18.546875 4.609375 -18.546875 C 6.429688 -18.546875 7.820312 -18.570312 8.78125 -18.625 L 8.78125 -18.09375 C 8.15625 -18.0625 7.695312 -17.988281 7.40625 -17.875 C 7.113281 -17.769531 6.914062 -17.566406 6.8125 -17.265625 C 6.707031 -16.972656 6.65625 -16.492188 6.65625 -15.828125 L 6.65625 -5.921875 C 6.65625 -4.078125 6.921875 -2.71875 7.453125 -1.84375 C 7.984375 -0.976562 8.925781 -0.546875 10.28125 -0.546875 C 12.03125 -0.546875 13.265625 -1.140625 13.984375 -2.328125 C 14.703125 -3.515625 15.0625 -5.191406 15.0625 -7.359375 L 15.0625 -14.3125 C 15.0625 -15.320312 15 -16.070312 14.875 -16.5625 C 14.757812 -17.050781 14.523438 -17.40625 14.171875 -17.625 C 13.816406 -17.84375 13.265625 -18 12.515625 -18.09375 L 12.515625 -18.625 C 13.179688 -18.570312 14.128906 -18.546875 15.359375 -18.546875 C 16.335938 -18.546875 17.097656 -18.570312 17.640625 -18.625 Z M 17.640625 -18.09375 "/></g></g></g><g fill="#ffffff" fill-opacity="1"><g transform="translate(102.140495, 35.53317)"><g><path d="M 18.21875 -18.09375 C 17.644531 -18 17.222656 -17.847656 16.953125 -17.640625 C 16.679688 -17.429688 16.492188 -17.097656 16.390625 -16.640625 C 16.296875 -16.191406 16.25 -15.519531 16.25 -14.625 L 16.25 0.046875 L 15.625 0.03125 L 14.90625 0.046875 L 3.5 -14.40625 L 3.5 -4.3125 C 3.5 -3.28125 3.550781 -2.519531 3.65625 -2.03125 C 3.757812 -1.550781 3.984375 -1.203125 4.328125 -0.984375 C 4.679688 -0.765625 5.253906 -0.613281 6.046875 -0.53125 L 6.046875 0 C 5.359375 -0.0507812 4.410156 -0.078125 3.203125 -0.078125 C 2.242188 -0.078125 1.484375 -0.0507812 0.921875 0 L 0.921875 -0.53125 C 1.492188 -0.613281 1.914062 -0.757812 2.1875 -0.96875 C 2.46875 -1.175781 2.65625 -1.507812 2.75 -1.96875 C 2.84375 -2.425781 2.890625 -3.101562 2.890625 -4 L 2.890625 -15.828125 C 2.890625 -16.492188 2.84375 -16.972656 2.75 -17.265625 C 2.65625 -17.566406 2.46875 -17.769531 2.1875 -17.875 C 1.914062 -17.988281 1.492188 -18.0625 0.921875 -18.09375 L 0.921875 -18.625 C 1.484375 -18.570312 2.242188 -18.546875 3.203125 -18.546875 C 4.078125 -18.546875 4.832031 -18.570312 5.46875 -18.625 L 15.640625 -6.078125 L 15.640625 -14.3125 C 15.640625 -15.34375 15.585938 -16.097656 15.484375 -16.578125 C 15.378906 -17.054688 15.148438 -17.40625 14.796875 -17.625 C 14.453125 -17.84375 13.882812 -18 13.09375 -18.09375 L 13.09375 -18.625 C 13.78125 -18.570312 14.726562 -18.546875 15.9375 -18.546875 C 16.914062 -18.546875 17.675781 -18.570312 18.21875 -18.625 Z M 18.21875 -18.09375 "/></g></g></g><g fill="#ffffff" fill-opacity="1"><g transform="translate(121.13232, 35.53317)"><g><path d="M 9.015625 -18.625 C 12.429688 -18.625 14.988281 -17.847656 16.6875 -16.296875 C 18.394531 -14.742188 19.25 -12.484375 19.25 -9.515625 C 19.25 -7.609375 18.832031 -5.9375 18 -4.5 C 17.164062 -3.070312 15.960938 -1.960938 14.390625 -1.171875 C 12.828125 -0.390625 10.957031 0 8.78125 0 L 7.15625 -0.03125 C 6.132812 -0.0625 5.394531 -0.078125 4.9375 -0.078125 C 3.132812 -0.078125 1.785156 -0.0507812 0.890625 0 L 0.890625 -0.53125 C 1.472656 -0.5625 1.898438 -0.628906 2.171875 -0.734375 C 2.441406 -0.835938 2.625 -1.035156 2.71875 -1.328125 C 2.8125 -1.628906 2.859375 -2.113281 2.859375 -2.78125 L 2.859375 -15.828125 C 2.859375 -16.492188 2.8125 -16.972656 2.71875 -17.265625 C 2.625 -17.566406 2.441406 -17.769531 2.171875 -17.875 C 1.898438 -17.988281 1.472656 -18.0625 0.890625 -18.09375 L 0.890625 -18.625 C 1.628906 -18.570312 2.691406 -18.546875 4.078125 -18.546875 L 4.890625 -18.546875 L 5.9375 -18.5625 C 7.375 -18.601562 8.398438 -18.625 9.015625 -18.625 Z M 9 -18.140625 C 8.445312 -18.140625 8.035156 -18.078125 7.765625 -17.953125 C 7.492188 -17.835938 7.304688 -17.617188 7.203125 -17.296875 C 7.097656 -16.984375 7.046875 -16.515625 7.046875 -15.890625 L 7.046875 -2.734375 C 7.046875 -2.097656 7.097656 -1.625 7.203125 -1.3125 C 7.304688 -1 7.492188 -0.78125 7.765625 -0.65625 C 8.035156 -0.53125 8.453125 -0.46875 9.015625 -0.46875 C 11.140625 -0.46875 12.648438 -1.207031 13.546875 -2.6875 C 14.441406 -4.175781 14.890625 -6.421875 14.890625 -9.421875 C 14.890625 -12.410156 14.425781 -14.609375 13.5 -16.015625 C 12.582031 -17.429688 11.082031 -18.140625 9 -18.140625 Z M 9 -18.140625 "/></g></g></g><g fill="#ffffff" fill-opacity="1"><g transform="translate(141.544597, 35.53317)"><g><path d="M 16.0625 -2.203125 C 16.289062 -1.628906 16.550781 -1.207031 16.84375 -0.9375 C 17.144531 -0.675781 17.4375 -0.539062 17.71875 -0.53125 L 17.71875 0 C 16.664062 -0.0507812 15.335938 -0.078125 13.734375 -0.078125 C 11.941406 -0.078125 10.609375 -0.0507812 9.734375 0 L 9.734375 -0.53125 C 10.398438 -0.5625 10.875 -0.640625 11.15625 -0.765625 C 11.4375 -0.898438 11.578125 -1.132812 11.578125 -1.46875 C 11.578125 -1.789062 11.46875 -2.210938 11.25 -2.734375 L 9.671875 -7.046875 L 3.9375 -7.046875 L 3.265625 -5.234375 C 2.773438 -3.972656 2.53125 -3 2.53125 -2.3125 C 2.53125 -1.664062 2.722656 -1.210938 3.109375 -0.953125 C 3.503906 -0.703125 4.085938 -0.5625 4.859375 -0.53125 L 4.859375 0 C 3.671875 -0.0507812 2.585938 -0.078125 1.609375 -0.078125 C 0.796875 -0.078125 0.128906 -0.0507812 -0.390625 0 L -0.390625 -0.53125 C 0.460938 -0.6875 1.210938 -1.601562 1.859375 -3.28125 L 7.859375 -18.671875 C 8.054688 -18.648438 8.363281 -18.640625 8.78125 -18.640625 C 9.207031 -18.640625 9.503906 -18.648438 9.671875 -18.671875 Z M 9.5 -7.578125 L 6.890625 -14.671875 L 4.15625 -7.578125 Z M 9.5 -7.578125 "/></g></g></g><g fill="#ffffff" fill-opacity="1"><g transform="translate(159.08968, 35.53317)"><g><path d="M 14.234375 -18.5625 C 15.035156 -18.5625 15.695312 -18.585938 16.21875 -18.640625 L 16.21875 -18.125 C 15.414062 -17.789062 14.578125 -16.769531 13.703125 -15.0625 L 10.59375 -8.921875 L 10.59375 -2.78125 C 10.59375 -2.113281 10.640625 -1.628906 10.734375 -1.328125 C 10.835938 -1.035156 11.019531 -0.835938 11.28125 -0.734375 C 11.539062 -0.628906 11.96875 -0.5625 12.5625 -0.53125 L 12.5625 0 C 11.625 -0.0507812 10.273438 -0.078125 8.515625 -0.078125 C 6.640625 -0.078125 5.28125 -0.0507812 4.4375 0 L 4.4375 -0.53125 C 5.019531 -0.5625 5.445312 -0.628906 5.71875 -0.734375 C 5.988281 -0.835938 6.171875 -1.035156 6.265625 -1.328125 C 6.367188 -1.628906 6.421875 -2.113281 6.421875 -2.78125 L 6.421875 -7.234375 L 1.34375 -16.625 C 0.800781 -17.601562 0.289062 -18.09375 -0.1875 -18.09375 L -0.1875 -18.640625 C 0.582031 -18.554688 1.617188 -18.515625 2.921875 -18.515625 C 4.546875 -18.515625 6.191406 -18.554688 7.859375 -18.640625 L 7.859375 -18.09375 C 7.242188 -18.09375 6.753906 -18.035156 6.390625 -17.921875 C 6.035156 -17.804688 5.859375 -17.597656 5.859375 -17.296875 C 5.859375 -17.140625 5.921875 -16.945312 6.046875 -16.71875 L 10.046875 -9.015625 L 12.09375 -13.125 C 12.78125 -14.507812 13.125 -15.597656 13.125 -16.390625 C 13.125 -16.984375 12.929688 -17.410156 12.546875 -17.671875 C 12.171875 -17.929688 11.632812 -18.082031 10.9375 -18.125 L 10.9375 -18.640625 C 12.132812 -18.585938 13.234375 -18.5625 14.234375 -18.5625 Z M 14.234375 -18.5625 "/></g></g></g></svg>