<svg xmlns="http://www.w3.org/2000/svg" xmlns:xlink="http://www.w3.org/1999/xlink" width="246" zoomAndPan="magnify" viewBox="0 0 184.5 54.75" height="73" preserveAspectRatio="xMidYMid meet" version="1.0"><defs><g/></defs><g fill="#a6a6a6" fill-opacity="0.4"><g transform="translate(21.88336, 20.5349)"><g><path d="M 25.046875 0.15625 C 24.921875 0.15625 24.710938 0.144531 24.421875 0.125 C 24.140625 0.113281 23.84375 0.0976562 23.53125 0.078125 C 23.21875 0.0546875 22.914062 0.0351562 22.625 0.015625 C 22.34375 0.00390625 22.132812 0 22 0 L 20.40625 0 C 20.28125 0 20.070312 0.00390625 19.78125 0.015625 C 19.488281 0.0351562 19.1875 0.0546875 18.875 0.078125 C 18.570312 0.0976562 18.273438 0.113281 17.984375 0.125 C 17.691406 0.144531 17.484375 0.15625 17.359375 0.15625 L 17.28125 0.046875 L 17.359375 -0.984375 L 17.46875 -1.09375 L 17.765625 -1.09375 C 18.285156 -1.09375 18.695312 -1.175781 19 -1.34375 C 19.300781 -1.519531 19.453125 -1.867188 19.453125 -2.390625 L 18.859375 -11.296875 C 18.816406 -11.710938 18.789062 -12.070312 18.78125 -12.375 C 18.769531 -12.6875 18.726562 -13.023438 18.65625 -13.390625 C 18.550781 -13.054688 18.378906 -12.585938 18.140625 -11.984375 C 17.910156 -11.390625 17.644531 -10.707031 17.34375 -9.9375 C 17.039062 -9.164062 16.71875 -8.34375 16.375 -7.46875 C 16.03125 -6.601562 15.6875 -5.738281 15.34375 -4.875 C 15 -4.019531 14.675781 -3.195312 14.375 -2.40625 C 14.070312 -1.613281 13.8125 -0.929688 13.59375 -0.359375 L 11.375 -0.359375 L 6.609375 -13.296875 C 6.609375 -12.867188 6.585938 -12.515625 6.546875 -12.234375 C 6.515625 -11.953125 6.484375 -11.59375 6.453125 -11.15625 L 6.125 -6.6875 C 6.082031 -6.09375 6.046875 -5.597656 6.015625 -5.203125 C 5.992188 -4.816406 5.976562 -4.488281 5.96875 -4.21875 C 5.957031 -3.945312 5.953125 -3.707031 5.953125 -3.5 C 5.953125 -3.300781 5.953125 -3.101562 5.953125 -2.90625 C 5.953125 -2.382812 6.007812 -2.019531 6.125 -1.8125 C 6.25 -1.613281 6.382812 -1.460938 6.53125 -1.359375 C 6.675781 -1.210938 6.84375 -1.128906 7.03125 -1.109375 C 7.21875 -1.097656 7.457031 -1.09375 7.75 -1.09375 L 7.859375 -0.984375 L 7.9375 0.046875 L 7.890625 0.15625 C 7.765625 0.15625 7.578125 0.144531 7.328125 0.125 C 7.085938 0.113281 6.835938 0.0976562 6.578125 0.078125 C 6.328125 0.0546875 6.078125 0.0351562 5.828125 0.015625 C 5.585938 0.00390625 5.40625 0 5.28125 0 L 3.671875 0 C 3.546875 0 3.34375 0.00390625 3.0625 0.015625 C 2.78125 0.0351562 2.476562 0.0546875 2.15625 0.078125 C 1.84375 0.0976562 1.546875 0.113281 1.265625 0.125 C 0.984375 0.144531 0.78125 0.15625 0.65625 0.15625 L 0.59375 0.046875 L 0.6875 -0.984375 L 0.84375 -1.09375 C 1.113281 -1.09375 1.375 -1.101562 1.625 -1.125 C 1.882812 -1.15625 2.101562 -1.234375 2.28125 -1.359375 C 2.425781 -1.484375 2.570312 -1.644531 2.71875 -1.84375 C 2.863281 -2.050781 2.984375 -2.40625 3.078125 -2.90625 C 3.109375 -3.125 3.148438 -3.421875 3.203125 -3.796875 C 3.265625 -4.179688 3.332031 -4.828125 3.40625 -5.734375 L 3.78125 -10.71875 C 3.832031 -11.351562 3.867188 -11.882812 3.890625 -12.3125 C 3.921875 -12.75 3.941406 -13.125 3.953125 -13.4375 C 3.960938 -13.75 3.972656 -14.007812 3.984375 -14.21875 C 3.992188 -14.4375 4 -14.65625 4 -14.875 C 4 -15.40625 3.921875 -15.769531 3.765625 -15.96875 C 3.609375 -16.164062 3.457031 -16.320312 3.3125 -16.4375 C 3.15625 -16.570312 2.945312 -16.648438 2.6875 -16.671875 C 2.4375 -16.691406 2.164062 -16.703125 1.875 -16.703125 L 1.734375 -16.8125 L 1.65625 -17.84375 L 1.71875 -17.953125 C 1.84375 -17.953125 2.050781 -17.941406 2.34375 -17.921875 C 2.632812 -17.910156 2.929688 -17.894531 3.234375 -17.875 C 3.546875 -17.851562 3.84375 -17.832031 4.125 -17.8125 C 4.414062 -17.800781 4.628906 -17.796875 4.765625 -17.796875 L 6.859375 -17.796875 C 6.984375 -17.796875 7.148438 -17.800781 7.359375 -17.8125 C 7.566406 -17.832031 7.757812 -17.863281 7.9375 -17.90625 L 8.078125 -17.8125 C 8.097656 -17.5625 8.164062 -17.207031 8.28125 -16.75 C 8.394531 -16.300781 8.539062 -15.800781 8.71875 -15.25 C 8.894531 -14.707031 9.085938 -14.132812 9.296875 -13.53125 C 9.515625 -12.925781 9.734375 -12.332031 9.953125 -11.75 L 11.671875 -7.34375 C 11.867188 -6.851562 12.066406 -6.335938 12.265625 -5.796875 C 12.460938 -5.253906 12.644531 -4.738281 12.8125 -4.25 C 12.863281 -4.320312 13.003906 -4.640625 13.234375 -5.203125 C 13.472656 -5.765625 13.753906 -6.460938 14.078125 -7.296875 C 14.410156 -8.128906 14.765625 -9.046875 15.140625 -10.046875 C 15.515625 -11.054688 15.867188 -12.050781 16.203125 -13.03125 C 16.535156 -14.007812 16.820312 -14.921875 17.0625 -15.765625 C 17.3125 -16.609375 17.472656 -17.285156 17.546875 -17.796875 L 17.6875 -17.90625 C 17.832031 -17.863281 17.984375 -17.832031 18.140625 -17.8125 C 18.304688 -17.800781 18.460938 -17.796875 18.609375 -17.796875 L 20.953125 -17.796875 C 21.078125 -17.796875 21.28125 -17.800781 21.5625 -17.8125 C 21.851562 -17.832031 22.15625 -17.851562 22.46875 -17.875 C 22.78125 -17.894531 23.078125 -17.910156 23.359375 -17.921875 C 23.648438 -17.941406 23.863281 -17.953125 24 -17.953125 L 24.046875 -17.84375 L 23.96875 -16.8125 L 23.828125 -16.703125 C 23.554688 -16.703125 23.289062 -16.6875 23.03125 -16.65625 C 22.769531 -16.632812 22.554688 -16.5625 22.390625 -16.4375 C 22.242188 -16.320312 22.09375 -16.15625 21.9375 -15.9375 C 21.78125 -15.71875 21.703125 -15.363281 21.703125 -14.875 C 21.703125 -14.625 21.703125 -14.390625 21.703125 -14.171875 C 21.703125 -13.953125 21.710938 -13.695312 21.734375 -13.40625 C 21.753906 -13.113281 21.773438 -12.757812 21.796875 -12.34375 C 21.828125 -11.925781 21.867188 -11.394531 21.921875 -10.75 L 22.25 -6.828125 C 22.300781 -6.171875 22.34375 -5.640625 22.375 -5.234375 C 22.414062 -4.828125 22.453125 -4.488281 22.484375 -4.21875 C 22.515625 -3.945312 22.535156 -3.710938 22.546875 -3.515625 C 22.566406 -3.328125 22.597656 -3.125 22.640625 -2.90625 C 22.703125 -2.382812 22.804688 -2.019531 22.953125 -1.8125 C 23.097656 -1.613281 23.242188 -1.460938 23.390625 -1.359375 C 23.554688 -1.210938 23.769531 -1.128906 24.03125 -1.109375 C 24.289062 -1.097656 24.566406 -1.09375 24.859375 -1.09375 L 25 -0.984375 L 25.078125 0.046875 Z M 25.046875 0.15625 "/></g></g></g><g fill="#a6a6a6" fill-opacity="0.4"><g transform="translate(48.265742, 20.5349)"><g><path d="M 8.921875 -17.796875 C 9.171875 -17.796875 9.546875 -17.796875 10.046875 -17.796875 C 10.546875 -17.804688 11.054688 -17.820312 11.578125 -17.84375 C 12.109375 -17.863281 12.582031 -17.878906 13 -17.890625 C 13.414062 -17.898438 13.671875 -17.90625 13.765625 -17.90625 L 13.921875 -17.625 L 13.796875 -14.125 L 12.5625 -14.125 L 12.453125 -14.234375 C 12.421875 -14.578125 12.375 -14.847656 12.3125 -15.046875 C 12.25 -15.242188 12.078125 -15.382812 11.796875 -15.46875 C 11.523438 -15.5625 11.101562 -15.617188 10.53125 -15.640625 C 9.96875 -15.660156 9.175781 -15.671875 8.15625 -15.671875 L 6.609375 -15.671875 L 6.578125 -15.421875 C 6.566406 -15.171875 6.554688 -14.9375 6.546875 -14.71875 C 6.535156 -14.5 6.523438 -14.242188 6.515625 -13.953125 C 6.503906 -13.660156 6.5 -13.304688 6.5 -12.890625 C 6.5 -12.472656 6.5 -11.941406 6.5 -11.296875 L 6.5 -10.359375 C 6.9375 -10.378906 7.351562 -10.382812 7.75 -10.375 C 8.144531 -10.363281 8.515625 -10.367188 8.859375 -10.390625 C 9.210938 -10.410156 9.507812 -10.441406 9.75 -10.484375 C 10 -10.535156 10.175781 -10.613281 10.28125 -10.71875 C 10.46875 -10.894531 10.5625 -11.148438 10.5625 -11.484375 L 10.6875 -11.609375 L 11.703125 -11.671875 L 11.8125 -11.609375 C 11.769531 -11.191406 11.734375 -10.828125 11.703125 -10.515625 C 11.679688 -10.210938 11.671875 -9.863281 11.671875 -9.46875 C 11.671875 -9.03125 11.679688 -8.625 11.703125 -8.25 C 11.734375 -7.882812 11.769531 -7.484375 11.8125 -7.046875 L 11.703125 -6.984375 L 10.65625 -7.046875 L 10.5625 -7.125 C 10.5625 -7.582031 10.476562 -7.921875 10.3125 -8.140625 C 10.164062 -8.335938 9.75 -8.445312 9.0625 -8.46875 C 8.382812 -8.5 7.628906 -8.515625 6.796875 -8.515625 L 6.5 -8.515625 L 6.5 -6.28125 C 6.5 -5.757812 6.503906 -5.328125 6.515625 -4.984375 C 6.523438 -4.640625 6.535156 -4.34375 6.546875 -4.09375 C 6.554688 -3.851562 6.566406 -3.625 6.578125 -3.40625 C 6.597656 -3.1875 6.617188 -2.929688 6.640625 -2.640625 C 6.660156 -2.296875 6.84375 -2.125 7.1875 -2.125 L 8.40625 -2.125 C 9.4375 -2.125 10.242188 -2.140625 10.828125 -2.171875 C 11.421875 -2.210938 11.875 -2.300781 12.1875 -2.4375 C 12.5 -2.570312 12.722656 -2.765625 12.859375 -3.015625 C 12.992188 -3.273438 13.113281 -3.617188 13.21875 -4.046875 L 13.328125 -4.15625 L 14.609375 -4.15625 L 14.09375 -0.15625 L 13.875 0.109375 C 13.78125 0.109375 13.554688 0.101562 13.203125 0.09375 C 12.847656 0.0820312 12.453125 0.0664062 12.015625 0.046875 C 11.585938 0.0351562 11.15625 0.0234375 10.71875 0.015625 C 10.28125 0.00390625 9.9375 0 9.6875 0 L 4.1875 0 C 4.0625 0 3.851562 0.00390625 3.5625 0.015625 C 3.269531 0.0351562 2.96875 0.0546875 2.65625 0.078125 C 2.351562 0.0976562 2.054688 0.113281 1.765625 0.125 C 1.472656 0.144531 1.265625 0.15625 1.140625 0.15625 L 1.09375 0.046875 L 1.171875 -0.984375 L 1.3125 -1.09375 C 1.59375 -1.09375 1.859375 -1.101562 2.109375 -1.125 C 2.367188 -1.15625 2.582031 -1.234375 2.75 -1.359375 C 2.894531 -1.484375 3.035156 -1.644531 3.171875 -1.84375 C 3.304688 -2.050781 3.390625 -2.40625 3.421875 -2.90625 C 3.421875 -3.03125 3.425781 -3.179688 3.4375 -3.359375 C 3.445312 -3.535156 3.457031 -3.75 3.46875 -4 C 3.476562 -4.25 3.484375 -4.554688 3.484375 -4.921875 C 3.484375 -5.285156 3.484375 -5.738281 3.484375 -6.28125 L 3.484375 -10.71875 C 3.484375 -11.351562 3.484375 -11.882812 3.484375 -12.3125 C 3.484375 -12.75 3.484375 -13.125 3.484375 -13.4375 C 3.484375 -13.75 3.476562 -14.007812 3.46875 -14.21875 C 3.457031 -14.4375 3.441406 -14.65625 3.421875 -14.875 C 3.390625 -15.363281 3.304688 -15.71875 3.171875 -15.9375 C 3.035156 -16.15625 2.894531 -16.320312 2.75 -16.4375 C 2.582031 -16.570312 2.367188 -16.648438 2.109375 -16.671875 C 1.859375 -16.691406 1.59375 -16.703125 1.3125 -16.703125 L 1.171875 -16.8125 L 1.09375 -17.84375 L 1.140625 -17.953125 C 1.265625 -17.953125 1.472656 -17.941406 1.765625 -17.921875 C 2.054688 -17.910156 2.367188 -17.894531 2.703125 -17.875 C 3.035156 -17.851562 3.359375 -17.832031 3.671875 -17.8125 C 3.992188 -17.800781 4.257812 -17.796875 4.46875 -17.796875 Z M 8.921875 -17.796875 "/></g></g></g><g fill="#a6a6a6" fill-opacity="0.4"><g transform="translate(64.58474, 20.5349)"><g><path d="M 8.84375 0.15625 C 8.695312 0.144531 8.488281 0.128906 8.21875 0.109375 C 7.957031 0.0859375 7.675781 0.0664062 7.375 0.046875 C 7.082031 0.0351562 6.796875 0.0234375 6.515625 0.015625 C 6.234375 0.00390625 5.992188 0 5.796875 0 L 4.1875 0 C 3.96875 0 3.710938 0.00390625 3.421875 0.015625 C 3.140625 0.0234375 2.851562 0.0351562 2.5625 0.046875 C 2.269531 0.0664062 1.988281 0.0859375 1.71875 0.109375 C 1.457031 0.128906 1.265625 0.144531 1.140625 0.15625 L 1.09375 0.046875 L 1.171875 -0.984375 L 1.3125 -1.09375 C 2 -1.09375 2.46875 -1.171875 2.71875 -1.328125 C 3.101562 -1.585938 3.335938 -2.113281 3.421875 -2.90625 C 3.441406 -3.21875 3.457031 -3.691406 3.46875 -4.328125 C 3.476562 -4.972656 3.484375 -5.625 3.484375 -6.28125 L 3.484375 -12.265625 C 3.484375 -12.898438 3.472656 -13.40625 3.453125 -13.78125 C 3.429688 -14.15625 3.40625 -14.519531 3.375 -14.875 C 3.300781 -15.363281 3.222656 -15.71875 3.140625 -15.9375 C 3.054688 -16.15625 2.9375 -16.328125 2.78125 -16.453125 C 2.632812 -16.546875 2.457031 -16.609375 2.25 -16.640625 C 2.039062 -16.679688 1.726562 -16.703125 1.3125 -16.703125 L 1.171875 -16.8125 L 1.09375 -17.84375 L 1.140625 -17.953125 C 1.609375 -17.898438 2.070312 -17.859375 2.53125 -17.828125 C 3 -17.804688 3.367188 -17.796875 3.640625 -17.796875 L 5.71875 -17.796875 C 6.132812 -17.796875 6.609375 -17.800781 7.140625 -17.8125 C 7.671875 -17.832031 8.140625 -17.84375 8.546875 -17.84375 C 10.703125 -17.84375 12.332031 -17.4375 13.4375 -16.625 C 14.539062 -15.820312 15.09375 -14.625 15.09375 -13.03125 C 15.09375 -11.882812 14.757812 -10.84375 14.09375 -9.90625 C 13.4375 -8.976562 12.457031 -8.171875 11.15625 -7.484375 C 11.769531 -6.554688 12.289062 -5.800781 12.71875 -5.21875 C 13.144531 -4.644531 13.507812 -4.179688 13.8125 -3.828125 C 14.226562 -3.335938 14.617188 -2.929688 14.984375 -2.609375 C 15.347656 -2.285156 15.707031 -2.015625 16.0625 -1.796875 C 16.414062 -1.578125 16.78125 -1.410156 17.15625 -1.296875 C 17.539062 -1.191406 17.96875 -1.125 18.4375 -1.09375 L 18.609375 -0.984375 L 18.65625 0.046875 L 18.609375 0.15625 C 17.921875 0.195312 17.320312 0.226562 16.8125 0.25 C 16.300781 0.28125 15.929688 0.296875 15.703125 0.296875 C 14.734375 0.296875 13.875 0.03125 13.125 -0.5 C 12.375 -1.039062 11.570312 -1.953125 10.71875 -3.234375 C 10.519531 -3.523438 10.304688 -3.851562 10.078125 -4.21875 C 9.847656 -4.582031 9.617188 -4.941406 9.390625 -5.296875 C 9.171875 -5.648438 8.957031 -5.988281 8.75 -6.3125 C 8.550781 -6.632812 8.390625 -6.914062 8.265625 -7.15625 L 6.5 -7.15625 C 6.5 -6.539062 6.5 -6.007812 6.5 -5.5625 C 6.5 -5.113281 6.503906 -4.726562 6.515625 -4.40625 C 6.523438 -4.082031 6.535156 -3.800781 6.546875 -3.5625 C 6.566406 -3.320312 6.585938 -3.101562 6.609375 -2.90625 C 6.679688 -2.070312 6.878906 -1.546875 7.203125 -1.328125 C 7.335938 -1.242188 7.503906 -1.179688 7.703125 -1.140625 C 7.898438 -1.109375 8.234375 -1.09375 8.703125 -1.09375 L 8.8125 -0.984375 L 8.890625 0.046875 Z M 7.890625 -9.171875 C 9.210938 -9.171875 10.25 -9.488281 11 -10.125 C 11.75 -10.757812 12.125 -11.640625 12.125 -12.765625 C 12.125 -13.773438 11.789062 -14.507812 11.125 -14.96875 C 10.457031 -15.4375 9.390625 -15.671875 7.921875 -15.671875 L 6.640625 -15.671875 C 6.585938 -14.941406 6.550781 -14.378906 6.53125 -13.984375 C 6.507812 -13.585938 6.5 -13.207031 6.5 -12.84375 L 6.5 -10.171875 C 6.5 -9.796875 6.546875 -9.535156 6.640625 -9.390625 C 6.734375 -9.242188 6.90625 -9.171875 7.15625 -9.171875 Z M 7.890625 -9.171875 "/></g></g></g><g fill="#a6a6a6" fill-opacity="0.4"><g transform="translate(83.324401, 20.5349)"><g><path d="M 14.765625 -13.796875 C 14.710938 -14.191406 14.539062 -14.53125 14.25 -14.8125 C 13.957031 -15.09375 13.597656 -15.3125 13.171875 -15.46875 C 12.753906 -15.632812 12.285156 -15.753906 11.765625 -15.828125 C 11.242188 -15.898438 10.734375 -15.9375 10.234375 -15.9375 C 8.617188 -15.9375 7.363281 -15.53125 6.46875 -14.71875 C 5.78125 -14.101562 5.28125 -13.28125 4.96875 -12.25 C 4.664062 -11.226562 4.515625 -10.117188 4.515625 -8.921875 C 4.515625 -7.773438 4.671875 -6.765625 4.984375 -5.890625 C 5.304688 -5.023438 5.742188 -4.296875 6.296875 -3.703125 C 6.847656 -3.117188 7.503906 -2.675781 8.265625 -2.375 C 9.023438 -2.082031 9.859375 -1.9375 10.765625 -1.9375 C 11.546875 -1.9375 12.445312 -2.019531 13.46875 -2.1875 C 14.5 -2.363281 15.46875 -2.695312 16.375 -3.1875 L 16.703125 -2.578125 L 16.046875 -1.390625 C 15.109375 -0.804688 14.160156 -0.378906 13.203125 -0.109375 C 12.253906 0.160156 11.28125 0.296875 10.28125 0.296875 C 8.925781 0.296875 7.691406 0.0820312 6.578125 -0.34375 C 5.472656 -0.78125 4.523438 -1.398438 3.734375 -2.203125 C 2.953125 -3.015625 2.34375 -3.976562 1.90625 -5.09375 C 1.46875 -6.21875 1.25 -7.457031 1.25 -8.8125 C 1.25 -10.082031 1.441406 -11.285156 1.828125 -12.421875 C 2.222656 -13.554688 2.804688 -14.539062 3.578125 -15.375 C 4.347656 -16.207031 5.300781 -16.867188 6.4375 -17.359375 C 7.570312 -17.847656 8.890625 -18.09375 10.390625 -18.09375 C 10.753906 -18.09375 11.179688 -18.078125 11.671875 -18.046875 C 12.160156 -18.023438 12.675781 -17.972656 13.21875 -17.890625 C 13.757812 -17.804688 14.304688 -17.6875 14.859375 -17.53125 C 15.421875 -17.375 15.953125 -17.179688 16.453125 -16.953125 L 16.546875 -16.703125 L 16.1875 -13.6875 L 14.859375 -13.6875 Z M 14.765625 -13.796875 "/></g></g></g><g fill="#a6a6a6" fill-opacity="0.4"><g transform="translate(101.683282, 20.5349)"><g><path d="M 10.5 -18.09375 L 15.171875 -5.734375 C 15.335938 -5.285156 15.484375 -4.90625 15.609375 -4.59375 C 15.742188 -4.289062 15.847656 -4.03125 15.921875 -3.8125 C 16.003906 -3.59375 16.078125 -3.414062 16.140625 -3.28125 C 16.203125 -3.144531 16.265625 -3.019531 16.328125 -2.90625 C 16.535156 -2.457031 16.753906 -2.109375 16.984375 -1.859375 C 17.210938 -1.617188 17.441406 -1.4375 17.671875 -1.3125 C 17.898438 -1.195312 18.128906 -1.128906 18.359375 -1.109375 C 18.597656 -1.097656 18.832031 -1.09375 19.0625 -1.09375 L 19.203125 -0.984375 L 19.28125 0.046875 L 19.234375 0.15625 C 19.109375 0.15625 18.914062 0.144531 18.65625 0.125 C 18.40625 0.113281 18.144531 0.0976562 17.875 0.078125 C 17.601562 0.0546875 17.34375 0.0351562 17.09375 0.015625 C 16.851562 0.00390625 16.671875 0 16.546875 0 L 14.546875 0 C 14.421875 0 14.210938 0.00390625 13.921875 0.015625 C 13.640625 0.0351562 13.335938 0.0546875 13.015625 0.078125 C 12.703125 0.0976562 12.398438 0.113281 12.109375 0.125 C 11.816406 0.144531 11.609375 0.15625 11.484375 0.15625 L 11.421875 0.046875 L 11.5 -0.984375 L 11.609375 -1.09375 C 12.085938 -1.09375 12.445312 -1.148438 12.6875 -1.265625 C 12.9375 -1.378906 13.0625 -1.703125 13.0625 -2.234375 C 13.0625 -2.523438 13.007812 -2.9375 12.90625 -3.46875 C 12.8125 -4 12.582031 -4.664062 12.21875 -5.46875 L 11.640625 -6.78125 L 6.875 -6.78125 L 6.34375 -5.46875 C 6.007812 -4.664062 5.757812 -3.984375 5.59375 -3.421875 C 5.4375 -2.859375 5.359375 -2.460938 5.359375 -2.234375 C 5.359375 -1.796875 5.445312 -1.492188 5.625 -1.328125 C 5.8125 -1.171875 6.140625 -1.09375 6.609375 -1.09375 L 6.75 -0.984375 L 6.828125 0.046875 L 6.78125 0.15625 C 6.644531 0.15625 6.441406 0.144531 6.171875 0.125 C 5.898438 0.113281 5.613281 0.0976562 5.3125 0.078125 C 5.019531 0.0546875 4.734375 0.0351562 4.453125 0.015625 C 4.179688 0.00390625 3.984375 0 3.859375 0 L 2.265625 0 C 2.128906 0 1.9375 0.00390625 1.6875 0.015625 C 1.4375 0.0351562 1.171875 0.0546875 0.890625 0.078125 C 0.617188 0.0976562 0.359375 0.113281 0.109375 0.125 C -0.128906 0.144531 -0.3125 0.15625 -0.4375 0.15625 L -0.46875 0.046875 L -0.40625 -0.984375 L -0.265625 -1.09375 C -0.0351562 -1.09375 0.191406 -1.109375 0.421875 -1.140625 C 0.660156 -1.179688 0.898438 -1.265625 1.140625 -1.390625 C 1.378906 -1.515625 1.609375 -1.691406 1.828125 -1.921875 C 2.054688 -2.148438 2.289062 -2.441406 2.53125 -2.796875 C 2.582031 -2.910156 2.660156 -3.078125 2.765625 -3.296875 C 2.878906 -3.523438 3.050781 -3.929688 3.28125 -4.515625 C 3.519531 -5.097656 3.847656 -5.921875 4.265625 -6.984375 C 4.679688 -8.054688 5.238281 -9.484375 5.9375 -11.265625 L 8.265625 -17.28125 L 10.203125 -18.09375 Z M 7.34375 -8.765625 L 10.90625 -8.765625 L 9.171875 -13.578125 Z M 7.34375 -8.765625 "/></g></g></g><g fill="#a6a6a6" fill-opacity="0.4"><g transform="translate(121.374879, 20.5349)"><g><path d="M 3.421875 -14.875 C 3.390625 -15.332031 3.3125 -15.675781 3.1875 -15.90625 C 3.0625 -16.144531 2.914062 -16.320312 2.75 -16.4375 C 2.582031 -16.570312 2.410156 -16.648438 2.234375 -16.671875 C 2.066406 -16.691406 1.757812 -16.703125 1.3125 -16.703125 L 1.171875 -16.8125 L 1.09375 -17.84375 L 1.140625 -17.953125 C 1.265625 -17.953125 1.445312 -17.941406 1.6875 -17.921875 C 1.925781 -17.910156 2.179688 -17.894531 2.453125 -17.875 C 2.722656 -17.851562 2.988281 -17.832031 3.25 -17.8125 C 3.507812 -17.800781 3.738281 -17.796875 3.9375 -17.796875 L 6.578125 -17.796875 C 6.796875 -17.796875 7.070312 -17.796875 7.40625 -17.796875 C 7.75 -17.804688 8.09375 -17.820312 8.4375 -17.84375 C 8.78125 -17.863281 9.109375 -17.878906 9.421875 -17.890625 C 9.742188 -17.898438 10.015625 -17.90625 10.234375 -17.90625 C 11.640625 -17.90625 12.898438 -17.660156 14.015625 -17.171875 C 15.140625 -16.691406 16.082031 -16.046875 16.84375 -15.234375 C 17.601562 -14.421875 18.1875 -13.46875 18.59375 -12.375 C 19 -11.289062 19.203125 -10.140625 19.203125 -8.921875 C 19.203125 -7.722656 19.003906 -6.582031 18.609375 -5.5 C 18.222656 -4.425781 17.648438 -3.476562 16.890625 -2.65625 C 16.128906 -1.832031 15.175781 -1.175781 14.03125 -0.6875 C 12.894531 -0.195312 11.570312 0.046875 10.0625 0.046875 C 9.914062 0.046875 9.691406 0.0390625 9.390625 0.03125 C 9.097656 0.03125 8.78125 0.03125 8.4375 0.03125 C 8.101562 0.03125 7.773438 0.0234375 7.453125 0.015625 C 7.140625 0.00390625 6.894531 0 6.71875 0 L 4.1875 0 C 4.0625 0 3.851562 0.00390625 3.5625 0.015625 C 3.269531 0.0351562 2.96875 0.0546875 2.65625 0.078125 C 2.351562 0.0976562 2.054688 0.113281 1.765625 0.125 C 1.472656 0.144531 1.265625 0.15625 1.140625 0.15625 L 1.09375 0.046875 L 1.171875 -0.984375 L 1.3125 -1.09375 C 1.519531 -1.09375 1.769531 -1.101562 2.0625 -1.125 C 2.351562 -1.15625 2.582031 -1.222656 2.75 -1.328125 C 2.894531 -1.441406 3.03125 -1.613281 3.15625 -1.84375 C 3.28125 -2.082031 3.367188 -2.4375 3.421875 -2.90625 C 3.421875 -3.03125 3.425781 -3.179688 3.4375 -3.359375 C 3.445312 -3.535156 3.457031 -3.75 3.46875 -4 C 3.476562 -4.25 3.484375 -4.554688 3.484375 -4.921875 C 3.484375 -5.285156 3.484375 -5.738281 3.484375 -6.28125 L 3.484375 -10.71875 C 3.484375 -10.894531 3.484375 -11.171875 3.484375 -11.546875 C 3.484375 -11.921875 3.484375 -12.316406 3.484375 -12.734375 C 3.484375 -13.148438 3.476562 -13.554688 3.46875 -13.953125 C 3.457031 -14.347656 3.441406 -14.65625 3.421875 -14.875 Z M 9.171875 -2.125 C 10.253906 -2.125 11.210938 -2.300781 12.046875 -2.65625 C 12.878906 -3.007812 13.582031 -3.492188 14.15625 -4.109375 C 14.726562 -4.722656 15.160156 -5.441406 15.453125 -6.265625 C 15.753906 -7.097656 15.90625 -7.984375 15.90625 -8.921875 C 15.90625 -9.898438 15.75 -10.800781 15.4375 -11.625 C 15.132812 -12.445312 14.6875 -13.15625 14.09375 -13.75 C 13.507812 -14.351562 12.789062 -14.820312 11.9375 -15.15625 C 11.082031 -15.5 10.113281 -15.671875 9.03125 -15.671875 L 6.640625 -15.671875 C 6.597656 -15.140625 6.570312 -14.695312 6.5625 -14.34375 C 6.5625 -13.988281 6.550781 -13.628906 6.53125 -13.265625 C 6.507812 -12.910156 6.5 -12.519531 6.5 -12.09375 C 6.5 -11.664062 6.5 -11.125 6.5 -10.46875 L 6.5 -7.09375 C 6.5 -6.007812 6.503906 -5.160156 6.515625 -4.546875 C 6.523438 -3.941406 6.546875 -3.488281 6.578125 -3.1875 C 6.640625 -2.707031 6.757812 -2.410156 6.9375 -2.296875 C 7.113281 -2.179688 7.441406 -2.125 7.921875 -2.125 Z M 9.171875 -2.125 "/></g></g></g><g fill="#a6a6a6" fill-opacity="0.4"><g transform="translate(142.53518, 20.5349)"><g><path d="M 10.03125 -18.09375 C 11.425781 -18.09375 12.664062 -17.847656 13.75 -17.359375 C 14.84375 -16.867188 15.757812 -16.203125 16.5 -15.359375 C 17.25 -14.515625 17.816406 -13.535156 18.203125 -12.421875 C 18.597656 -11.316406 18.796875 -10.160156 18.796875 -8.953125 C 18.796875 -7.753906 18.601562 -6.597656 18.21875 -5.484375 C 17.84375 -4.367188 17.273438 -3.382812 16.515625 -2.53125 C 15.765625 -1.675781 14.832031 -0.988281 13.71875 -0.46875 C 12.601562 0.0390625 11.3125 0.296875 9.84375 0.296875 C 8.425781 0.296875 7.179688 0.0507812 6.109375 -0.4375 C 5.046875 -0.925781 4.15625 -1.582031 3.4375 -2.40625 C 2.71875 -3.226562 2.175781 -4.1875 1.8125 -5.28125 C 1.457031 -6.382812 1.28125 -7.546875 1.28125 -8.765625 C 1.28125 -10.046875 1.476562 -11.253906 1.875 -12.390625 C 2.269531 -13.523438 2.835938 -14.515625 3.578125 -15.359375 C 4.328125 -16.203125 5.242188 -16.867188 6.328125 -17.359375 C 7.421875 -17.847656 8.65625 -18.09375 10.03125 -18.09375 Z M 10.015625 -1.953125 C 10.898438 -1.953125 11.691406 -2.140625 12.390625 -2.515625 C 13.085938 -2.890625 13.671875 -3.390625 14.140625 -4.015625 C 14.617188 -4.640625 14.984375 -5.375 15.234375 -6.21875 C 15.484375 -7.0625 15.609375 -7.960938 15.609375 -8.921875 C 15.609375 -9.898438 15.476562 -10.8125 15.21875 -11.65625 C 14.957031 -12.5 14.578125 -13.226562 14.078125 -13.84375 C 13.578125 -14.457031 12.972656 -14.941406 12.265625 -15.296875 C 11.554688 -15.648438 10.757812 -15.828125 9.875 -15.828125 C 9 -15.828125 8.226562 -15.65625 7.5625 -15.3125 C 6.894531 -14.96875 6.332031 -14.488281 5.875 -13.875 C 5.425781 -13.257812 5.082031 -12.53125 4.84375 -11.6875 C 4.601562 -10.84375 4.484375 -9.929688 4.484375 -8.953125 C 4.484375 -7.859375 4.617188 -6.878906 4.890625 -6.015625 C 5.160156 -5.160156 5.539062 -4.429688 6.03125 -3.828125 C 6.53125 -3.234375 7.113281 -2.769531 7.78125 -2.4375 C 8.445312 -2.113281 9.191406 -1.953125 10.015625 -1.953125 Z M 10.015625 -1.953125 "/></g></g></g><g fill="#ffffff" fill-opacity="1"><g transform="translate(20.681349, 19.332889)"><g><path d="M 25.046875 0.15625 C 24.921875 0.15625 24.710938 0.144531 24.421875 0.125 C 24.140625 0.113281 23.84375 0.0976562 23.53125 0.078125 C 23.21875 0.0546875 22.914062 0.0351562 22.625 0.015625 C 22.34375 0.00390625 22.132812 0 22 0 L 20.40625 0 C 20.28125 0 20.070312 0.00390625 19.78125 0.015625 C 19.488281 0.0351562 19.1875 0.0546875 18.875 0.078125 C 18.570312 0.0976562 18.273438 0.113281 17.984375 0.125 C 17.691406 0.144531 17.484375 0.15625 17.359375 0.15625 L 17.28125 0.046875 L 17.359375 -0.984375 L 17.46875 -1.09375 L 17.765625 -1.09375 C 18.285156 -1.09375 18.695312 -1.175781 19 -1.34375 C 19.300781 -1.519531 19.453125 -1.867188 19.453125 -2.390625 L 18.859375 -11.296875 C 18.816406 -11.710938 18.789062 -12.070312 18.78125 -12.375 C 18.769531 -12.6875 18.726562 -13.023438 18.65625 -13.390625 C 18.550781 -13.054688 18.378906 -12.585938 18.140625 -11.984375 C 17.910156 -11.390625 17.644531 -10.707031 17.34375 -9.9375 C 17.039062 -9.164062 16.71875 -8.34375 16.375 -7.46875 C 16.03125 -6.601562 15.6875 -5.738281 15.34375 -4.875 C 15 -4.019531 14.675781 -3.195312 14.375 -2.40625 C 14.070312 -1.613281 13.8125 -0.929688 13.59375 -0.359375 L 11.375 -0.359375 L 6.609375 -13.296875 C 6.609375 -12.867188 6.585938 -12.515625 6.546875 -12.234375 C 6.515625 -11.953125 6.484375 -11.59375 6.453125 -11.15625 L 6.125 -6.6875 C 6.082031 -6.09375 6.046875 -5.597656 6.015625 -5.203125 C 5.992188 -4.816406 5.976562 -4.488281 5.96875 -4.21875 C 5.957031 -3.945312 5.953125 -3.707031 5.953125 -3.5 C 5.953125 -3.300781 5.953125 -3.101562 5.953125 -2.90625 C 5.953125 -2.382812 6.007812 -2.019531 6.125 -1.8125 C 6.25 -1.613281 6.382812 -1.460938 6.53125 -1.359375 C 6.675781 -1.210938 6.84375 -1.128906 7.03125 -1.109375 C 7.21875 -1.097656 7.457031 -1.09375 7.75 -1.09375 L 7.859375 -0.984375 L 7.9375 0.046875 L 7.890625 0.15625 C 7.765625 0.15625 7.578125 0.144531 7.328125 0.125 C 7.085938 0.113281 6.835938 0.0976562 6.578125 0.078125 C 6.328125 0.0546875 6.078125 0.0351562 5.828125 0.015625 C 5.585938 0.00390625 5.40625 0 5.28125 0 L 3.671875 0 C 3.546875 0 3.34375 0.00390625 3.0625 0.015625 C 2.78125 0.0351562 2.476562 0.0546875 2.15625 0.078125 C 1.84375 0.0976562 1.546875 0.113281 1.265625 0.125 C 0.984375 0.144531 0.78125 0.15625 0.65625 0.15625 L 0.59375 0.046875 L 0.6875 -0.984375 L 0.84375 -1.09375 C 1.113281 -1.09375 1.375 -1.101562 1.625 -1.125 C 1.882812 -1.15625 2.101562 -1.234375 2.28125 -1.359375 C 2.425781 -1.484375 2.570312 -1.644531 2.71875 -1.84375 C 2.863281 -2.050781 2.984375 -2.40625 3.078125 -2.90625 C 3.109375 -3.125 3.148438 -3.421875 3.203125 -3.796875 C 3.265625 -4.179688 3.332031 -4.828125 3.40625 -5.734375 L 3.78125 -10.71875 C 3.832031 -11.351562 3.867188 -11.882812 3.890625 -12.3125 C 3.921875 -12.75 3.941406 -13.125 3.953125 -13.4375 C 3.960938 -13.75 3.972656 -14.007812 3.984375 -14.21875 C 3.992188 -14.4375 4 -14.65625 4 -14.875 C 4 -15.40625 3.921875 -15.769531 3.765625 -15.96875 C 3.609375 -16.164062 3.457031 -16.320312 3.3125 -16.4375 C 3.15625 -16.570312 2.945312 -16.648438 2.6875 -16.671875 C 2.4375 -16.691406 2.164062 -16.703125 1.875 -16.703125 L 1.734375 -16.8125 L 1.65625 -17.84375 L 1.71875 -17.953125 C 1.84375 -17.953125 2.050781 -17.941406 2.34375 -17.921875 C 2.632812 -17.910156 2.929688 -17.894531 3.234375 -17.875 C 3.546875 -17.851562 3.84375 -17.832031 4.125 -17.8125 C 4.414062 -17.800781 4.628906 -17.796875 4.765625 -17.796875 L 6.859375 -17.796875 C 6.984375 -17.796875 7.148438 -17.800781 7.359375 -17.8125 C 7.566406 -17.832031 7.757812 -17.863281 7.9375 -17.90625 L 8.078125 -17.8125 C 8.097656 -17.5625 8.164062 -17.207031 8.28125 -16.75 C 8.394531 -16.300781 8.539062 -15.800781 8.71875 -15.25 C 8.894531 -14.707031 9.085938 -14.132812 9.296875 -13.53125 C 9.515625 -12.925781 9.734375 -12.332031 9.953125 -11.75 L 11.671875 -7.34375 C 11.867188 -6.851562 12.066406 -6.335938 12.265625 -5.796875 C 12.460938 -5.253906 12.644531 -4.738281 12.8125 -4.25 C 12.863281 -4.320312 13.003906 -4.640625 13.234375 -5.203125 C 13.472656 -5.765625 13.753906 -6.460938 14.078125 -7.296875 C 14.410156 -8.128906 14.765625 -9.046875 15.140625 -10.046875 C 15.515625 -11.054688 15.867188 -12.050781 16.203125 -13.03125 C 16.535156 -14.007812 16.820312 -14.921875 17.0625 -15.765625 C 17.3125 -16.609375 17.472656 -17.285156 17.546875 -17.796875 L 17.6875 -17.90625 C 17.832031 -17.863281 17.984375 -17.832031 18.140625 -17.8125 C 18.304688 -17.800781 18.460938 -17.796875 18.609375 -17.796875 L 20.953125 -17.796875 C 21.078125 -17.796875 21.28125 -17.800781 21.5625 -17.8125 C 21.851562 -17.832031 22.15625 -17.851562 22.46875 -17.875 C 22.78125 -17.894531 23.078125 -17.910156 23.359375 -17.921875 C 23.648438 -17.941406 23.863281 -17.953125 24 -17.953125 L 24.046875 -17.84375 L 23.96875 -16.8125 L 23.828125 -16.703125 C 23.554688 -16.703125 23.289062 -16.6875 23.03125 -16.65625 C 22.769531 -16.632812 22.554688 -16.5625 22.390625 -16.4375 C 22.242188 -16.320312 22.09375 -16.15625 21.9375 -15.9375 C 21.78125 -15.71875 21.703125 -15.363281 21.703125 -14.875 C 21.703125 -14.625 21.703125 -14.390625 21.703125 -14.171875 C 21.703125 -13.953125 21.710938 -13.695312 21.734375 -13.40625 C 21.753906 -13.113281 21.773438 -12.757812 21.796875 -12.34375 C 21.828125 -11.925781 21.867188 -11.394531 21.921875 -10.75 L 22.25 -6.828125 C 22.300781 -6.171875 22.34375 -5.640625 22.375 -5.234375 C 22.414062 -4.828125 22.453125 -4.488281 22.484375 -4.21875 C 22.515625 -3.945312 22.535156 -3.710938 22.546875 -3.515625 C 22.566406 -3.328125 22.597656 -3.125 22.640625 -2.90625 C 22.703125 -2.382812 22.804688 -2.019531 22.953125 -1.8125 C 23.097656 -1.613281 23.242188 -1.460938 23.390625 -1.359375 C 23.554688 -1.210938 23.769531 -1.128906 24.03125 -1.109375 C 24.289062 -1.097656 24.566406 -1.09375 24.859375 -1.09375 L 25 -0.984375 L 25.078125 0.046875 Z M 25.046875 0.15625 "/></g></g></g><g fill="#ffffff" fill-opacity="1"><g transform="translate(47.06373, 19.332889)"><g><path d="M 8.921875 -17.796875 C 9.171875 -17.796875 9.546875 -17.796875 10.046875 -17.796875 C 10.546875 -17.804688 11.054688 -17.820312 11.578125 -17.84375 C 12.109375 -17.863281 12.582031 -17.878906 13 -17.890625 C 13.414062 -17.898438 13.671875 -17.90625 13.765625 -17.90625 L 13.921875 -17.625 L 13.796875 -14.125 L 12.5625 -14.125 L 12.453125 -14.234375 C 12.421875 -14.578125 12.375 -14.847656 12.3125 -15.046875 C 12.25 -15.242188 12.078125 -15.382812 11.796875 -15.46875 C 11.523438 -15.5625 11.101562 -15.617188 10.53125 -15.640625 C 9.96875 -15.660156 9.175781 -15.671875 8.15625 -15.671875 L 6.609375 -15.671875 L 6.578125 -15.421875 C 6.566406 -15.171875 6.554688 -14.9375 6.546875 -14.71875 C 6.535156 -14.5 6.523438 -14.242188 6.515625 -13.953125 C 6.503906 -13.660156 6.5 -13.304688 6.5 -12.890625 C 6.5 -12.472656 6.5 -11.941406 6.5 -11.296875 L 6.5 -10.359375 C 6.9375 -10.378906 7.351562 -10.382812 7.75 -10.375 C 8.144531 -10.363281 8.515625 -10.367188 8.859375 -10.390625 C 9.210938 -10.410156 9.507812 -10.441406 9.75 -10.484375 C 10 -10.535156 10.175781 -10.613281 10.28125 -10.71875 C 10.46875 -10.894531 10.5625 -11.148438 10.5625 -11.484375 L 10.6875 -11.609375 L 11.703125 -11.671875 L 11.8125 -11.609375 C 11.769531 -11.191406 11.734375 -10.828125 11.703125 -10.515625 C 11.679688 -10.210938 11.671875 -9.863281 11.671875 -9.46875 C 11.671875 -9.03125 11.679688 -8.625 11.703125 -8.25 C 11.734375 -7.882812 11.769531 -7.484375 11.8125 -7.046875 L 11.703125 -6.984375 L 10.65625 -7.046875 L 10.5625 -7.125 C 10.5625 -7.582031 10.476562 -7.921875 10.3125 -8.140625 C 10.164062 -8.335938 9.75 -8.445312 9.0625 -8.46875 C 8.382812 -8.5 7.628906 -8.515625 6.796875 -8.515625 L 6.5 -8.515625 L 6.5 -6.28125 C 6.5 -5.757812 6.503906 -5.328125 6.515625 -4.984375 C 6.523438 -4.640625 6.535156 -4.34375 6.546875 -4.09375 C 6.554688 -3.851562 6.566406 -3.625 6.578125 -3.40625 C 6.597656 -3.1875 6.617188 -2.929688 6.640625 -2.640625 C 6.660156 -2.296875 6.84375 -2.125 7.1875 -2.125 L 8.40625 -2.125 C 9.4375 -2.125 10.242188 -2.140625 10.828125 -2.171875 C 11.421875 -2.210938 11.875 -2.300781 12.1875 -2.4375 C 12.5 -2.570312 12.722656 -2.765625 12.859375 -3.015625 C 12.992188 -3.273438 13.113281 -3.617188 13.21875 -4.046875 L 13.328125 -4.15625 L 14.609375 -4.15625 L 14.09375 -0.15625 L 13.875 0.109375 C 13.78125 0.109375 13.554688 0.101562 13.203125 0.09375 C 12.847656 0.0820312 12.453125 0.0664062 12.015625 0.046875 C 11.585938 0.0351562 11.15625 0.0234375 10.71875 0.015625 C 10.28125 0.00390625 9.9375 0 9.6875 0 L 4.1875 0 C 4.0625 0 3.851562 0.00390625 3.5625 0.015625 C 3.269531 0.0351562 2.96875 0.0546875 2.65625 0.078125 C 2.351562 0.0976562 2.054688 0.113281 1.765625 0.125 C 1.472656 0.144531 1.265625 0.15625 1.140625 0.15625 L 1.09375 0.046875 L 1.171875 -0.984375 L 1.3125 -1.09375 C 1.59375 -1.09375 1.859375 -1.101562 2.109375 -1.125 C 2.367188 -1.15625 2.582031 -1.234375 2.75 -1.359375 C 2.894531 -1.484375 3.035156 -1.644531 3.171875 -1.84375 C 3.304688 -2.050781 3.390625 -2.40625 3.421875 -2.90625 C 3.421875 -3.03125 3.425781 -3.179688 3.4375 -3.359375 C 3.445312 -3.535156 3.457031 -3.75 3.46875 -4 C 3.476562 -4.25 3.484375 -4.554688 3.484375 -4.921875 C 3.484375 -5.285156 3.484375 -5.738281 3.484375 -6.28125 L 3.484375 -10.71875 C 3.484375 -11.351562 3.484375 -11.882812 3.484375 -12.3125 C 3.484375 -12.75 3.484375 -13.125 3.484375 -13.4375 C 3.484375 -13.75 3.476562 -14.007812 3.46875 -14.21875 C 3.457031 -14.4375 3.441406 -14.65625 3.421875 -14.875 C 3.390625 -15.363281 3.304688 -15.71875 3.171875 -15.9375 C 3.035156 -16.15625 2.894531 -16.320312 2.75 -16.4375 C 2.582031 -16.570312 2.367188 -16.648438 2.109375 -16.671875 C 1.859375 -16.691406 1.59375 -16.703125 1.3125 -16.703125 L 1.171875 -16.8125 L 1.09375 -17.84375 L 1.140625 -17.953125 C 1.265625 -17.953125 1.472656 -17.941406 1.765625 -17.921875 C 2.054688 -17.910156 2.367188 -17.894531 2.703125 -17.875 C 3.035156 -17.851562 3.359375 -17.832031 3.671875 -17.8125 C 3.992188 -17.800781 4.257812 -17.796875 4.46875 -17.796875 Z M 8.921875 -17.796875 "/></g></g></g><g fill="#ffffff" fill-opacity="1"><g transform="translate(63.382729, 19.332889)"><g><path d="M 8.84375 0.15625 C 8.695312 0.144531 8.488281 0.128906 8.21875 0.109375 C 7.957031 0.0859375 7.675781 0.0664062 7.375 0.046875 C 7.082031 0.0351562 6.796875 0.0234375 6.515625 0.015625 C 6.234375 0.00390625 5.992188 0 5.796875 0 L 4.1875 0 C 3.96875 0 3.710938 0.00390625 3.421875 0.015625 C 3.140625 0.0234375 2.851562 0.0351562 2.5625 0.046875 C 2.269531 0.0664062 1.988281 0.0859375 1.71875 0.109375 C 1.457031 0.128906 1.265625 0.144531 1.140625 0.15625 L 1.09375 0.046875 L 1.171875 -0.984375 L 1.3125 -1.09375 C 2 -1.09375 2.46875 -1.171875 2.71875 -1.328125 C 3.101562 -1.585938 3.335938 -2.113281 3.421875 -2.90625 C 3.441406 -3.21875 3.457031 -3.691406 3.46875 -4.328125 C 3.476562 -4.972656 3.484375 -5.625 3.484375 -6.28125 L 3.484375 -12.265625 C 3.484375 -12.898438 3.472656 -13.40625 3.453125 -13.78125 C 3.429688 -14.15625 3.40625 -14.519531 3.375 -14.875 C 3.300781 -15.363281 3.222656 -15.71875 3.140625 -15.9375 C 3.054688 -16.15625 2.9375 -16.328125 2.78125 -16.453125 C 2.632812 -16.546875 2.457031 -16.609375 2.25 -16.640625 C 2.039062 -16.679688 1.726562 -16.703125 1.3125 -16.703125 L 1.171875 -16.8125 L 1.09375 -17.84375 L 1.140625 -17.953125 C 1.609375 -17.898438 2.070312 -17.859375 2.53125 -17.828125 C 3 -17.804688 3.367188 -17.796875 3.640625 -17.796875 L 5.71875 -17.796875 C 6.132812 -17.796875 6.609375 -17.800781 7.140625 -17.8125 C 7.671875 -17.832031 8.140625 -17.84375 8.546875 -17.84375 C 10.703125 -17.84375 12.332031 -17.4375 13.4375 -16.625 C 14.539062 -15.820312 15.09375 -14.625 15.09375 -13.03125 C 15.09375 -11.882812 14.757812 -10.84375 14.09375 -9.90625 C 13.4375 -8.976562 12.457031 -8.171875 11.15625 -7.484375 C 11.769531 -6.554688 12.289062 -5.800781 12.71875 -5.21875 C 13.144531 -4.644531 13.507812 -4.179688 13.8125 -3.828125 C 14.226562 -3.335938 14.617188 -2.929688 14.984375 -2.609375 C 15.347656 -2.285156 15.707031 -2.015625 16.0625 -1.796875 C 16.414062 -1.578125 16.78125 -1.410156 17.15625 -1.296875 C 17.539062 -1.191406 17.96875 -1.125 18.4375 -1.09375 L 18.609375 -0.984375 L 18.65625 0.046875 L 18.609375 0.15625 C 17.921875 0.195312 17.320312 0.226562 16.8125 0.25 C 16.300781 0.28125 15.929688 0.296875 15.703125 0.296875 C 14.734375 0.296875 13.875 0.03125 13.125 -0.5 C 12.375 -1.039062 11.570312 -1.953125 10.71875 -3.234375 C 10.519531 -3.523438 10.304688 -3.851562 10.078125 -4.21875 C 9.847656 -4.582031 9.617188 -4.941406 9.390625 -5.296875 C 9.171875 -5.648438 8.957031 -5.988281 8.75 -6.3125 C 8.550781 -6.632812 8.390625 -6.914062 8.265625 -7.15625 L 6.5 -7.15625 C 6.5 -6.539062 6.5 -6.007812 6.5 -5.5625 C 6.5 -5.113281 6.503906 -4.726562 6.515625 -4.40625 C 6.523438 -4.082031 6.535156 -3.800781 6.546875 -3.5625 C 6.566406 -3.320312 6.585938 -3.101562 6.609375 -2.90625 C 6.679688 -2.070312 6.878906 -1.546875 7.203125 -1.328125 C 7.335938 -1.242188 7.503906 -1.179688 7.703125 -1.140625 C 7.898438 -1.109375 8.234375 -1.09375 8.703125 -1.09375 L 8.8125 -0.984375 L 8.890625 0.046875 Z M 7.890625 -9.171875 C 9.210938 -9.171875 10.25 -9.488281 11 -10.125 C 11.75 -10.757812 12.125 -11.640625 12.125 -12.765625 C 12.125 -13.773438 11.789062 -14.507812 11.125 -14.96875 C 10.457031 -15.4375 9.390625 -15.671875 7.921875 -15.671875 L 6.640625 -15.671875 C 6.585938 -14.941406 6.550781 -14.378906 6.53125 -13.984375 C 6.507812 -13.585938 6.5 -13.207031 6.5 -12.84375 L 6.5 -10.171875 C 6.5 -9.796875 6.546875 -9.535156 6.640625 -9.390625 C 6.734375 -9.242188 6.90625 -9.171875 7.15625 -9.171875 Z M 7.890625 -9.171875 "/></g></g></g><g fill="#ffffff" fill-opacity="1"><g transform="translate(82.12239, 19.332889)"><g><path d="M 14.765625 -13.796875 C 14.710938 -14.191406 14.539062 -14.53125 14.25 -14.8125 C 13.957031 -15.09375 13.597656 -15.3125 13.171875 -15.46875 C 12.753906 -15.632812 12.285156 -15.753906 11.765625 -15.828125 C 11.242188 -15.898438 10.734375 -15.9375 10.234375 -15.9375 C 8.617188 -15.9375 7.363281 -15.53125 6.46875 -14.71875 C 5.78125 -14.101562 5.28125 -13.28125 4.96875 -12.25 C 4.664062 -11.226562 4.515625 -10.117188 4.515625 -8.921875 C 4.515625 -7.773438 4.671875 -6.765625 4.984375 -5.890625 C 5.304688 -5.023438 5.742188 -4.296875 6.296875 -3.703125 C 6.847656 -3.117188 7.503906 -2.675781 8.265625 -2.375 C 9.023438 -2.082031 9.859375 -1.9375 10.765625 -1.9375 C 11.546875 -1.9375 12.445312 -2.019531 13.46875 -2.1875 C 14.5 -2.363281 15.46875 -2.695312 16.375 -3.1875 L 16.703125 -2.578125 L 16.046875 -1.390625 C 15.109375 -0.804688 14.160156 -0.378906 13.203125 -0.109375 C 12.253906 0.160156 11.28125 0.296875 10.28125 0.296875 C 8.925781 0.296875 7.691406 0.0820312 6.578125 -0.34375 C 5.472656 -0.78125 4.523438 -1.398438 3.734375 -2.203125 C 2.953125 -3.015625 2.34375 -3.976562 1.90625 -5.09375 C 1.46875 -6.21875 1.25 -7.457031 1.25 -8.8125 C 1.25 -10.082031 1.441406 -11.285156 1.828125 -12.421875 C 2.222656 -13.554688 2.804688 -14.539062 3.578125 -15.375 C 4.347656 -16.207031 5.300781 -16.867188 6.4375 -17.359375 C 7.570312 -17.847656 8.890625 -18.09375 10.390625 -18.09375 C 10.753906 -18.09375 11.179688 -18.078125 11.671875 -18.046875 C 12.160156 -18.023438 12.675781 -17.972656 13.21875 -17.890625 C 13.757812 -17.804688 14.304688 -17.6875 14.859375 -17.53125 C 15.421875 -17.375 15.953125 -17.179688 16.453125 -16.953125 L 16.546875 -16.703125 L 16.1875 -13.6875 L 14.859375 -13.6875 Z M 14.765625 -13.796875 "/></g></g></g><g fill="#ffffff" fill-opacity="1"><g transform="translate(100.481271, 19.332889)"><g><path d="M 10.5 -18.09375 L 15.171875 -5.734375 C 15.335938 -5.285156 15.484375 -4.90625 15.609375 -4.59375 C 15.742188 -4.289062 15.847656 -4.03125 15.921875 -3.8125 C 16.003906 -3.59375 16.078125 -3.414062 16.140625 -3.28125 C 16.203125 -3.144531 16.265625 -3.019531 16.328125 -2.90625 C 16.535156 -2.457031 16.753906 -2.109375 16.984375 -1.859375 C 17.210938 -1.617188 17.441406 -1.4375 17.671875 -1.3125 C 17.898438 -1.195312 18.128906 -1.128906 18.359375 -1.109375 C 18.597656 -1.097656 18.832031 -1.09375 19.0625 -1.09375 L 19.203125 -0.984375 L 19.28125 0.046875 L 19.234375 0.15625 C 19.109375 0.15625 18.914062 0.144531 18.65625 0.125 C 18.40625 0.113281 18.144531 0.0976562 17.875 0.078125 C 17.601562 0.0546875 17.34375 0.0351562 17.09375 0.015625 C 16.851562 0.00390625 16.671875 0 16.546875 0 L 14.546875 0 C 14.421875 0 14.210938 0.00390625 13.921875 0.015625 C 13.640625 0.0351562 13.335938 0.0546875 13.015625 0.078125 C 12.703125 0.0976562 12.398438 0.113281 12.109375 0.125 C 11.816406 0.144531 11.609375 0.15625 11.484375 0.15625 L 11.421875 0.046875 L 11.5 -0.984375 L 11.609375 -1.09375 C 12.085938 -1.09375 12.445312 -1.148438 12.6875 -1.265625 C 12.9375 -1.378906 13.0625 -1.703125 13.0625 -2.234375 C 13.0625 -2.523438 13.007812 -2.9375 12.90625 -3.46875 C 12.8125 -4 12.582031 -4.664062 12.21875 -5.46875 L 11.640625 -6.78125 L 6.875 -6.78125 L 6.34375 -5.46875 C 6.007812 -4.664062 5.757812 -3.984375 5.59375 -3.421875 C 5.4375 -2.859375 5.359375 -2.460938 5.359375 -2.234375 C 5.359375 -1.796875 5.445312 -1.492188 5.625 -1.328125 C 5.8125 -1.171875 6.140625 -1.09375 6.609375 -1.09375 L 6.75 -0.984375 L 6.828125 0.046875 L 6.78125 0.15625 C 6.644531 0.15625 6.441406 0.144531 6.171875 0.125 C 5.898438 0.113281 5.613281 0.0976562 5.3125 0.078125 C 5.019531 0.0546875 4.734375 0.0351562 4.453125 0.015625 C 4.179688 0.00390625 3.984375 0 3.859375 0 L 2.265625 0 C 2.128906 0 1.9375 0.00390625 1.6875 0.015625 C 1.4375 0.0351562 1.171875 0.0546875 0.890625 0.078125 C 0.617188 0.0976562 0.359375 0.113281 0.109375 0.125 C -0.128906 0.144531 -0.3125 0.15625 -0.4375 0.15625 L -0.46875 0.046875 L -0.40625 -0.984375 L -0.265625 -1.09375 C -0.0351562 -1.09375 0.191406 -1.109375 0.421875 -1.140625 C 0.660156 -1.179688 0.898438 -1.265625 1.140625 -1.390625 C 1.378906 -1.515625 1.609375 -1.691406 1.828125 -1.921875 C 2.054688 -2.148438 2.289062 -2.441406 2.53125 -2.796875 C 2.582031 -2.910156 2.660156 -3.078125 2.765625 -3.296875 C 2.878906 -3.523438 3.050781 -3.929688 3.28125 -4.515625 C 3.519531 -5.097656 3.847656 -5.921875 4.265625 -6.984375 C 4.679688 -8.054688 5.238281 -9.484375 5.9375 -11.265625 L 8.265625 -17.28125 L 10.203125 -18.09375 Z M 7.34375 -8.765625 L 10.90625 -8.765625 L 9.171875 -13.578125 Z M 7.34375 -8.765625 "/></g></g></g><g fill="#ffffff" fill-opacity="1"><g transform="translate(120.172868, 19.332889)"><g><path d="M 3.421875 -14.875 C 3.390625 -15.332031 3.3125 -15.675781 3.1875 -15.90625 C 3.0625 -16.144531 2.914062 -16.320312 2.75 -16.4375 C 2.582031 -16.570312 2.410156 -16.648438 2.234375 -16.671875 C 2.066406 -16.691406 1.757812 -16.703125 1.3125 -16.703125 L 1.171875 -16.8125 L 1.09375 -17.84375 L 1.140625 -17.953125 C 1.265625 -17.953125 1.445312 -17.941406 1.6875 -17.921875 C 1.925781 -17.910156 2.179688 -17.894531 2.453125 -17.875 C 2.722656 -17.851562 2.988281 -17.832031 3.25 -17.8125 C 3.507812 -17.800781 3.738281 -17.796875 3.9375 -17.796875 L 6.578125 -17.796875 C 6.796875 -17.796875 7.070312 -17.796875 7.40625 -17.796875 C 7.75 -17.804688 8.09375 -17.820312 8.4375 -17.84375 C 8.78125 -17.863281 9.109375 -17.878906 9.421875 -17.890625 C 9.742188 -17.898438 10.015625 -17.90625 10.234375 -17.90625 C 11.640625 -17.90625 12.898438 -17.660156 14.015625 -17.171875 C 15.140625 -16.691406 16.082031 -16.046875 16.84375 -15.234375 C 17.601562 -14.421875 18.1875 -13.46875 18.59375 -12.375 C 19 -11.289062 19.203125 -10.140625 19.203125 -8.921875 C 19.203125 -7.722656 19.003906 -6.582031 18.609375 -5.5 C 18.222656 -4.425781 17.648438 -3.476562 16.890625 -2.65625 C 16.128906 -1.832031 15.175781 -1.175781 14.03125 -0.6875 C 12.894531 -0.195312 11.570312 0.046875 10.0625 0.046875 C 9.914062 0.046875 9.691406 0.0390625 9.390625 0.03125 C 9.097656 0.03125 8.78125 0.03125 8.4375 0.03125 C 8.101562 0.03125 7.773438 0.0234375 7.453125 0.015625 C 7.140625 0.00390625 6.894531 0 6.71875 0 L 4.1875 0 C 4.0625 0 3.851562 0.00390625 3.5625 0.015625 C 3.269531 0.0351562 2.96875 0.0546875 2.65625 0.078125 C 2.351562 0.0976562 2.054688 0.113281 1.765625 0.125 C 1.472656 0.144531 1.265625 0.15625 1.140625 0.15625 L 1.09375 0.046875 L 1.171875 -0.984375 L 1.3125 -1.09375 C 1.519531 -1.09375 1.769531 -1.101562 2.0625 -1.125 C 2.351562 -1.15625 2.582031 -1.222656 2.75 -1.328125 C 2.894531 -1.441406 3.03125 -1.613281 3.15625 -1.84375 C 3.28125 -2.082031 3.367188 -2.4375 3.421875 -2.90625 C 3.421875 -3.03125 3.425781 -3.179688 3.4375 -3.359375 C 3.445312 -3.535156 3.457031 -3.75 3.46875 -4 C 3.476562 -4.25 3.484375 -4.554688 3.484375 -4.921875 C 3.484375 -5.285156 3.484375 -5.738281 3.484375 -6.28125 L 3.484375 -10.71875 C 3.484375 -10.894531 3.484375 -11.171875 3.484375 -11.546875 C 3.484375 -11.921875 3.484375 -12.316406 3.484375 -12.734375 C 3.484375 -13.148438 3.476562 -13.554688 3.46875 -13.953125 C 3.457031 -14.347656 3.441406 -14.65625 3.421875 -14.875 Z M 9.171875 -2.125 C 10.253906 -2.125 11.210938 -2.300781 12.046875 -2.65625 C 12.878906 -3.007812 13.582031 -3.492188 14.15625 -4.109375 C 14.726562 -4.722656 15.160156 -5.441406 15.453125 -6.265625 C 15.753906 -7.097656 15.90625 -7.984375 15.90625 -8.921875 C 15.90625 -9.898438 15.75 -10.800781 15.4375 -11.625 C 15.132812 -12.445312 14.6875 -13.15625 14.09375 -13.75 C 13.507812 -14.351562 12.789062 -14.820312 11.9375 -15.15625 C 11.082031 -15.5 10.113281 -15.671875 9.03125 -15.671875 L 6.640625 -15.671875 C 6.597656 -15.140625 6.570312 -14.695312 6.5625 -14.34375 C 6.5625 -13.988281 6.550781 -13.628906 6.53125 -13.265625 C 6.507812 -12.910156 6.5 -12.519531 6.5 -12.09375 C 6.5 -11.664062 6.5 -11.125 6.5 -10.46875 L 6.5 -7.09375 C 6.5 -6.007812 6.503906 -5.160156 6.515625 -4.546875 C 6.523438 -3.941406 6.546875 -3.488281 6.578125 -3.1875 C 6.640625 -2.707031 6.757812 -2.410156 6.9375 -2.296875 C 7.113281 -2.179688 7.441406 -2.125 7.921875 -2.125 Z M 9.171875 -2.125 "/></g></g></g><g fill="#ffffff" fill-opacity="1"><g transform="translate(141.333168, 19.332889)"><g><path d="M 10.03125 -18.09375 C 11.425781 -18.09375 12.664062 -17.847656 13.75 -17.359375 C 14.84375 -16.867188 15.757812 -16.203125 16.5 -15.359375 C 17.25 -14.515625 17.816406 -13.535156 18.203125 -12.421875 C 18.597656 -11.316406 18.796875 -10.160156 18.796875 -8.953125 C 18.796875 -7.753906 18.601562 -6.597656 18.21875 -5.484375 C 17.84375 -4.367188 17.273438 -3.382812 16.515625 -2.53125 C 15.765625 -1.675781 14.832031 -0.988281 13.71875 -0.46875 C 12.601562 0.0390625 11.3125 0.296875 9.84375 0.296875 C 8.425781 0.296875 7.179688 0.0507812 6.109375 -0.4375 C 5.046875 -0.925781 4.15625 -1.582031 3.4375 -2.40625 C 2.71875 -3.226562 2.175781 -4.1875 1.8125 -5.28125 C 1.457031 -6.382812 1.28125 -7.546875 1.28125 -8.765625 C 1.28125 -10.046875 1.476562 -11.253906 1.875 -12.390625 C 2.269531 -13.523438 2.835938 -14.515625 3.578125 -15.359375 C 4.328125 -16.203125 5.242188 -16.867188 6.328125 -17.359375 C 7.421875 -17.847656 8.65625 -18.09375 10.03125 -18.09375 Z M 10.015625 -1.953125 C 10.898438 -1.953125 11.691406 -2.140625 12.390625 -2.515625 C 13.085938 -2.890625 13.671875 -3.390625 14.140625 -4.015625 C 14.617188 -4.640625 14.984375 -5.375 15.234375 -6.21875 C 15.484375 -7.0625 15.609375 -7.960938 15.609375 -8.921875 C 15.609375 -9.898438 15.476562 -10.8125 15.21875 -11.65625 C 14.957031 -12.5 14.578125 -13.226562 14.078125 -13.84375 C 13.578125 -14.457031 12.972656 -14.941406 12.265625 -15.296875 C 11.554688 -15.648438 10.757812 -15.828125 9.875 -15.828125 C 9 -15.828125 8.226562 -15.65625 7.5625 -15.3125 C 6.894531 -14.96875 6.332031 -14.488281 5.875 -13.875 C 5.425781 -13.257812 5.082031 -12.53125 4.84375 -11.6875 C 4.601562 -10.84375 4.484375 -9.929688 4.484375 -8.953125 C 4.484375 -7.859375 4.617188 -6.878906 4.890625 -6.015625 C 5.160156 -5.160156 5.539062 -4.429688 6.03125 -3.828125 C 6.53125 -3.234375 7.113281 -2.769531 7.78125 -2.4375 C 8.445312 -2.113281 9.191406 -1.953125 10.015625 -1.953125 Z M 10.015625 -1.953125 "/></g></g></g><g fill="#a6a6a6" fill-opacity="0.4"><g transform="translate(163.258434, 20.5349)"><g/></g></g><g fill="#a6a6a6" fill-opacity="0.4"><g transform="translate(170.465989, 20.5349)"><g/></g></g><g fill="#ffffff" fill-opacity="1"><g transform="translate(162.056422, 19.332889)"><g/></g></g><g fill="#ffffff" fill-opacity="1"><g transform="translate(169.263978, 19.332889)"><g/></g></g><g fill="#a6a6a6" fill-opacity="0.4"><g transform="translate(30.418278, 51.133113)"><g><path d="M 14.765625 -13.796875 C 14.710938 -14.191406 14.539062 -14.53125 14.25 -14.8125 C 13.957031 -15.09375 13.597656 -15.3125 13.171875 -15.46875 C 12.753906 -15.632812 12.285156 -15.753906 11.765625 -15.828125 C 11.242188 -15.898438 10.734375 -15.9375 10.234375 -15.9375 C 8.617188 -15.9375 7.363281 -15.53125 6.46875 -14.71875 C 5.78125 -14.101562 5.28125 -13.28125 4.96875 -12.25 C 4.664062 -11.226562 4.515625 -10.117188 4.515625 -8.921875 C 4.515625 -7.773438 4.671875 -6.765625 4.984375 -5.890625 C 5.304688 -5.023438 5.742188 -4.296875 6.296875 -3.703125 C 6.847656 -3.117188 7.503906 -2.675781 8.265625 -2.375 C 9.023438 -2.082031 9.859375 -1.9375 10.765625 -1.9375 C 11.546875 -1.9375 12.445312 -2.019531 13.46875 -2.1875 C 14.5 -2.363281 15.46875 -2.695312 16.375 -3.1875 L 16.703125 -2.578125 L 16.046875 -1.390625 C 15.109375 -0.804688 14.160156 -0.378906 13.203125 -0.109375 C 12.253906 0.160156 11.28125 0.296875 10.28125 0.296875 C 8.925781 0.296875 7.691406 0.0820312 6.578125 -0.34375 C 5.472656 -0.78125 4.523438 -1.398438 3.734375 -2.203125 C 2.953125 -3.015625 2.34375 -3.976562 1.90625 -5.09375 C 1.46875 -6.21875 1.25 -7.457031 1.25 -8.8125 C 1.25 -10.082031 1.441406 -11.285156 1.828125 -12.421875 C 2.222656 -13.554688 2.804688 -14.539062 3.578125 -15.375 C 4.347656 -16.207031 5.300781 -16.867188 6.4375 -17.359375 C 7.570312 -17.847656 8.890625 -18.09375 10.390625 -18.09375 C 10.753906 -18.09375 11.179688 -18.078125 11.671875 -18.046875 C 12.160156 -18.023438 12.675781 -17.972656 13.21875 -17.890625 C 13.757812 -17.804688 14.304688 -17.6875 14.859375 -17.53125 C 15.421875 -17.375 15.953125 -17.179688 16.453125 -16.953125 L 16.546875 -16.703125 L 16.1875 -13.6875 L 14.859375 -13.6875 Z M 14.765625 -13.796875 "/></g></g></g><g fill="#a6a6a6" fill-opacity="0.4"><g transform="translate(48.777161, 51.133113)"><g><path d="M 8.921875 -17.796875 C 9.171875 -17.796875 9.546875 -17.796875 10.046875 -17.796875 C 10.546875 -17.804688 11.054688 -17.820312 11.578125 -17.84375 C 12.109375 -17.863281 12.582031 -17.878906 13 -17.890625 C 13.414062 -17.898438 13.671875 -17.90625 13.765625 -17.90625 L 13.921875 -17.625 L 13.796875 -14.125 L 12.5625 -14.125 L 12.453125 -14.234375 C 12.421875 -14.578125 12.375 -14.847656 12.3125 -15.046875 C 12.25 -15.242188 12.078125 -15.382812 11.796875 -15.46875 C 11.523438 -15.5625 11.101562 -15.617188 10.53125 -15.640625 C 9.96875 -15.660156 9.175781 -15.671875 8.15625 -15.671875 L 6.609375 -15.671875 L 6.578125 -15.421875 C 6.566406 -15.171875 6.554688 -14.9375 6.546875 -14.71875 C 6.535156 -14.5 6.523438 -14.242188 6.515625 -13.953125 C 6.503906 -13.660156 6.5 -13.304688 6.5 -12.890625 C 6.5 -12.472656 6.5 -11.941406 6.5 -11.296875 L 6.5 -10.359375 C 6.9375 -10.378906 7.351562 -10.382812 7.75 -10.375 C 8.144531 -10.363281 8.515625 -10.367188 8.859375 -10.390625 C 9.210938 -10.410156 9.507812 -10.441406 9.75 -10.484375 C 10 -10.535156 10.175781 -10.613281 10.28125 -10.71875 C 10.46875 -10.894531 10.5625 -11.148438 10.5625 -11.484375 L 10.6875 -11.609375 L 11.703125 -11.671875 L 11.8125 -11.609375 C 11.769531 -11.191406 11.734375 -10.828125 11.703125 -10.515625 C 11.679688 -10.210938 11.671875 -9.863281 11.671875 -9.46875 C 11.671875 -9.03125 11.679688 -8.625 11.703125 -8.25 C 11.734375 -7.882812 11.769531 -7.484375 11.8125 -7.046875 L 11.703125 -6.984375 L 10.65625 -7.046875 L 10.5625 -7.125 C 10.5625 -7.582031 10.476562 -7.921875 10.3125 -8.140625 C 10.164062 -8.335938 9.75 -8.445312 9.0625 -8.46875 C 8.382812 -8.5 7.628906 -8.515625 6.796875 -8.515625 L 6.5 -8.515625 L 6.5 -6.28125 C 6.5 -5.757812 6.503906 -5.328125 6.515625 -4.984375 C 6.523438 -4.640625 6.535156 -4.34375 6.546875 -4.09375 C 6.554688 -3.851562 6.566406 -3.625 6.578125 -3.40625 C 6.597656 -3.1875 6.617188 -2.929688 6.640625 -2.640625 C 6.660156 -2.296875 6.84375 -2.125 7.1875 -2.125 L 8.40625 -2.125 C 9.4375 -2.125 10.242188 -2.140625 10.828125 -2.171875 C 11.421875 -2.210938 11.875 -2.300781 12.1875 -2.4375 C 12.5 -2.570312 12.722656 -2.765625 12.859375 -3.015625 C 12.992188 -3.273438 13.113281 -3.617188 13.21875 -4.046875 L 13.328125 -4.15625 L 14.609375 -4.15625 L 14.09375 -0.15625 L 13.875 0.109375 C 13.78125 0.109375 13.554688 0.101562 13.203125 0.09375 C 12.847656 0.0820312 12.453125 0.0664062 12.015625 0.046875 C 11.585938 0.0351562 11.15625 0.0234375 10.71875 0.015625 C 10.28125 0.00390625 9.9375 0 9.6875 0 L 4.1875 0 C 4.0625 0 3.851562 0.00390625 3.5625 0.015625 C 3.269531 0.0351562 2.96875 0.0546875 2.65625 0.078125 C 2.351562 0.0976562 2.054688 0.113281 1.765625 0.125 C 1.472656 0.144531 1.265625 0.15625 1.140625 0.15625 L 1.09375 0.046875 L 1.171875 -0.984375 L 1.3125 -1.09375 C 1.59375 -1.09375 1.859375 -1.101562 2.109375 -1.125 C 2.367188 -1.15625 2.582031 -1.234375 2.75 -1.359375 C 2.894531 -1.484375 3.035156 -1.644531 3.171875 -1.84375 C 3.304688 -2.050781 3.390625 -2.40625 3.421875 -2.90625 C 3.421875 -3.03125 3.425781 -3.179688 3.4375 -3.359375 C 3.445312 -3.535156 3.457031 -3.75 3.46875 -4 C 3.476562 -4.25 3.484375 -4.554688 3.484375 -4.921875 C 3.484375 -5.285156 3.484375 -5.738281 3.484375 -6.28125 L 3.484375 -10.71875 C 3.484375 -11.351562 3.484375 -11.882812 3.484375 -12.3125 C 3.484375 -12.75 3.484375 -13.125 3.484375 -13.4375 C 3.484375 -13.75 3.476562 -14.007812 3.46875 -14.21875 C 3.457031 -14.4375 3.441406 -14.65625 3.421875 -14.875 C 3.390625 -15.363281 3.304688 -15.71875 3.171875 -15.9375 C 3.035156 -16.15625 2.894531 -16.320312 2.75 -16.4375 C 2.582031 -16.570312 2.367188 -16.648438 2.109375 -16.671875 C 1.859375 -16.691406 1.59375 -16.703125 1.3125 -16.703125 L 1.171875 -16.8125 L 1.09375 -17.84375 L 1.140625 -17.953125 C 1.265625 -17.953125 1.472656 -17.941406 1.765625 -17.921875 C 2.054688 -17.910156 2.367188 -17.894531 2.703125 -17.875 C 3.035156 -17.851562 3.359375 -17.832031 3.671875 -17.8125 C 3.992188 -17.800781 4.257812 -17.796875 4.46875 -17.796875 Z M 8.921875 -17.796875 "/></g></g></g><g fill="#a6a6a6" fill-opacity="0.4"><g transform="translate(65.09616, 51.133113)"><g><path d="M 20.484375 -17.84375 L 20.421875 -16.8125 L 20.296875 -16.703125 C 20.023438 -16.703125 19.753906 -16.6875 19.484375 -16.65625 C 19.222656 -16.632812 19.015625 -16.5625 18.859375 -16.4375 C 18.710938 -16.300781 18.5625 -16.132812 18.40625 -15.9375 C 18.25 -15.738281 18.144531 -15.382812 18.09375 -14.875 C 18.070312 -14.625 18.054688 -14.390625 18.046875 -14.171875 C 18.035156 -13.953125 18.023438 -13.695312 18.015625 -13.40625 C 18.015625 -13.113281 18.015625 -12.757812 18.015625 -12.34375 C 18.015625 -11.925781 18.015625 -11.394531 18.015625 -10.75 L 18.015625 -6.5 C 18.015625 -5.488281 18.015625 -4.65625 18.015625 -4 C 18.023438 -3.34375 18.035156 -2.78125 18.046875 -2.3125 C 18.054688 -1.851562 18.070312 -1.441406 18.09375 -1.078125 C 18.125 -0.722656 18.160156 -0.328125 18.203125 0.109375 L 17.984375 0.25 L 14.640625 0.109375 L 14.359375 -0.21875 L 5.953125 -12.890625 C 5.992188 -12.566406 6.019531 -12.046875 6.03125 -11.328125 C 6.039062 -10.609375 6.046875 -9.78125 6.046875 -8.84375 L 6.046875 -6.828125 C 6.046875 -6.609375 6.046875 -6.320312 6.046875 -5.96875 C 6.046875 -5.613281 6.046875 -5.242188 6.046875 -4.859375 C 6.054688 -4.484375 6.066406 -4.117188 6.078125 -3.765625 C 6.085938 -3.410156 6.101562 -3.125 6.125 -2.90625 C 6.15625 -2.457031 6.253906 -2.113281 6.421875 -1.875 C 6.585938 -1.632812 6.757812 -1.460938 6.9375 -1.359375 C 7.082031 -1.210938 7.269531 -1.128906 7.5 -1.109375 C 7.738281 -1.097656 8.039062 -1.09375 8.40625 -1.09375 L 8.546875 -0.984375 L 8.625 0.046875 L 8.5625 0.15625 C 8.414062 0.15625 8.210938 0.144531 7.953125 0.125 C 7.691406 0.113281 7.421875 0.0976562 7.140625 0.078125 C 6.859375 0.0546875 6.585938 0.0351562 6.328125 0.015625 C 6.066406 0.00390625 5.867188 0 5.734375 0 L 4.140625 0 C 4.003906 0 3.789062 0.00390625 3.5 0.015625 C 3.21875 0.0351562 2.921875 0.0546875 2.609375 0.078125 C 2.304688 0.0976562 2.007812 0.113281 1.71875 0.125 C 1.425781 0.144531 1.21875 0.15625 1.09375 0.15625 L 1.03125 0.046875 L 1.109375 -0.984375 L 1.25 -1.09375 C 1.570312 -1.09375 1.847656 -1.101562 2.078125 -1.125 C 2.304688 -1.15625 2.507812 -1.234375 2.6875 -1.359375 C 2.820312 -1.453125 2.976562 -1.601562 3.15625 -1.8125 C 3.332031 -2.019531 3.453125 -2.382812 3.515625 -2.90625 C 3.523438 -3.03125 3.535156 -3.179688 3.546875 -3.359375 C 3.554688 -3.535156 3.5625 -3.75 3.5625 -4 C 3.5625 -4.25 3.5625 -4.554688 3.5625 -4.921875 C 3.5625 -5.285156 3.5625 -5.738281 3.5625 -6.28125 L 3.5625 -10.71875 C 3.5625 -11.351562 3.5625 -11.882812 3.5625 -12.3125 C 3.5625 -12.75 3.5625 -13.125 3.5625 -13.4375 C 3.5625 -13.75 3.554688 -14.007812 3.546875 -14.21875 C 3.535156 -14.4375 3.523438 -14.65625 3.515625 -14.875 C 3.472656 -15.257812 3.363281 -15.585938 3.1875 -15.859375 C 3.019531 -16.128906 2.851562 -16.320312 2.6875 -16.4375 C 2.53125 -16.570312 2.328125 -16.648438 2.078125 -16.671875 C 1.835938 -16.691406 1.5625 -16.703125 1.25 -16.703125 L 1.109375 -16.8125 L 1.03125 -17.84375 L 1.09375 -17.953125 C 1.21875 -17.953125 1.398438 -17.941406 1.640625 -17.921875 C 1.890625 -17.910156 2.140625 -17.894531 2.390625 -17.875 C 2.648438 -17.851562 2.898438 -17.832031 3.140625 -17.8125 C 3.390625 -17.800781 3.578125 -17.796875 3.703125 -17.796875 L 6.015625 -17.796875 C 6.160156 -17.796875 6.335938 -17.800781 6.546875 -17.8125 C 6.765625 -17.832031 6.957031 -17.863281 7.125 -17.90625 L 7.265625 -17.8125 C 7.316406 -17.5625 7.453125 -17.210938 7.671875 -16.765625 C 7.890625 -16.328125 8.15625 -15.828125 8.46875 -15.265625 C 8.789062 -14.710938 9.128906 -14.132812 9.484375 -13.53125 C 9.847656 -12.925781 10.210938 -12.320312 10.578125 -11.71875 C 11.234375 -10.632812 11.8125 -9.6875 12.3125 -8.875 C 12.820312 -8.070312 13.273438 -7.367188 13.671875 -6.765625 C 14.078125 -6.171875 14.425781 -5.671875 14.71875 -5.265625 C 15.007812 -4.859375 15.253906 -4.519531 15.453125 -4.25 C 15.453125 -4.71875 15.457031 -5.175781 15.46875 -5.625 C 15.476562 -6.082031 15.484375 -6.546875 15.484375 -7.015625 L 15.484375 -10.71875 C 15.484375 -11.351562 15.484375 -11.882812 15.484375 -12.3125 C 15.484375 -12.75 15.476562 -13.125 15.46875 -13.4375 C 15.457031 -13.75 15.445312 -14.007812 15.4375 -14.21875 C 15.425781 -14.4375 15.410156 -14.65625 15.390625 -14.875 C 15.359375 -15.1875 15.28125 -15.472656 15.15625 -15.734375 C 15.039062 -15.992188 14.859375 -16.226562 14.609375 -16.4375 C 14.441406 -16.570312 14.226562 -16.648438 13.96875 -16.671875 C 13.707031 -16.691406 13.429688 -16.703125 13.140625 -16.703125 L 13.03125 -16.8125 L 12.953125 -17.84375 L 13 -17.953125 C 13.125 -17.953125 13.304688 -17.941406 13.546875 -17.921875 C 13.785156 -17.910156 14.023438 -17.894531 14.265625 -17.875 C 14.515625 -17.851562 14.753906 -17.832031 14.984375 -17.8125 C 15.222656 -17.800781 15.40625 -17.796875 15.53125 -17.796875 L 17.90625 -17.796875 C 18.03125 -17.796875 18.207031 -17.796875 18.4375 -17.796875 C 18.675781 -17.804688 18.921875 -17.820312 19.171875 -17.84375 C 19.429688 -17.863281 19.675781 -17.878906 19.90625 -17.890625 C 20.144531 -17.910156 20.328125 -17.929688 20.453125 -17.953125 Z M 20.484375 -17.84375 "/></g></g></g><g fill="#a6a6a6" fill-opacity="0.4"><g transform="translate(87.018016, 51.133113)"><g><path d="M 12.234375 0.15625 C 12.109375 0.15625 11.910156 0.144531 11.640625 0.125 C 11.367188 0.113281 11.078125 0.0976562 10.765625 0.078125 C 10.460938 0.0546875 10.175781 0.0351562 9.90625 0.015625 C 9.632812 0.00390625 9.429688 0 9.296875 0 L 6.671875 0 C 6.535156 0 6.332031 0.00390625 6.0625 0.015625 C 5.789062 0.0351562 5.503906 0.0546875 5.203125 0.078125 C 4.910156 0.0976562 4.625 0.113281 4.34375 0.125 C 4.070312 0.144531 3.875 0.15625 3.75 0.15625 L 3.703125 0.046875 L 3.78125 -0.984375 L 3.921875 -1.09375 C 4.191406 -1.09375 4.507812 -1.097656 4.875 -1.109375 C 5.25 -1.128906 5.519531 -1.210938 5.6875 -1.359375 C 5.832031 -1.484375 5.976562 -1.644531 6.125 -1.84375 C 6.269531 -2.050781 6.367188 -2.40625 6.421875 -2.90625 C 6.441406 -3.03125 6.453125 -3.179688 6.453125 -3.359375 C 6.460938 -3.535156 6.472656 -3.75 6.484375 -4 C 6.492188 -4.25 6.5 -4.554688 6.5 -4.921875 C 6.5 -5.285156 6.5 -5.738281 6.5 -6.28125 L 6.5 -11.265625 C 6.5 -12.265625 6.488281 -13.148438 6.46875 -13.921875 C 6.457031 -14.703125 6.441406 -15.285156 6.421875 -15.671875 L 6.125 -15.671875 C 5.4375 -15.671875 4.863281 -15.664062 4.40625 -15.65625 C 3.957031 -15.644531 3.59375 -15.625 3.3125 -15.59375 C 3.039062 -15.570312 2.835938 -15.539062 2.703125 -15.5 C 2.566406 -15.46875 2.472656 -15.425781 2.421875 -15.375 C 2.222656 -15.28125 2.054688 -15.132812 1.921875 -14.9375 C 1.796875 -14.738281 1.71875 -14.503906 1.6875 -14.234375 L 1.578125 -14.125 L 0.40625 -14.125 L 0.59375 -17.765625 L 0.703125 -18.015625 L 0.875 -18.09375 C 1.019531 -18.039062 1.335938 -17.988281 1.828125 -17.9375 C 2.316406 -17.894531 2.847656 -17.863281 3.421875 -17.84375 C 4.003906 -17.820312 4.5625 -17.804688 5.09375 -17.796875 C 5.632812 -17.796875 6.019531 -17.796875 6.25 -17.796875 L 9.6875 -17.796875 C 9.914062 -17.796875 10.296875 -17.796875 10.828125 -17.796875 C 11.367188 -17.804688 11.929688 -17.820312 12.515625 -17.84375 C 13.097656 -17.863281 13.632812 -17.894531 14.125 -17.9375 C 14.613281 -17.988281 14.929688 -18.039062 15.078125 -18.09375 L 15.234375 -18.015625 L 15.34375 -17.765625 L 15.5625 -14.125 L 14.359375 -14.125 L 14.25 -14.234375 C 14.21875 -14.503906 14.132812 -14.738281 14 -14.9375 C 13.875 -15.132812 13.710938 -15.28125 13.515625 -15.375 C 13.460938 -15.445312 13.367188 -15.503906 13.234375 -15.546875 C 13.097656 -15.585938 12.894531 -15.617188 12.625 -15.640625 C 12.351562 -15.660156 11.992188 -15.671875 11.546875 -15.671875 C 11.097656 -15.671875 10.53125 -15.671875 9.84375 -15.671875 L 9.546875 -15.671875 C 9.523438 -15.234375 9.507812 -14.648438 9.5 -13.921875 C 9.5 -13.203125 9.5 -12.328125 9.5 -11.296875 L 9.5 -6.828125 C 9.5 -6.171875 9.5 -5.640625 9.5 -5.234375 C 9.5 -4.828125 9.5 -4.488281 9.5 -4.21875 C 9.507812 -3.945312 9.519531 -3.710938 9.53125 -3.515625 C 9.539062 -3.328125 9.554688 -3.125 9.578125 -2.90625 C 9.609375 -2.382812 9.707031 -2.019531 9.875 -1.8125 C 10.039062 -1.613281 10.195312 -1.460938 10.34375 -1.359375 C 10.414062 -1.285156 10.519531 -1.226562 10.65625 -1.1875 C 10.789062 -1.15625 10.9375 -1.128906 11.09375 -1.109375 C 11.257812 -1.097656 11.425781 -1.09375 11.59375 -1.09375 C 11.769531 -1.09375 11.929688 -1.09375 12.078125 -1.09375 L 12.21875 -0.984375 L 12.296875 0.046875 Z M 12.234375 0.15625 "/></g></g></g><g fill="#a6a6a6" fill-opacity="0.4"><g transform="translate(103.663387, 51.133113)"><g><path d="M 8.84375 0.15625 C 8.695312 0.144531 8.488281 0.128906 8.21875 0.109375 C 7.957031 0.0859375 7.675781 0.0664062 7.375 0.046875 C 7.082031 0.0351562 6.796875 0.0234375 6.515625 0.015625 C 6.234375 0.00390625 5.992188 0 5.796875 0 L 4.1875 0 C 3.96875 0 3.710938 0.00390625 3.421875 0.015625 C 3.140625 0.0234375 2.851562 0.0351562 2.5625 0.046875 C 2.269531 0.0664062 1.988281 0.0859375 1.71875 0.109375 C 1.457031 0.128906 1.265625 0.144531 1.140625 0.15625 L 1.09375 0.046875 L 1.171875 -0.984375 L 1.3125 -1.09375 C 2 -1.09375 2.46875 -1.171875 2.71875 -1.328125 C 3.101562 -1.585938 3.335938 -2.113281 3.421875 -2.90625 C 3.441406 -3.21875 3.457031 -3.691406 3.46875 -4.328125 C 3.476562 -4.972656 3.484375 -5.625 3.484375 -6.28125 L 3.484375 -12.265625 C 3.484375 -12.898438 3.472656 -13.40625 3.453125 -13.78125 C 3.429688 -14.15625 3.40625 -14.519531 3.375 -14.875 C 3.300781 -15.363281 3.222656 -15.71875 3.140625 -15.9375 C 3.054688 -16.15625 2.9375 -16.328125 2.78125 -16.453125 C 2.632812 -16.546875 2.457031 -16.609375 2.25 -16.640625 C 2.039062 -16.679688 1.726562 -16.703125 1.3125 -16.703125 L 1.171875 -16.8125 L 1.09375 -17.84375 L 1.140625 -17.953125 C 1.609375 -17.898438 2.070312 -17.859375 2.53125 -17.828125 C 3 -17.804688 3.367188 -17.796875 3.640625 -17.796875 L 5.71875 -17.796875 C 6.132812 -17.796875 6.609375 -17.800781 7.140625 -17.8125 C 7.671875 -17.832031 8.140625 -17.84375 8.546875 -17.84375 C 10.703125 -17.84375 12.332031 -17.4375 13.4375 -16.625 C 14.539062 -15.820312 15.09375 -14.625 15.09375 -13.03125 C 15.09375 -11.882812 14.757812 -10.84375 14.09375 -9.90625 C 13.4375 -8.976562 12.457031 -8.171875 11.15625 -7.484375 C 11.769531 -6.554688 12.289062 -5.800781 12.71875 -5.21875 C 13.144531 -4.644531 13.507812 -4.179688 13.8125 -3.828125 C 14.226562 -3.335938 14.617188 -2.929688 14.984375 -2.609375 C 15.347656 -2.285156 15.707031 -2.015625 16.0625 -1.796875 C 16.414062 -1.578125 16.78125 -1.410156 17.15625 -1.296875 C 17.539062 -1.191406 17.96875 -1.125 18.4375 -1.09375 L 18.609375 -0.984375 L 18.65625 0.046875 L 18.609375 0.15625 C 17.921875 0.195312 17.320312 0.226562 16.8125 0.25 C 16.300781 0.28125 15.929688 0.296875 15.703125 0.296875 C 14.734375 0.296875 13.875 0.03125 13.125 -0.5 C 12.375 -1.039062 11.570312 -1.953125 10.71875 -3.234375 C 10.519531 -3.523438 10.304688 -3.851562 10.078125 -4.21875 C 9.847656 -4.582031 9.617188 -4.941406 9.390625 -5.296875 C 9.171875 -5.648438 8.957031 -5.988281 8.75 -6.3125 C 8.550781 -6.632812 8.390625 -6.914062 8.265625 -7.15625 L 6.5 -7.15625 C 6.5 -6.539062 6.5 -6.007812 6.5 -5.5625 C 6.5 -5.113281 6.503906 -4.726562 6.515625 -4.40625 C 6.523438 -4.082031 6.535156 -3.800781 6.546875 -3.5625 C 6.566406 -3.320312 6.585938 -3.101562 6.609375 -2.90625 C 6.679688 -2.070312 6.878906 -1.546875 7.203125 -1.328125 C 7.335938 -1.242188 7.503906 -1.179688 7.703125 -1.140625 C 7.898438 -1.109375 8.234375 -1.09375 8.703125 -1.09375 L 8.8125 -0.984375 L 8.890625 0.046875 Z M 7.890625 -9.171875 C 9.210938 -9.171875 10.25 -9.488281 11 -10.125 C 11.75 -10.757812 12.125 -11.640625 12.125 -12.765625 C 12.125 -13.773438 11.789062 -14.507812 11.125 -14.96875 C 10.457031 -15.4375 9.390625 -15.671875 7.921875 -15.671875 L 6.640625 -15.671875 C 6.585938 -14.941406 6.550781 -14.378906 6.53125 -13.984375 C 6.507812 -13.585938 6.5 -13.207031 6.5 -12.84375 L 6.5 -10.171875 C 6.5 -9.796875 6.546875 -9.535156 6.640625 -9.390625 C 6.734375 -9.242188 6.90625 -9.171875 7.15625 -9.171875 Z M 7.890625 -9.171875 "/></g></g></g><g fill="#a6a6a6" fill-opacity="0.4"><g transform="translate(122.403044, 51.133113)"><g><path d="M 10.5 -18.09375 L 15.171875 -5.734375 C 15.335938 -5.285156 15.484375 -4.90625 15.609375 -4.59375 C 15.742188 -4.289062 15.847656 -4.03125 15.921875 -3.8125 C 16.003906 -3.59375 16.078125 -3.414062 16.140625 -3.28125 C 16.203125 -3.144531 16.265625 -3.019531 16.328125 -2.90625 C 16.535156 -2.457031 16.753906 -2.109375 16.984375 -1.859375 C 17.210938 -1.617188 17.441406 -1.4375 17.671875 -1.3125 C 17.898438 -1.195312 18.128906 -1.128906 18.359375 -1.109375 C 18.597656 -1.097656 18.832031 -1.09375 19.0625 -1.09375 L 19.203125 -0.984375 L 19.28125 0.046875 L 19.234375 0.15625 C 19.109375 0.15625 18.914062 0.144531 18.65625 0.125 C 18.40625 0.113281 18.144531 0.0976562 17.875 0.078125 C 17.601562 0.0546875 17.34375 0.0351562 17.09375 0.015625 C 16.851562 0.00390625 16.671875 0 16.546875 0 L 14.546875 0 C 14.421875 0 14.210938 0.00390625 13.921875 0.015625 C 13.640625 0.0351562 13.335938 0.0546875 13.015625 0.078125 C 12.703125 0.0976562 12.398438 0.113281 12.109375 0.125 C 11.816406 0.144531 11.609375 0.15625 11.484375 0.15625 L 11.421875 0.046875 L 11.5 -0.984375 L 11.609375 -1.09375 C 12.085938 -1.09375 12.445312 -1.148438 12.6875 -1.265625 C 12.9375 -1.378906 13.0625 -1.703125 13.0625 -2.234375 C 13.0625 -2.523438 13.007812 -2.9375 12.90625 -3.46875 C 12.8125 -4 12.582031 -4.664062 12.21875 -5.46875 L 11.640625 -6.78125 L 6.875 -6.78125 L 6.34375 -5.46875 C 6.007812 -4.664062 5.757812 -3.984375 5.59375 -3.421875 C 5.4375 -2.859375 5.359375 -2.460938 5.359375 -2.234375 C 5.359375 -1.796875 5.445312 -1.492188 5.625 -1.328125 C 5.8125 -1.171875 6.140625 -1.09375 6.609375 -1.09375 L 6.75 -0.984375 L 6.828125 0.046875 L 6.78125 0.15625 C 6.644531 0.15625 6.441406 0.144531 6.171875 0.125 C 5.898438 0.113281 5.613281 0.0976562 5.3125 0.078125 C 5.019531 0.0546875 4.734375 0.0351562 4.453125 0.015625 C 4.179688 0.00390625 3.984375 0 3.859375 0 L 2.265625 0 C 2.128906 0 1.9375 0.00390625 1.6875 0.015625 C 1.4375 0.0351562 1.171875 0.0546875 0.890625 0.078125 C 0.617188 0.0976562 0.359375 0.113281 0.109375 0.125 C -0.128906 0.144531 -0.3125 0.15625 -0.4375 0.15625 L -0.46875 0.046875 L -0.40625 -0.984375 L -0.265625 -1.09375 C -0.0351562 -1.09375 0.191406 -1.109375 0.421875 -1.140625 C 0.660156 -1.179688 0.898438 -1.265625 1.140625 -1.390625 C 1.378906 -1.515625 1.609375 -1.691406 1.828125 -1.921875 C 2.054688 -2.148438 2.289062 -2.441406 2.53125 -2.796875 C 2.582031 -2.910156 2.660156 -3.078125 2.765625 -3.296875 C 2.878906 -3.523438 3.050781 -3.929688 3.28125 -4.515625 C 3.519531 -5.097656 3.847656 -5.921875 4.265625 -6.984375 C 4.679688 -8.054688 5.238281 -9.484375 5.9375 -11.265625 L 8.265625 -17.28125 L 10.203125 -18.09375 Z M 7.34375 -8.765625 L 10.90625 -8.765625 L 9.171875 -13.578125 Z M 7.34375 -8.765625 "/></g></g></g><g fill="#a6a6a6" fill-opacity="0.4"><g transform="translate(142.094641, 51.133113)"><g><path d="M 3.40625 -14.875 C 3.363281 -15.1875 3.289062 -15.488281 3.1875 -15.78125 C 3.09375 -16.082031 2.945312 -16.304688 2.75 -16.453125 C 2.601562 -16.546875 2.421875 -16.609375 2.203125 -16.640625 C 1.984375 -16.679688 1.6875 -16.703125 1.3125 -16.703125 L 1.171875 -16.8125 L 1.09375 -17.84375 L 1.140625 -17.953125 C 1.304688 -17.929688 1.53125 -17.910156 1.8125 -17.890625 C 2.09375 -17.878906 2.378906 -17.863281 2.671875 -17.84375 C 2.972656 -17.820312 3.257812 -17.804688 3.53125 -17.796875 C 3.800781 -17.796875 4.019531 -17.796875 4.1875 -17.796875 L 5.796875 -17.796875 C 5.960938 -17.796875 6.175781 -17.796875 6.4375 -17.796875 C 6.695312 -17.804688 6.972656 -17.820312 7.265625 -17.84375 C 7.566406 -17.863281 7.859375 -17.878906 8.140625 -17.890625 C 8.421875 -17.910156 8.65625 -17.929688 8.84375 -17.953125 L 8.890625 -17.84375 L 8.8125 -16.8125 L 8.703125 -16.703125 C 8.253906 -16.703125 7.925781 -16.675781 7.71875 -16.625 C 7.507812 -16.582031 7.335938 -16.519531 7.203125 -16.4375 C 6.828125 -16.175781 6.613281 -15.65625 6.5625 -14.875 C 6.539062 -14.695312 6.523438 -14.507812 6.515625 -14.3125 C 6.503906 -14.125 6.5 -13.878906 6.5 -13.578125 C 6.5 -13.285156 6.5 -12.910156 6.5 -12.453125 C 6.5 -12.003906 6.5 -11.4375 6.5 -10.75 L 6.5 -7.09375 C 6.5 -6.394531 6.5 -5.820312 6.5 -5.375 C 6.5 -4.925781 6.503906 -4.550781 6.515625 -4.25 C 6.523438 -3.957031 6.535156 -3.695312 6.546875 -3.46875 C 6.554688 -3.238281 6.578125 -2.972656 6.609375 -2.671875 C 6.628906 -2.304688 6.835938 -2.125 7.234375 -2.125 L 9.765625 -2.125 C 10.359375 -2.125 10.832031 -2.132812 11.1875 -2.15625 C 11.539062 -2.1875 11.816406 -2.257812 12.015625 -2.375 C 12.222656 -2.5 12.378906 -2.664062 12.484375 -2.875 C 12.597656 -3.09375 12.695312 -3.394531 12.78125 -3.78125 L 12.859375 -3.890625 L 14.125 -3.890625 L 13.625 -0.15625 L 13.40625 0.109375 C 13.257812 0.0859375 13.03125 0.0703125 12.71875 0.0625 C 12.414062 0.0507812 12.09375 0.0390625 11.75 0.03125 C 11.40625 0.03125 11.066406 0.0234375 10.734375 0.015625 C 10.398438 0.00390625 10.140625 0 9.953125 0 L 4.1875 0 C 4.0625 0 3.859375 0.00390625 3.578125 0.015625 C 3.296875 0.0234375 3 0.0351562 2.6875 0.046875 C 2.382812 0.0664062 2.085938 0.0859375 1.796875 0.109375 C 1.503906 0.128906 1.285156 0.144531 1.140625 0.15625 L 1.09375 0.046875 L 1.171875 -0.984375 L 1.3125 -1.09375 C 2 -1.09375 2.46875 -1.191406 2.71875 -1.390625 C 2.863281 -1.515625 3.003906 -1.710938 3.140625 -1.984375 C 3.273438 -2.253906 3.363281 -2.570312 3.40625 -2.9375 C 3.414062 -3.113281 3.425781 -3.359375 3.4375 -3.671875 C 3.445312 -3.992188 3.457031 -4.328125 3.46875 -4.671875 C 3.476562 -5.023438 3.484375 -5.347656 3.484375 -5.640625 C 3.484375 -5.941406 3.484375 -6.15625 3.484375 -6.28125 L 3.484375 -10.71875 C 3.484375 -11.71875 3.476562 -12.59375 3.46875 -13.34375 C 3.457031 -14.09375 3.4375 -14.601562 3.40625 -14.875 Z M 3.40625 -14.875 "/></g></g></g><g fill="#ffffff" fill-opacity="1"><g transform="translate(29.216267, 49.931101)"><g><path d="M 14.765625 -13.796875 C 14.710938 -14.191406 14.539062 -14.53125 14.25 -14.8125 C 13.957031 -15.09375 13.597656 -15.3125 13.171875 -15.46875 C 12.753906 -15.632812 12.285156 -15.753906 11.765625 -15.828125 C 11.242188 -15.898438 10.734375 -15.9375 10.234375 -15.9375 C 8.617188 -15.9375 7.363281 -15.53125 6.46875 -14.71875 C 5.78125 -14.101562 5.28125 -13.28125 4.96875 -12.25 C 4.664062 -11.226562 4.515625 -10.117188 4.515625 -8.921875 C 4.515625 -7.773438 4.671875 -6.765625 4.984375 -5.890625 C 5.304688 -5.023438 5.742188 -4.296875 6.296875 -3.703125 C 6.847656 -3.117188 7.503906 -2.675781 8.265625 -2.375 C 9.023438 -2.082031 9.859375 -1.9375 10.765625 -1.9375 C 11.546875 -1.9375 12.445312 -2.019531 13.46875 -2.1875 C 14.5 -2.363281 15.46875 -2.695312 16.375 -3.1875 L 16.703125 -2.578125 L 16.046875 -1.390625 C 15.109375 -0.804688 14.160156 -0.378906 13.203125 -0.109375 C 12.253906 0.160156 11.28125 0.296875 10.28125 0.296875 C 8.925781 0.296875 7.691406 0.0820312 6.578125 -0.34375 C 5.472656 -0.78125 4.523438 -1.398438 3.734375 -2.203125 C 2.953125 -3.015625 2.34375 -3.976562 1.90625 -5.09375 C 1.46875 -6.21875 1.25 -7.457031 1.25 -8.8125 C 1.25 -10.082031 1.441406 -11.285156 1.828125 -12.421875 C 2.222656 -13.554688 2.804688 -14.539062 3.578125 -15.375 C 4.347656 -16.207031 5.300781 -16.867188 6.4375 -17.359375 C 7.570312 -17.847656 8.890625 -18.09375 10.390625 -18.09375 C 10.753906 -18.09375 11.179688 -18.078125 11.671875 -18.046875 C 12.160156 -18.023438 12.675781 -17.972656 13.21875 -17.890625 C 13.757812 -17.804688 14.304688 -17.6875 14.859375 -17.53125 C 15.421875 -17.375 15.953125 -17.179688 16.453125 -16.953125 L 16.546875 -16.703125 L 16.1875 -13.6875 L 14.859375 -13.6875 Z M 14.765625 -13.796875 "/></g></g></g><g fill="#ffffff" fill-opacity="1"><g transform="translate(47.57515, 49.931101)"><g><path d="M 8.921875 -17.796875 C 9.171875 -17.796875 9.546875 -17.796875 10.046875 -17.796875 C 10.546875 -17.804688 11.054688 -17.820312 11.578125 -17.84375 C 12.109375 -17.863281 12.582031 -17.878906 13 -17.890625 C 13.414062 -17.898438 13.671875 -17.90625 13.765625 -17.90625 L 13.921875 -17.625 L 13.796875 -14.125 L 12.5625 -14.125 L 12.453125 -14.234375 C 12.421875 -14.578125 12.375 -14.847656 12.3125 -15.046875 C 12.25 -15.242188 12.078125 -15.382812 11.796875 -15.46875 C 11.523438 -15.5625 11.101562 -15.617188 10.53125 -15.640625 C 9.96875 -15.660156 9.175781 -15.671875 8.15625 -15.671875 L 6.609375 -15.671875 L 6.578125 -15.421875 C 6.566406 -15.171875 6.554688 -14.9375 6.546875 -14.71875 C 6.535156 -14.5 6.523438 -14.242188 6.515625 -13.953125 C 6.503906 -13.660156 6.5 -13.304688 6.5 -12.890625 C 6.5 -12.472656 6.5 -11.941406 6.5 -11.296875 L 6.5 -10.359375 C 6.9375 -10.378906 7.351562 -10.382812 7.75 -10.375 C 8.144531 -10.363281 8.515625 -10.367188 8.859375 -10.390625 C 9.210938 -10.410156 9.507812 -10.441406 9.75 -10.484375 C 10 -10.535156 10.175781 -10.613281 10.28125 -10.71875 C 10.46875 -10.894531 10.5625 -11.148438 10.5625 -11.484375 L 10.6875 -11.609375 L 11.703125 -11.671875 L 11.8125 -11.609375 C 11.769531 -11.191406 11.734375 -10.828125 11.703125 -10.515625 C 11.679688 -10.210938 11.671875 -9.863281 11.671875 -9.46875 C 11.671875 -9.03125 11.679688 -8.625 11.703125 -8.25 C 11.734375 -7.882812 11.769531 -7.484375 11.8125 -7.046875 L 11.703125 -6.984375 L 10.65625 -7.046875 L 10.5625 -7.125 C 10.5625 -7.582031 10.476562 -7.921875 10.3125 -8.140625 C 10.164062 -8.335938 9.75 -8.445312 9.0625 -8.46875 C 8.382812 -8.5 7.628906 -8.515625 6.796875 -8.515625 L 6.5 -8.515625 L 6.5 -6.28125 C 6.5 -5.757812 6.503906 -5.328125 6.515625 -4.984375 C 6.523438 -4.640625 6.535156 -4.34375 6.546875 -4.09375 C 6.554688 -3.851562 6.566406 -3.625 6.578125 -3.40625 C 6.597656 -3.1875 6.617188 -2.929688 6.640625 -2.640625 C 6.660156 -2.296875 6.84375 -2.125 7.1875 -2.125 L 8.40625 -2.125 C 9.4375 -2.125 10.242188 -2.140625 10.828125 -2.171875 C 11.421875 -2.210938 11.875 -2.300781 12.1875 -2.4375 C 12.5 -2.570312 12.722656 -2.765625 12.859375 -3.015625 C 12.992188 -3.273438 13.113281 -3.617188 13.21875 -4.046875 L 13.328125 -4.15625 L 14.609375 -4.15625 L 14.09375 -0.15625 L 13.875 0.109375 C 13.78125 0.109375 13.554688 0.101562 13.203125 0.09375 C 12.847656 0.0820312 12.453125 0.0664062 12.015625 0.046875 C 11.585938 0.0351562 11.15625 0.0234375 10.71875 0.015625 C 10.28125 0.00390625 9.9375 0 9.6875 0 L 4.1875 0 C 4.0625 0 3.851562 0.00390625 3.5625 0.015625 C 3.269531 0.0351562 2.96875 0.0546875 2.65625 0.078125 C 2.351562 0.0976562 2.054688 0.113281 1.765625 0.125 C 1.472656 0.144531 1.265625 0.15625 1.140625 0.15625 L 1.09375 0.046875 L 1.171875 -0.984375 L 1.3125 -1.09375 C 1.59375 -1.09375 1.859375 -1.101562 2.109375 -1.125 C 2.367188 -1.15625 2.582031 -1.234375 2.75 -1.359375 C 2.894531 -1.484375 3.035156 -1.644531 3.171875 -1.84375 C 3.304688 -2.050781 3.390625 -2.40625 3.421875 -2.90625 C 3.421875 -3.03125 3.425781 -3.179688 3.4375 -3.359375 C 3.445312 -3.535156 3.457031 -3.75 3.46875 -4 C 3.476562 -4.25 3.484375 -4.554688 3.484375 -4.921875 C 3.484375 -5.285156 3.484375 -5.738281 3.484375 -6.28125 L 3.484375 -10.71875 C 3.484375 -11.351562 3.484375 -11.882812 3.484375 -12.3125 C 3.484375 -12.75 3.484375 -13.125 3.484375 -13.4375 C 3.484375 -13.75 3.476562 -14.007812 3.46875 -14.21875 C 3.457031 -14.4375 3.441406 -14.65625 3.421875 -14.875 C 3.390625 -15.363281 3.304688 -15.71875 3.171875 -15.9375 C 3.035156 -16.15625 2.894531 -16.320312 2.75 -16.4375 C 2.582031 -16.570312 2.367188 -16.648438 2.109375 -16.671875 C 1.859375 -16.691406 1.59375 -16.703125 1.3125 -16.703125 L 1.171875 -16.8125 L 1.09375 -17.84375 L 1.140625 -17.953125 C 1.265625 -17.953125 1.472656 -17.941406 1.765625 -17.921875 C 2.054688 -17.910156 2.367188 -17.894531 2.703125 -17.875 C 3.035156 -17.851562 3.359375 -17.832031 3.671875 -17.8125 C 3.992188 -17.800781 4.257812 -17.796875 4.46875 -17.796875 Z M 8.921875 -17.796875 "/></g></g></g><g fill="#ffffff" fill-opacity="1"><g transform="translate(63.894148, 49.931101)"><g><path d="M 20.484375 -17.84375 L 20.421875 -16.8125 L 20.296875 -16.703125 C 20.023438 -16.703125 19.753906 -16.6875 19.484375 -16.65625 C 19.222656 -16.632812 19.015625 -16.5625 18.859375 -16.4375 C 18.710938 -16.300781 18.5625 -16.132812 18.40625 -15.9375 C 18.25 -15.738281 18.144531 -15.382812 18.09375 -14.875 C 18.070312 -14.625 18.054688 -14.390625 18.046875 -14.171875 C 18.035156 -13.953125 18.023438 -13.695312 18.015625 -13.40625 C 18.015625 -13.113281 18.015625 -12.757812 18.015625 -12.34375 C 18.015625 -11.925781 18.015625 -11.394531 18.015625 -10.75 L 18.015625 -6.5 C 18.015625 -5.488281 18.015625 -4.65625 18.015625 -4 C 18.023438 -3.34375 18.035156 -2.78125 18.046875 -2.3125 C 18.054688 -1.851562 18.070312 -1.441406 18.09375 -1.078125 C 18.125 -0.722656 18.160156 -0.328125 18.203125 0.109375 L 17.984375 0.25 L 14.640625 0.109375 L 14.359375 -0.21875 L 5.953125 -12.890625 C 5.992188 -12.566406 6.019531 -12.046875 6.03125 -11.328125 C 6.039062 -10.609375 6.046875 -9.78125 6.046875 -8.84375 L 6.046875 -6.828125 C 6.046875 -6.609375 6.046875 -6.320312 6.046875 -5.96875 C 6.046875 -5.613281 6.046875 -5.242188 6.046875 -4.859375 C 6.054688 -4.484375 6.066406 -4.117188 6.078125 -3.765625 C 6.085938 -3.410156 6.101562 -3.125 6.125 -2.90625 C 6.15625 -2.457031 6.253906 -2.113281 6.421875 -1.875 C 6.585938 -1.632812 6.757812 -1.460938 6.9375 -1.359375 C 7.082031 -1.210938 7.269531 -1.128906 7.5 -1.109375 C 7.738281 -1.097656 8.039062 -1.09375 8.40625 -1.09375 L 8.546875 -0.984375 L 8.625 0.046875 L 8.5625 0.15625 C 8.414062 0.15625 8.210938 0.144531 7.953125 0.125 C 7.691406 0.113281 7.421875 0.0976562 7.140625 0.078125 C 6.859375 0.0546875 6.585938 0.0351562 6.328125 0.015625 C 6.066406 0.00390625 5.867188 0 5.734375 0 L 4.140625 0 C 4.003906 0 3.789062 0.00390625 3.5 0.015625 C 3.21875 0.0351562 2.921875 0.0546875 2.609375 0.078125 C 2.304688 0.0976562 2.007812 0.113281 1.71875 0.125 C 1.425781 0.144531 1.21875 0.15625 1.09375 0.15625 L 1.03125 0.046875 L 1.109375 -0.984375 L 1.25 -1.09375 C 1.570312 -1.09375 1.847656 -1.101562 2.078125 -1.125 C 2.304688 -1.15625 2.507812 -1.234375 2.6875 -1.359375 C 2.820312 -1.453125 2.976562 -1.601562 3.15625 -1.8125 C 3.332031 -2.019531 3.453125 -2.382812 3.515625 -2.90625 C 3.523438 -3.03125 3.535156 -3.179688 3.546875 -3.359375 C 3.554688 -3.535156 3.5625 -3.75 3.5625 -4 C 3.5625 -4.25 3.5625 -4.554688 3.5625 -4.921875 C 3.5625 -5.285156 3.5625 -5.738281 3.5625 -6.28125 L 3.5625 -10.71875 C 3.5625 -11.351562 3.5625 -11.882812 3.5625 -12.3125 C 3.5625 -12.75 3.5625 -13.125 3.5625 -13.4375 C 3.5625 -13.75 3.554688 -14.007812 3.546875 -14.21875 C 3.535156 -14.4375 3.523438 -14.65625 3.515625 -14.875 C 3.472656 -15.257812 3.363281 -15.585938 3.1875 -15.859375 C 3.019531 -16.128906 2.851562 -16.320312 2.6875 -16.4375 C 2.53125 -16.570312 2.328125 -16.648438 2.078125 -16.671875 C 1.835938 -16.691406 1.5625 -16.703125 1.25 -16.703125 L 1.109375 -16.8125 L 1.03125 -17.84375 L 1.09375 -17.953125 C 1.21875 -17.953125 1.398438 -17.941406 1.640625 -17.921875 C 1.890625 -17.910156 2.140625 -17.894531 2.390625 -17.875 C 2.648438 -17.851562 2.898438 -17.832031 3.140625 -17.8125 C 3.390625 -17.800781 3.578125 -17.796875 3.703125 -17.796875 L 6.015625 -17.796875 C 6.160156 -17.796875 6.335938 -17.800781 6.546875 -17.8125 C 6.765625 -17.832031 6.957031 -17.863281 7.125 -17.90625 L 7.265625 -17.8125 C 7.316406 -17.5625 7.453125 -17.210938 7.671875 -16.765625 C 7.890625 -16.328125 8.15625 -15.828125 8.46875 -15.265625 C 8.789062 -14.710938 9.128906 -14.132812 9.484375 -13.53125 C 9.847656 -12.925781 10.210938 -12.320312 10.578125 -11.71875 C 11.234375 -10.632812 11.8125 -9.6875 12.3125 -8.875 C 12.820312 -8.070312 13.273438 -7.367188 13.671875 -6.765625 C 14.078125 -6.171875 14.425781 -5.671875 14.71875 -5.265625 C 15.007812 -4.859375 15.253906 -4.519531 15.453125 -4.25 C 15.453125 -4.71875 15.457031 -5.175781 15.46875 -5.625 C 15.476562 -6.082031 15.484375 -6.546875 15.484375 -7.015625 L 15.484375 -10.71875 C 15.484375 -11.351562 15.484375 -11.882812 15.484375 -12.3125 C 15.484375 -12.75 15.476562 -13.125 15.46875 -13.4375 C 15.457031 -13.75 15.445312 -14.007812 15.4375 -14.21875 C 15.425781 -14.4375 15.410156 -14.65625 15.390625 -14.875 C 15.359375 -15.1875 15.28125 -15.472656 15.15625 -15.734375 C 15.039062 -15.992188 14.859375 -16.226562 14.609375 -16.4375 C 14.441406 -16.570312 14.226562 -16.648438 13.96875 -16.671875 C 13.707031 -16.691406 13.429688 -16.703125 13.140625 -16.703125 L 13.03125 -16.8125 L 12.953125 -17.84375 L 13 -17.953125 C 13.125 -17.953125 13.304688 -17.941406 13.546875 -17.921875 C 13.785156 -17.910156 14.023438 -17.894531 14.265625 -17.875 C 14.515625 -17.851562 14.753906 -17.832031 14.984375 -17.8125 C 15.222656 -17.800781 15.40625 -17.796875 15.53125 -17.796875 L 17.90625 -17.796875 C 18.03125 -17.796875 18.207031 -17.796875 18.4375 -17.796875 C 18.675781 -17.804688 18.921875 -17.820312 19.171875 -17.84375 C 19.429688 -17.863281 19.675781 -17.878906 19.90625 -17.890625 C 20.144531 -17.910156 20.328125 -17.929688 20.453125 -17.953125 Z M 20.484375 -17.84375 "/></g></g></g><g fill="#ffffff" fill-opacity="1"><g transform="translate(85.816005, 49.931101)"><g><path d="M 12.234375 0.15625 C 12.109375 0.15625 11.910156 0.144531 11.640625 0.125 C 11.367188 0.113281 11.078125 0.0976562 10.765625 0.078125 C 10.460938 0.0546875 10.175781 0.0351562 9.90625 0.015625 C 9.632812 0.00390625 9.429688 0 9.296875 0 L 6.671875 0 C 6.535156 0 6.332031 0.00390625 6.0625 0.015625 C 5.789062 0.0351562 5.503906 0.0546875 5.203125 0.078125 C 4.910156 0.0976562 4.625 0.113281 4.34375 0.125 C 4.070312 0.144531 3.875 0.15625 3.75 0.15625 L 3.703125 0.046875 L 3.78125 -0.984375 L 3.921875 -1.09375 C 4.191406 -1.09375 4.507812 -1.097656 4.875 -1.109375 C 5.25 -1.128906 5.519531 -1.210938 5.6875 -1.359375 C 5.832031 -1.484375 5.976562 -1.644531 6.125 -1.84375 C 6.269531 -2.050781 6.367188 -2.40625 6.421875 -2.90625 C 6.441406 -3.03125 6.453125 -3.179688 6.453125 -3.359375 C 6.460938 -3.535156 6.472656 -3.75 6.484375 -4 C 6.492188 -4.25 6.5 -4.554688 6.5 -4.921875 C 6.5 -5.285156 6.5 -5.738281 6.5 -6.28125 L 6.5 -11.265625 C 6.5 -12.265625 6.488281 -13.148438 6.46875 -13.921875 C 6.457031 -14.703125 6.441406 -15.285156 6.421875 -15.671875 L 6.125 -15.671875 C 5.4375 -15.671875 4.863281 -15.664062 4.40625 -15.65625 C 3.957031 -15.644531 3.59375 -15.625 3.3125 -15.59375 C 3.039062 -15.570312 2.835938 -15.539062 2.703125 -15.5 C 2.566406 -15.46875 2.472656 -15.425781 2.421875 -15.375 C 2.222656 -15.28125 2.054688 -15.132812 1.921875 -14.9375 C 1.796875 -14.738281 1.71875 -14.503906 1.6875 -14.234375 L 1.578125 -14.125 L 0.40625 -14.125 L 0.59375 -17.765625 L 0.703125 -18.015625 L 0.875 -18.09375 C 1.019531 -18.039062 1.335938 -17.988281 1.828125 -17.9375 C 2.316406 -17.894531 2.847656 -17.863281 3.421875 -17.84375 C 4.003906 -17.820312 4.5625 -17.804688 5.09375 -17.796875 C 5.632812 -17.796875 6.019531 -17.796875 6.25 -17.796875 L 9.6875 -17.796875 C 9.914062 -17.796875 10.296875 -17.796875 10.828125 -17.796875 C 11.367188 -17.804688 11.929688 -17.820312 12.515625 -17.84375 C 13.097656 -17.863281 13.632812 -17.894531 14.125 -17.9375 C 14.613281 -17.988281 14.929688 -18.039062 15.078125 -18.09375 L 15.234375 -18.015625 L 15.34375 -17.765625 L 15.5625 -14.125 L 14.359375 -14.125 L 14.25 -14.234375 C 14.21875 -14.503906 14.132812 -14.738281 14 -14.9375 C 13.875 -15.132812 13.710938 -15.28125 13.515625 -15.375 C 13.460938 -15.445312 13.367188 -15.503906 13.234375 -15.546875 C 13.097656 -15.585938 12.894531 -15.617188 12.625 -15.640625 C 12.351562 -15.660156 11.992188 -15.671875 11.546875 -15.671875 C 11.097656 -15.671875 10.53125 -15.671875 9.84375 -15.671875 L 9.546875 -15.671875 C 9.523438 -15.234375 9.507812 -14.648438 9.5 -13.921875 C 9.5 -13.203125 9.5 -12.328125 9.5 -11.296875 L 9.5 -6.828125 C 9.5 -6.171875 9.5 -5.640625 9.5 -5.234375 C 9.5 -4.828125 9.5 -4.488281 9.5 -4.21875 C 9.507812 -3.945312 9.519531 -3.710938 9.53125 -3.515625 C 9.539062 -3.328125 9.554688 -3.125 9.578125 -2.90625 C 9.609375 -2.382812 9.707031 -2.019531 9.875 -1.8125 C 10.039062 -1.613281 10.195312 -1.460938 10.34375 -1.359375 C 10.414062 -1.285156 10.519531 -1.226562 10.65625 -1.1875 C 10.789062 -1.15625 10.9375 -1.128906 11.09375 -1.109375 C 11.257812 -1.097656 11.425781 -1.09375 11.59375 -1.09375 C 11.769531 -1.09375 11.929688 -1.09375 12.078125 -1.09375 L 12.21875 -0.984375 L 12.296875 0.046875 Z M 12.234375 0.15625 "/></g></g></g><g fill="#ffffff" fill-opacity="1"><g transform="translate(102.461376, 49.931101)"><g><path d="M 8.84375 0.15625 C 8.695312 0.144531 8.488281 0.128906 8.21875 0.109375 C 7.957031 0.0859375 7.675781 0.0664062 7.375 0.046875 C 7.082031 0.0351562 6.796875 0.0234375 6.515625 0.015625 C 6.234375 0.00390625 5.992188 0 5.796875 0 L 4.1875 0 C 3.96875 0 3.710938 0.00390625 3.421875 0.015625 C 3.140625 0.0234375 2.851562 0.0351562 2.5625 0.046875 C 2.269531 0.0664062 1.988281 0.0859375 1.71875 0.109375 C 1.457031 0.128906 1.265625 0.144531 1.140625 0.15625 L 1.09375 0.046875 L 1.171875 -0.984375 L 1.3125 -1.09375 C 2 -1.09375 2.46875 -1.171875 2.71875 -1.328125 C 3.101562 -1.585938 3.335938 -2.113281 3.421875 -2.90625 C 3.441406 -3.21875 3.457031 -3.691406 3.46875 -4.328125 C 3.476562 -4.972656 3.484375 -5.625 3.484375 -6.28125 L 3.484375 -12.265625 C 3.484375 -12.898438 3.472656 -13.40625 3.453125 -13.78125 C 3.429688 -14.15625 3.40625 -14.519531 3.375 -14.875 C 3.300781 -15.363281 3.222656 -15.71875 3.140625 -15.9375 C 3.054688 -16.15625 2.9375 -16.328125 2.78125 -16.453125 C 2.632812 -16.546875 2.457031 -16.609375 2.25 -16.640625 C 2.039062 -16.679688 1.726562 -16.703125 1.3125 -16.703125 L 1.171875 -16.8125 L 1.09375 -17.84375 L 1.140625 -17.953125 C 1.609375 -17.898438 2.070312 -17.859375 2.53125 -17.828125 C 3 -17.804688 3.367188 -17.796875 3.640625 -17.796875 L 5.71875 -17.796875 C 6.132812 -17.796875 6.609375 -17.800781 7.140625 -17.8125 C 7.671875 -17.832031 8.140625 -17.84375 8.546875 -17.84375 C 10.703125 -17.84375 12.332031 -17.4375 13.4375 -16.625 C 14.539062 -15.820312 15.09375 -14.625 15.09375 -13.03125 C 15.09375 -11.882812 14.757812 -10.84375 14.09375 -9.90625 C 13.4375 -8.976562 12.457031 -8.171875 11.15625 -7.484375 C 11.769531 -6.554688 12.289062 -5.800781 12.71875 -5.21875 C 13.144531 -4.644531 13.507812 -4.179688 13.8125 -3.828125 C 14.226562 -3.335938 14.617188 -2.929688 14.984375 -2.609375 C 15.347656 -2.285156 15.707031 -2.015625 16.0625 -1.796875 C 16.414062 -1.578125 16.78125 -1.410156 17.15625 -1.296875 C 17.539062 -1.191406 17.96875 -1.125 18.4375 -1.09375 L 18.609375 -0.984375 L 18.65625 0.046875 L 18.609375 0.15625 C 17.921875 0.195312 17.320312 0.226562 16.8125 0.25 C 16.300781 0.28125 15.929688 0.296875 15.703125 0.296875 C 14.734375 0.296875 13.875 0.03125 13.125 -0.5 C 12.375 -1.039062 11.570312 -1.953125 10.71875 -3.234375 C 10.519531 -3.523438 10.304688 -3.851562 10.078125 -4.21875 C 9.847656 -4.582031 9.617188 -4.941406 9.390625 -5.296875 C 9.171875 -5.648438 8.957031 -5.988281 8.75 -6.3125 C 8.550781 -6.632812 8.390625 -6.914062 8.265625 -7.15625 L 6.5 -7.15625 C 6.5 -6.539062 6.5 -6.007812 6.5 -5.5625 C 6.5 -5.113281 6.503906 -4.726562 6.515625 -4.40625 C 6.523438 -4.082031 6.535156 -3.800781 6.546875 -3.5625 C 6.566406 -3.320312 6.585938 -3.101562 6.609375 -2.90625 C 6.679688 -2.070312 6.878906 -1.546875 7.203125 -1.328125 C 7.335938 -1.242188 7.503906 -1.179688 7.703125 -1.140625 C 7.898438 -1.109375 8.234375 -1.09375 8.703125 -1.09375 L 8.8125 -0.984375 L 8.890625 0.046875 Z M 7.890625 -9.171875 C 9.210938 -9.171875 10.25 -9.488281 11 -10.125 C 11.75 -10.757812 12.125 -11.640625 12.125 -12.765625 C 12.125 -13.773438 11.789062 -14.507812 11.125 -14.96875 C 10.457031 -15.4375 9.390625 -15.671875 7.921875 -15.671875 L 6.640625 -15.671875 C 6.585938 -14.941406 6.550781 -14.378906 6.53125 -13.984375 C 6.507812 -13.585938 6.5 -13.207031 6.5 -12.84375 L 6.5 -10.171875 C 6.5 -9.796875 6.546875 -9.535156 6.640625 -9.390625 C 6.734375 -9.242188 6.90625 -9.171875 7.15625 -9.171875 Z M 7.890625 -9.171875 "/></g></g></g><g fill="#ffffff" fill-opacity="1"><g transform="translate(121.201033, 49.931101)"><g><path d="M 10.5 -18.09375 L 15.171875 -5.734375 C 15.335938 -5.285156 15.484375 -4.90625 15.609375 -4.59375 C 15.742188 -4.289062 15.847656 -4.03125 15.921875 -3.8125 C 16.003906 -3.59375 16.078125 -3.414062 16.140625 -3.28125 C 16.203125 -3.144531 16.265625 -3.019531 16.328125 -2.90625 C 16.535156 -2.457031 16.753906 -2.109375 16.984375 -1.859375 C 17.210938 -1.617188 17.441406 -1.4375 17.671875 -1.3125 C 17.898438 -1.195312 18.128906 -1.128906 18.359375 -1.109375 C 18.597656 -1.097656 18.832031 -1.09375 19.0625 -1.09375 L 19.203125 -0.984375 L 19.28125 0.046875 L 19.234375 0.15625 C 19.109375 0.15625 18.914062 0.144531 18.65625 0.125 C 18.40625 0.113281 18.144531 0.0976562 17.875 0.078125 C 17.601562 0.0546875 17.34375 0.0351562 17.09375 0.015625 C 16.851562 0.00390625 16.671875 0 16.546875 0 L 14.546875 0 C 14.421875 0 14.210938 0.00390625 13.921875 0.015625 C 13.640625 0.0351562 13.335938 0.0546875 13.015625 0.078125 C 12.703125 0.0976562 12.398438 0.113281 12.109375 0.125 C 11.816406 0.144531 11.609375 0.15625 11.484375 0.15625 L 11.421875 0.046875 L 11.5 -0.984375 L 11.609375 -1.09375 C 12.085938 -1.09375 12.445312 -1.148438 12.6875 -1.265625 C 12.9375 -1.378906 13.0625 -1.703125 13.0625 -2.234375 C 13.0625 -2.523438 13.007812 -2.9375 12.90625 -3.46875 C 12.8125 -4 12.582031 -4.664062 12.21875 -5.46875 L 11.640625 -6.78125 L 6.875 -6.78125 L 6.34375 -5.46875 C 6.007812 -4.664062 5.757812 -3.984375 5.59375 -3.421875 C 5.4375 -2.859375 5.359375 -2.460938 5.359375 -2.234375 C 5.359375 -1.796875 5.445312 -1.492188 5.625 -1.328125 C 5.8125 -1.171875 6.140625 -1.09375 6.609375 -1.09375 L 6.75 -0.984375 L 6.828125 0.046875 L 6.78125 0.15625 C 6.644531 0.15625 6.441406 0.144531 6.171875 0.125 C 5.898438 0.113281 5.613281 0.0976562 5.3125 0.078125 C 5.019531 0.0546875 4.734375 0.0351562 4.453125 0.015625 C 4.179688 0.00390625 3.984375 0 3.859375 0 L 2.265625 0 C 2.128906 0 1.9375 0.00390625 1.6875 0.015625 C 1.4375 0.0351562 1.171875 0.0546875 0.890625 0.078125 C 0.617188 0.0976562 0.359375 0.113281 0.109375 0.125 C -0.128906 0.144531 -0.3125 0.15625 -0.4375 0.15625 L -0.46875 0.046875 L -0.40625 -0.984375 L -0.265625 -1.09375 C -0.0351562 -1.09375 0.191406 -1.109375 0.421875 -1.140625 C 0.660156 -1.179688 0.898438 -1.265625 1.140625 -1.390625 C 1.378906 -1.515625 1.609375 -1.691406 1.828125 -1.921875 C 2.054688 -2.148438 2.289062 -2.441406 2.53125 -2.796875 C 2.582031 -2.910156 2.660156 -3.078125 2.765625 -3.296875 C 2.878906 -3.523438 3.050781 -3.929688 3.28125 -4.515625 C 3.519531 -5.097656 3.847656 -5.921875 4.265625 -6.984375 C 4.679688 -8.054688 5.238281 -9.484375 5.9375 -11.265625 L 8.265625 -17.28125 L 10.203125 -18.09375 Z M 7.34375 -8.765625 L 10.90625 -8.765625 L 9.171875 -13.578125 Z M 7.34375 -8.765625 "/></g></g></g><g fill="#ffffff" fill-opacity="1"><g transform="translate(140.89263, 49.931101)"><g><path d="M 3.40625 -14.875 C 3.363281 -15.1875 3.289062 -15.488281 3.1875 -15.78125 C 3.09375 -16.082031 2.945312 -16.304688 2.75 -16.453125 C 2.601562 -16.546875 2.421875 -16.609375 2.203125 -16.640625 C 1.984375 -16.679688 1.6875 -16.703125 1.3125 -16.703125 L 1.171875 -16.8125 L 1.09375 -17.84375 L 1.140625 -17.953125 C 1.304688 -17.929688 1.53125 -17.910156 1.8125 -17.890625 C 2.09375 -17.878906 2.378906 -17.863281 2.671875 -17.84375 C 2.972656 -17.820312 3.257812 -17.804688 3.53125 -17.796875 C 3.800781 -17.796875 4.019531 -17.796875 4.1875 -17.796875 L 5.796875 -17.796875 C 5.960938 -17.796875 6.175781 -17.796875 6.4375 -17.796875 C 6.695312 -17.804688 6.972656 -17.820312 7.265625 -17.84375 C 7.566406 -17.863281 7.859375 -17.878906 8.140625 -17.890625 C 8.421875 -17.910156 8.65625 -17.929688 8.84375 -17.953125 L 8.890625 -17.84375 L 8.8125 -16.8125 L 8.703125 -16.703125 C 8.253906 -16.703125 7.925781 -16.675781 7.71875 -16.625 C 7.507812 -16.582031 7.335938 -16.519531 7.203125 -16.4375 C 6.828125 -16.175781 6.613281 -15.65625 6.5625 -14.875 C 6.539062 -14.695312 6.523438 -14.507812 6.515625 -14.3125 C 6.503906 -14.125 6.5 -13.878906 6.5 -13.578125 C 6.5 -13.285156 6.5 -12.910156 6.5 -12.453125 C 6.5 -12.003906 6.5 -11.4375 6.5 -10.75 L 6.5 -7.09375 C 6.5 -6.394531 6.5 -5.820312 6.5 -5.375 C 6.5 -4.925781 6.503906 -4.550781 6.515625 -4.25 C 6.523438 -3.957031 6.535156 -3.695312 6.546875 -3.46875 C 6.554688 -3.238281 6.578125 -2.972656 6.609375 -2.671875 C 6.628906 -2.304688 6.835938 -2.125 7.234375 -2.125 L 9.765625 -2.125 C 10.359375 -2.125 10.832031 -2.132812 11.1875 -2.15625 C 11.539062 -2.1875 11.816406 -2.257812 12.015625 -2.375 C 12.222656 -2.5 12.378906 -2.664062 12.484375 -2.875 C 12.597656 -3.09375 12.695312 -3.394531 12.78125 -3.78125 L 12.859375 -3.890625 L 14.125 -3.890625 L 13.625 -0.15625 L 13.40625 0.109375 C 13.257812 0.0859375 13.03125 0.0703125 12.71875 0.0625 C 12.414062 0.0507812 12.09375 0.0390625 11.75 0.03125 C 11.40625 0.03125 11.066406 0.0234375 10.734375 0.015625 C 10.398438 0.00390625 10.140625 0 9.953125 0 L 4.1875 0 C 4.0625 0 3.859375 0.00390625 3.578125 0.015625 C 3.296875 0.0234375 3 0.0351562 2.6875 0.046875 C 2.382812 0.0664062 2.085938 0.0859375 1.796875 0.109375 C 1.503906 0.128906 1.285156 0.144531 1.140625 0.15625 L 1.09375 0.046875 L 1.171875 -0.984375 L 1.3125 -1.09375 C 2 -1.09375 2.46875 -1.191406 2.71875 -1.390625 C 2.863281 -1.515625 3.003906 -1.710938 3.140625 -1.984375 C 3.273438 -2.253906 3.363281 -2.570312 3.40625 -2.9375 C 3.414062 -3.113281 3.425781 -3.359375 3.4375 -3.671875 C 3.445312 -3.992188 3.457031 -4.328125 3.46875 -4.671875 C 3.476562 -5.023438 3.484375 -5.347656 3.484375 -5.640625 C 3.484375 -5.941406 3.484375 -6.15625 3.484375 -6.28125 L 3.484375 -10.71875 C 3.484375 -11.71875 3.476562 -12.59375 3.46875 -13.34375 C 3.457031 -14.09375 3.4375 -14.601562 3.40625 -14.875 Z M 3.40625 -14.875 "/></g></g></g></svg>