<svg xmlns="http://www.w3.org/2000/svg" xmlns:xlink="http://www.w3.org/1999/xlink" width="246" zoomAndPan="magnify" viewBox="0 0 184.5 54.75" height="73" preserveAspectRatio="xMidYMid meet" version="1.0"><defs><g/></defs><g fill="#a6a6a6" fill-opacity="0.4"><g transform="translate(18.367981, 19.002552)"><g><path d="M 26.5 0.171875 C 26.375 0.171875 26.15625 0.160156 25.84375 0.140625 C 25.539062 0.117188 25.222656 0.0976562 24.890625 0.078125 C 24.566406 0.0664062 24.25 0.0507812 23.9375 0.03125 C 23.632812 0.0078125 23.414062 0 23.28125 0 L 21.578125 0 C 21.453125 0 21.234375 0.0078125 20.921875 0.03125 C 20.617188 0.0507812 20.300781 0.0664062 19.96875 0.078125 C 19.644531 0.0976562 19.328125 0.117188 19.015625 0.140625 C 18.710938 0.160156 18.492188 0.171875 18.359375 0.171875 L 18.28125 0.0625 L 18.359375 -1.03125 L 18.484375 -1.15625 L 18.796875 -1.15625 C 19.347656 -1.15625 19.78125 -1.242188 20.09375 -1.421875 C 20.414062 -1.609375 20.578125 -1.976562 20.578125 -2.53125 L 19.953125 -11.9375 C 19.910156 -12.382812 19.882812 -12.769531 19.875 -13.09375 C 19.863281 -13.414062 19.820312 -13.769531 19.75 -14.15625 C 19.632812 -13.8125 19.453125 -13.320312 19.203125 -12.6875 C 18.953125 -12.0625 18.664062 -11.335938 18.34375 -10.515625 C 18.03125 -9.703125 17.691406 -8.832031 17.328125 -7.90625 C 16.960938 -6.988281 16.597656 -6.070312 16.234375 -5.15625 C 15.867188 -4.25 15.523438 -3.378906 15.203125 -2.546875 C 14.890625 -1.710938 14.617188 -0.988281 14.390625 -0.375 L 12.03125 -0.375 L 7 -14.078125 C 7 -13.617188 6.976562 -13.238281 6.9375 -12.9375 C 6.894531 -12.632812 6.859375 -12.253906 6.828125 -11.796875 L 6.46875 -7.078125 C 6.4375 -6.441406 6.40625 -5.914062 6.375 -5.5 C 6.34375 -5.09375 6.320312 -4.742188 6.3125 -4.453125 C 6.300781 -4.171875 6.296875 -3.921875 6.296875 -3.703125 C 6.296875 -3.492188 6.296875 -3.285156 6.296875 -3.078125 C 6.296875 -2.523438 6.359375 -2.140625 6.484375 -1.921875 C 6.609375 -1.710938 6.75 -1.550781 6.90625 -1.4375 C 7.0625 -1.28125 7.238281 -1.191406 7.4375 -1.171875 C 7.632812 -1.160156 7.890625 -1.15625 8.203125 -1.15625 L 8.3125 -1.03125 L 8.40625 0.0625 L 8.34375 0.171875 C 8.207031 0.171875 8.007812 0.160156 7.75 0.140625 C 7.5 0.117188 7.238281 0.0976562 6.96875 0.078125 C 6.695312 0.0664062 6.429688 0.0507812 6.171875 0.03125 C 5.910156 0.0078125 5.710938 0 5.578125 0 L 3.890625 0 C 3.753906 0 3.535156 0.0078125 3.234375 0.03125 C 2.941406 0.0507812 2.625 0.0664062 2.28125 0.078125 C 1.945312 0.0976562 1.628906 0.117188 1.328125 0.140625 C 1.035156 0.160156 0.820312 0.171875 0.6875 0.171875 L 0.640625 0.0625 L 0.71875 -1.03125 L 0.890625 -1.15625 C 1.179688 -1.15625 1.457031 -1.164062 1.71875 -1.1875 C 1.988281 -1.21875 2.222656 -1.300781 2.421875 -1.4375 C 2.566406 -1.570312 2.71875 -1.742188 2.875 -1.953125 C 3.03125 -2.171875 3.15625 -2.546875 3.25 -3.078125 C 3.289062 -3.304688 3.335938 -3.625 3.390625 -4.03125 C 3.453125 -4.4375 3.519531 -5.117188 3.59375 -6.078125 L 4 -11.34375 C 4.0625 -12.007812 4.101562 -12.570312 4.125 -13.03125 C 4.15625 -13.5 4.175781 -13.894531 4.1875 -14.21875 C 4.195312 -14.539062 4.207031 -14.816406 4.21875 -15.046875 C 4.226562 -15.273438 4.234375 -15.507812 4.234375 -15.75 C 4.234375 -16.300781 4.148438 -16.679688 3.984375 -16.890625 C 3.816406 -17.109375 3.660156 -17.273438 3.515625 -17.390625 C 3.335938 -17.535156 3.113281 -17.617188 2.84375 -17.640625 C 2.582031 -17.660156 2.296875 -17.671875 1.984375 -17.671875 L 1.84375 -17.78125 L 1.75 -18.875 L 1.8125 -19 C 1.945312 -19 2.164062 -18.988281 2.46875 -18.96875 C 2.78125 -18.945312 3.097656 -18.925781 3.421875 -18.90625 C 3.753906 -18.882812 4.070312 -18.863281 4.375 -18.84375 C 4.675781 -18.832031 4.894531 -18.828125 5.03125 -18.828125 L 7.25 -18.828125 C 7.382812 -18.828125 7.5625 -18.832031 7.78125 -18.84375 C 8 -18.863281 8.207031 -18.894531 8.40625 -18.9375 L 8.546875 -18.859375 C 8.566406 -18.585938 8.640625 -18.210938 8.765625 -17.734375 C 8.890625 -17.253906 9.039062 -16.722656 9.21875 -16.140625 C 9.40625 -15.566406 9.613281 -14.957031 9.84375 -14.3125 C 10.070312 -13.675781 10.300781 -13.050781 10.53125 -12.4375 L 12.34375 -7.765625 C 12.550781 -7.253906 12.757812 -6.707031 12.96875 -6.125 C 13.1875 -5.550781 13.382812 -5.003906 13.5625 -4.484375 C 13.613281 -4.566406 13.765625 -4.90625 14.015625 -5.5 C 14.265625 -6.09375 14.5625 -6.828125 14.90625 -7.703125 C 15.25 -8.585938 15.617188 -9.5625 16.015625 -10.625 C 16.410156 -11.695312 16.785156 -12.75 17.140625 -13.78125 C 17.492188 -14.820312 17.800781 -15.785156 18.0625 -16.671875 C 18.320312 -17.566406 18.488281 -18.285156 18.5625 -18.828125 L 18.703125 -18.9375 C 18.859375 -18.894531 19.019531 -18.863281 19.1875 -18.84375 C 19.363281 -18.832031 19.53125 -18.828125 19.6875 -18.828125 L 22.15625 -18.828125 C 22.289062 -18.828125 22.507812 -18.832031 22.8125 -18.84375 C 23.125 -18.863281 23.441406 -18.882812 23.765625 -18.90625 C 24.097656 -18.925781 24.414062 -18.945312 24.71875 -18.96875 C 25.03125 -18.988281 25.253906 -19 25.390625 -19 L 25.4375 -18.875 L 25.359375 -17.78125 L 25.21875 -17.671875 C 24.925781 -17.671875 24.640625 -17.65625 24.359375 -17.625 C 24.085938 -17.59375 23.863281 -17.515625 23.6875 -17.390625 C 23.53125 -17.273438 23.367188 -17.097656 23.203125 -16.859375 C 23.046875 -16.628906 22.96875 -16.257812 22.96875 -15.75 C 22.96875 -15.476562 22.96875 -15.226562 22.96875 -15 C 22.96875 -14.769531 22.976562 -14.5 23 -14.1875 C 23.019531 -13.882812 23.039062 -13.507812 23.0625 -13.0625 C 23.09375 -12.625 23.140625 -12.0625 23.203125 -11.375 L 23.546875 -7.21875 C 23.597656 -6.53125 23.644531 -5.96875 23.6875 -5.53125 C 23.726562 -5.101562 23.757812 -4.742188 23.78125 -4.453125 C 23.8125 -4.171875 23.835938 -3.925781 23.859375 -3.71875 C 23.878906 -3.519531 23.910156 -3.304688 23.953125 -3.078125 C 24.023438 -2.523438 24.132812 -2.140625 24.28125 -1.921875 C 24.4375 -1.710938 24.59375 -1.550781 24.75 -1.4375 C 24.925781 -1.28125 25.148438 -1.191406 25.421875 -1.171875 C 25.703125 -1.160156 26 -1.15625 26.3125 -1.15625 L 26.453125 -1.03125 L 26.53125 0.0625 Z M 26.5 0.171875 "/></g></g></g><g fill="#a6a6a6" fill-opacity="0.4"><g transform="translate(46.285976, 19.002552)"><g><path d="M 9.4375 -18.828125 C 9.707031 -18.828125 10.101562 -18.832031 10.625 -18.84375 C 11.15625 -18.851562 11.695312 -18.863281 12.25 -18.875 C 12.8125 -18.894531 13.3125 -18.910156 13.75 -18.921875 C 14.195312 -18.929688 14.46875 -18.9375 14.5625 -18.9375 L 14.734375 -18.65625 L 14.59375 -14.9375 L 13.296875 -14.9375 L 13.1875 -15.046875 C 13.144531 -15.410156 13.085938 -15.695312 13.015625 -15.90625 C 12.953125 -16.125 12.773438 -16.28125 12.484375 -16.375 C 12.203125 -16.46875 11.757812 -16.523438 11.15625 -16.546875 C 10.550781 -16.566406 9.710938 -16.578125 8.640625 -16.578125 L 7 -16.578125 L 6.96875 -16.3125 C 6.945312 -16.050781 6.929688 -15.800781 6.921875 -15.5625 C 6.910156 -15.332031 6.898438 -15.0625 6.890625 -14.75 C 6.878906 -14.445312 6.875 -14.078125 6.875 -13.640625 C 6.875 -13.203125 6.875 -12.632812 6.875 -11.9375 L 6.875 -10.96875 C 7.332031 -10.988281 7.769531 -10.992188 8.1875 -10.984375 C 8.613281 -10.972656 9.007812 -10.972656 9.375 -10.984375 C 9.738281 -11.003906 10.050781 -11.039062 10.3125 -11.09375 C 10.570312 -11.144531 10.757812 -11.226562 10.875 -11.34375 C 11.070312 -11.53125 11.171875 -11.796875 11.171875 -12.140625 L 11.3125 -12.296875 L 12.375 -12.34375 L 12.484375 -12.296875 C 12.453125 -11.847656 12.421875 -11.460938 12.390625 -11.140625 C 12.359375 -10.816406 12.34375 -10.441406 12.34375 -10.015625 C 12.34375 -9.554688 12.359375 -9.128906 12.390625 -8.734375 C 12.421875 -8.335938 12.453125 -7.910156 12.484375 -7.453125 L 12.375 -7.390625 L 11.28125 -7.453125 L 11.171875 -7.546875 C 11.171875 -8.023438 11.082031 -8.378906 10.90625 -8.609375 C 10.75 -8.816406 10.3125 -8.9375 9.59375 -8.96875 C 8.875 -9 8.070312 -9.015625 7.1875 -9.015625 L 6.875 -9.015625 L 6.875 -6.65625 C 6.875 -6.09375 6.878906 -5.628906 6.890625 -5.265625 C 6.898438 -4.898438 6.910156 -4.585938 6.921875 -4.328125 C 6.929688 -4.066406 6.945312 -3.820312 6.96875 -3.59375 C 6.988281 -3.363281 7.003906 -3.097656 7.015625 -2.796875 C 7.035156 -2.429688 7.226562 -2.25 7.59375 -2.25 L 8.890625 -2.25 C 9.984375 -2.25 10.84375 -2.265625 11.46875 -2.296875 C 12.09375 -2.335938 12.566406 -2.429688 12.890625 -2.578125 C 13.222656 -2.722656 13.457031 -2.925781 13.59375 -3.1875 C 13.738281 -3.457031 13.867188 -3.820312 13.984375 -4.28125 L 14.109375 -4.40625 L 15.453125 -4.40625 L 14.90625 -0.171875 L 14.671875 0.109375 C 14.578125 0.109375 14.34375 0.101562 13.96875 0.09375 C 13.59375 0.09375 13.175781 0.0820312 12.71875 0.0625 C 12.257812 0.0390625 11.800781 0.0234375 11.34375 0.015625 C 10.882812 0.00390625 10.519531 0 10.25 0 L 4.4375 0 C 4.300781 0 4.078125 0.0078125 3.765625 0.03125 C 3.460938 0.0507812 3.144531 0.0664062 2.8125 0.078125 C 2.488281 0.0976562 2.171875 0.117188 1.859375 0.140625 C 1.554688 0.160156 1.335938 0.171875 1.203125 0.171875 L 1.15625 0.0625 L 1.234375 -1.03125 L 1.375 -1.15625 C 1.6875 -1.15625 1.972656 -1.164062 2.234375 -1.1875 C 2.503906 -1.21875 2.726562 -1.300781 2.90625 -1.4375 C 3.0625 -1.570312 3.207031 -1.742188 3.34375 -1.953125 C 3.488281 -2.171875 3.582031 -2.546875 3.625 -3.078125 C 3.625 -3.210938 3.628906 -3.367188 3.640625 -3.546875 C 3.648438 -3.734375 3.660156 -3.960938 3.671875 -4.234375 C 3.679688 -4.503906 3.6875 -4.828125 3.6875 -5.203125 C 3.6875 -5.585938 3.6875 -6.070312 3.6875 -6.65625 L 3.6875 -11.34375 C 3.6875 -12.007812 3.6875 -12.570312 3.6875 -13.03125 C 3.6875 -13.5 3.6875 -13.894531 3.6875 -14.21875 C 3.6875 -14.539062 3.679688 -14.816406 3.671875 -15.046875 C 3.660156 -15.273438 3.644531 -15.507812 3.625 -15.75 C 3.582031 -16.257812 3.488281 -16.628906 3.34375 -16.859375 C 3.207031 -17.097656 3.0625 -17.273438 2.90625 -17.390625 C 2.726562 -17.535156 2.503906 -17.617188 2.234375 -17.640625 C 1.972656 -17.660156 1.6875 -17.671875 1.375 -17.671875 L 1.234375 -17.78125 L 1.15625 -18.875 L 1.203125 -19 C 1.335938 -19 1.554688 -18.988281 1.859375 -18.96875 C 2.171875 -18.945312 2.503906 -18.925781 2.859375 -18.90625 C 3.210938 -18.882812 3.554688 -18.863281 3.890625 -18.84375 C 4.234375 -18.832031 4.507812 -18.828125 4.71875 -18.828125 Z M 9.4375 -18.828125 "/></g></g></g><g fill="#a6a6a6" fill-opacity="0.4"><g transform="translate(63.554838, 19.002552)"><g><path d="M 9.359375 0.171875 C 9.203125 0.148438 8.984375 0.128906 8.703125 0.109375 C 8.421875 0.0976562 8.125 0.0820312 7.8125 0.0625 C 7.5 0.0390625 7.191406 0.0234375 6.890625 0.015625 C 6.597656 0.00390625 6.34375 0 6.125 0 L 4.4375 0 C 4.207031 0 3.9375 0.00390625 3.625 0.015625 C 3.320312 0.0234375 3.015625 0.0390625 2.703125 0.0625 C 2.398438 0.0820312 2.109375 0.0976562 1.828125 0.109375 C 1.546875 0.128906 1.335938 0.148438 1.203125 0.171875 L 1.15625 0.0625 L 1.234375 -1.03125 L 1.375 -1.15625 C 2.101562 -1.15625 2.601562 -1.238281 2.875 -1.40625 C 3.28125 -1.675781 3.53125 -2.234375 3.625 -3.078125 C 3.644531 -3.398438 3.660156 -3.898438 3.671875 -4.578125 C 3.679688 -5.265625 3.6875 -5.957031 3.6875 -6.65625 L 3.6875 -12.984375 C 3.6875 -13.648438 3.675781 -14.179688 3.65625 -14.578125 C 3.632812 -14.972656 3.601562 -15.363281 3.5625 -15.75 C 3.488281 -16.257812 3.40625 -16.628906 3.3125 -16.859375 C 3.226562 -17.097656 3.101562 -17.28125 2.9375 -17.40625 C 2.78125 -17.507812 2.59375 -17.578125 2.375 -17.609375 C 2.15625 -17.648438 1.820312 -17.671875 1.375 -17.671875 L 1.234375 -17.78125 L 1.15625 -18.875 L 1.203125 -19 C 1.703125 -18.9375 2.195312 -18.890625 2.6875 -18.859375 C 3.175781 -18.835938 3.566406 -18.828125 3.859375 -18.828125 L 6.046875 -18.828125 C 6.484375 -18.828125 6.984375 -18.832031 7.546875 -18.84375 C 8.117188 -18.863281 8.613281 -18.875 9.03125 -18.875 C 11.320312 -18.875 13.050781 -18.445312 14.21875 -17.59375 C 15.382812 -16.738281 15.96875 -15.46875 15.96875 -13.78125 C 15.96875 -12.570312 15.617188 -11.472656 14.921875 -10.484375 C 14.222656 -9.503906 13.179688 -8.648438 11.796875 -7.921875 C 12.453125 -6.941406 13.003906 -6.144531 13.453125 -5.53125 C 13.898438 -4.914062 14.289062 -4.425781 14.625 -4.0625 C 15.0625 -3.539062 15.472656 -3.109375 15.859375 -2.765625 C 16.242188 -2.421875 16.625 -2.128906 17 -1.890625 C 17.375 -1.660156 17.757812 -1.488281 18.15625 -1.375 C 18.5625 -1.257812 19.015625 -1.1875 19.515625 -1.15625 L 19.6875 -1.03125 L 19.75 0.0625 L 19.6875 0.171875 C 18.957031 0.210938 18.320312 0.242188 17.78125 0.265625 C 17.25 0.296875 16.859375 0.3125 16.609375 0.3125 C 15.585938 0.3125 14.675781 0.03125 13.875 -0.53125 C 13.082031 -1.09375 12.238281 -2.054688 11.34375 -3.421875 C 11.125 -3.734375 10.894531 -4.078125 10.65625 -4.453125 C 10.414062 -4.835938 10.175781 -5.21875 9.9375 -5.59375 C 9.695312 -5.96875 9.472656 -6.328125 9.265625 -6.671875 C 9.054688 -7.015625 8.882812 -7.3125 8.75 -7.5625 L 6.875 -7.5625 C 6.875 -6.914062 6.875 -6.359375 6.875 -5.890625 C 6.875 -5.421875 6.878906 -5.007812 6.890625 -4.65625 C 6.898438 -4.3125 6.914062 -4.015625 6.9375 -3.765625 C 6.957031 -3.515625 6.976562 -3.285156 7 -3.078125 C 7.070312 -2.191406 7.28125 -1.632812 7.625 -1.40625 C 7.757812 -1.3125 7.929688 -1.242188 8.140625 -1.203125 C 8.359375 -1.171875 8.710938 -1.15625 9.203125 -1.15625 L 9.328125 -1.03125 L 9.40625 0.0625 Z M 8.34375 -9.703125 C 9.75 -9.703125 10.847656 -10.035156 11.640625 -10.703125 C 12.441406 -11.378906 12.84375 -12.3125 12.84375 -13.5 C 12.84375 -14.570312 12.484375 -15.351562 11.765625 -15.84375 C 11.054688 -16.332031 9.925781 -16.578125 8.375 -16.578125 L 7.015625 -16.578125 C 6.960938 -15.804688 6.925781 -15.207031 6.90625 -14.78125 C 6.882812 -14.363281 6.875 -13.960938 6.875 -13.578125 L 6.875 -10.765625 C 6.875 -10.359375 6.921875 -10.078125 7.015625 -9.921875 C 7.117188 -9.773438 7.300781 -9.703125 7.5625 -9.703125 Z M 8.34375 -9.703125 "/></g></g></g><g fill="#a6a6a6" fill-opacity="0.4"><g transform="translate(83.38526, 19.002552)"><g><path d="M 15.625 -14.59375 C 15.570312 -15.007812 15.390625 -15.367188 15.078125 -15.671875 C 14.773438 -15.972656 14.394531 -16.207031 13.9375 -16.375 C 13.488281 -16.550781 12.988281 -16.675781 12.4375 -16.75 C 11.894531 -16.820312 11.359375 -16.859375 10.828125 -16.859375 C 9.117188 -16.859375 7.789062 -16.429688 6.84375 -15.578125 C 6.113281 -14.921875 5.585938 -14.050781 5.265625 -12.96875 C 4.941406 -11.882812 4.78125 -10.707031 4.78125 -9.4375 C 4.78125 -8.226562 4.945312 -7.160156 5.28125 -6.234375 C 5.613281 -5.316406 6.070312 -4.546875 6.65625 -3.921875 C 7.25 -3.304688 7.945312 -2.835938 8.75 -2.515625 C 9.550781 -2.203125 10.429688 -2.046875 11.390625 -2.046875 C 12.222656 -2.046875 13.179688 -2.132812 14.265625 -2.3125 C 15.347656 -2.5 16.367188 -2.851562 17.328125 -3.375 L 17.671875 -2.734375 L 16.984375 -1.46875 C 15.984375 -0.851562 14.976562 -0.398438 13.96875 -0.109375 C 12.96875 0.171875 11.9375 0.3125 10.875 0.3125 C 9.4375 0.3125 8.128906 0.0820312 6.953125 -0.375 C 5.785156 -0.832031 4.785156 -1.488281 3.953125 -2.34375 C 3.117188 -3.195312 2.472656 -4.210938 2.015625 -5.390625 C 1.554688 -6.578125 1.328125 -7.890625 1.328125 -9.328125 C 1.328125 -10.671875 1.53125 -11.941406 1.9375 -13.140625 C 2.351562 -14.335938 2.96875 -15.375 3.78125 -16.25 C 4.601562 -17.132812 5.613281 -17.835938 6.8125 -18.359375 C 8.007812 -18.878906 9.40625 -19.140625 11 -19.140625 C 11.375 -19.140625 11.820312 -19.125 12.34375 -19.09375 C 12.863281 -19.0625 13.410156 -19.003906 13.984375 -18.921875 C 14.554688 -18.835938 15.132812 -18.710938 15.71875 -18.546875 C 16.3125 -18.390625 16.875 -18.1875 17.40625 -17.9375 L 17.5 -17.671875 L 17.125 -14.484375 L 15.71875 -14.484375 Z M 15.625 -14.59375 "/></g></g></g><g fill="#a6a6a6" fill-opacity="0.4"><g transform="translate(102.812737, 19.002552)"><g><path d="M 11.109375 -19.140625 L 16.0625 -6.078125 C 16.226562 -5.597656 16.378906 -5.191406 16.515625 -4.859375 C 16.648438 -4.535156 16.757812 -4.257812 16.84375 -4.03125 C 16.9375 -3.800781 17.015625 -3.613281 17.078125 -3.46875 C 17.148438 -3.320312 17.210938 -3.191406 17.265625 -3.078125 C 17.492188 -2.597656 17.726562 -2.226562 17.96875 -1.96875 C 18.207031 -1.707031 18.445312 -1.515625 18.6875 -1.390625 C 18.925781 -1.265625 19.171875 -1.191406 19.421875 -1.171875 C 19.671875 -1.160156 19.921875 -1.15625 20.171875 -1.15625 L 20.3125 -1.03125 L 20.40625 0.0625 L 20.34375 0.171875 C 20.207031 0.171875 20.003906 0.160156 19.734375 0.140625 C 19.472656 0.117188 19.195312 0.0976562 18.90625 0.078125 C 18.625 0.0664062 18.351562 0.0507812 18.09375 0.03125 C 17.832031 0.0078125 17.632812 0 17.5 0 L 15.390625 0 C 15.265625 0 15.046875 0.0078125 14.734375 0.03125 C 14.429688 0.0507812 14.109375 0.0664062 13.765625 0.078125 C 13.429688 0.0976562 13.109375 0.117188 12.796875 0.140625 C 12.492188 0.160156 12.273438 0.171875 12.140625 0.171875 L 12.09375 0.0625 L 12.171875 -1.03125 L 12.296875 -1.15625 C 12.785156 -1.15625 13.160156 -1.21875 13.421875 -1.34375 C 13.679688 -1.46875 13.8125 -1.804688 13.8125 -2.359375 C 13.8125 -2.671875 13.757812 -3.109375 13.65625 -3.671875 C 13.550781 -4.234375 13.304688 -4.9375 12.921875 -5.78125 L 12.3125 -7.171875 L 7.28125 -7.171875 L 6.703125 -5.78125 C 6.359375 -4.9375 6.097656 -4.21875 5.921875 -3.625 C 5.753906 -3.03125 5.671875 -2.609375 5.671875 -2.359375 C 5.671875 -1.898438 5.765625 -1.582031 5.953125 -1.40625 C 6.148438 -1.238281 6.5 -1.15625 7 -1.15625 L 7.140625 -1.03125 L 7.21875 0.0625 L 7.171875 0.171875 C 7.035156 0.171875 6.820312 0.160156 6.53125 0.140625 C 6.25 0.117188 5.945312 0.0976562 5.625 0.078125 C 5.3125 0.0664062 5.007812 0.0507812 4.71875 0.03125 C 4.425781 0.0078125 4.21875 0 4.09375 0 L 2.390625 0 C 2.253906 0 2.050781 0.0078125 1.78125 0.03125 C 1.507812 0.0507812 1.226562 0.0664062 0.9375 0.078125 C 0.65625 0.0976562 0.382812 0.117188 0.125 0.140625 C -0.132812 0.160156 -0.328125 0.171875 -0.453125 0.171875 L -0.484375 0.0625 L -0.4375 -1.03125 L -0.28125 -1.15625 C -0.03125 -1.15625 0.210938 -1.171875 0.453125 -1.203125 C 0.703125 -1.242188 0.953125 -1.332031 1.203125 -1.46875 C 1.453125 -1.601562 1.695312 -1.789062 1.9375 -2.03125 C 2.175781 -2.269531 2.421875 -2.582031 2.671875 -2.96875 C 2.734375 -3.082031 2.820312 -3.257812 2.9375 -3.5 C 3.050781 -3.738281 3.234375 -4.164062 3.484375 -4.78125 C 3.734375 -5.394531 4.078125 -6.265625 4.515625 -7.390625 C 4.960938 -8.523438 5.550781 -10.035156 6.28125 -11.921875 L 8.75 -18.28125 L 10.796875 -19.140625 Z M 7.765625 -9.265625 L 11.546875 -9.265625 L 9.703125 -14.359375 Z M 7.765625 -9.265625 "/></g></g></g><g fill="#a6a6a6" fill-opacity="0.4"><g transform="translate(123.650504, 19.002552)"><g><path d="M 3.625 -15.75 C 3.582031 -16.226562 3.492188 -16.59375 3.359375 -16.84375 C 3.234375 -17.09375 3.082031 -17.273438 2.90625 -17.390625 C 2.726562 -17.535156 2.546875 -17.617188 2.359375 -17.640625 C 2.179688 -17.660156 1.851562 -17.671875 1.375 -17.671875 L 1.234375 -17.78125 L 1.15625 -18.875 L 1.203125 -19 C 1.335938 -19 1.53125 -18.988281 1.78125 -18.96875 C 2.03125 -18.945312 2.296875 -18.925781 2.578125 -18.90625 C 2.867188 -18.882812 3.15625 -18.863281 3.4375 -18.84375 C 3.71875 -18.832031 3.960938 -18.828125 4.171875 -18.828125 L 6.96875 -18.828125 C 7.195312 -18.828125 7.488281 -18.832031 7.84375 -18.84375 C 8.195312 -18.851562 8.554688 -18.863281 8.921875 -18.875 C 9.285156 -18.894531 9.632812 -18.910156 9.96875 -18.921875 C 10.300781 -18.929688 10.585938 -18.9375 10.828125 -18.9375 C 12.316406 -18.9375 13.648438 -18.679688 14.828125 -18.171875 C 16.015625 -17.660156 17.007812 -16.972656 17.8125 -16.109375 C 18.625 -15.253906 19.242188 -14.25 19.671875 -13.09375 C 20.097656 -11.945312 20.3125 -10.726562 20.3125 -9.4375 C 20.3125 -8.175781 20.101562 -6.972656 19.6875 -5.828125 C 19.28125 -4.679688 18.675781 -3.671875 17.875 -2.796875 C 17.070312 -1.929688 16.0625 -1.238281 14.84375 -0.71875 C 13.632812 -0.195312 12.238281 0.0625 10.65625 0.0625 C 10.5 0.0625 10.257812 0.0546875 9.9375 0.046875 C 9.625 0.0351562 9.289062 0.03125 8.9375 0.03125 C 8.582031 0.03125 8.234375 0.0234375 7.890625 0.015625 C 7.554688 0.00390625 7.296875 0 7.109375 0 L 4.4375 0 C 4.300781 0 4.078125 0.0078125 3.765625 0.03125 C 3.460938 0.0507812 3.144531 0.0664062 2.8125 0.078125 C 2.488281 0.0976562 2.171875 0.117188 1.859375 0.140625 C 1.554688 0.160156 1.335938 0.171875 1.203125 0.171875 L 1.15625 0.0625 L 1.234375 -1.03125 L 1.375 -1.15625 C 1.613281 -1.15625 1.882812 -1.164062 2.1875 -1.1875 C 2.488281 -1.21875 2.726562 -1.289062 2.90625 -1.40625 C 3.0625 -1.519531 3.207031 -1.703125 3.34375 -1.953125 C 3.476562 -2.203125 3.570312 -2.578125 3.625 -3.078125 C 3.625 -3.210938 3.628906 -3.367188 3.640625 -3.546875 C 3.648438 -3.734375 3.660156 -3.960938 3.671875 -4.234375 C 3.679688 -4.503906 3.6875 -4.828125 3.6875 -5.203125 C 3.6875 -5.585938 3.6875 -6.070312 3.6875 -6.65625 L 3.6875 -11.34375 C 3.6875 -11.53125 3.6875 -11.820312 3.6875 -12.21875 C 3.6875 -12.613281 3.6875 -13.03125 3.6875 -13.46875 C 3.6875 -13.90625 3.679688 -14.332031 3.671875 -14.75 C 3.660156 -15.175781 3.644531 -15.507812 3.625 -15.75 Z M 9.703125 -2.25 C 10.847656 -2.25 11.863281 -2.4375 12.75 -2.8125 C 13.632812 -3.1875 14.378906 -3.695312 14.984375 -4.34375 C 15.585938 -5 16.046875 -5.757812 16.359375 -6.625 C 16.679688 -7.5 16.84375 -8.4375 16.84375 -9.4375 C 16.84375 -10.476562 16.675781 -11.429688 16.34375 -12.296875 C 16.019531 -13.171875 15.546875 -13.925781 14.921875 -14.5625 C 14.296875 -15.195312 13.53125 -15.691406 12.625 -16.046875 C 11.726562 -16.398438 10.707031 -16.578125 9.5625 -16.578125 L 7.015625 -16.578125 C 6.984375 -16.023438 6.960938 -15.5625 6.953125 -15.1875 C 6.941406 -14.8125 6.925781 -14.429688 6.90625 -14.046875 C 6.882812 -13.660156 6.875 -13.238281 6.875 -12.78125 C 6.875 -12.332031 6.875 -11.765625 6.875 -11.078125 L 6.875 -7.515625 C 6.875 -6.359375 6.878906 -5.457031 6.890625 -4.8125 C 6.898438 -4.175781 6.925781 -3.695312 6.96875 -3.375 C 7.019531 -2.875 7.140625 -2.5625 7.328125 -2.4375 C 7.523438 -2.3125 7.875 -2.25 8.375 -2.25 Z M 9.703125 -2.25 "/></g></g></g><g fill="#a6a6a6" fill-opacity="0.4"><g transform="translate(146.04246, 19.002552)"><g><path d="M 10.625 -19.140625 C 12.101562 -19.140625 13.414062 -18.878906 14.5625 -18.359375 C 15.71875 -17.835938 16.6875 -17.128906 17.46875 -16.234375 C 18.257812 -15.347656 18.859375 -14.316406 19.265625 -13.140625 C 19.679688 -11.972656 19.890625 -10.75 19.890625 -9.46875 C 19.890625 -8.195312 19.6875 -6.972656 19.28125 -5.796875 C 18.875 -4.617188 18.273438 -3.578125 17.484375 -2.671875 C 16.691406 -1.773438 15.703125 -1.050781 14.515625 -0.5 C 13.335938 0.0390625 11.972656 0.3125 10.421875 0.3125 C 8.921875 0.3125 7.601562 0.0546875 6.46875 -0.453125 C 5.34375 -0.972656 4.398438 -1.671875 3.640625 -2.546875 C 2.878906 -3.421875 2.304688 -4.4375 1.921875 -5.59375 C 1.546875 -6.757812 1.359375 -7.984375 1.359375 -9.265625 C 1.359375 -10.628906 1.566406 -11.910156 1.984375 -13.109375 C 2.410156 -14.304688 3.015625 -15.347656 3.796875 -16.234375 C 4.585938 -17.128906 5.554688 -17.835938 6.703125 -18.359375 C 7.859375 -18.878906 9.164062 -19.140625 10.625 -19.140625 Z M 10.59375 -2.078125 C 11.53125 -2.078125 12.367188 -2.269531 13.109375 -2.65625 C 13.847656 -3.050781 14.46875 -3.578125 14.96875 -4.234375 C 15.46875 -4.898438 15.847656 -5.679688 16.109375 -6.578125 C 16.378906 -7.472656 16.515625 -8.425781 16.515625 -9.4375 C 16.515625 -10.476562 16.375 -11.441406 16.09375 -12.328125 C 15.820312 -13.222656 15.421875 -13.992188 14.890625 -14.640625 C 14.367188 -15.296875 13.734375 -15.8125 12.984375 -16.1875 C 12.234375 -16.5625 11.390625 -16.75 10.453125 -16.75 C 9.523438 -16.75 8.707031 -16.566406 8 -16.203125 C 7.289062 -15.835938 6.695312 -15.328125 6.21875 -14.671875 C 5.738281 -14.023438 5.375 -13.253906 5.125 -12.359375 C 4.875 -11.460938 4.75 -10.5 4.75 -9.46875 C 4.75 -8.3125 4.890625 -7.28125 5.171875 -6.375 C 5.460938 -5.46875 5.867188 -4.695312 6.390625 -4.0625 C 6.910156 -3.425781 7.523438 -2.9375 8.234375 -2.59375 C 8.941406 -2.25 9.726562 -2.078125 10.59375 -2.078125 Z M 10.59375 -2.078125 "/></g></g></g><g fill="#ffffff" fill-opacity="1"><g transform="translate(17.096006, 17.730577)"><g><path d="M 26.5 0.171875 C 26.375 0.171875 26.15625 0.160156 25.84375 0.140625 C 25.539062 0.117188 25.222656 0.0976562 24.890625 0.078125 C 24.566406 0.0664062 24.25 0.0507812 23.9375 0.03125 C 23.632812 0.0078125 23.414062 0 23.28125 0 L 21.578125 0 C 21.453125 0 21.234375 0.0078125 20.921875 0.03125 C 20.617188 0.0507812 20.300781 0.0664062 19.96875 0.078125 C 19.644531 0.0976562 19.328125 0.117188 19.015625 0.140625 C 18.710938 0.160156 18.492188 0.171875 18.359375 0.171875 L 18.28125 0.0625 L 18.359375 -1.03125 L 18.484375 -1.15625 L 18.796875 -1.15625 C 19.347656 -1.15625 19.78125 -1.242188 20.09375 -1.421875 C 20.414062 -1.609375 20.578125 -1.976562 20.578125 -2.53125 L 19.953125 -11.9375 C 19.910156 -12.382812 19.882812 -12.769531 19.875 -13.09375 C 19.863281 -13.414062 19.820312 -13.769531 19.75 -14.15625 C 19.632812 -13.8125 19.453125 -13.320312 19.203125 -12.6875 C 18.953125 -12.0625 18.664062 -11.335938 18.34375 -10.515625 C 18.03125 -9.703125 17.691406 -8.832031 17.328125 -7.90625 C 16.960938 -6.988281 16.597656 -6.070312 16.234375 -5.15625 C 15.867188 -4.25 15.523438 -3.378906 15.203125 -2.546875 C 14.890625 -1.710938 14.617188 -0.988281 14.390625 -0.375 L 12.03125 -0.375 L 7 -14.078125 C 7 -13.617188 6.976562 -13.238281 6.9375 -12.9375 C 6.894531 -12.632812 6.859375 -12.253906 6.828125 -11.796875 L 6.46875 -7.078125 C 6.4375 -6.441406 6.40625 -5.914062 6.375 -5.5 C 6.34375 -5.09375 6.320312 -4.742188 6.3125 -4.453125 C 6.300781 -4.171875 6.296875 -3.921875 6.296875 -3.703125 C 6.296875 -3.492188 6.296875 -3.285156 6.296875 -3.078125 C 6.296875 -2.523438 6.359375 -2.140625 6.484375 -1.921875 C 6.609375 -1.710938 6.75 -1.550781 6.90625 -1.4375 C 7.0625 -1.28125 7.238281 -1.191406 7.4375 -1.171875 C 7.632812 -1.160156 7.890625 -1.15625 8.203125 -1.15625 L 8.3125 -1.03125 L 8.40625 0.0625 L 8.34375 0.171875 C 8.207031 0.171875 8.007812 0.160156 7.75 0.140625 C 7.5 0.117188 7.238281 0.0976562 6.96875 0.078125 C 6.695312 0.0664062 6.429688 0.0507812 6.171875 0.03125 C 5.910156 0.0078125 5.710938 0 5.578125 0 L 3.890625 0 C 3.753906 0 3.535156 0.0078125 3.234375 0.03125 C 2.941406 0.0507812 2.625 0.0664062 2.28125 0.078125 C 1.945312 0.0976562 1.628906 0.117188 1.328125 0.140625 C 1.035156 0.160156 0.820312 0.171875 0.6875 0.171875 L 0.640625 0.0625 L 0.71875 -1.03125 L 0.890625 -1.15625 C 1.179688 -1.15625 1.457031 -1.164062 1.71875 -1.1875 C 1.988281 -1.21875 2.222656 -1.300781 2.421875 -1.4375 C 2.566406 -1.570312 2.71875 -1.742188 2.875 -1.953125 C 3.03125 -2.171875 3.15625 -2.546875 3.25 -3.078125 C 3.289062 -3.304688 3.335938 -3.625 3.390625 -4.03125 C 3.453125 -4.4375 3.519531 -5.117188 3.59375 -6.078125 L 4 -11.34375 C 4.0625 -12.007812 4.101562 -12.570312 4.125 -13.03125 C 4.15625 -13.5 4.175781 -13.894531 4.1875 -14.21875 C 4.195312 -14.539062 4.207031 -14.816406 4.21875 -15.046875 C 4.226562 -15.273438 4.234375 -15.507812 4.234375 -15.75 C 4.234375 -16.300781 4.148438 -16.679688 3.984375 -16.890625 C 3.816406 -17.109375 3.660156 -17.273438 3.515625 -17.390625 C 3.335938 -17.535156 3.113281 -17.617188 2.84375 -17.640625 C 2.582031 -17.660156 2.296875 -17.671875 1.984375 -17.671875 L 1.84375 -17.78125 L 1.75 -18.875 L 1.8125 -19 C 1.945312 -19 2.164062 -18.988281 2.46875 -18.96875 C 2.78125 -18.945312 3.097656 -18.925781 3.421875 -18.90625 C 3.753906 -18.882812 4.070312 -18.863281 4.375 -18.84375 C 4.675781 -18.832031 4.894531 -18.828125 5.03125 -18.828125 L 7.25 -18.828125 C 7.382812 -18.828125 7.5625 -18.832031 7.78125 -18.84375 C 8 -18.863281 8.207031 -18.894531 8.40625 -18.9375 L 8.546875 -18.859375 C 8.566406 -18.585938 8.640625 -18.210938 8.765625 -17.734375 C 8.890625 -17.253906 9.039062 -16.722656 9.21875 -16.140625 C 9.40625 -15.566406 9.613281 -14.957031 9.84375 -14.3125 C 10.070312 -13.675781 10.300781 -13.050781 10.53125 -12.4375 L 12.34375 -7.765625 C 12.550781 -7.253906 12.757812 -6.707031 12.96875 -6.125 C 13.1875 -5.550781 13.382812 -5.003906 13.5625 -4.484375 C 13.613281 -4.566406 13.765625 -4.90625 14.015625 -5.5 C 14.265625 -6.09375 14.5625 -6.828125 14.90625 -7.703125 C 15.25 -8.585938 15.617188 -9.5625 16.015625 -10.625 C 16.410156 -11.695312 16.785156 -12.75 17.140625 -13.78125 C 17.492188 -14.820312 17.800781 -15.785156 18.0625 -16.671875 C 18.320312 -17.566406 18.488281 -18.285156 18.5625 -18.828125 L 18.703125 -18.9375 C 18.859375 -18.894531 19.019531 -18.863281 19.1875 -18.84375 C 19.363281 -18.832031 19.53125 -18.828125 19.6875 -18.828125 L 22.15625 -18.828125 C 22.289062 -18.828125 22.507812 -18.832031 22.8125 -18.84375 C 23.125 -18.863281 23.441406 -18.882812 23.765625 -18.90625 C 24.097656 -18.925781 24.414062 -18.945312 24.71875 -18.96875 C 25.03125 -18.988281 25.253906 -19 25.390625 -19 L 25.4375 -18.875 L 25.359375 -17.78125 L 25.21875 -17.671875 C 24.925781 -17.671875 24.640625 -17.65625 24.359375 -17.625 C 24.085938 -17.59375 23.863281 -17.515625 23.6875 -17.390625 C 23.53125 -17.273438 23.367188 -17.097656 23.203125 -16.859375 C 23.046875 -16.628906 22.96875 -16.257812 22.96875 -15.75 C 22.96875 -15.476562 22.96875 -15.226562 22.96875 -15 C 22.96875 -14.769531 22.976562 -14.5 23 -14.1875 C 23.019531 -13.882812 23.039062 -13.507812 23.0625 -13.0625 C 23.09375 -12.625 23.140625 -12.0625 23.203125 -11.375 L 23.546875 -7.21875 C 23.597656 -6.53125 23.644531 -5.96875 23.6875 -5.53125 C 23.726562 -5.101562 23.757812 -4.742188 23.78125 -4.453125 C 23.8125 -4.171875 23.835938 -3.925781 23.859375 -3.71875 C 23.878906 -3.519531 23.910156 -3.304688 23.953125 -3.078125 C 24.023438 -2.523438 24.132812 -2.140625 24.28125 -1.921875 C 24.4375 -1.710938 24.59375 -1.550781 24.75 -1.4375 C 24.925781 -1.28125 25.148438 -1.191406 25.421875 -1.171875 C 25.703125 -1.160156 26 -1.15625 26.3125 -1.15625 L 26.453125 -1.03125 L 26.53125 0.0625 Z M 26.5 0.171875 "/></g></g></g><g fill="#ffffff" fill-opacity="1"><g transform="translate(45.014001, 17.730577)"><g><path d="M 9.4375 -18.828125 C 9.707031 -18.828125 10.101562 -18.832031 10.625 -18.84375 C 11.15625 -18.851562 11.695312 -18.863281 12.25 -18.875 C 12.8125 -18.894531 13.3125 -18.910156 13.75 -18.921875 C 14.195312 -18.929688 14.46875 -18.9375 14.5625 -18.9375 L 14.734375 -18.65625 L 14.59375 -14.9375 L 13.296875 -14.9375 L 13.1875 -15.046875 C 13.144531 -15.410156 13.085938 -15.695312 13.015625 -15.90625 C 12.953125 -16.125 12.773438 -16.28125 12.484375 -16.375 C 12.203125 -16.46875 11.757812 -16.523438 11.15625 -16.546875 C 10.550781 -16.566406 9.710938 -16.578125 8.640625 -16.578125 L 7 -16.578125 L 6.96875 -16.3125 C 6.945312 -16.050781 6.929688 -15.800781 6.921875 -15.5625 C 6.910156 -15.332031 6.898438 -15.0625 6.890625 -14.75 C 6.878906 -14.445312 6.875 -14.078125 6.875 -13.640625 C 6.875 -13.203125 6.875 -12.632812 6.875 -11.9375 L 6.875 -10.96875 C 7.332031 -10.988281 7.769531 -10.992188 8.1875 -10.984375 C 8.613281 -10.972656 9.007812 -10.972656 9.375 -10.984375 C 9.738281 -11.003906 10.050781 -11.039062 10.3125 -11.09375 C 10.570312 -11.144531 10.757812 -11.226562 10.875 -11.34375 C 11.070312 -11.53125 11.171875 -11.796875 11.171875 -12.140625 L 11.3125 -12.296875 L 12.375 -12.34375 L 12.484375 -12.296875 C 12.453125 -11.847656 12.421875 -11.460938 12.390625 -11.140625 C 12.359375 -10.816406 12.34375 -10.441406 12.34375 -10.015625 C 12.34375 -9.554688 12.359375 -9.128906 12.390625 -8.734375 C 12.421875 -8.335938 12.453125 -7.910156 12.484375 -7.453125 L 12.375 -7.390625 L 11.28125 -7.453125 L 11.171875 -7.546875 C 11.171875 -8.023438 11.082031 -8.378906 10.90625 -8.609375 C 10.75 -8.816406 10.3125 -8.9375 9.59375 -8.96875 C 8.875 -9 8.070312 -9.015625 7.1875 -9.015625 L 6.875 -9.015625 L 6.875 -6.65625 C 6.875 -6.09375 6.878906 -5.628906 6.890625 -5.265625 C 6.898438 -4.898438 6.910156 -4.585938 6.921875 -4.328125 C 6.929688 -4.066406 6.945312 -3.820312 6.96875 -3.59375 C 6.988281 -3.363281 7.003906 -3.097656 7.015625 -2.796875 C 7.035156 -2.429688 7.226562 -2.25 7.59375 -2.25 L 8.890625 -2.25 C 9.984375 -2.25 10.84375 -2.265625 11.46875 -2.296875 C 12.09375 -2.335938 12.566406 -2.429688 12.890625 -2.578125 C 13.222656 -2.722656 13.457031 -2.925781 13.59375 -3.1875 C 13.738281 -3.457031 13.867188 -3.820312 13.984375 -4.28125 L 14.109375 -4.40625 L 15.453125 -4.40625 L 14.90625 -0.171875 L 14.671875 0.109375 C 14.578125 0.109375 14.34375 0.101562 13.96875 0.09375 C 13.59375 0.09375 13.175781 0.0820312 12.71875 0.0625 C 12.257812 0.0390625 11.800781 0.0234375 11.34375 0.015625 C 10.882812 0.00390625 10.519531 0 10.25 0 L 4.4375 0 C 4.300781 0 4.078125 0.0078125 3.765625 0.03125 C 3.460938 0.0507812 3.144531 0.0664062 2.8125 0.078125 C 2.488281 0.0976562 2.171875 0.117188 1.859375 0.140625 C 1.554688 0.160156 1.335938 0.171875 1.203125 0.171875 L 1.15625 0.0625 L 1.234375 -1.03125 L 1.375 -1.15625 C 1.6875 -1.15625 1.972656 -1.164062 2.234375 -1.1875 C 2.503906 -1.21875 2.726562 -1.300781 2.90625 -1.4375 C 3.0625 -1.570312 3.207031 -1.742188 3.34375 -1.953125 C 3.488281 -2.171875 3.582031 -2.546875 3.625 -3.078125 C 3.625 -3.210938 3.628906 -3.367188 3.640625 -3.546875 C 3.648438 -3.734375 3.660156 -3.960938 3.671875 -4.234375 C 3.679688 -4.503906 3.6875 -4.828125 3.6875 -5.203125 C 3.6875 -5.585938 3.6875 -6.070312 3.6875 -6.65625 L 3.6875 -11.34375 C 3.6875 -12.007812 3.6875 -12.570312 3.6875 -13.03125 C 3.6875 -13.5 3.6875 -13.894531 3.6875 -14.21875 C 3.6875 -14.539062 3.679688 -14.816406 3.671875 -15.046875 C 3.660156 -15.273438 3.644531 -15.507812 3.625 -15.75 C 3.582031 -16.257812 3.488281 -16.628906 3.34375 -16.859375 C 3.207031 -17.097656 3.0625 -17.273438 2.90625 -17.390625 C 2.726562 -17.535156 2.503906 -17.617188 2.234375 -17.640625 C 1.972656 -17.660156 1.6875 -17.671875 1.375 -17.671875 L 1.234375 -17.78125 L 1.15625 -18.875 L 1.203125 -19 C 1.335938 -19 1.554688 -18.988281 1.859375 -18.96875 C 2.171875 -18.945312 2.503906 -18.925781 2.859375 -18.90625 C 3.210938 -18.882812 3.554688 -18.863281 3.890625 -18.84375 C 4.234375 -18.832031 4.507812 -18.828125 4.71875 -18.828125 Z M 9.4375 -18.828125 "/></g></g></g><g fill="#ffffff" fill-opacity="1"><g transform="translate(62.282863, 17.730577)"><g><path d="M 9.359375 0.171875 C 9.203125 0.148438 8.984375 0.128906 8.703125 0.109375 C 8.421875 0.0976562 8.125 0.0820312 7.8125 0.0625 C 7.5 0.0390625 7.191406 0.0234375 6.890625 0.015625 C 6.597656 0.00390625 6.34375 0 6.125 0 L 4.4375 0 C 4.207031 0 3.9375 0.00390625 3.625 0.015625 C 3.320312 0.0234375 3.015625 0.0390625 2.703125 0.0625 C 2.398438 0.0820312 2.109375 0.0976562 1.828125 0.109375 C 1.546875 0.128906 1.335938 0.148438 1.203125 0.171875 L 1.15625 0.0625 L 1.234375 -1.03125 L 1.375 -1.15625 C 2.101562 -1.15625 2.601562 -1.238281 2.875 -1.40625 C 3.28125 -1.675781 3.53125 -2.234375 3.625 -3.078125 C 3.644531 -3.398438 3.660156 -3.898438 3.671875 -4.578125 C 3.679688 -5.265625 3.6875 -5.957031 3.6875 -6.65625 L 3.6875 -12.984375 C 3.6875 -13.648438 3.675781 -14.179688 3.65625 -14.578125 C 3.632812 -14.972656 3.601562 -15.363281 3.5625 -15.75 C 3.488281 -16.257812 3.40625 -16.628906 3.3125 -16.859375 C 3.226562 -17.097656 3.101562 -17.28125 2.9375 -17.40625 C 2.78125 -17.507812 2.59375 -17.578125 2.375 -17.609375 C 2.15625 -17.648438 1.820312 -17.671875 1.375 -17.671875 L 1.234375 -17.78125 L 1.15625 -18.875 L 1.203125 -19 C 1.703125 -18.9375 2.195312 -18.890625 2.6875 -18.859375 C 3.175781 -18.835938 3.566406 -18.828125 3.859375 -18.828125 L 6.046875 -18.828125 C 6.484375 -18.828125 6.984375 -18.832031 7.546875 -18.84375 C 8.117188 -18.863281 8.613281 -18.875 9.03125 -18.875 C 11.320312 -18.875 13.050781 -18.445312 14.21875 -17.59375 C 15.382812 -16.738281 15.96875 -15.46875 15.96875 -13.78125 C 15.96875 -12.570312 15.617188 -11.472656 14.921875 -10.484375 C 14.222656 -9.503906 13.179688 -8.648438 11.796875 -7.921875 C 12.453125 -6.941406 13.003906 -6.144531 13.453125 -5.53125 C 13.898438 -4.914062 14.289062 -4.425781 14.625 -4.0625 C 15.0625 -3.539062 15.472656 -3.109375 15.859375 -2.765625 C 16.242188 -2.421875 16.625 -2.128906 17 -1.890625 C 17.375 -1.660156 17.757812 -1.488281 18.15625 -1.375 C 18.5625 -1.257812 19.015625 -1.1875 19.515625 -1.15625 L 19.6875 -1.03125 L 19.75 0.0625 L 19.6875 0.171875 C 18.957031 0.210938 18.320312 0.242188 17.78125 0.265625 C 17.25 0.296875 16.859375 0.3125 16.609375 0.3125 C 15.585938 0.3125 14.675781 0.03125 13.875 -0.53125 C 13.082031 -1.09375 12.238281 -2.054688 11.34375 -3.421875 C 11.125 -3.734375 10.894531 -4.078125 10.65625 -4.453125 C 10.414062 -4.835938 10.175781 -5.21875 9.9375 -5.59375 C 9.695312 -5.96875 9.472656 -6.328125 9.265625 -6.671875 C 9.054688 -7.015625 8.882812 -7.3125 8.75 -7.5625 L 6.875 -7.5625 C 6.875 -6.914062 6.875 -6.359375 6.875 -5.890625 C 6.875 -5.421875 6.878906 -5.007812 6.890625 -4.65625 C 6.898438 -4.3125 6.914062 -4.015625 6.9375 -3.765625 C 6.957031 -3.515625 6.976562 -3.285156 7 -3.078125 C 7.070312 -2.191406 7.28125 -1.632812 7.625 -1.40625 C 7.757812 -1.3125 7.929688 -1.242188 8.140625 -1.203125 C 8.359375 -1.171875 8.710938 -1.15625 9.203125 -1.15625 L 9.328125 -1.03125 L 9.40625 0.0625 Z M 8.34375 -9.703125 C 9.75 -9.703125 10.847656 -10.035156 11.640625 -10.703125 C 12.441406 -11.378906 12.84375 -12.3125 12.84375 -13.5 C 12.84375 -14.570312 12.484375 -15.351562 11.765625 -15.84375 C 11.054688 -16.332031 9.925781 -16.578125 8.375 -16.578125 L 7.015625 -16.578125 C 6.960938 -15.804688 6.925781 -15.207031 6.90625 -14.78125 C 6.882812 -14.363281 6.875 -13.960938 6.875 -13.578125 L 6.875 -10.765625 C 6.875 -10.359375 6.921875 -10.078125 7.015625 -9.921875 C 7.117188 -9.773438 7.300781 -9.703125 7.5625 -9.703125 Z M 8.34375 -9.703125 "/></g></g></g><g fill="#ffffff" fill-opacity="1"><g transform="translate(82.113285, 17.730577)"><g><path d="M 15.625 -14.59375 C 15.570312 -15.007812 15.390625 -15.367188 15.078125 -15.671875 C 14.773438 -15.972656 14.394531 -16.207031 13.9375 -16.375 C 13.488281 -16.550781 12.988281 -16.675781 12.4375 -16.75 C 11.894531 -16.820312 11.359375 -16.859375 10.828125 -16.859375 C 9.117188 -16.859375 7.789062 -16.429688 6.84375 -15.578125 C 6.113281 -14.921875 5.585938 -14.050781 5.265625 -12.96875 C 4.941406 -11.882812 4.78125 -10.707031 4.78125 -9.4375 C 4.78125 -8.226562 4.945312 -7.160156 5.28125 -6.234375 C 5.613281 -5.316406 6.070312 -4.546875 6.65625 -3.921875 C 7.25 -3.304688 7.945312 -2.835938 8.75 -2.515625 C 9.550781 -2.203125 10.429688 -2.046875 11.390625 -2.046875 C 12.222656 -2.046875 13.179688 -2.132812 14.265625 -2.3125 C 15.347656 -2.5 16.367188 -2.851562 17.328125 -3.375 L 17.671875 -2.734375 L 16.984375 -1.46875 C 15.984375 -0.851562 14.976562 -0.398438 13.96875 -0.109375 C 12.96875 0.171875 11.9375 0.3125 10.875 0.3125 C 9.4375 0.3125 8.128906 0.0820312 6.953125 -0.375 C 5.785156 -0.832031 4.785156 -1.488281 3.953125 -2.34375 C 3.117188 -3.195312 2.472656 -4.210938 2.015625 -5.390625 C 1.554688 -6.578125 1.328125 -7.890625 1.328125 -9.328125 C 1.328125 -10.671875 1.53125 -11.941406 1.9375 -13.140625 C 2.351562 -14.335938 2.96875 -15.375 3.78125 -16.25 C 4.601562 -17.132812 5.613281 -17.835938 6.8125 -18.359375 C 8.007812 -18.878906 9.40625 -19.140625 11 -19.140625 C 11.375 -19.140625 11.820312 -19.125 12.34375 -19.09375 C 12.863281 -19.0625 13.410156 -19.003906 13.984375 -18.921875 C 14.554688 -18.835938 15.132812 -18.710938 15.71875 -18.546875 C 16.3125 -18.390625 16.875 -18.1875 17.40625 -17.9375 L 17.5 -17.671875 L 17.125 -14.484375 L 15.71875 -14.484375 Z M 15.625 -14.59375 "/></g></g></g><g fill="#ffffff" fill-opacity="1"><g transform="translate(101.540762, 17.730577)"><g><path d="M 11.109375 -19.140625 L 16.0625 -6.078125 C 16.226562 -5.597656 16.378906 -5.191406 16.515625 -4.859375 C 16.648438 -4.535156 16.757812 -4.257812 16.84375 -4.03125 C 16.9375 -3.800781 17.015625 -3.613281 17.078125 -3.46875 C 17.148438 -3.320312 17.210938 -3.191406 17.265625 -3.078125 C 17.492188 -2.597656 17.726562 -2.226562 17.96875 -1.96875 C 18.207031 -1.707031 18.445312 -1.515625 18.6875 -1.390625 C 18.925781 -1.265625 19.171875 -1.191406 19.421875 -1.171875 C 19.671875 -1.160156 19.921875 -1.15625 20.171875 -1.15625 L 20.3125 -1.03125 L 20.40625 0.0625 L 20.34375 0.171875 C 20.207031 0.171875 20.003906 0.160156 19.734375 0.140625 C 19.472656 0.117188 19.195312 0.0976562 18.90625 0.078125 C 18.625 0.0664062 18.351562 0.0507812 18.09375 0.03125 C 17.832031 0.0078125 17.632812 0 17.5 0 L 15.390625 0 C 15.265625 0 15.046875 0.0078125 14.734375 0.03125 C 14.429688 0.0507812 14.109375 0.0664062 13.765625 0.078125 C 13.429688 0.0976562 13.109375 0.117188 12.796875 0.140625 C 12.492188 0.160156 12.273438 0.171875 12.140625 0.171875 L 12.09375 0.0625 L 12.171875 -1.03125 L 12.296875 -1.15625 C 12.785156 -1.15625 13.160156 -1.21875 13.421875 -1.34375 C 13.679688 -1.46875 13.8125 -1.804688 13.8125 -2.359375 C 13.8125 -2.671875 13.757812 -3.109375 13.65625 -3.671875 C 13.550781 -4.234375 13.304688 -4.9375 12.921875 -5.78125 L 12.3125 -7.171875 L 7.28125 -7.171875 L 6.703125 -5.78125 C 6.359375 -4.9375 6.097656 -4.21875 5.921875 -3.625 C 5.753906 -3.03125 5.671875 -2.609375 5.671875 -2.359375 C 5.671875 -1.898438 5.765625 -1.582031 5.953125 -1.40625 C 6.148438 -1.238281 6.5 -1.15625 7 -1.15625 L 7.140625 -1.03125 L 7.21875 0.0625 L 7.171875 0.171875 C 7.035156 0.171875 6.820312 0.160156 6.53125 0.140625 C 6.25 0.117188 5.945312 0.0976562 5.625 0.078125 C 5.3125 0.0664062 5.007812 0.0507812 4.71875 0.03125 C 4.425781 0.0078125 4.21875 0 4.09375 0 L 2.390625 0 C 2.253906 0 2.050781 0.0078125 1.78125 0.03125 C 1.507812 0.0507812 1.226562 0.0664062 0.9375 0.078125 C 0.65625 0.0976562 0.382812 0.117188 0.125 0.140625 C -0.132812 0.160156 -0.328125 0.171875 -0.453125 0.171875 L -0.484375 0.0625 L -0.4375 -1.03125 L -0.28125 -1.15625 C -0.03125 -1.15625 0.210938 -1.171875 0.453125 -1.203125 C 0.703125 -1.242188 0.953125 -1.332031 1.203125 -1.46875 C 1.453125 -1.601562 1.695312 -1.789062 1.9375 -2.03125 C 2.175781 -2.269531 2.421875 -2.582031 2.671875 -2.96875 C 2.734375 -3.082031 2.820312 -3.257812 2.9375 -3.5 C 3.050781 -3.738281 3.234375 -4.164062 3.484375 -4.78125 C 3.734375 -5.394531 4.078125 -6.265625 4.515625 -7.390625 C 4.960938 -8.523438 5.550781 -10.035156 6.28125 -11.921875 L 8.75 -18.28125 L 10.796875 -19.140625 Z M 7.765625 -9.265625 L 11.546875 -9.265625 L 9.703125 -14.359375 Z M 7.765625 -9.265625 "/></g></g></g><g fill="#ffffff" fill-opacity="1"><g transform="translate(122.378529, 17.730577)"><g><path d="M 3.625 -15.75 C 3.582031 -16.226562 3.492188 -16.59375 3.359375 -16.84375 C 3.234375 -17.09375 3.082031 -17.273438 2.90625 -17.390625 C 2.726562 -17.535156 2.546875 -17.617188 2.359375 -17.640625 C 2.179688 -17.660156 1.851562 -17.671875 1.375 -17.671875 L 1.234375 -17.78125 L 1.15625 -18.875 L 1.203125 -19 C 1.335938 -19 1.53125 -18.988281 1.78125 -18.96875 C 2.03125 -18.945312 2.296875 -18.925781 2.578125 -18.90625 C 2.867188 -18.882812 3.15625 -18.863281 3.4375 -18.84375 C 3.71875 -18.832031 3.960938 -18.828125 4.171875 -18.828125 L 6.96875 -18.828125 C 7.195312 -18.828125 7.488281 -18.832031 7.84375 -18.84375 C 8.195312 -18.851562 8.554688 -18.863281 8.921875 -18.875 C 9.285156 -18.894531 9.632812 -18.910156 9.96875 -18.921875 C 10.300781 -18.929688 10.585938 -18.9375 10.828125 -18.9375 C 12.316406 -18.9375 13.648438 -18.679688 14.828125 -18.171875 C 16.015625 -17.660156 17.007812 -16.972656 17.8125 -16.109375 C 18.625 -15.253906 19.242188 -14.25 19.671875 -13.09375 C 20.097656 -11.945312 20.3125 -10.726562 20.3125 -9.4375 C 20.3125 -8.175781 20.101562 -6.972656 19.6875 -5.828125 C 19.28125 -4.679688 18.675781 -3.671875 17.875 -2.796875 C 17.070312 -1.929688 16.0625 -1.238281 14.84375 -0.71875 C 13.632812 -0.195312 12.238281 0.0625 10.65625 0.0625 C 10.5 0.0625 10.257812 0.0546875 9.9375 0.046875 C 9.625 0.0351562 9.289062 0.03125 8.9375 0.03125 C 8.582031 0.03125 8.234375 0.0234375 7.890625 0.015625 C 7.554688 0.00390625 7.296875 0 7.109375 0 L 4.4375 0 C 4.300781 0 4.078125 0.0078125 3.765625 0.03125 C 3.460938 0.0507812 3.144531 0.0664062 2.8125 0.078125 C 2.488281 0.0976562 2.171875 0.117188 1.859375 0.140625 C 1.554688 0.160156 1.335938 0.171875 1.203125 0.171875 L 1.15625 0.0625 L 1.234375 -1.03125 L 1.375 -1.15625 C 1.613281 -1.15625 1.882812 -1.164062 2.1875 -1.1875 C 2.488281 -1.21875 2.726562 -1.289062 2.90625 -1.40625 C 3.0625 -1.519531 3.207031 -1.703125 3.34375 -1.953125 C 3.476562 -2.203125 3.570312 -2.578125 3.625 -3.078125 C 3.625 -3.210938 3.628906 -3.367188 3.640625 -3.546875 C 3.648438 -3.734375 3.660156 -3.960938 3.671875 -4.234375 C 3.679688 -4.503906 3.6875 -4.828125 3.6875 -5.203125 C 3.6875 -5.585938 3.6875 -6.070312 3.6875 -6.65625 L 3.6875 -11.34375 C 3.6875 -11.53125 3.6875 -11.820312 3.6875 -12.21875 C 3.6875 -12.613281 3.6875 -13.03125 3.6875 -13.46875 C 3.6875 -13.90625 3.679688 -14.332031 3.671875 -14.75 C 3.660156 -15.175781 3.644531 -15.507812 3.625 -15.75 Z M 9.703125 -2.25 C 10.847656 -2.25 11.863281 -2.4375 12.75 -2.8125 C 13.632812 -3.1875 14.378906 -3.695312 14.984375 -4.34375 C 15.585938 -5 16.046875 -5.757812 16.359375 -6.625 C 16.679688 -7.5 16.84375 -8.4375 16.84375 -9.4375 C 16.84375 -10.476562 16.675781 -11.429688 16.34375 -12.296875 C 16.019531 -13.171875 15.546875 -13.925781 14.921875 -14.5625 C 14.296875 -15.195312 13.53125 -15.691406 12.625 -16.046875 C 11.726562 -16.398438 10.707031 -16.578125 9.5625 -16.578125 L 7.015625 -16.578125 C 6.984375 -16.023438 6.960938 -15.5625 6.953125 -15.1875 C 6.941406 -14.8125 6.925781 -14.429688 6.90625 -14.046875 C 6.882812 -13.660156 6.875 -13.238281 6.875 -12.78125 C 6.875 -12.332031 6.875 -11.765625 6.875 -11.078125 L 6.875 -7.515625 C 6.875 -6.359375 6.878906 -5.457031 6.890625 -4.8125 C 6.898438 -4.175781 6.925781 -3.695312 6.96875 -3.375 C 7.019531 -2.875 7.140625 -2.5625 7.328125 -2.4375 C 7.523438 -2.3125 7.875 -2.25 8.375 -2.25 Z M 9.703125 -2.25 "/></g></g></g><g fill="#ffffff" fill-opacity="1"><g transform="translate(144.770485, 17.730577)"><g><path d="M 10.625 -19.140625 C 12.101562 -19.140625 13.414062 -18.878906 14.5625 -18.359375 C 15.71875 -17.835938 16.6875 -17.128906 17.46875 -16.234375 C 18.257812 -15.347656 18.859375 -14.316406 19.265625 -13.140625 C 19.679688 -11.972656 19.890625 -10.75 19.890625 -9.46875 C 19.890625 -8.195312 19.6875 -6.972656 19.28125 -5.796875 C 18.875 -4.617188 18.273438 -3.578125 17.484375 -2.671875 C 16.691406 -1.773438 15.703125 -1.050781 14.515625 -0.5 C 13.335938 0.0390625 11.972656 0.3125 10.421875 0.3125 C 8.921875 0.3125 7.601562 0.0546875 6.46875 -0.453125 C 5.34375 -0.972656 4.398438 -1.671875 3.640625 -2.546875 C 2.878906 -3.421875 2.304688 -4.4375 1.921875 -5.59375 C 1.546875 -6.757812 1.359375 -7.984375 1.359375 -9.265625 C 1.359375 -10.628906 1.566406 -11.910156 1.984375 -13.109375 C 2.410156 -14.304688 3.015625 -15.347656 3.796875 -16.234375 C 4.585938 -17.128906 5.554688 -17.835938 6.703125 -18.359375 C 7.859375 -18.878906 9.164062 -19.140625 10.625 -19.140625 Z M 10.59375 -2.078125 C 11.53125 -2.078125 12.367188 -2.269531 13.109375 -2.65625 C 13.847656 -3.050781 14.46875 -3.578125 14.96875 -4.234375 C 15.46875 -4.898438 15.847656 -5.679688 16.109375 -6.578125 C 16.378906 -7.472656 16.515625 -8.425781 16.515625 -9.4375 C 16.515625 -10.476562 16.375 -11.441406 16.09375 -12.328125 C 15.820312 -13.222656 15.421875 -13.992188 14.890625 -14.640625 C 14.367188 -15.296875 13.734375 -15.8125 12.984375 -16.1875 C 12.234375 -16.5625 11.390625 -16.75 10.453125 -16.75 C 9.523438 -16.75 8.707031 -16.566406 8 -16.203125 C 7.289062 -15.835938 6.695312 -15.328125 6.21875 -14.671875 C 5.738281 -14.023438 5.375 -13.253906 5.125 -12.359375 C 4.875 -11.460938 4.75 -10.5 4.75 -9.46875 C 4.75 -8.3125 4.890625 -7.28125 5.171875 -6.375 C 5.460938 -5.46875 5.867188 -4.695312 6.390625 -4.0625 C 6.910156 -3.425781 7.523438 -2.9375 8.234375 -2.59375 C 8.941406 -2.25 9.726562 -2.078125 10.59375 -2.078125 Z M 10.59375 -2.078125 "/></g></g></g><g fill="#a6a6a6" fill-opacity="0.4"><g transform="translate(167.971932, 19.002552)"><g/></g></g><g fill="#a6a6a6" fill-opacity="0.4"><g transform="translate(175.59901, 19.002552)"><g/></g></g><g fill="#ffffff" fill-opacity="1"><g transform="translate(166.699957, 17.730577)"><g/></g></g><g fill="#ffffff" fill-opacity="1"><g transform="translate(174.327035, 17.730577)"><g/></g></g><g fill="#a6a6a6" fill-opacity="0.4"><g transform="translate(27.399683, 51.381764)"><g><path d="M 15.625 -14.59375 C 15.570312 -15.007812 15.390625 -15.367188 15.078125 -15.671875 C 14.773438 -15.972656 14.394531 -16.207031 13.9375 -16.375 C 13.488281 -16.550781 12.988281 -16.675781 12.4375 -16.75 C 11.894531 -16.820312 11.359375 -16.859375 10.828125 -16.859375 C 9.117188 -16.859375 7.789062 -16.429688 6.84375 -15.578125 C 6.113281 -14.921875 5.585938 -14.050781 5.265625 -12.96875 C 4.941406 -11.882812 4.78125 -10.707031 4.78125 -9.4375 C 4.78125 -8.226562 4.945312 -7.160156 5.28125 -6.234375 C 5.613281 -5.316406 6.070312 -4.546875 6.65625 -3.921875 C 7.25 -3.304688 7.945312 -2.835938 8.75 -2.515625 C 9.550781 -2.203125 10.429688 -2.046875 11.390625 -2.046875 C 12.222656 -2.046875 13.179688 -2.132812 14.265625 -2.3125 C 15.347656 -2.5 16.367188 -2.851562 17.328125 -3.375 L 17.671875 -2.734375 L 16.984375 -1.46875 C 15.984375 -0.851562 14.976562 -0.398438 13.96875 -0.109375 C 12.96875 0.171875 11.9375 0.3125 10.875 0.3125 C 9.4375 0.3125 8.128906 0.0820312 6.953125 -0.375 C 5.785156 -0.832031 4.785156 -1.488281 3.953125 -2.34375 C 3.117188 -3.195312 2.472656 -4.210938 2.015625 -5.390625 C 1.554688 -6.578125 1.328125 -7.890625 1.328125 -9.328125 C 1.328125 -10.671875 1.53125 -11.941406 1.9375 -13.140625 C 2.351562 -14.335938 2.96875 -15.375 3.78125 -16.25 C 4.601562 -17.132812 5.613281 -17.835938 6.8125 -18.359375 C 8.007812 -18.878906 9.40625 -19.140625 11 -19.140625 C 11.375 -19.140625 11.820312 -19.125 12.34375 -19.09375 C 12.863281 -19.0625 13.410156 -19.003906 13.984375 -18.921875 C 14.554688 -18.835938 15.132812 -18.710938 15.71875 -18.546875 C 16.3125 -18.390625 16.875 -18.1875 17.40625 -17.9375 L 17.5 -17.671875 L 17.125 -14.484375 L 15.71875 -14.484375 Z M 15.625 -14.59375 "/></g></g></g><g fill="#a6a6a6" fill-opacity="0.4"><g transform="translate(46.827163, 51.381764)"><g><path d="M 9.4375 -18.828125 C 9.707031 -18.828125 10.101562 -18.832031 10.625 -18.84375 C 11.15625 -18.851562 11.695312 -18.863281 12.25 -18.875 C 12.8125 -18.894531 13.3125 -18.910156 13.75 -18.921875 C 14.195312 -18.929688 14.46875 -18.9375 14.5625 -18.9375 L 14.734375 -18.65625 L 14.59375 -14.9375 L 13.296875 -14.9375 L 13.1875 -15.046875 C 13.144531 -15.410156 13.085938 -15.695312 13.015625 -15.90625 C 12.953125 -16.125 12.773438 -16.28125 12.484375 -16.375 C 12.203125 -16.46875 11.757812 -16.523438 11.15625 -16.546875 C 10.550781 -16.566406 9.710938 -16.578125 8.640625 -16.578125 L 7 -16.578125 L 6.96875 -16.3125 C 6.945312 -16.050781 6.929688 -15.800781 6.921875 -15.5625 C 6.910156 -15.332031 6.898438 -15.0625 6.890625 -14.75 C 6.878906 -14.445312 6.875 -14.078125 6.875 -13.640625 C 6.875 -13.203125 6.875 -12.632812 6.875 -11.9375 L 6.875 -10.96875 C 7.332031 -10.988281 7.769531 -10.992188 8.1875 -10.984375 C 8.613281 -10.972656 9.007812 -10.972656 9.375 -10.984375 C 9.738281 -11.003906 10.050781 -11.039062 10.3125 -11.09375 C 10.570312 -11.144531 10.757812 -11.226562 10.875 -11.34375 C 11.070312 -11.53125 11.171875 -11.796875 11.171875 -12.140625 L 11.3125 -12.296875 L 12.375 -12.34375 L 12.484375 -12.296875 C 12.453125 -11.847656 12.421875 -11.460938 12.390625 -11.140625 C 12.359375 -10.816406 12.34375 -10.441406 12.34375 -10.015625 C 12.34375 -9.554688 12.359375 -9.128906 12.390625 -8.734375 C 12.421875 -8.335938 12.453125 -7.910156 12.484375 -7.453125 L 12.375 -7.390625 L 11.28125 -7.453125 L 11.171875 -7.546875 C 11.171875 -8.023438 11.082031 -8.378906 10.90625 -8.609375 C 10.75 -8.816406 10.3125 -8.9375 9.59375 -8.96875 C 8.875 -9 8.070312 -9.015625 7.1875 -9.015625 L 6.875 -9.015625 L 6.875 -6.65625 C 6.875 -6.09375 6.878906 -5.628906 6.890625 -5.265625 C 6.898438 -4.898438 6.910156 -4.585938 6.921875 -4.328125 C 6.929688 -4.066406 6.945312 -3.820312 6.96875 -3.59375 C 6.988281 -3.363281 7.003906 -3.097656 7.015625 -2.796875 C 7.035156 -2.429688 7.226562 -2.25 7.59375 -2.25 L 8.890625 -2.25 C 9.984375 -2.25 10.84375 -2.265625 11.46875 -2.296875 C 12.09375 -2.335938 12.566406 -2.429688 12.890625 -2.578125 C 13.222656 -2.722656 13.457031 -2.925781 13.59375 -3.1875 C 13.738281 -3.457031 13.867188 -3.820312 13.984375 -4.28125 L 14.109375 -4.40625 L 15.453125 -4.40625 L 14.90625 -0.171875 L 14.671875 0.109375 C 14.578125 0.109375 14.34375 0.101562 13.96875 0.09375 C 13.59375 0.09375 13.175781 0.0820312 12.71875 0.0625 C 12.257812 0.0390625 11.800781 0.0234375 11.34375 0.015625 C 10.882812 0.00390625 10.519531 0 10.25 0 L 4.4375 0 C 4.300781 0 4.078125 0.0078125 3.765625 0.03125 C 3.460938 0.0507812 3.144531 0.0664062 2.8125 0.078125 C 2.488281 0.0976562 2.171875 0.117188 1.859375 0.140625 C 1.554688 0.160156 1.335938 0.171875 1.203125 0.171875 L 1.15625 0.0625 L 1.234375 -1.03125 L 1.375 -1.15625 C 1.6875 -1.15625 1.972656 -1.164062 2.234375 -1.1875 C 2.503906 -1.21875 2.726562 -1.300781 2.90625 -1.4375 C 3.0625 -1.570312 3.207031 -1.742188 3.34375 -1.953125 C 3.488281 -2.171875 3.582031 -2.546875 3.625 -3.078125 C 3.625 -3.210938 3.628906 -3.367188 3.640625 -3.546875 C 3.648438 -3.734375 3.660156 -3.960938 3.671875 -4.234375 C 3.679688 -4.503906 3.6875 -4.828125 3.6875 -5.203125 C 3.6875 -5.585938 3.6875 -6.070312 3.6875 -6.65625 L 3.6875 -11.34375 C 3.6875 -12.007812 3.6875 -12.570312 3.6875 -13.03125 C 3.6875 -13.5 3.6875 -13.894531 3.6875 -14.21875 C 3.6875 -14.539062 3.679688 -14.816406 3.671875 -15.046875 C 3.660156 -15.273438 3.644531 -15.507812 3.625 -15.75 C 3.582031 -16.257812 3.488281 -16.628906 3.34375 -16.859375 C 3.207031 -17.097656 3.0625 -17.273438 2.90625 -17.390625 C 2.726562 -17.535156 2.503906 -17.617188 2.234375 -17.640625 C 1.972656 -17.660156 1.6875 -17.671875 1.375 -17.671875 L 1.234375 -17.78125 L 1.15625 -18.875 L 1.203125 -19 C 1.335938 -19 1.554688 -18.988281 1.859375 -18.96875 C 2.171875 -18.945312 2.503906 -18.925781 2.859375 -18.90625 C 3.210938 -18.882812 3.554688 -18.863281 3.890625 -18.84375 C 4.234375 -18.832031 4.507812 -18.828125 4.71875 -18.828125 Z M 9.4375 -18.828125 "/></g></g></g><g fill="#a6a6a6" fill-opacity="0.4"><g transform="translate(64.096025, 51.381764)"><g><path d="M 21.671875 -18.875 L 21.609375 -17.78125 L 21.46875 -17.671875 C 21.175781 -17.671875 20.890625 -17.65625 20.609375 -17.625 C 20.335938 -17.59375 20.117188 -17.515625 19.953125 -17.390625 C 19.796875 -17.253906 19.632812 -17.078125 19.46875 -16.859375 C 19.300781 -16.648438 19.191406 -16.28125 19.140625 -15.75 C 19.117188 -15.476562 19.101562 -15.226562 19.09375 -15 C 19.082031 -14.769531 19.070312 -14.5 19.0625 -14.1875 C 19.050781 -13.882812 19.046875 -13.507812 19.046875 -13.0625 C 19.046875 -12.625 19.046875 -12.0625 19.046875 -11.375 L 19.046875 -6.875 C 19.046875 -5.800781 19.050781 -4.914062 19.0625 -4.21875 C 19.070312 -3.53125 19.082031 -2.941406 19.09375 -2.453125 C 19.101562 -1.972656 19.125 -1.539062 19.15625 -1.15625 C 19.1875 -0.769531 19.21875 -0.347656 19.25 0.109375 L 19.03125 0.265625 L 15.484375 0.109375 L 15.203125 -0.234375 L 6.296875 -13.640625 C 6.335938 -13.296875 6.363281 -12.742188 6.375 -11.984375 C 6.382812 -11.222656 6.390625 -10.347656 6.390625 -9.359375 L 6.390625 -7.21875 C 6.390625 -6.988281 6.390625 -6.6875 6.390625 -6.3125 C 6.390625 -5.9375 6.394531 -5.546875 6.40625 -5.140625 C 6.414062 -4.742188 6.425781 -4.359375 6.4375 -3.984375 C 6.445312 -3.609375 6.457031 -3.304688 6.46875 -3.078125 C 6.507812 -2.597656 6.613281 -2.234375 6.78125 -1.984375 C 6.957031 -1.734375 7.144531 -1.550781 7.34375 -1.4375 C 7.488281 -1.28125 7.6875 -1.191406 7.9375 -1.171875 C 8.1875 -1.160156 8.503906 -1.15625 8.890625 -1.15625 L 9.03125 -1.03125 L 9.125 0.0625 L 9.0625 0.171875 C 8.90625 0.171875 8.6875 0.160156 8.40625 0.140625 C 8.132812 0.117188 7.847656 0.0976562 7.546875 0.078125 C 7.253906 0.0664062 6.96875 0.0507812 6.6875 0.03125 C 6.414062 0.0078125 6.210938 0 6.078125 0 L 4.375 0 C 4.238281 0 4.015625 0.0078125 3.703125 0.03125 C 3.398438 0.0507812 3.085938 0.0664062 2.765625 0.078125 C 2.441406 0.0976562 2.125 0.117188 1.8125 0.140625 C 1.507812 0.160156 1.289062 0.171875 1.15625 0.171875 L 1.09375 0.0625 L 1.1875 -1.03125 L 1.328125 -1.15625 C 1.671875 -1.15625 1.960938 -1.164062 2.203125 -1.1875 C 2.441406 -1.21875 2.65625 -1.300781 2.84375 -1.4375 C 2.976562 -1.53125 3.140625 -1.6875 3.328125 -1.90625 C 3.523438 -2.132812 3.65625 -2.523438 3.71875 -3.078125 C 3.726562 -3.210938 3.738281 -3.367188 3.75 -3.546875 C 3.757812 -3.734375 3.765625 -3.960938 3.765625 -4.234375 C 3.765625 -4.503906 3.765625 -4.828125 3.765625 -5.203125 C 3.765625 -5.585938 3.765625 -6.070312 3.765625 -6.65625 L 3.765625 -11.34375 C 3.765625 -12.007812 3.765625 -12.570312 3.765625 -13.03125 C 3.765625 -13.5 3.765625 -13.894531 3.765625 -14.21875 C 3.765625 -14.539062 3.757812 -14.816406 3.75 -15.046875 C 3.738281 -15.273438 3.726562 -15.507812 3.71875 -15.75 C 3.675781 -16.144531 3.5625 -16.488281 3.375 -16.78125 C 3.195312 -17.070312 3.019531 -17.273438 2.84375 -17.390625 C 2.675781 -17.535156 2.460938 -17.617188 2.203125 -17.640625 C 1.941406 -17.660156 1.648438 -17.671875 1.328125 -17.671875 L 1.1875 -17.78125 L 1.09375 -18.875 L 1.15625 -19 C 1.289062 -19 1.484375 -18.988281 1.734375 -18.96875 C 1.992188 -18.945312 2.257812 -18.925781 2.53125 -18.90625 C 2.800781 -18.882812 3.066406 -18.863281 3.328125 -18.84375 C 3.585938 -18.832031 3.785156 -18.828125 3.921875 -18.828125 L 6.359375 -18.828125 C 6.515625 -18.828125 6.707031 -18.832031 6.9375 -18.84375 C 7.164062 -18.863281 7.367188 -18.894531 7.546875 -18.9375 L 7.6875 -18.859375 C 7.738281 -18.585938 7.878906 -18.210938 8.109375 -17.734375 C 8.347656 -17.265625 8.632812 -16.738281 8.96875 -16.15625 C 9.300781 -15.570312 9.660156 -14.957031 10.046875 -14.3125 C 10.429688 -13.675781 10.816406 -13.039062 11.203125 -12.40625 C 11.890625 -11.25 12.5 -10.242188 13.03125 -9.390625 C 13.570312 -8.535156 14.050781 -7.789062 14.46875 -7.15625 C 14.894531 -6.53125 15.257812 -6 15.5625 -5.5625 C 15.875 -5.132812 16.132812 -4.773438 16.34375 -4.484375 C 16.34375 -4.984375 16.347656 -5.472656 16.359375 -5.953125 C 16.367188 -6.429688 16.375 -6.921875 16.375 -7.421875 L 16.375 -11.34375 C 16.375 -12.007812 16.375 -12.570312 16.375 -13.03125 C 16.375 -13.5 16.367188 -13.894531 16.359375 -14.21875 C 16.347656 -14.539062 16.335938 -14.816406 16.328125 -15.046875 C 16.316406 -15.273438 16.304688 -15.507812 16.296875 -15.75 C 16.253906 -16.070312 16.171875 -16.367188 16.046875 -16.640625 C 15.921875 -16.921875 15.722656 -17.171875 15.453125 -17.390625 C 15.285156 -17.535156 15.0625 -17.617188 14.78125 -17.640625 C 14.5 -17.660156 14.207031 -17.671875 13.90625 -17.671875 L 13.78125 -17.78125 L 13.703125 -18.875 L 13.75 -19 C 13.882812 -19 14.078125 -18.988281 14.328125 -18.96875 C 14.578125 -18.945312 14.832031 -18.925781 15.09375 -18.90625 C 15.351562 -18.882812 15.609375 -18.863281 15.859375 -18.84375 C 16.109375 -18.832031 16.300781 -18.828125 16.4375 -18.828125 L 18.9375 -18.828125 C 19.070312 -18.828125 19.265625 -18.832031 19.515625 -18.84375 C 19.765625 -18.851562 20.019531 -18.863281 20.28125 -18.875 C 20.550781 -18.894531 20.8125 -18.914062 21.0625 -18.9375 C 21.3125 -18.957031 21.503906 -18.976562 21.640625 -19 Z M 21.671875 -18.875 "/></g></g></g><g fill="#a6a6a6" fill-opacity="0.4"><g transform="translate(87.293865, 51.381764)"><g><path d="M 12.953125 0.171875 C 12.816406 0.171875 12.601562 0.160156 12.3125 0.140625 C 12.03125 0.117188 11.722656 0.0976562 11.390625 0.078125 C 11.066406 0.0664062 10.757812 0.0507812 10.46875 0.03125 C 10.1875 0.0078125 9.976562 0 9.84375 0 L 7.046875 0 C 6.910156 0 6.695312 0.0078125 6.40625 0.03125 C 6.125 0.0507812 5.820312 0.0664062 5.5 0.078125 C 5.1875 0.0976562 4.882812 0.117188 4.59375 0.140625 C 4.3125 0.160156 4.101562 0.171875 3.96875 0.171875 L 3.921875 0.0625 L 4 -1.03125 L 4.140625 -1.15625 C 4.429688 -1.15625 4.769531 -1.160156 5.15625 -1.171875 C 5.550781 -1.191406 5.835938 -1.28125 6.015625 -1.4375 C 6.171875 -1.570312 6.320312 -1.742188 6.46875 -1.953125 C 6.625 -2.171875 6.734375 -2.546875 6.796875 -3.078125 C 6.816406 -3.210938 6.828125 -3.367188 6.828125 -3.546875 C 6.835938 -3.734375 6.847656 -3.960938 6.859375 -4.234375 C 6.867188 -4.503906 6.875 -4.828125 6.875 -5.203125 C 6.875 -5.585938 6.875 -6.070312 6.875 -6.65625 L 6.875 -11.921875 C 6.875 -12.972656 6.863281 -13.910156 6.84375 -14.734375 C 6.832031 -15.554688 6.816406 -16.171875 6.796875 -16.578125 L 6.46875 -16.578125 C 5.738281 -16.578125 5.132812 -16.570312 4.65625 -16.5625 C 4.175781 -16.550781 3.789062 -16.53125 3.5 -16.5 C 3.21875 -16.476562 3.003906 -16.445312 2.859375 -16.40625 C 2.710938 -16.363281 2.613281 -16.316406 2.5625 -16.265625 C 2.351562 -16.171875 2.179688 -16.015625 2.046875 -15.796875 C 1.910156 -15.585938 1.820312 -15.335938 1.78125 -15.046875 L 1.671875 -14.9375 L 0.4375 -14.9375 L 0.640625 -18.796875 L 0.75 -19.046875 L 0.921875 -19.140625 C 1.078125 -19.078125 1.410156 -19.019531 1.921875 -18.96875 C 2.441406 -18.925781 3.007812 -18.894531 3.625 -18.875 C 4.238281 -18.863281 4.828125 -18.851562 5.390625 -18.84375 C 5.960938 -18.832031 6.375 -18.828125 6.625 -18.828125 L 10.25 -18.828125 C 10.5 -18.828125 10.90625 -18.832031 11.46875 -18.84375 C 12.03125 -18.851562 12.617188 -18.863281 13.234375 -18.875 C 13.847656 -18.894531 14.414062 -18.925781 14.9375 -18.96875 C 15.457031 -19.019531 15.789062 -19.078125 15.9375 -19.140625 L 16.125 -19.046875 L 16.234375 -18.796875 L 16.46875 -14.9375 L 15.203125 -14.9375 L 15.078125 -15.046875 C 15.046875 -15.335938 14.960938 -15.585938 14.828125 -15.796875 C 14.691406 -16.015625 14.515625 -16.171875 14.296875 -16.265625 C 14.242188 -16.335938 14.144531 -16.394531 14 -16.4375 C 13.851562 -16.488281 13.632812 -16.523438 13.34375 -16.546875 C 13.0625 -16.566406 12.6875 -16.578125 12.21875 -16.578125 C 11.75 -16.578125 11.148438 -16.578125 10.421875 -16.578125 L 10.109375 -16.578125 C 10.085938 -16.117188 10.070312 -15.503906 10.0625 -14.734375 C 10.050781 -13.960938 10.046875 -13.03125 10.046875 -11.9375 L 10.046875 -7.21875 C 10.046875 -6.53125 10.046875 -5.96875 10.046875 -5.53125 C 10.046875 -5.101562 10.050781 -4.742188 10.0625 -4.453125 C 10.070312 -4.171875 10.082031 -3.925781 10.09375 -3.71875 C 10.101562 -3.519531 10.113281 -3.304688 10.125 -3.078125 C 10.164062 -2.523438 10.269531 -2.140625 10.4375 -1.921875 C 10.613281 -1.710938 10.78125 -1.550781 10.9375 -1.4375 C 11.007812 -1.363281 11.117188 -1.304688 11.265625 -1.265625 C 11.410156 -1.222656 11.566406 -1.191406 11.734375 -1.171875 C 11.910156 -1.160156 12.085938 -1.15625 12.265625 -1.15625 C 12.453125 -1.15625 12.625 -1.15625 12.78125 -1.15625 L 12.921875 -1.03125 L 13.015625 0.0625 Z M 12.953125 0.171875 "/></g></g></g><g fill="#a6a6a6" fill-opacity="0.4"><g transform="translate(104.908097, 51.381764)"><g><path d="M 9.359375 0.171875 C 9.203125 0.148438 8.984375 0.128906 8.703125 0.109375 C 8.421875 0.0976562 8.125 0.0820312 7.8125 0.0625 C 7.5 0.0390625 7.191406 0.0234375 6.890625 0.015625 C 6.597656 0.00390625 6.34375 0 6.125 0 L 4.4375 0 C 4.207031 0 3.9375 0.00390625 3.625 0.015625 C 3.320312 0.0234375 3.015625 0.0390625 2.703125 0.0625 C 2.398438 0.0820312 2.109375 0.0976562 1.828125 0.109375 C 1.546875 0.128906 1.335938 0.148438 1.203125 0.171875 L 1.15625 0.0625 L 1.234375 -1.03125 L 1.375 -1.15625 C 2.101562 -1.15625 2.601562 -1.238281 2.875 -1.40625 C 3.28125 -1.675781 3.53125 -2.234375 3.625 -3.078125 C 3.644531 -3.398438 3.660156 -3.898438 3.671875 -4.578125 C 3.679688 -5.265625 3.6875 -5.957031 3.6875 -6.65625 L 3.6875 -12.984375 C 3.6875 -13.648438 3.675781 -14.179688 3.65625 -14.578125 C 3.632812 -14.972656 3.601562 -15.363281 3.5625 -15.75 C 3.488281 -16.257812 3.40625 -16.628906 3.3125 -16.859375 C 3.226562 -17.097656 3.101562 -17.28125 2.9375 -17.40625 C 2.78125 -17.507812 2.59375 -17.578125 2.375 -17.609375 C 2.15625 -17.648438 1.820312 -17.671875 1.375 -17.671875 L 1.234375 -17.78125 L 1.15625 -18.875 L 1.203125 -19 C 1.703125 -18.9375 2.195312 -18.890625 2.6875 -18.859375 C 3.175781 -18.835938 3.566406 -18.828125 3.859375 -18.828125 L 6.046875 -18.828125 C 6.484375 -18.828125 6.984375 -18.832031 7.546875 -18.84375 C 8.117188 -18.863281 8.613281 -18.875 9.03125 -18.875 C 11.320312 -18.875 13.050781 -18.445312 14.21875 -17.59375 C 15.382812 -16.738281 15.96875 -15.46875 15.96875 -13.78125 C 15.96875 -12.570312 15.617188 -11.472656 14.921875 -10.484375 C 14.222656 -9.503906 13.179688 -8.648438 11.796875 -7.921875 C 12.453125 -6.941406 13.003906 -6.144531 13.453125 -5.53125 C 13.898438 -4.914062 14.289062 -4.425781 14.625 -4.0625 C 15.0625 -3.539062 15.472656 -3.109375 15.859375 -2.765625 C 16.242188 -2.421875 16.625 -2.128906 17 -1.890625 C 17.375 -1.660156 17.757812 -1.488281 18.15625 -1.375 C 18.5625 -1.257812 19.015625 -1.1875 19.515625 -1.15625 L 19.6875 -1.03125 L 19.75 0.0625 L 19.6875 0.171875 C 18.957031 0.210938 18.320312 0.242188 17.78125 0.265625 C 17.25 0.296875 16.859375 0.3125 16.609375 0.3125 C 15.585938 0.3125 14.675781 0.03125 13.875 -0.53125 C 13.082031 -1.09375 12.238281 -2.054688 11.34375 -3.421875 C 11.125 -3.734375 10.894531 -4.078125 10.65625 -4.453125 C 10.414062 -4.835938 10.175781 -5.21875 9.9375 -5.59375 C 9.695312 -5.96875 9.472656 -6.328125 9.265625 -6.671875 C 9.054688 -7.015625 8.882812 -7.3125 8.75 -7.5625 L 6.875 -7.5625 C 6.875 -6.914062 6.875 -6.359375 6.875 -5.890625 C 6.875 -5.421875 6.878906 -5.007812 6.890625 -4.65625 C 6.898438 -4.3125 6.914062 -4.015625 6.9375 -3.765625 C 6.957031 -3.515625 6.976562 -3.285156 7 -3.078125 C 7.070312 -2.191406 7.28125 -1.632812 7.625 -1.40625 C 7.757812 -1.3125 7.929688 -1.242188 8.140625 -1.203125 C 8.359375 -1.171875 8.710938 -1.15625 9.203125 -1.15625 L 9.328125 -1.03125 L 9.40625 0.0625 Z M 8.34375 -9.703125 C 9.75 -9.703125 10.847656 -10.035156 11.640625 -10.703125 C 12.441406 -11.378906 12.84375 -12.3125 12.84375 -13.5 C 12.84375 -14.570312 12.484375 -15.351562 11.765625 -15.84375 C 11.054688 -16.332031 9.925781 -16.578125 8.375 -16.578125 L 7.015625 -16.578125 C 6.960938 -15.804688 6.925781 -15.207031 6.90625 -14.78125 C 6.882812 -14.363281 6.875 -13.960938 6.875 -13.578125 L 6.875 -10.765625 C 6.875 -10.359375 6.921875 -10.078125 7.015625 -9.921875 C 7.117188 -9.773438 7.300781 -9.703125 7.5625 -9.703125 Z M 8.34375 -9.703125 "/></g></g></g><g fill="#a6a6a6" fill-opacity="0.4"><g transform="translate(124.738514, 51.381764)"><g><path d="M 11.109375 -19.140625 L 16.0625 -6.078125 C 16.226562 -5.597656 16.378906 -5.191406 16.515625 -4.859375 C 16.648438 -4.535156 16.757812 -4.257812 16.84375 -4.03125 C 16.9375 -3.800781 17.015625 -3.613281 17.078125 -3.46875 C 17.148438 -3.320312 17.210938 -3.191406 17.265625 -3.078125 C 17.492188 -2.597656 17.726562 -2.226562 17.96875 -1.96875 C 18.207031 -1.707031 18.445312 -1.515625 18.6875 -1.390625 C 18.925781 -1.265625 19.171875 -1.191406 19.421875 -1.171875 C 19.671875 -1.160156 19.921875 -1.15625 20.171875 -1.15625 L 20.3125 -1.03125 L 20.40625 0.0625 L 20.34375 0.171875 C 20.207031 0.171875 20.003906 0.160156 19.734375 0.140625 C 19.472656 0.117188 19.195312 0.0976562 18.90625 0.078125 C 18.625 0.0664062 18.351562 0.0507812 18.09375 0.03125 C 17.832031 0.0078125 17.632812 0 17.5 0 L 15.390625 0 C 15.265625 0 15.046875 0.0078125 14.734375 0.03125 C 14.429688 0.0507812 14.109375 0.0664062 13.765625 0.078125 C 13.429688 0.0976562 13.109375 0.117188 12.796875 0.140625 C 12.492188 0.160156 12.273438 0.171875 12.140625 0.171875 L 12.09375 0.0625 L 12.171875 -1.03125 L 12.296875 -1.15625 C 12.785156 -1.15625 13.160156 -1.21875 13.421875 -1.34375 C 13.679688 -1.46875 13.8125 -1.804688 13.8125 -2.359375 C 13.8125 -2.671875 13.757812 -3.109375 13.65625 -3.671875 C 13.550781 -4.234375 13.304688 -4.9375 12.921875 -5.78125 L 12.3125 -7.171875 L 7.28125 -7.171875 L 6.703125 -5.78125 C 6.359375 -4.9375 6.097656 -4.21875 5.921875 -3.625 C 5.753906 -3.03125 5.671875 -2.609375 5.671875 -2.359375 C 5.671875 -1.898438 5.765625 -1.582031 5.953125 -1.40625 C 6.148438 -1.238281 6.5 -1.15625 7 -1.15625 L 7.140625 -1.03125 L 7.21875 0.0625 L 7.171875 0.171875 C 7.035156 0.171875 6.820312 0.160156 6.53125 0.140625 C 6.25 0.117188 5.945312 0.0976562 5.625 0.078125 C 5.3125 0.0664062 5.007812 0.0507812 4.71875 0.03125 C 4.425781 0.0078125 4.21875 0 4.09375 0 L 2.390625 0 C 2.253906 0 2.050781 0.0078125 1.78125 0.03125 C 1.507812 0.0507812 1.226562 0.0664062 0.9375 0.078125 C 0.65625 0.0976562 0.382812 0.117188 0.125 0.140625 C -0.132812 0.160156 -0.328125 0.171875 -0.453125 0.171875 L -0.484375 0.0625 L -0.4375 -1.03125 L -0.28125 -1.15625 C -0.03125 -1.15625 0.210938 -1.171875 0.453125 -1.203125 C 0.703125 -1.242188 0.953125 -1.332031 1.203125 -1.46875 C 1.453125 -1.601562 1.695312 -1.789062 1.9375 -2.03125 C 2.175781 -2.269531 2.421875 -2.582031 2.671875 -2.96875 C 2.734375 -3.082031 2.820312 -3.257812 2.9375 -3.5 C 3.050781 -3.738281 3.234375 -4.164062 3.484375 -4.78125 C 3.734375 -5.394531 4.078125 -6.265625 4.515625 -7.390625 C 4.960938 -8.523438 5.550781 -10.035156 6.28125 -11.921875 L 8.75 -18.28125 L 10.796875 -19.140625 Z M 7.765625 -9.265625 L 11.546875 -9.265625 L 9.703125 -14.359375 Z M 7.765625 -9.265625 "/></g></g></g><g fill="#a6a6a6" fill-opacity="0.4"><g transform="translate(145.57628, 51.381764)"><g><path d="M 3.59375 -15.75 C 3.5625 -16.070312 3.488281 -16.390625 3.375 -16.703125 C 3.269531 -17.023438 3.113281 -17.257812 2.90625 -17.40625 C 2.75 -17.507812 2.554688 -17.578125 2.328125 -17.609375 C 2.097656 -17.648438 1.78125 -17.671875 1.375 -17.671875 L 1.234375 -17.78125 L 1.15625 -18.875 L 1.203125 -19 C 1.378906 -18.976562 1.613281 -18.957031 1.90625 -18.9375 C 2.207031 -18.914062 2.515625 -18.894531 2.828125 -18.875 C 3.148438 -18.863281 3.453125 -18.851562 3.734375 -18.84375 C 4.023438 -18.832031 4.257812 -18.828125 4.4375 -18.828125 L 6.125 -18.828125 C 6.300781 -18.828125 6.523438 -18.832031 6.796875 -18.84375 C 7.078125 -18.851562 7.375 -18.863281 7.6875 -18.875 C 8.007812 -18.894531 8.316406 -18.914062 8.609375 -18.9375 C 8.910156 -18.957031 9.160156 -18.976562 9.359375 -19 L 9.40625 -18.875 L 9.328125 -17.78125 L 9.203125 -17.671875 C 8.722656 -17.671875 8.375 -17.644531 8.15625 -17.59375 C 7.9375 -17.550781 7.757812 -17.484375 7.625 -17.390625 C 7.21875 -17.117188 6.988281 -16.570312 6.9375 -15.75 C 6.914062 -15.550781 6.898438 -15.347656 6.890625 -15.140625 C 6.878906 -14.941406 6.875 -14.6875 6.875 -14.375 C 6.875 -14.0625 6.875 -13.664062 6.875 -13.1875 C 6.875 -12.707031 6.875 -12.101562 6.875 -11.375 L 6.875 -7.515625 C 6.875 -6.765625 6.875 -6.15625 6.875 -5.6875 C 6.875 -5.21875 6.878906 -4.820312 6.890625 -4.5 C 6.898438 -4.1875 6.910156 -3.910156 6.921875 -3.671875 C 6.929688 -3.429688 6.957031 -3.148438 7 -2.828125 C 7.007812 -2.441406 7.226562 -2.25 7.65625 -2.25 L 10.328125 -2.25 C 10.960938 -2.25 11.46875 -2.257812 11.84375 -2.28125 C 12.21875 -2.3125 12.507812 -2.390625 12.71875 -2.515625 C 12.925781 -2.640625 13.085938 -2.816406 13.203125 -3.046875 C 13.328125 -3.273438 13.4375 -3.59375 13.53125 -4 L 13.609375 -4.109375 L 14.9375 -4.109375 L 14.421875 -0.171875 L 14.1875 0.109375 C 14.03125 0.0976562 13.789062 0.0859375 13.46875 0.078125 C 13.144531 0.0664062 12.800781 0.0546875 12.4375 0.046875 C 12.070312 0.0351562 11.710938 0.0234375 11.359375 0.015625 C 11.003906 0.00390625 10.726562 0 10.53125 0 L 4.4375 0 C 4.300781 0 4.082031 0.00390625 3.78125 0.015625 C 3.488281 0.0234375 3.175781 0.0390625 2.84375 0.0625 C 2.519531 0.0820312 2.203125 0.0976562 1.890625 0.109375 C 1.585938 0.128906 1.359375 0.148438 1.203125 0.171875 L 1.15625 0.0625 L 1.234375 -1.03125 L 1.375 -1.15625 C 2.101562 -1.15625 2.601562 -1.257812 2.875 -1.46875 C 3.03125 -1.601562 3.179688 -1.8125 3.328125 -2.09375 C 3.472656 -2.382812 3.5625 -2.722656 3.59375 -3.109375 C 3.613281 -3.296875 3.628906 -3.554688 3.640625 -3.890625 C 3.648438 -4.234375 3.660156 -4.585938 3.671875 -4.953125 C 3.679688 -5.316406 3.6875 -5.65625 3.6875 -5.96875 C 3.6875 -6.289062 3.6875 -6.519531 3.6875 -6.65625 L 3.6875 -11.34375 C 3.6875 -12.394531 3.679688 -13.316406 3.671875 -14.109375 C 3.660156 -14.910156 3.632812 -15.457031 3.59375 -15.75 Z M 3.59375 -15.75 "/></g></g></g><g fill="#ffffff" fill-opacity="1"><g transform="translate(26.127708, 50.109788)"><g><path d="M 15.625 -14.59375 C 15.570312 -15.007812 15.390625 -15.367188 15.078125 -15.671875 C 14.773438 -15.972656 14.394531 -16.207031 13.9375 -16.375 C 13.488281 -16.550781 12.988281 -16.675781 12.4375 -16.75 C 11.894531 -16.820312 11.359375 -16.859375 10.828125 -16.859375 C 9.117188 -16.859375 7.789062 -16.429688 6.84375 -15.578125 C 6.113281 -14.921875 5.585938 -14.050781 5.265625 -12.96875 C 4.941406 -11.882812 4.78125 -10.707031 4.78125 -9.4375 C 4.78125 -8.226562 4.945312 -7.160156 5.28125 -6.234375 C 5.613281 -5.316406 6.070312 -4.546875 6.65625 -3.921875 C 7.25 -3.304688 7.945312 -2.835938 8.75 -2.515625 C 9.550781 -2.203125 10.429688 -2.046875 11.390625 -2.046875 C 12.222656 -2.046875 13.179688 -2.132812 14.265625 -2.3125 C 15.347656 -2.5 16.367188 -2.851562 17.328125 -3.375 L 17.671875 -2.734375 L 16.984375 -1.46875 C 15.984375 -0.851562 14.976562 -0.398438 13.96875 -0.109375 C 12.96875 0.171875 11.9375 0.3125 10.875 0.3125 C 9.4375 0.3125 8.128906 0.0820312 6.953125 -0.375 C 5.785156 -0.832031 4.785156 -1.488281 3.953125 -2.34375 C 3.117188 -3.195312 2.472656 -4.210938 2.015625 -5.390625 C 1.554688 -6.578125 1.328125 -7.890625 1.328125 -9.328125 C 1.328125 -10.671875 1.53125 -11.941406 1.9375 -13.140625 C 2.351562 -14.335938 2.96875 -15.375 3.78125 -16.25 C 4.601562 -17.132812 5.613281 -17.835938 6.8125 -18.359375 C 8.007812 -18.878906 9.40625 -19.140625 11 -19.140625 C 11.375 -19.140625 11.820312 -19.125 12.34375 -19.09375 C 12.863281 -19.0625 13.410156 -19.003906 13.984375 -18.921875 C 14.554688 -18.835938 15.132812 -18.710938 15.71875 -18.546875 C 16.3125 -18.390625 16.875 -18.1875 17.40625 -17.9375 L 17.5 -17.671875 L 17.125 -14.484375 L 15.71875 -14.484375 Z M 15.625 -14.59375 "/></g></g></g><g fill="#ffffff" fill-opacity="1"><g transform="translate(45.555188, 50.109788)"><g><path d="M 9.4375 -18.828125 C 9.707031 -18.828125 10.101562 -18.832031 10.625 -18.84375 C 11.15625 -18.851562 11.695312 -18.863281 12.25 -18.875 C 12.8125 -18.894531 13.3125 -18.910156 13.75 -18.921875 C 14.195312 -18.929688 14.46875 -18.9375 14.5625 -18.9375 L 14.734375 -18.65625 L 14.59375 -14.9375 L 13.296875 -14.9375 L 13.1875 -15.046875 C 13.144531 -15.410156 13.085938 -15.695312 13.015625 -15.90625 C 12.953125 -16.125 12.773438 -16.28125 12.484375 -16.375 C 12.203125 -16.46875 11.757812 -16.523438 11.15625 -16.546875 C 10.550781 -16.566406 9.710938 -16.578125 8.640625 -16.578125 L 7 -16.578125 L 6.96875 -16.3125 C 6.945312 -16.050781 6.929688 -15.800781 6.921875 -15.5625 C 6.910156 -15.332031 6.898438 -15.0625 6.890625 -14.75 C 6.878906 -14.445312 6.875 -14.078125 6.875 -13.640625 C 6.875 -13.203125 6.875 -12.632812 6.875 -11.9375 L 6.875 -10.96875 C 7.332031 -10.988281 7.769531 -10.992188 8.1875 -10.984375 C 8.613281 -10.972656 9.007812 -10.972656 9.375 -10.984375 C 9.738281 -11.003906 10.050781 -11.039062 10.3125 -11.09375 C 10.570312 -11.144531 10.757812 -11.226562 10.875 -11.34375 C 11.070312 -11.53125 11.171875 -11.796875 11.171875 -12.140625 L 11.3125 -12.296875 L 12.375 -12.34375 L 12.484375 -12.296875 C 12.453125 -11.847656 12.421875 -11.460938 12.390625 -11.140625 C 12.359375 -10.816406 12.34375 -10.441406 12.34375 -10.015625 C 12.34375 -9.554688 12.359375 -9.128906 12.390625 -8.734375 C 12.421875 -8.335938 12.453125 -7.910156 12.484375 -7.453125 L 12.375 -7.390625 L 11.28125 -7.453125 L 11.171875 -7.546875 C 11.171875 -8.023438 11.082031 -8.378906 10.90625 -8.609375 C 10.75 -8.816406 10.3125 -8.9375 9.59375 -8.96875 C 8.875 -9 8.070312 -9.015625 7.1875 -9.015625 L 6.875 -9.015625 L 6.875 -6.65625 C 6.875 -6.09375 6.878906 -5.628906 6.890625 -5.265625 C 6.898438 -4.898438 6.910156 -4.585938 6.921875 -4.328125 C 6.929688 -4.066406 6.945312 -3.820312 6.96875 -3.59375 C 6.988281 -3.363281 7.003906 -3.097656 7.015625 -2.796875 C 7.035156 -2.429688 7.226562 -2.25 7.59375 -2.25 L 8.890625 -2.25 C 9.984375 -2.25 10.84375 -2.265625 11.46875 -2.296875 C 12.09375 -2.335938 12.566406 -2.429688 12.890625 -2.578125 C 13.222656 -2.722656 13.457031 -2.925781 13.59375 -3.1875 C 13.738281 -3.457031 13.867188 -3.820312 13.984375 -4.28125 L 14.109375 -4.40625 L 15.453125 -4.40625 L 14.90625 -0.171875 L 14.671875 0.109375 C 14.578125 0.109375 14.34375 0.101562 13.96875 0.09375 C 13.59375 0.09375 13.175781 0.0820312 12.71875 0.0625 C 12.257812 0.0390625 11.800781 0.0234375 11.34375 0.015625 C 10.882812 0.00390625 10.519531 0 10.25 0 L 4.4375 0 C 4.300781 0 4.078125 0.0078125 3.765625 0.03125 C 3.460938 0.0507812 3.144531 0.0664062 2.8125 0.078125 C 2.488281 0.0976562 2.171875 0.117188 1.859375 0.140625 C 1.554688 0.160156 1.335938 0.171875 1.203125 0.171875 L 1.15625 0.0625 L 1.234375 -1.03125 L 1.375 -1.15625 C 1.6875 -1.15625 1.972656 -1.164062 2.234375 -1.1875 C 2.503906 -1.21875 2.726562 -1.300781 2.90625 -1.4375 C 3.0625 -1.570312 3.207031 -1.742188 3.34375 -1.953125 C 3.488281 -2.171875 3.582031 -2.546875 3.625 -3.078125 C 3.625 -3.210938 3.628906 -3.367188 3.640625 -3.546875 C 3.648438 -3.734375 3.660156 -3.960938 3.671875 -4.234375 C 3.679688 -4.503906 3.6875 -4.828125 3.6875 -5.203125 C 3.6875 -5.585938 3.6875 -6.070312 3.6875 -6.65625 L 3.6875 -11.34375 C 3.6875 -12.007812 3.6875 -12.570312 3.6875 -13.03125 C 3.6875 -13.5 3.6875 -13.894531 3.6875 -14.21875 C 3.6875 -14.539062 3.679688 -14.816406 3.671875 -15.046875 C 3.660156 -15.273438 3.644531 -15.507812 3.625 -15.75 C 3.582031 -16.257812 3.488281 -16.628906 3.34375 -16.859375 C 3.207031 -17.097656 3.0625 -17.273438 2.90625 -17.390625 C 2.726562 -17.535156 2.503906 -17.617188 2.234375 -17.640625 C 1.972656 -17.660156 1.6875 -17.671875 1.375 -17.671875 L 1.234375 -17.78125 L 1.15625 -18.875 L 1.203125 -19 C 1.335938 -19 1.554688 -18.988281 1.859375 -18.96875 C 2.171875 -18.945312 2.503906 -18.925781 2.859375 -18.90625 C 3.210938 -18.882812 3.554688 -18.863281 3.890625 -18.84375 C 4.234375 -18.832031 4.507812 -18.828125 4.71875 -18.828125 Z M 9.4375 -18.828125 "/></g></g></g><g fill="#ffffff" fill-opacity="1"><g transform="translate(62.82405, 50.109788)"><g><path d="M 21.671875 -18.875 L 21.609375 -17.78125 L 21.46875 -17.671875 C 21.175781 -17.671875 20.890625 -17.65625 20.609375 -17.625 C 20.335938 -17.59375 20.117188 -17.515625 19.953125 -17.390625 C 19.796875 -17.253906 19.632812 -17.078125 19.46875 -16.859375 C 19.300781 -16.648438 19.191406 -16.28125 19.140625 -15.75 C 19.117188 -15.476562 19.101562 -15.226562 19.09375 -15 C 19.082031 -14.769531 19.070312 -14.5 19.0625 -14.1875 C 19.050781 -13.882812 19.046875 -13.507812 19.046875 -13.0625 C 19.046875 -12.625 19.046875 -12.0625 19.046875 -11.375 L 19.046875 -6.875 C 19.046875 -5.800781 19.050781 -4.914062 19.0625 -4.21875 C 19.070312 -3.53125 19.082031 -2.941406 19.09375 -2.453125 C 19.101562 -1.972656 19.125 -1.539062 19.15625 -1.15625 C 19.1875 -0.769531 19.21875 -0.347656 19.25 0.109375 L 19.03125 0.265625 L 15.484375 0.109375 L 15.203125 -0.234375 L 6.296875 -13.640625 C 6.335938 -13.296875 6.363281 -12.742188 6.375 -11.984375 C 6.382812 -11.222656 6.390625 -10.347656 6.390625 -9.359375 L 6.390625 -7.21875 C 6.390625 -6.988281 6.390625 -6.6875 6.390625 -6.3125 C 6.390625 -5.9375 6.394531 -5.546875 6.40625 -5.140625 C 6.414062 -4.742188 6.425781 -4.359375 6.4375 -3.984375 C 6.445312 -3.609375 6.457031 -3.304688 6.46875 -3.078125 C 6.507812 -2.597656 6.613281 -2.234375 6.78125 -1.984375 C 6.957031 -1.734375 7.144531 -1.550781 7.34375 -1.4375 C 7.488281 -1.28125 7.6875 -1.191406 7.9375 -1.171875 C 8.1875 -1.160156 8.503906 -1.15625 8.890625 -1.15625 L 9.03125 -1.03125 L 9.125 0.0625 L 9.0625 0.171875 C 8.90625 0.171875 8.6875 0.160156 8.40625 0.140625 C 8.132812 0.117188 7.847656 0.0976562 7.546875 0.078125 C 7.253906 0.0664062 6.96875 0.0507812 6.6875 0.03125 C 6.414062 0.0078125 6.210938 0 6.078125 0 L 4.375 0 C 4.238281 0 4.015625 0.0078125 3.703125 0.03125 C 3.398438 0.0507812 3.085938 0.0664062 2.765625 0.078125 C 2.441406 0.0976562 2.125 0.117188 1.8125 0.140625 C 1.507812 0.160156 1.289062 0.171875 1.15625 0.171875 L 1.09375 0.0625 L 1.1875 -1.03125 L 1.328125 -1.15625 C 1.671875 -1.15625 1.960938 -1.164062 2.203125 -1.1875 C 2.441406 -1.21875 2.65625 -1.300781 2.84375 -1.4375 C 2.976562 -1.53125 3.140625 -1.6875 3.328125 -1.90625 C 3.523438 -2.132812 3.65625 -2.523438 3.71875 -3.078125 C 3.726562 -3.210938 3.738281 -3.367188 3.75 -3.546875 C 3.757812 -3.734375 3.765625 -3.960938 3.765625 -4.234375 C 3.765625 -4.503906 3.765625 -4.828125 3.765625 -5.203125 C 3.765625 -5.585938 3.765625 -6.070312 3.765625 -6.65625 L 3.765625 -11.34375 C 3.765625 -12.007812 3.765625 -12.570312 3.765625 -13.03125 C 3.765625 -13.5 3.765625 -13.894531 3.765625 -14.21875 C 3.765625 -14.539062 3.757812 -14.816406 3.75 -15.046875 C 3.738281 -15.273438 3.726562 -15.507812 3.71875 -15.75 C 3.675781 -16.144531 3.5625 -16.488281 3.375 -16.78125 C 3.195312 -17.070312 3.019531 -17.273438 2.84375 -17.390625 C 2.675781 -17.535156 2.460938 -17.617188 2.203125 -17.640625 C 1.941406 -17.660156 1.648438 -17.671875 1.328125 -17.671875 L 1.1875 -17.78125 L 1.09375 -18.875 L 1.15625 -19 C 1.289062 -19 1.484375 -18.988281 1.734375 -18.96875 C 1.992188 -18.945312 2.257812 -18.925781 2.53125 -18.90625 C 2.800781 -18.882812 3.066406 -18.863281 3.328125 -18.84375 C 3.585938 -18.832031 3.785156 -18.828125 3.921875 -18.828125 L 6.359375 -18.828125 C 6.515625 -18.828125 6.707031 -18.832031 6.9375 -18.84375 C 7.164062 -18.863281 7.367188 -18.894531 7.546875 -18.9375 L 7.6875 -18.859375 C 7.738281 -18.585938 7.878906 -18.210938 8.109375 -17.734375 C 8.347656 -17.265625 8.632812 -16.738281 8.96875 -16.15625 C 9.300781 -15.570312 9.660156 -14.957031 10.046875 -14.3125 C 10.429688 -13.675781 10.816406 -13.039062 11.203125 -12.40625 C 11.890625 -11.25 12.5 -10.242188 13.03125 -9.390625 C 13.570312 -8.535156 14.050781 -7.789062 14.46875 -7.15625 C 14.894531 -6.53125 15.257812 -6 15.5625 -5.5625 C 15.875 -5.132812 16.132812 -4.773438 16.34375 -4.484375 C 16.34375 -4.984375 16.347656 -5.472656 16.359375 -5.953125 C 16.367188 -6.429688 16.375 -6.921875 16.375 -7.421875 L 16.375 -11.34375 C 16.375 -12.007812 16.375 -12.570312 16.375 -13.03125 C 16.375 -13.5 16.367188 -13.894531 16.359375 -14.21875 C 16.347656 -14.539062 16.335938 -14.816406 16.328125 -15.046875 C 16.316406 -15.273438 16.304688 -15.507812 16.296875 -15.75 C 16.253906 -16.070312 16.171875 -16.367188 16.046875 -16.640625 C 15.921875 -16.921875 15.722656 -17.171875 15.453125 -17.390625 C 15.285156 -17.535156 15.0625 -17.617188 14.78125 -17.640625 C 14.5 -17.660156 14.207031 -17.671875 13.90625 -17.671875 L 13.78125 -17.78125 L 13.703125 -18.875 L 13.75 -19 C 13.882812 -19 14.078125 -18.988281 14.328125 -18.96875 C 14.578125 -18.945312 14.832031 -18.925781 15.09375 -18.90625 C 15.351562 -18.882812 15.609375 -18.863281 15.859375 -18.84375 C 16.109375 -18.832031 16.300781 -18.828125 16.4375 -18.828125 L 18.9375 -18.828125 C 19.070312 -18.828125 19.265625 -18.832031 19.515625 -18.84375 C 19.765625 -18.851562 20.019531 -18.863281 20.28125 -18.875 C 20.550781 -18.894531 20.8125 -18.914062 21.0625 -18.9375 C 21.3125 -18.957031 21.503906 -18.976562 21.640625 -19 Z M 21.671875 -18.875 "/></g></g></g><g fill="#ffffff" fill-opacity="1"><g transform="translate(86.02189, 50.109788)"><g><path d="M 12.953125 0.171875 C 12.816406 0.171875 12.601562 0.160156 12.3125 0.140625 C 12.03125 0.117188 11.722656 0.0976562 11.390625 0.078125 C 11.066406 0.0664062 10.757812 0.0507812 10.46875 0.03125 C 10.1875 0.0078125 9.976562 0 9.84375 0 L 7.046875 0 C 6.910156 0 6.695312 0.0078125 6.40625 0.03125 C 6.125 0.0507812 5.820312 0.0664062 5.5 0.078125 C 5.1875 0.0976562 4.882812 0.117188 4.59375 0.140625 C 4.3125 0.160156 4.101562 0.171875 3.96875 0.171875 L 3.921875 0.0625 L 4 -1.03125 L 4.140625 -1.15625 C 4.429688 -1.15625 4.769531 -1.160156 5.15625 -1.171875 C 5.550781 -1.191406 5.835938 -1.28125 6.015625 -1.4375 C 6.171875 -1.570312 6.320312 -1.742188 6.46875 -1.953125 C 6.625 -2.171875 6.734375 -2.546875 6.796875 -3.078125 C 6.816406 -3.210938 6.828125 -3.367188 6.828125 -3.546875 C 6.835938 -3.734375 6.847656 -3.960938 6.859375 -4.234375 C 6.867188 -4.503906 6.875 -4.828125 6.875 -5.203125 C 6.875 -5.585938 6.875 -6.070312 6.875 -6.65625 L 6.875 -11.921875 C 6.875 -12.972656 6.863281 -13.910156 6.84375 -14.734375 C 6.832031 -15.554688 6.816406 -16.171875 6.796875 -16.578125 L 6.46875 -16.578125 C 5.738281 -16.578125 5.132812 -16.570312 4.65625 -16.5625 C 4.175781 -16.550781 3.789062 -16.53125 3.5 -16.5 C 3.21875 -16.476562 3.003906 -16.445312 2.859375 -16.40625 C 2.710938 -16.363281 2.613281 -16.316406 2.5625 -16.265625 C 2.351562 -16.171875 2.179688 -16.015625 2.046875 -15.796875 C 1.910156 -15.585938 1.820312 -15.335938 1.78125 -15.046875 L 1.671875 -14.9375 L 0.4375 -14.9375 L 0.640625 -18.796875 L 0.75 -19.046875 L 0.921875 -19.140625 C 1.078125 -19.078125 1.410156 -19.019531 1.921875 -18.96875 C 2.441406 -18.925781 3.007812 -18.894531 3.625 -18.875 C 4.238281 -18.863281 4.828125 -18.851562 5.390625 -18.84375 C 5.960938 -18.832031 6.375 -18.828125 6.625 -18.828125 L 10.25 -18.828125 C 10.5 -18.828125 10.90625 -18.832031 11.46875 -18.84375 C 12.03125 -18.851562 12.617188 -18.863281 13.234375 -18.875 C 13.847656 -18.894531 14.414062 -18.925781 14.9375 -18.96875 C 15.457031 -19.019531 15.789062 -19.078125 15.9375 -19.140625 L 16.125 -19.046875 L 16.234375 -18.796875 L 16.46875 -14.9375 L 15.203125 -14.9375 L 15.078125 -15.046875 C 15.046875 -15.335938 14.960938 -15.585938 14.828125 -15.796875 C 14.691406 -16.015625 14.515625 -16.171875 14.296875 -16.265625 C 14.242188 -16.335938 14.144531 -16.394531 14 -16.4375 C 13.851562 -16.488281 13.632812 -16.523438 13.34375 -16.546875 C 13.0625 -16.566406 12.6875 -16.578125 12.21875 -16.578125 C 11.75 -16.578125 11.148438 -16.578125 10.421875 -16.578125 L 10.109375 -16.578125 C 10.085938 -16.117188 10.070312 -15.503906 10.0625 -14.734375 C 10.050781 -13.960938 10.046875 -13.03125 10.046875 -11.9375 L 10.046875 -7.21875 C 10.046875 -6.53125 10.046875 -5.96875 10.046875 -5.53125 C 10.046875 -5.101562 10.050781 -4.742188 10.0625 -4.453125 C 10.070312 -4.171875 10.082031 -3.925781 10.09375 -3.71875 C 10.101562 -3.519531 10.113281 -3.304688 10.125 -3.078125 C 10.164062 -2.523438 10.269531 -2.140625 10.4375 -1.921875 C 10.613281 -1.710938 10.78125 -1.550781 10.9375 -1.4375 C 11.007812 -1.363281 11.117188 -1.304688 11.265625 -1.265625 C 11.410156 -1.222656 11.566406 -1.191406 11.734375 -1.171875 C 11.910156 -1.160156 12.085938 -1.15625 12.265625 -1.15625 C 12.453125 -1.15625 12.625 -1.15625 12.78125 -1.15625 L 12.921875 -1.03125 L 13.015625 0.0625 Z M 12.953125 0.171875 "/></g></g></g><g fill="#ffffff" fill-opacity="1"><g transform="translate(103.636121, 50.109788)"><g><path d="M 9.359375 0.171875 C 9.203125 0.148438 8.984375 0.128906 8.703125 0.109375 C 8.421875 0.0976562 8.125 0.0820312 7.8125 0.0625 C 7.5 0.0390625 7.191406 0.0234375 6.890625 0.015625 C 6.597656 0.00390625 6.34375 0 6.125 0 L 4.4375 0 C 4.207031 0 3.9375 0.00390625 3.625 0.015625 C 3.320312 0.0234375 3.015625 0.0390625 2.703125 0.0625 C 2.398438 0.0820312 2.109375 0.0976562 1.828125 0.109375 C 1.546875 0.128906 1.335938 0.148438 1.203125 0.171875 L 1.15625 0.0625 L 1.234375 -1.03125 L 1.375 -1.15625 C 2.101562 -1.15625 2.601562 -1.238281 2.875 -1.40625 C 3.28125 -1.675781 3.53125 -2.234375 3.625 -3.078125 C 3.644531 -3.398438 3.660156 -3.898438 3.671875 -4.578125 C 3.679688 -5.265625 3.6875 -5.957031 3.6875 -6.65625 L 3.6875 -12.984375 C 3.6875 -13.648438 3.675781 -14.179688 3.65625 -14.578125 C 3.632812 -14.972656 3.601562 -15.363281 3.5625 -15.75 C 3.488281 -16.257812 3.40625 -16.628906 3.3125 -16.859375 C 3.226562 -17.097656 3.101562 -17.28125 2.9375 -17.40625 C 2.78125 -17.507812 2.59375 -17.578125 2.375 -17.609375 C 2.15625 -17.648438 1.820312 -17.671875 1.375 -17.671875 L 1.234375 -17.78125 L 1.15625 -18.875 L 1.203125 -19 C 1.703125 -18.9375 2.195312 -18.890625 2.6875 -18.859375 C 3.175781 -18.835938 3.566406 -18.828125 3.859375 -18.828125 L 6.046875 -18.828125 C 6.484375 -18.828125 6.984375 -18.832031 7.546875 -18.84375 C 8.117188 -18.863281 8.613281 -18.875 9.03125 -18.875 C 11.320312 -18.875 13.050781 -18.445312 14.21875 -17.59375 C 15.382812 -16.738281 15.96875 -15.46875 15.96875 -13.78125 C 15.96875 -12.570312 15.617188 -11.472656 14.921875 -10.484375 C 14.222656 -9.503906 13.179688 -8.648438 11.796875 -7.921875 C 12.453125 -6.941406 13.003906 -6.144531 13.453125 -5.53125 C 13.898438 -4.914062 14.289062 -4.425781 14.625 -4.0625 C 15.0625 -3.539062 15.472656 -3.109375 15.859375 -2.765625 C 16.242188 -2.421875 16.625 -2.128906 17 -1.890625 C 17.375 -1.660156 17.757812 -1.488281 18.15625 -1.375 C 18.5625 -1.257812 19.015625 -1.1875 19.515625 -1.15625 L 19.6875 -1.03125 L 19.75 0.0625 L 19.6875 0.171875 C 18.957031 0.210938 18.320312 0.242188 17.78125 0.265625 C 17.25 0.296875 16.859375 0.3125 16.609375 0.3125 C 15.585938 0.3125 14.675781 0.03125 13.875 -0.53125 C 13.082031 -1.09375 12.238281 -2.054688 11.34375 -3.421875 C 11.125 -3.734375 10.894531 -4.078125 10.65625 -4.453125 C 10.414062 -4.835938 10.175781 -5.21875 9.9375 -5.59375 C 9.695312 -5.96875 9.472656 -6.328125 9.265625 -6.671875 C 9.054688 -7.015625 8.882812 -7.3125 8.75 -7.5625 L 6.875 -7.5625 C 6.875 -6.914062 6.875 -6.359375 6.875 -5.890625 C 6.875 -5.421875 6.878906 -5.007812 6.890625 -4.65625 C 6.898438 -4.3125 6.914062 -4.015625 6.9375 -3.765625 C 6.957031 -3.515625 6.976562 -3.285156 7 -3.078125 C 7.070312 -2.191406 7.28125 -1.632812 7.625 -1.40625 C 7.757812 -1.3125 7.929688 -1.242188 8.140625 -1.203125 C 8.359375 -1.171875 8.710938 -1.15625 9.203125 -1.15625 L 9.328125 -1.03125 L 9.40625 0.0625 Z M 8.34375 -9.703125 C 9.75 -9.703125 10.847656 -10.035156 11.640625 -10.703125 C 12.441406 -11.378906 12.84375 -12.3125 12.84375 -13.5 C 12.84375 -14.570312 12.484375 -15.351562 11.765625 -15.84375 C 11.054688 -16.332031 9.925781 -16.578125 8.375 -16.578125 L 7.015625 -16.578125 C 6.960938 -15.804688 6.925781 -15.207031 6.90625 -14.78125 C 6.882812 -14.363281 6.875 -13.960938 6.875 -13.578125 L 6.875 -10.765625 C 6.875 -10.359375 6.921875 -10.078125 7.015625 -9.921875 C 7.117188 -9.773438 7.300781 -9.703125 7.5625 -9.703125 Z M 8.34375 -9.703125 "/></g></g></g><g fill="#ffffff" fill-opacity="1"><g transform="translate(123.466539, 50.109788)"><g><path d="M 11.109375 -19.140625 L 16.0625 -6.078125 C 16.226562 -5.597656 16.378906 -5.191406 16.515625 -4.859375 C 16.648438 -4.535156 16.757812 -4.257812 16.84375 -4.03125 C 16.9375 -3.800781 17.015625 -3.613281 17.078125 -3.46875 C 17.148438 -3.320312 17.210938 -3.191406 17.265625 -3.078125 C 17.492188 -2.597656 17.726562 -2.226562 17.96875 -1.96875 C 18.207031 -1.707031 18.445312 -1.515625 18.6875 -1.390625 C 18.925781 -1.265625 19.171875 -1.191406 19.421875 -1.171875 C 19.671875 -1.160156 19.921875 -1.15625 20.171875 -1.15625 L 20.3125 -1.03125 L 20.40625 0.0625 L 20.34375 0.171875 C 20.207031 0.171875 20.003906 0.160156 19.734375 0.140625 C 19.472656 0.117188 19.195312 0.0976562 18.90625 0.078125 C 18.625 0.0664062 18.351562 0.0507812 18.09375 0.03125 C 17.832031 0.0078125 17.632812 0 17.5 0 L 15.390625 0 C 15.265625 0 15.046875 0.0078125 14.734375 0.03125 C 14.429688 0.0507812 14.109375 0.0664062 13.765625 0.078125 C 13.429688 0.0976562 13.109375 0.117188 12.796875 0.140625 C 12.492188 0.160156 12.273438 0.171875 12.140625 0.171875 L 12.09375 0.0625 L 12.171875 -1.03125 L 12.296875 -1.15625 C 12.785156 -1.15625 13.160156 -1.21875 13.421875 -1.34375 C 13.679688 -1.46875 13.8125 -1.804688 13.8125 -2.359375 C 13.8125 -2.671875 13.757812 -3.109375 13.65625 -3.671875 C 13.550781 -4.234375 13.304688 -4.9375 12.921875 -5.78125 L 12.3125 -7.171875 L 7.28125 -7.171875 L 6.703125 -5.78125 C 6.359375 -4.9375 6.097656 -4.21875 5.921875 -3.625 C 5.753906 -3.03125 5.671875 -2.609375 5.671875 -2.359375 C 5.671875 -1.898438 5.765625 -1.582031 5.953125 -1.40625 C 6.148438 -1.238281 6.5 -1.15625 7 -1.15625 L 7.140625 -1.03125 L 7.21875 0.0625 L 7.171875 0.171875 C 7.035156 0.171875 6.820312 0.160156 6.53125 0.140625 C 6.25 0.117188 5.945312 0.0976562 5.625 0.078125 C 5.3125 0.0664062 5.007812 0.0507812 4.71875 0.03125 C 4.425781 0.0078125 4.21875 0 4.09375 0 L 2.390625 0 C 2.253906 0 2.050781 0.0078125 1.78125 0.03125 C 1.507812 0.0507812 1.226562 0.0664062 0.9375 0.078125 C 0.65625 0.0976562 0.382812 0.117188 0.125 0.140625 C -0.132812 0.160156 -0.328125 0.171875 -0.453125 0.171875 L -0.484375 0.0625 L -0.4375 -1.03125 L -0.28125 -1.15625 C -0.03125 -1.15625 0.210938 -1.171875 0.453125 -1.203125 C 0.703125 -1.242188 0.953125 -1.332031 1.203125 -1.46875 C 1.453125 -1.601562 1.695312 -1.789062 1.9375 -2.03125 C 2.175781 -2.269531 2.421875 -2.582031 2.671875 -2.96875 C 2.734375 -3.082031 2.820312 -3.257812 2.9375 -3.5 C 3.050781 -3.738281 3.234375 -4.164062 3.484375 -4.78125 C 3.734375 -5.394531 4.078125 -6.265625 4.515625 -7.390625 C 4.960938 -8.523438 5.550781 -10.035156 6.28125 -11.921875 L 8.75 -18.28125 L 10.796875 -19.140625 Z M 7.765625 -9.265625 L 11.546875 -9.265625 L 9.703125 -14.359375 Z M 7.765625 -9.265625 "/></g></g></g><g fill="#ffffff" fill-opacity="1"><g transform="translate(144.304305, 50.109788)"><g><path d="M 3.59375 -15.75 C 3.5625 -16.070312 3.488281 -16.390625 3.375 -16.703125 C 3.269531 -17.023438 3.113281 -17.257812 2.90625 -17.40625 C 2.75 -17.507812 2.554688 -17.578125 2.328125 -17.609375 C 2.097656 -17.648438 1.78125 -17.671875 1.375 -17.671875 L 1.234375 -17.78125 L 1.15625 -18.875 L 1.203125 -19 C 1.378906 -18.976562 1.613281 -18.957031 1.90625 -18.9375 C 2.207031 -18.914062 2.515625 -18.894531 2.828125 -18.875 C 3.148438 -18.863281 3.453125 -18.851562 3.734375 -18.84375 C 4.023438 -18.832031 4.257812 -18.828125 4.4375 -18.828125 L 6.125 -18.828125 C 6.300781 -18.828125 6.523438 -18.832031 6.796875 -18.84375 C 7.078125 -18.851562 7.375 -18.863281 7.6875 -18.875 C 8.007812 -18.894531 8.316406 -18.914062 8.609375 -18.9375 C 8.910156 -18.957031 9.160156 -18.976562 9.359375 -19 L 9.40625 -18.875 L 9.328125 -17.78125 L 9.203125 -17.671875 C 8.722656 -17.671875 8.375 -17.644531 8.15625 -17.59375 C 7.9375 -17.550781 7.757812 -17.484375 7.625 -17.390625 C 7.21875 -17.117188 6.988281 -16.570312 6.9375 -15.75 C 6.914062 -15.550781 6.898438 -15.347656 6.890625 -15.140625 C 6.878906 -14.941406 6.875 -14.6875 6.875 -14.375 C 6.875 -14.0625 6.875 -13.664062 6.875 -13.1875 C 6.875 -12.707031 6.875 -12.101562 6.875 -11.375 L 6.875 -7.515625 C 6.875 -6.765625 6.875 -6.15625 6.875 -5.6875 C 6.875 -5.21875 6.878906 -4.820312 6.890625 -4.5 C 6.898438 -4.1875 6.910156 -3.910156 6.921875 -3.671875 C 6.929688 -3.429688 6.957031 -3.148438 7 -2.828125 C 7.007812 -2.441406 7.226562 -2.25 7.65625 -2.25 L 10.328125 -2.25 C 10.960938 -2.25 11.46875 -2.257812 11.84375 -2.28125 C 12.21875 -2.3125 12.507812 -2.390625 12.71875 -2.515625 C 12.925781 -2.640625 13.085938 -2.816406 13.203125 -3.046875 C 13.328125 -3.273438 13.4375 -3.59375 13.53125 -4 L 13.609375 -4.109375 L 14.9375 -4.109375 L 14.421875 -0.171875 L 14.1875 0.109375 C 14.03125 0.0976562 13.789062 0.0859375 13.46875 0.078125 C 13.144531 0.0664062 12.800781 0.0546875 12.4375 0.046875 C 12.070312 0.0351562 11.710938 0.0234375 11.359375 0.015625 C 11.003906 0.00390625 10.726562 0 10.53125 0 L 4.4375 0 C 4.300781 0 4.082031 0.00390625 3.78125 0.015625 C 3.488281 0.0234375 3.175781 0.0390625 2.84375 0.0625 C 2.519531 0.0820312 2.203125 0.0976562 1.890625 0.109375 C 1.585938 0.128906 1.359375 0.148438 1.203125 0.171875 L 1.15625 0.0625 L 1.234375 -1.03125 L 1.375 -1.15625 C 2.101562 -1.15625 2.601562 -1.257812 2.875 -1.46875 C 3.03125 -1.601562 3.179688 -1.8125 3.328125 -2.09375 C 3.472656 -2.382812 3.5625 -2.722656 3.59375 -3.109375 C 3.613281 -3.296875 3.628906 -3.554688 3.640625 -3.890625 C 3.648438 -4.234375 3.660156 -4.585938 3.671875 -4.953125 C 3.679688 -5.316406 3.6875 -5.65625 3.6875 -5.96875 C 3.6875 -6.289062 3.6875 -6.519531 3.6875 -6.65625 L 3.6875 -11.34375 C 3.6875 -12.394531 3.679688 -13.316406 3.671875 -14.109375 C 3.660156 -14.910156 3.632812 -15.457031 3.59375 -15.75 Z M 3.59375 -15.75 "/></g></g></g></svg>