<svg xmlns="http://www.w3.org/2000/svg" xmlns:xlink="http://www.w3.org/1999/xlink" width="246" zoomAndPan="magnify" viewBox="0 0 184.5 54.75" height="73" preserveAspectRatio="xMidYMid meet" version="1.0"><defs><g/></defs><g fill="#a6a6a6" fill-opacity="0.4"><g transform="translate(36.883266, 24.129929)"><g><path d="M 6.203125 -5.5 C 6.023438 -4.882812 5.882812 -4.335938 5.78125 -3.859375 C 5.6875 -3.378906 5.640625 -3.023438 5.640625 -2.796875 C 5.640625 -1.734375 6.648438 -1.203125 8.671875 -1.203125 L 8.375 0 L -0.453125 0 L -0.15625 -1.0625 C 0.6875 -1.0625 1.375 -1.3125 1.90625 -1.8125 C 2.445312 -2.320312 2.867188 -3.128906 3.171875 -4.234375 L 6.296875 -15.953125 C 6.523438 -16.804688 6.640625 -17.472656 6.640625 -17.953125 C 6.640625 -18.210938 6.59375 -18.429688 6.5 -18.609375 C 6.414062 -18.785156 6.269531 -18.929688 6.0625 -19.046875 C 5.851562 -19.171875 5.570312 -19.257812 5.21875 -19.3125 C 4.863281 -19.363281 4.414062 -19.394531 3.875 -19.40625 L 4.171875 -20.484375 L 11.5625 -20.484375 C 13.851562 -20.484375 15.632812 -20.078125 16.90625 -19.265625 C 18.1875 -18.460938 18.828125 -17.34375 18.828125 -15.90625 C 18.828125 -14.976562 18.585938 -14.125 18.109375 -13.34375 C 17.628906 -12.570312 16.960938 -11.898438 16.109375 -11.328125 C 15.265625 -10.765625 14.25 -10.320312 13.0625 -10 C 11.882812 -9.675781 10.609375 -9.515625 9.234375 -9.515625 L 7.3125 -9.515625 Z M 7.65625 -10.875 L 8.96875 -10.875 C 9.976562 -10.875 10.898438 -11 11.734375 -11.25 C 12.578125 -11.507812 13.304688 -11.867188 13.921875 -12.328125 C 14.535156 -12.796875 15.015625 -13.34375 15.359375 -13.96875 C 15.703125 -14.601562 15.875 -15.300781 15.875 -16.0625 C 15.875 -18.207031 14.457031 -19.28125 11.625 -19.28125 C 11.269531 -19.28125 10.972656 -19.25 10.734375 -19.1875 C 10.492188 -19.125 10.285156 -19.007812 10.109375 -18.84375 C 9.941406 -18.6875 9.796875 -18.472656 9.671875 -18.203125 C 9.554688 -17.929688 9.441406 -17.582031 9.328125 -17.15625 Z M 7.65625 -10.875 "/></g></g></g><g fill="#a6a6a6" fill-opacity="0.4"><g transform="translate(55.975587, 24.129929)"><g><path d="M 14.65625 -4.421875 C 14.4375 -3.472656 14.328125 -2.785156 14.328125 -2.359375 C 14.328125 -1.847656 14.492188 -1.503906 14.828125 -1.328125 C 15.171875 -1.148438 15.832031 -1.0625 16.8125 -1.0625 L 16.546875 0 L 8.671875 0 L 8.9375 -1.0625 C 9.445312 -1.0625 9.867188 -1.097656 10.203125 -1.171875 C 10.546875 -1.253906 10.828125 -1.414062 11.046875 -1.65625 C 11.265625 -1.894531 11.453125 -2.234375 11.609375 -2.671875 C 11.773438 -3.117188 11.9375 -3.707031 12.09375 -4.4375 L 12.8125 -7.71875 L 7.09375 -7.71875 L 5.421875 -5.953125 C 4.691406 -5.191406 4.117188 -4.578125 3.703125 -4.109375 C 3.285156 -3.640625 2.972656 -3.257812 2.765625 -2.96875 C 2.554688 -2.6875 2.421875 -2.472656 2.359375 -2.328125 C 2.304688 -2.191406 2.28125 -2.070312 2.28125 -1.96875 C 2.28125 -1.632812 2.425781 -1.398438 2.71875 -1.265625 C 3.019531 -1.128906 3.539062 -1.0625 4.28125 -1.0625 L 4.015625 0 L -2.875 0 L -2.609375 -1.0625 C -2.179688 -1.0625 -1.757812 -1.144531 -1.34375 -1.3125 C -0.925781 -1.476562 -0.46875 -1.753906 0.03125 -2.140625 C 0.539062 -2.535156 1.097656 -3.054688 1.703125 -3.703125 C 2.316406 -4.359375 3.035156 -5.171875 3.859375 -6.140625 L 16.109375 -20.75 L 18.34375 -20.75 Z M 13.0625 -9.046875 L 15.234375 -17.28125 L 15.125 -17.28125 L 8.25 -9.046875 Z M 13.0625 -9.046875 "/></g></g></g><g fill="#a6a6a6" fill-opacity="0.4"><g transform="translate(77.620651, 24.129929)"><g><path d="M 22.46875 -17.421875 L 11.5625 0 L 10.421875 0 L 8.34375 -17.421875 L 8.25 -17.421875 L 4.84375 -4.46875 C 4.789062 -4.257812 4.742188 -4.054688 4.703125 -3.859375 C 4.671875 -3.660156 4.65625 -3.472656 4.65625 -3.296875 C 4.65625 -2.554688 4.863281 -2.003906 5.28125 -1.640625 C 5.695312 -1.273438 6.25 -1.082031 6.9375 -1.0625 L 6.625 0 L -0.71875 0 L -0.421875 -1.0625 C 0.410156 -1.0625 1.15625 -1.359375 1.8125 -1.953125 C 2.46875 -2.546875 2.921875 -3.296875 3.171875 -4.203125 L 6.28125 -15.953125 C 6.539062 -16.929688 6.671875 -17.660156 6.671875 -18.140625 C 6.671875 -18.691406 6.472656 -19.039062 6.078125 -19.1875 C 5.679688 -19.332031 5.003906 -19.40625 4.046875 -19.40625 L 4.328125 -20.484375 L 10.71875 -20.484375 L 12.609375 -4.625 L 12.71875 -4.625 L 22.734375 -20.484375 L 28.34375 -20.484375 L 28.0625 -19.40625 C 27.539062 -19.40625 27.117188 -19.347656 26.796875 -19.234375 C 26.484375 -19.117188 26.207031 -18.898438 25.96875 -18.578125 C 25.726562 -18.265625 25.507812 -17.820312 25.3125 -17.25 C 25.125 -16.6875 24.910156 -15.953125 24.671875 -15.046875 L 21.890625 -4.46875 C 21.671875 -3.6875 21.5625 -3.066406 21.5625 -2.609375 C 21.5625 -2.003906 21.769531 -1.59375 22.1875 -1.375 C 22.601562 -1.164062 23.289062 -1.0625 24.25 -1.0625 L 23.9375 0 L 15.453125 0 L 15.75 -1.0625 C 16.226562 -1.0625 16.632812 -1.097656 16.96875 -1.171875 C 17.300781 -1.253906 17.597656 -1.410156 17.859375 -1.640625 C 18.117188 -1.878906 18.335938 -2.203125 18.515625 -2.609375 C 18.703125 -3.015625 18.882812 -3.546875 19.0625 -4.203125 L 22.578125 -17.421875 Z M 22.46875 -17.421875 "/></g></g></g><g fill="#a6a6a6" fill-opacity="0.4"><g transform="translate(106.099599, 24.129929)"><g><path d="M 6.203125 -5.5 C 6.023438 -4.882812 5.882812 -4.335938 5.78125 -3.859375 C 5.6875 -3.378906 5.640625 -3.023438 5.640625 -2.796875 C 5.640625 -1.734375 6.648438 -1.203125 8.671875 -1.203125 L 8.375 0 L -0.453125 0 L -0.15625 -1.0625 C 0.6875 -1.0625 1.375 -1.3125 1.90625 -1.8125 C 2.445312 -2.320312 2.867188 -3.128906 3.171875 -4.234375 L 6.296875 -15.953125 C 6.523438 -16.804688 6.640625 -17.472656 6.640625 -17.953125 C 6.640625 -18.210938 6.59375 -18.429688 6.5 -18.609375 C 6.414062 -18.785156 6.269531 -18.929688 6.0625 -19.046875 C 5.851562 -19.171875 5.570312 -19.257812 5.21875 -19.3125 C 4.863281 -19.363281 4.414062 -19.394531 3.875 -19.40625 L 4.171875 -20.484375 L 11.5625 -20.484375 C 13.851562 -20.484375 15.632812 -20.078125 16.90625 -19.265625 C 18.1875 -18.460938 18.828125 -17.34375 18.828125 -15.90625 C 18.828125 -14.976562 18.585938 -14.125 18.109375 -13.34375 C 17.628906 -12.570312 16.960938 -11.898438 16.109375 -11.328125 C 15.265625 -10.765625 14.25 -10.320312 13.0625 -10 C 11.882812 -9.675781 10.609375 -9.515625 9.234375 -9.515625 L 7.3125 -9.515625 Z M 7.65625 -10.875 L 8.96875 -10.875 C 9.976562 -10.875 10.898438 -11 11.734375 -11.25 C 12.578125 -11.507812 13.304688 -11.867188 13.921875 -12.328125 C 14.535156 -12.796875 15.015625 -13.34375 15.359375 -13.96875 C 15.703125 -14.601562 15.875 -15.300781 15.875 -16.0625 C 15.875 -18.207031 14.457031 -19.28125 11.625 -19.28125 C 11.269531 -19.28125 10.972656 -19.25 10.734375 -19.1875 C 10.492188 -19.125 10.285156 -19.007812 10.109375 -18.84375 C 9.941406 -18.6875 9.796875 -18.472656 9.671875 -18.203125 C 9.554688 -17.929688 9.441406 -17.582031 9.328125 -17.15625 Z M 7.65625 -10.875 "/></g></g></g><g fill="#a6a6a6" fill-opacity="0.4"><g transform="translate(125.19192, 24.129929)"><g><path d="M 14.65625 -4.421875 C 14.4375 -3.472656 14.328125 -2.785156 14.328125 -2.359375 C 14.328125 -1.847656 14.492188 -1.503906 14.828125 -1.328125 C 15.171875 -1.148438 15.832031 -1.0625 16.8125 -1.0625 L 16.546875 0 L 8.671875 0 L 8.9375 -1.0625 C 9.445312 -1.0625 9.867188 -1.097656 10.203125 -1.171875 C 10.546875 -1.253906 10.828125 -1.414062 11.046875 -1.65625 C 11.265625 -1.894531 11.453125 -2.234375 11.609375 -2.671875 C 11.773438 -3.117188 11.9375 -3.707031 12.09375 -4.4375 L 12.8125 -7.71875 L 7.09375 -7.71875 L 5.421875 -5.953125 C 4.691406 -5.191406 4.117188 -4.578125 3.703125 -4.109375 C 3.285156 -3.640625 2.972656 -3.257812 2.765625 -2.96875 C 2.554688 -2.6875 2.421875 -2.472656 2.359375 -2.328125 C 2.304688 -2.191406 2.28125 -2.070312 2.28125 -1.96875 C 2.28125 -1.632812 2.425781 -1.398438 2.71875 -1.265625 C 3.019531 -1.128906 3.539062 -1.0625 4.28125 -1.0625 L 4.015625 0 L -2.875 0 L -2.609375 -1.0625 C -2.179688 -1.0625 -1.757812 -1.144531 -1.34375 -1.3125 C -0.925781 -1.476562 -0.46875 -1.753906 0.03125 -2.140625 C 0.539062 -2.535156 1.097656 -3.054688 1.703125 -3.703125 C 2.316406 -4.359375 3.035156 -5.171875 3.859375 -6.140625 L 16.109375 -20.75 L 18.34375 -20.75 Z M 13.0625 -9.046875 L 15.234375 -17.28125 L 15.125 -17.28125 L 8.25 -9.046875 Z M 13.0625 -9.046875 "/></g></g></g><g fill="#ffffff" fill-opacity="1"><g transform="translate(35.708096, 22.954759)"><g><path d="M 6.203125 -5.5 C 6.023438 -4.882812 5.882812 -4.335938 5.78125 -3.859375 C 5.6875 -3.378906 5.640625 -3.023438 5.640625 -2.796875 C 5.640625 -1.734375 6.648438 -1.203125 8.671875 -1.203125 L 8.375 0 L -0.453125 0 L -0.15625 -1.0625 C 0.6875 -1.0625 1.375 -1.3125 1.90625 -1.8125 C 2.445312 -2.320312 2.867188 -3.128906 3.171875 -4.234375 L 6.296875 -15.953125 C 6.523438 -16.804688 6.640625 -17.472656 6.640625 -17.953125 C 6.640625 -18.210938 6.59375 -18.429688 6.5 -18.609375 C 6.414062 -18.785156 6.269531 -18.929688 6.0625 -19.046875 C 5.851562 -19.171875 5.570312 -19.257812 5.21875 -19.3125 C 4.863281 -19.363281 4.414062 -19.394531 3.875 -19.40625 L 4.171875 -20.484375 L 11.5625 -20.484375 C 13.851562 -20.484375 15.632812 -20.078125 16.90625 -19.265625 C 18.1875 -18.460938 18.828125 -17.34375 18.828125 -15.90625 C 18.828125 -14.976562 18.585938 -14.125 18.109375 -13.34375 C 17.628906 -12.570312 16.960938 -11.898438 16.109375 -11.328125 C 15.265625 -10.765625 14.25 -10.320312 13.0625 -10 C 11.882812 -9.675781 10.609375 -9.515625 9.234375 -9.515625 L 7.3125 -9.515625 Z M 7.65625 -10.875 L 8.96875 -10.875 C 9.976562 -10.875 10.898438 -11 11.734375 -11.25 C 12.578125 -11.507812 13.304688 -11.867188 13.921875 -12.328125 C 14.535156 -12.796875 15.015625 -13.34375 15.359375 -13.96875 C 15.703125 -14.601562 15.875 -15.300781 15.875 -16.0625 C 15.875 -18.207031 14.457031 -19.28125 11.625 -19.28125 C 11.269531 -19.28125 10.972656 -19.25 10.734375 -19.1875 C 10.492188 -19.125 10.285156 -19.007812 10.109375 -18.84375 C 9.941406 -18.6875 9.796875 -18.472656 9.671875 -18.203125 C 9.554688 -17.929688 9.441406 -17.582031 9.328125 -17.15625 Z M 7.65625 -10.875 "/></g></g></g><g fill="#ffffff" fill-opacity="1"><g transform="translate(54.800418, 22.954759)"><g><path d="M 14.65625 -4.421875 C 14.4375 -3.472656 14.328125 -2.785156 14.328125 -2.359375 C 14.328125 -1.847656 14.492188 -1.503906 14.828125 -1.328125 C 15.171875 -1.148438 15.832031 -1.0625 16.8125 -1.0625 L 16.546875 0 L 8.671875 0 L 8.9375 -1.0625 C 9.445312 -1.0625 9.867188 -1.097656 10.203125 -1.171875 C 10.546875 -1.253906 10.828125 -1.414062 11.046875 -1.65625 C 11.265625 -1.894531 11.453125 -2.234375 11.609375 -2.671875 C 11.773438 -3.117188 11.9375 -3.707031 12.09375 -4.4375 L 12.8125 -7.71875 L 7.09375 -7.71875 L 5.421875 -5.953125 C 4.691406 -5.191406 4.117188 -4.578125 3.703125 -4.109375 C 3.285156 -3.640625 2.972656 -3.257812 2.765625 -2.96875 C 2.554688 -2.6875 2.421875 -2.472656 2.359375 -2.328125 C 2.304688 -2.191406 2.28125 -2.070312 2.28125 -1.96875 C 2.28125 -1.632812 2.425781 -1.398438 2.71875 -1.265625 C 3.019531 -1.128906 3.539062 -1.0625 4.28125 -1.0625 L 4.015625 0 L -2.875 0 L -2.609375 -1.0625 C -2.179688 -1.0625 -1.757812 -1.144531 -1.34375 -1.3125 C -0.925781 -1.476562 -0.46875 -1.753906 0.03125 -2.140625 C 0.539062 -2.535156 1.097656 -3.054688 1.703125 -3.703125 C 2.316406 -4.359375 3.035156 -5.171875 3.859375 -6.140625 L 16.109375 -20.75 L 18.34375 -20.75 Z M 13.0625 -9.046875 L 15.234375 -17.28125 L 15.125 -17.28125 L 8.25 -9.046875 Z M 13.0625 -9.046875 "/></g></g></g><g fill="#ffffff" fill-opacity="1"><g transform="translate(76.445481, 22.954759)"><g><path d="M 22.46875 -17.421875 L 11.5625 0 L 10.421875 0 L 8.34375 -17.421875 L 8.25 -17.421875 L 4.84375 -4.46875 C 4.789062 -4.257812 4.742188 -4.054688 4.703125 -3.859375 C 4.671875 -3.660156 4.65625 -3.472656 4.65625 -3.296875 C 4.65625 -2.554688 4.863281 -2.003906 5.28125 -1.640625 C 5.695312 -1.273438 6.25 -1.082031 6.9375 -1.0625 L 6.625 0 L -0.71875 0 L -0.421875 -1.0625 C 0.410156 -1.0625 1.15625 -1.359375 1.8125 -1.953125 C 2.46875 -2.546875 2.921875 -3.296875 3.171875 -4.203125 L 6.28125 -15.953125 C 6.539062 -16.929688 6.671875 -17.660156 6.671875 -18.140625 C 6.671875 -18.691406 6.472656 -19.039062 6.078125 -19.1875 C 5.679688 -19.332031 5.003906 -19.40625 4.046875 -19.40625 L 4.328125 -20.484375 L 10.71875 -20.484375 L 12.609375 -4.625 L 12.71875 -4.625 L 22.734375 -20.484375 L 28.34375 -20.484375 L 28.0625 -19.40625 C 27.539062 -19.40625 27.117188 -19.347656 26.796875 -19.234375 C 26.484375 -19.117188 26.207031 -18.898438 25.96875 -18.578125 C 25.726562 -18.265625 25.507812 -17.820312 25.3125 -17.25 C 25.125 -16.6875 24.910156 -15.953125 24.671875 -15.046875 L 21.890625 -4.46875 C 21.671875 -3.6875 21.5625 -3.066406 21.5625 -2.609375 C 21.5625 -2.003906 21.769531 -1.59375 22.1875 -1.375 C 22.601562 -1.164062 23.289062 -1.0625 24.25 -1.0625 L 23.9375 0 L 15.453125 0 L 15.75 -1.0625 C 16.226562 -1.0625 16.632812 -1.097656 16.96875 -1.171875 C 17.300781 -1.253906 17.597656 -1.410156 17.859375 -1.640625 C 18.117188 -1.878906 18.335938 -2.203125 18.515625 -2.609375 C 18.703125 -3.015625 18.882812 -3.546875 19.0625 -4.203125 L 22.578125 -17.421875 Z M 22.46875 -17.421875 "/></g></g></g><g fill="#ffffff" fill-opacity="1"><g transform="translate(104.924429, 22.954759)"><g><path d="M 6.203125 -5.5 C 6.023438 -4.882812 5.882812 -4.335938 5.78125 -3.859375 C 5.6875 -3.378906 5.640625 -3.023438 5.640625 -2.796875 C 5.640625 -1.734375 6.648438 -1.203125 8.671875 -1.203125 L 8.375 0 L -0.453125 0 L -0.15625 -1.0625 C 0.6875 -1.0625 1.375 -1.3125 1.90625 -1.8125 C 2.445312 -2.320312 2.867188 -3.128906 3.171875 -4.234375 L 6.296875 -15.953125 C 6.523438 -16.804688 6.640625 -17.472656 6.640625 -17.953125 C 6.640625 -18.210938 6.59375 -18.429688 6.5 -18.609375 C 6.414062 -18.785156 6.269531 -18.929688 6.0625 -19.046875 C 5.851562 -19.171875 5.570312 -19.257812 5.21875 -19.3125 C 4.863281 -19.363281 4.414062 -19.394531 3.875 -19.40625 L 4.171875 -20.484375 L 11.5625 -20.484375 C 13.851562 -20.484375 15.632812 -20.078125 16.90625 -19.265625 C 18.1875 -18.460938 18.828125 -17.34375 18.828125 -15.90625 C 18.828125 -14.976562 18.585938 -14.125 18.109375 -13.34375 C 17.628906 -12.570312 16.960938 -11.898438 16.109375 -11.328125 C 15.265625 -10.765625 14.25 -10.320312 13.0625 -10 C 11.882812 -9.675781 10.609375 -9.515625 9.234375 -9.515625 L 7.3125 -9.515625 Z M 7.65625 -10.875 L 8.96875 -10.875 C 9.976562 -10.875 10.898438 -11 11.734375 -11.25 C 12.578125 -11.507812 13.304688 -11.867188 13.921875 -12.328125 C 14.535156 -12.796875 15.015625 -13.34375 15.359375 -13.96875 C 15.703125 -14.601562 15.875 -15.300781 15.875 -16.0625 C 15.875 -18.207031 14.457031 -19.28125 11.625 -19.28125 C 11.269531 -19.28125 10.972656 -19.25 10.734375 -19.1875 C 10.492188 -19.125 10.285156 -19.007812 10.109375 -18.84375 C 9.941406 -18.6875 9.796875 -18.472656 9.671875 -18.203125 C 9.554688 -17.929688 9.441406 -17.582031 9.328125 -17.15625 Z M 7.65625 -10.875 "/></g></g></g><g fill="#ffffff" fill-opacity="1"><g transform="translate(124.01675, 22.954759)"><g><path d="M 14.65625 -4.421875 C 14.4375 -3.472656 14.328125 -2.785156 14.328125 -2.359375 C 14.328125 -1.847656 14.492188 -1.503906 14.828125 -1.328125 C 15.171875 -1.148438 15.832031 -1.0625 16.8125 -1.0625 L 16.546875 0 L 8.671875 0 L 8.9375 -1.0625 C 9.445312 -1.0625 9.867188 -1.097656 10.203125 -1.171875 C 10.546875 -1.253906 10.828125 -1.414062 11.046875 -1.65625 C 11.265625 -1.894531 11.453125 -2.234375 11.609375 -2.671875 C 11.773438 -3.117188 11.9375 -3.707031 12.09375 -4.4375 L 12.8125 -7.71875 L 7.09375 -7.71875 L 5.421875 -5.953125 C 4.691406 -5.191406 4.117188 -4.578125 3.703125 -4.109375 C 3.285156 -3.640625 2.972656 -3.257812 2.765625 -2.96875 C 2.554688 -2.6875 2.421875 -2.472656 2.359375 -2.328125 C 2.304688 -2.191406 2.28125 -2.070312 2.28125 -1.96875 C 2.28125 -1.632812 2.425781 -1.398438 2.71875 -1.265625 C 3.019531 -1.128906 3.539062 -1.0625 4.28125 -1.0625 L 4.015625 0 L -2.875 0 L -2.609375 -1.0625 C -2.179688 -1.0625 -1.757812 -1.144531 -1.34375 -1.3125 C -0.925781 -1.476562 -0.46875 -1.753906 0.03125 -2.140625 C 0.539062 -2.535156 1.097656 -3.054688 1.703125 -3.703125 C 2.316406 -4.359375 3.035156 -5.171875 3.859375 -6.140625 L 16.109375 -20.75 L 18.34375 -20.75 Z M 13.0625 -9.046875 L 15.234375 -17.28125 L 15.125 -17.28125 L 8.25 -9.046875 Z M 13.0625 -9.046875 "/></g></g></g><g fill="#a6a6a6" fill-opacity="0.4"><g transform="translate(36.883266, 51.828945)"><g><path d="M 17.6875 -5.03125 C 17.0625 -4.082031 16.453125 -3.269531 15.859375 -2.59375 C 15.265625 -1.925781 14.648438 -1.378906 14.015625 -0.953125 C 13.378906 -0.523438 12.707031 -0.210938 12 -0.015625 C 11.289062 0.171875 10.523438 0.265625 9.703125 0.265625 C 8.492188 0.265625 7.410156 0.078125 6.453125 -0.296875 C 5.503906 -0.679688 4.695312 -1.234375 4.03125 -1.953125 C 3.363281 -2.671875 2.847656 -3.539062 2.484375 -4.5625 C 2.117188 -5.582031 1.9375 -6.726562 1.9375 -8 C 1.9375 -9.6875 2.242188 -11.296875 2.859375 -12.828125 C 3.484375 -14.359375 4.316406 -15.707031 5.359375 -16.875 C 6.398438 -18.050781 7.601562 -18.988281 8.96875 -19.6875 C 10.332031 -20.394531 11.757812 -20.75 13.25 -20.75 C 14.09375 -20.75 14.898438 -20.617188 15.671875 -20.359375 C 16.441406 -20.097656 17.226562 -19.691406 18.03125 -19.140625 L 19.015625 -20.484375 L 20 -20.484375 L 18.78125 -13.796875 L 17.765625 -13.796875 C 17.617188 -15.734375 17.203125 -17.144531 16.515625 -18.03125 C 15.835938 -18.914062 14.816406 -19.359375 13.453125 -19.359375 C 12.285156 -19.359375 11.195312 -19.066406 10.1875 -18.484375 C 9.175781 -17.898438 8.296875 -17.09375 7.546875 -16.0625 C 6.804688 -15.03125 6.222656 -13.820312 5.796875 -12.4375 C 5.367188 -11.0625 5.15625 -9.578125 5.15625 -7.984375 C 5.15625 -3.585938 6.867188 -1.390625 10.296875 -1.390625 C 11.566406 -1.390625 12.71875 -1.734375 13.75 -2.421875 C 14.789062 -3.109375 15.785156 -4.191406 16.734375 -5.671875 Z M 17.6875 -5.03125 "/></g></g></g><g fill="#a6a6a6" fill-opacity="0.4"><g transform="translate(57.597646, 51.828945)"><g><path d="M 19.015625 -4.46875 C 18.804688 -3.6875 18.703125 -3.066406 18.703125 -2.609375 C 18.703125 -2.003906 18.890625 -1.59375 19.265625 -1.375 C 19.648438 -1.164062 20.265625 -1.0625 21.109375 -1.0625 L 20.796875 0 L 12.3125 0 L 12.609375 -1.0625 C 13.140625 -1.0625 13.585938 -1.097656 13.953125 -1.171875 C 14.328125 -1.253906 14.648438 -1.410156 14.921875 -1.640625 C 15.203125 -1.878906 15.4375 -2.203125 15.625 -2.609375 C 15.820312 -3.015625 16.015625 -3.546875 16.203125 -4.203125 L 17.65625 -9.765625 L 7.34375 -9.765625 L 5.953125 -4.46875 C 5.742188 -3.6875 5.640625 -3.066406 5.640625 -2.609375 C 5.640625 -2.003906 5.828125 -1.59375 6.203125 -1.375 C 6.585938 -1.164062 7.210938 -1.0625 8.078125 -1.0625 L 7.734375 0 L -0.75 0 L -0.453125 -1.0625 C 0.078125 -1.0625 0.53125 -1.097656 0.90625 -1.171875 C 1.28125 -1.253906 1.601562 -1.410156 1.875 -1.640625 C 2.144531 -1.878906 2.378906 -2.203125 2.578125 -2.609375 C 2.773438 -3.015625 2.960938 -3.546875 3.140625 -4.203125 L 6.25 -15.953125 C 6.507812 -16.929688 6.640625 -17.660156 6.640625 -18.140625 C 6.640625 -18.691406 6.441406 -19.039062 6.046875 -19.1875 C 5.648438 -19.332031 4.972656 -19.40625 4.015625 -19.40625 L 4.3125 -20.484375 L 12.953125 -20.484375 L 12.65625 -19.40625 C 12.070312 -19.40625 11.582031 -19.347656 11.1875 -19.234375 C 10.800781 -19.117188 10.46875 -18.898438 10.1875 -18.578125 C 9.90625 -18.265625 9.648438 -17.820312 9.421875 -17.25 C 9.203125 -16.6875 8.976562 -15.953125 8.75 -15.046875 L 7.71875 -11.109375 L 18.03125 -11.109375 L 19.3125 -15.953125 C 19.570312 -16.929688 19.703125 -17.660156 19.703125 -18.140625 C 19.703125 -18.691406 19.503906 -19.039062 19.109375 -19.1875 C 18.710938 -19.332031 18.035156 -19.40625 17.078125 -19.40625 L 17.359375 -20.484375 L 26.015625 -20.484375 L 25.71875 -19.40625 C 25.132812 -19.40625 24.644531 -19.347656 24.25 -19.234375 C 23.863281 -19.117188 23.523438 -18.898438 23.234375 -18.578125 C 22.953125 -18.265625 22.703125 -17.820312 22.484375 -17.25 C 22.265625 -16.6875 22.039062 -15.953125 21.8125 -15.046875 Z M 19.015625 -4.46875 "/></g></g></g><g fill="#a6a6a6" fill-opacity="0.4"><g transform="translate(83.178171, 51.828945)"><g><path d="M 5.953125 -4.46875 C 5.742188 -3.6875 5.640625 -3.066406 5.640625 -2.609375 C 5.640625 -2.003906 5.828125 -1.59375 6.203125 -1.375 C 6.585938 -1.164062 7.207031 -1.0625 8.0625 -1.0625 L 7.734375 0 L -0.75 0 L -0.453125 -1.0625 C 0.078125 -1.0625 0.53125 -1.097656 0.90625 -1.171875 C 1.28125 -1.253906 1.601562 -1.410156 1.875 -1.640625 C 2.144531 -1.878906 2.378906 -2.203125 2.578125 -2.609375 C 2.773438 -3.015625 2.960938 -3.546875 3.140625 -4.203125 L 6.25 -15.953125 C 6.507812 -16.929688 6.640625 -17.660156 6.640625 -18.140625 C 6.640625 -18.691406 6.441406 -19.039062 6.046875 -19.1875 C 5.648438 -19.332031 4.972656 -19.40625 4.015625 -19.40625 L 4.3125 -20.484375 L 12.953125 -20.484375 L 12.65625 -19.40625 C 12.070312 -19.40625 11.582031 -19.347656 11.1875 -19.234375 C 10.800781 -19.117188 10.46875 -18.898438 10.1875 -18.578125 C 9.90625 -18.265625 9.648438 -17.820312 9.421875 -17.25 C 9.203125 -16.6875 8.976562 -15.953125 8.75 -15.046875 Z M 5.953125 -4.46875 "/></g></g></g><g fill="#a6a6a6" fill-opacity="0.4"><g transform="translate(95.702525, 51.828945)"><g><path d="M 17.6875 -5.03125 C 17.0625 -4.082031 16.453125 -3.269531 15.859375 -2.59375 C 15.265625 -1.925781 14.648438 -1.378906 14.015625 -0.953125 C 13.378906 -0.523438 12.707031 -0.210938 12 -0.015625 C 11.289062 0.171875 10.523438 0.265625 9.703125 0.265625 C 8.492188 0.265625 7.410156 0.078125 6.453125 -0.296875 C 5.503906 -0.679688 4.695312 -1.234375 4.03125 -1.953125 C 3.363281 -2.671875 2.847656 -3.539062 2.484375 -4.5625 C 2.117188 -5.582031 1.9375 -6.726562 1.9375 -8 C 1.9375 -9.6875 2.242188 -11.296875 2.859375 -12.828125 C 3.484375 -14.359375 4.316406 -15.707031 5.359375 -16.875 C 6.398438 -18.050781 7.601562 -18.988281 8.96875 -19.6875 C 10.332031 -20.394531 11.757812 -20.75 13.25 -20.75 C 14.09375 -20.75 14.898438 -20.617188 15.671875 -20.359375 C 16.441406 -20.097656 17.226562 -19.691406 18.03125 -19.140625 L 19.015625 -20.484375 L 20 -20.484375 L 18.78125 -13.796875 L 17.765625 -13.796875 C 17.617188 -15.734375 17.203125 -17.144531 16.515625 -18.03125 C 15.835938 -18.914062 14.816406 -19.359375 13.453125 -19.359375 C 12.285156 -19.359375 11.195312 -19.066406 10.1875 -18.484375 C 9.175781 -17.898438 8.296875 -17.09375 7.546875 -16.0625 C 6.804688 -15.03125 6.222656 -13.820312 5.796875 -12.4375 C 5.367188 -11.0625 5.15625 -9.578125 5.15625 -7.984375 C 5.15625 -3.585938 6.867188 -1.390625 10.296875 -1.390625 C 11.566406 -1.390625 12.71875 -1.734375 13.75 -2.421875 C 14.789062 -3.109375 15.785156 -4.191406 16.734375 -5.671875 Z M 17.6875 -5.03125 "/></g></g></g><g fill="#a6a6a6" fill-opacity="0.4"><g transform="translate(116.416905, 51.828945)"><g><path d="M 14.65625 -4.421875 C 14.4375 -3.472656 14.328125 -2.785156 14.328125 -2.359375 C 14.328125 -1.847656 14.492188 -1.503906 14.828125 -1.328125 C 15.171875 -1.148438 15.832031 -1.0625 16.8125 -1.0625 L 16.546875 0 L 8.671875 0 L 8.9375 -1.0625 C 9.445312 -1.0625 9.867188 -1.097656 10.203125 -1.171875 C 10.546875 -1.253906 10.828125 -1.414062 11.046875 -1.65625 C 11.265625 -1.894531 11.453125 -2.234375 11.609375 -2.671875 C 11.773438 -3.117188 11.9375 -3.707031 12.09375 -4.4375 L 12.8125 -7.71875 L 7.09375 -7.71875 L 5.421875 -5.953125 C 4.691406 -5.191406 4.117188 -4.578125 3.703125 -4.109375 C 3.285156 -3.640625 2.972656 -3.257812 2.765625 -2.96875 C 2.554688 -2.6875 2.421875 -2.472656 2.359375 -2.328125 C 2.304688 -2.191406 2.28125 -2.070312 2.28125 -1.96875 C 2.28125 -1.632812 2.425781 -1.398438 2.71875 -1.265625 C 3.019531 -1.128906 3.539062 -1.0625 4.28125 -1.0625 L 4.015625 0 L -2.875 0 L -2.609375 -1.0625 C -2.179688 -1.0625 -1.757812 -1.144531 -1.34375 -1.3125 C -0.925781 -1.476562 -0.46875 -1.753906 0.03125 -2.140625 C 0.539062 -2.535156 1.097656 -3.054688 1.703125 -3.703125 C 2.316406 -4.359375 3.035156 -5.171875 3.859375 -6.140625 L 16.109375 -20.75 L 18.34375 -20.75 Z M 13.0625 -9.046875 L 15.234375 -17.28125 L 15.125 -17.28125 L 8.25 -9.046875 Z M 13.0625 -9.046875 "/></g></g></g><g fill="#ffffff" fill-opacity="1"><g transform="translate(35.708096, 50.653776)"><g><path d="M 17.6875 -5.03125 C 17.0625 -4.082031 16.453125 -3.269531 15.859375 -2.59375 C 15.265625 -1.925781 14.648438 -1.378906 14.015625 -0.953125 C 13.378906 -0.523438 12.707031 -0.210938 12 -0.015625 C 11.289062 0.171875 10.523438 0.265625 9.703125 0.265625 C 8.492188 0.265625 7.410156 0.078125 6.453125 -0.296875 C 5.503906 -0.679688 4.695312 -1.234375 4.03125 -1.953125 C 3.363281 -2.671875 2.847656 -3.539062 2.484375 -4.5625 C 2.117188 -5.582031 1.9375 -6.726562 1.9375 -8 C 1.9375 -9.6875 2.242188 -11.296875 2.859375 -12.828125 C 3.484375 -14.359375 4.316406 -15.707031 5.359375 -16.875 C 6.398438 -18.050781 7.601562 -18.988281 8.96875 -19.6875 C 10.332031 -20.394531 11.757812 -20.75 13.25 -20.75 C 14.09375 -20.75 14.898438 -20.617188 15.671875 -20.359375 C 16.441406 -20.097656 17.226562 -19.691406 18.03125 -19.140625 L 19.015625 -20.484375 L 20 -20.484375 L 18.78125 -13.796875 L 17.765625 -13.796875 C 17.617188 -15.734375 17.203125 -17.144531 16.515625 -18.03125 C 15.835938 -18.914062 14.816406 -19.359375 13.453125 -19.359375 C 12.285156 -19.359375 11.195312 -19.066406 10.1875 -18.484375 C 9.175781 -17.898438 8.296875 -17.09375 7.546875 -16.0625 C 6.804688 -15.03125 6.222656 -13.820312 5.796875 -12.4375 C 5.367188 -11.0625 5.15625 -9.578125 5.15625 -7.984375 C 5.15625 -3.585938 6.867188 -1.390625 10.296875 -1.390625 C 11.566406 -1.390625 12.71875 -1.734375 13.75 -2.421875 C 14.789062 -3.109375 15.785156 -4.191406 16.734375 -5.671875 Z M 17.6875 -5.03125 "/></g></g></g><g fill="#ffffff" fill-opacity="1"><g transform="translate(56.422476, 50.653776)"><g><path d="M 19.015625 -4.46875 C 18.804688 -3.6875 18.703125 -3.066406 18.703125 -2.609375 C 18.703125 -2.003906 18.890625 -1.59375 19.265625 -1.375 C 19.648438 -1.164062 20.265625 -1.0625 21.109375 -1.0625 L 20.796875 0 L 12.3125 0 L 12.609375 -1.0625 C 13.140625 -1.0625 13.585938 -1.097656 13.953125 -1.171875 C 14.328125 -1.253906 14.648438 -1.410156 14.921875 -1.640625 C 15.203125 -1.878906 15.4375 -2.203125 15.625 -2.609375 C 15.820312 -3.015625 16.015625 -3.546875 16.203125 -4.203125 L 17.65625 -9.765625 L 7.34375 -9.765625 L 5.953125 -4.46875 C 5.742188 -3.6875 5.640625 -3.066406 5.640625 -2.609375 C 5.640625 -2.003906 5.828125 -1.59375 6.203125 -1.375 C 6.585938 -1.164062 7.210938 -1.0625 8.078125 -1.0625 L 7.734375 0 L -0.75 0 L -0.453125 -1.0625 C 0.078125 -1.0625 0.53125 -1.097656 0.90625 -1.171875 C 1.28125 -1.253906 1.601562 -1.410156 1.875 -1.640625 C 2.144531 -1.878906 2.378906 -2.203125 2.578125 -2.609375 C 2.773438 -3.015625 2.960938 -3.546875 3.140625 -4.203125 L 6.25 -15.953125 C 6.507812 -16.929688 6.640625 -17.660156 6.640625 -18.140625 C 6.640625 -18.691406 6.441406 -19.039062 6.046875 -19.1875 C 5.648438 -19.332031 4.972656 -19.40625 4.015625 -19.40625 L 4.3125 -20.484375 L 12.953125 -20.484375 L 12.65625 -19.40625 C 12.070312 -19.40625 11.582031 -19.347656 11.1875 -19.234375 C 10.800781 -19.117188 10.46875 -18.898438 10.1875 -18.578125 C 9.90625 -18.265625 9.648438 -17.820312 9.421875 -17.25 C 9.203125 -16.6875 8.976562 -15.953125 8.75 -15.046875 L 7.71875 -11.109375 L 18.03125 -11.109375 L 19.3125 -15.953125 C 19.570312 -16.929688 19.703125 -17.660156 19.703125 -18.140625 C 19.703125 -18.691406 19.503906 -19.039062 19.109375 -19.1875 C 18.710938 -19.332031 18.035156 -19.40625 17.078125 -19.40625 L 17.359375 -20.484375 L 26.015625 -20.484375 L 25.71875 -19.40625 C 25.132812 -19.40625 24.644531 -19.347656 24.25 -19.234375 C 23.863281 -19.117188 23.523438 -18.898438 23.234375 -18.578125 C 22.953125 -18.265625 22.703125 -17.820312 22.484375 -17.25 C 22.265625 -16.6875 22.039062 -15.953125 21.8125 -15.046875 Z M 19.015625 -4.46875 "/></g></g></g><g fill="#ffffff" fill-opacity="1"><g transform="translate(82.003001, 50.653776)"><g><path d="M 5.953125 -4.46875 C 5.742188 -3.6875 5.640625 -3.066406 5.640625 -2.609375 C 5.640625 -2.003906 5.828125 -1.59375 6.203125 -1.375 C 6.585938 -1.164062 7.207031 -1.0625 8.0625 -1.0625 L 7.734375 0 L -0.75 0 L -0.453125 -1.0625 C 0.078125 -1.0625 0.53125 -1.097656 0.90625 -1.171875 C 1.28125 -1.253906 1.601562 -1.410156 1.875 -1.640625 C 2.144531 -1.878906 2.378906 -2.203125 2.578125 -2.609375 C 2.773438 -3.015625 2.960938 -3.546875 3.140625 -4.203125 L 6.25 -15.953125 C 6.507812 -16.929688 6.640625 -17.660156 6.640625 -18.140625 C 6.640625 -18.691406 6.441406 -19.039062 6.046875 -19.1875 C 5.648438 -19.332031 4.972656 -19.40625 4.015625 -19.40625 L 4.3125 -20.484375 L 12.953125 -20.484375 L 12.65625 -19.40625 C 12.070312 -19.40625 11.582031 -19.347656 11.1875 -19.234375 C 10.800781 -19.117188 10.46875 -18.898438 10.1875 -18.578125 C 9.90625 -18.265625 9.648438 -17.820312 9.421875 -17.25 C 9.203125 -16.6875 8.976562 -15.953125 8.75 -15.046875 Z M 5.953125 -4.46875 "/></g></g></g><g fill="#ffffff" fill-opacity="1"><g transform="translate(94.527355, 50.653776)"><g><path d="M 17.6875 -5.03125 C 17.0625 -4.082031 16.453125 -3.269531 15.859375 -2.59375 C 15.265625 -1.925781 14.648438 -1.378906 14.015625 -0.953125 C 13.378906 -0.523438 12.707031 -0.210938 12 -0.015625 C 11.289062 0.171875 10.523438 0.265625 9.703125 0.265625 C 8.492188 0.265625 7.410156 0.078125 6.453125 -0.296875 C 5.503906 -0.679688 4.695312 -1.234375 4.03125 -1.953125 C 3.363281 -2.671875 2.847656 -3.539062 2.484375 -4.5625 C 2.117188 -5.582031 1.9375 -6.726562 1.9375 -8 C 1.9375 -9.6875 2.242188 -11.296875 2.859375 -12.828125 C 3.484375 -14.359375 4.316406 -15.707031 5.359375 -16.875 C 6.398438 -18.050781 7.601562 -18.988281 8.96875 -19.6875 C 10.332031 -20.394531 11.757812 -20.75 13.25 -20.75 C 14.09375 -20.75 14.898438 -20.617188 15.671875 -20.359375 C 16.441406 -20.097656 17.226562 -19.691406 18.03125 -19.140625 L 19.015625 -20.484375 L 20 -20.484375 L 18.78125 -13.796875 L 17.765625 -13.796875 C 17.617188 -15.734375 17.203125 -17.144531 16.515625 -18.03125 C 15.835938 -18.914062 14.816406 -19.359375 13.453125 -19.359375 C 12.285156 -19.359375 11.195312 -19.066406 10.1875 -18.484375 C 9.175781 -17.898438 8.296875 -17.09375 7.546875 -16.0625 C 6.804688 -15.03125 6.222656 -13.820312 5.796875 -12.4375 C 5.367188 -11.0625 5.15625 -9.578125 5.15625 -7.984375 C 5.15625 -3.585938 6.867188 -1.390625 10.296875 -1.390625 C 11.566406 -1.390625 12.71875 -1.734375 13.75 -2.421875 C 14.789062 -3.109375 15.785156 -4.191406 16.734375 -5.671875 Z M 17.6875 -5.03125 "/></g></g></g><g fill="#ffffff" fill-opacity="1"><g transform="translate(115.241736, 50.653776)"><g><path d="M 14.65625 -4.421875 C 14.4375 -3.472656 14.328125 -2.785156 14.328125 -2.359375 C 14.328125 -1.847656 14.492188 -1.503906 14.828125 -1.328125 C 15.171875 -1.148438 15.832031 -1.0625 16.8125 -1.0625 L 16.546875 0 L 8.671875 0 L 8.9375 -1.0625 C 9.445312 -1.0625 9.867188 -1.097656 10.203125 -1.171875 C 10.546875 -1.253906 10.828125 -1.414062 11.046875 -1.65625 C 11.265625 -1.894531 11.453125 -2.234375 11.609375 -2.671875 C 11.773438 -3.117188 11.9375 -3.707031 12.09375 -4.4375 L 12.8125 -7.71875 L 7.09375 -7.71875 L 5.421875 -5.953125 C 4.691406 -5.191406 4.117188 -4.578125 3.703125 -4.109375 C 3.285156 -3.640625 2.972656 -3.257812 2.765625 -2.96875 C 2.554688 -2.6875 2.421875 -2.472656 2.359375 -2.328125 C 2.304688 -2.191406 2.28125 -2.070312 2.28125 -1.96875 C 2.28125 -1.632812 2.425781 -1.398438 2.71875 -1.265625 C 3.019531 -1.128906 3.539062 -1.0625 4.28125 -1.0625 L 4.015625 0 L -2.875 0 L -2.609375 -1.0625 C -2.179688 -1.0625 -1.757812 -1.144531 -1.34375 -1.3125 C -0.925781 -1.476562 -0.46875 -1.753906 0.03125 -2.140625 C 0.539062 -2.535156 1.097656 -3.054688 1.703125 -3.703125 C 2.316406 -4.359375 3.035156 -5.171875 3.859375 -6.140625 L 16.109375 -20.75 L 18.34375 -20.75 Z M 13.0625 -9.046875 L 15.234375 -17.28125 L 15.125 -17.28125 L 8.25 -9.046875 Z M 13.0625 -9.046875 "/></g></g></g></svg>