<svg xmlns="http://www.w3.org/2000/svg" xmlns:xlink="http://www.w3.org/1999/xlink" width="246" zoomAndPan="magnify" viewBox="0 0 184.5 54.75" height="73" preserveAspectRatio="xMidYMid meet" version="1.0"><defs><g/></defs><g fill="#a6a6a6" fill-opacity="0.4"><g transform="translate(8.206393, 39.775342)"><g><path d="M 2.5 -0.40625 C 2.5 -2.582031 2.535156 -4.65625 2.609375 -6.625 C 2.691406 -8.59375 2.765625 -10.472656 2.828125 -12.265625 C 2.890625 -14.066406 2.929688 -15.796875 2.953125 -17.453125 C 2.972656 -19.109375 2.921875 -20.722656 2.796875 -22.296875 C 2.679688 -22.234375 2.554688 -22.125 2.421875 -21.96875 C 2.285156 -21.820312 2.148438 -21.675781 2.015625 -21.53125 C 1.878906 -21.382812 1.734375 -21.25 1.578125 -21.125 C 1.429688 -21.007812 1.304688 -20.953125 1.203125 -20.953125 C 1.035156 -20.953125 0.878906 -21.019531 0.734375 -21.15625 C 0.597656 -21.300781 0.53125 -21.476562 0.53125 -21.6875 L 0.53125 -21.78125 C 0.53125 -21.800781 0.546875 -21.832031 0.578125 -21.875 C 0.765625 -22.113281 0.988281 -22.484375 1.25 -22.984375 C 1.519531 -23.492188 1.804688 -24 2.109375 -24.5 C 2.410156 -25.007812 2.703125 -25.457031 2.984375 -25.84375 C 3.273438 -26.238281 3.523438 -26.4375 3.734375 -26.4375 C 3.953125 -26.4375 4.113281 -26.382812 4.21875 -26.28125 C 4.320312 -26.175781 4.410156 -26.050781 4.484375 -25.90625 C 4.554688 -25.757812 4.628906 -25.597656 4.703125 -25.421875 C 4.773438 -25.253906 4.898438 -25.117188 5.078125 -25.015625 C 5.796875 -25.441406 6.578125 -25.804688 7.421875 -26.109375 C 8.265625 -26.421875 9.113281 -26.632812 9.96875 -26.75 C 10.820312 -26.863281 11.648438 -26.882812 12.453125 -26.8125 C 13.265625 -26.738281 14 -26.539062 14.65625 -26.21875 C 15.320312 -25.90625 15.890625 -25.453125 16.359375 -24.859375 C 16.828125 -24.265625 17.132812 -23.523438 17.28125 -22.640625 C 17.257812 -21.472656 16.921875 -20.378906 16.265625 -19.359375 C 15.609375 -18.347656 14.800781 -17.425781 13.84375 -16.59375 C 12.894531 -15.757812 11.867188 -15.019531 10.765625 -14.375 C 9.671875 -13.726562 8.660156 -13.164062 7.734375 -12.6875 C 6.804688 -12.21875 6.046875 -11.84375 5.453125 -11.5625 C 4.859375 -11.289062 4.582031 -11.125 4.625 -11.0625 L 4.21875 -0.46875 C 4.21875 -0.300781 4.140625 -0.179688 3.984375 -0.109375 C 3.835938 -0.0351562 3.671875 -0.00390625 3.484375 -0.015625 C 3.296875 -0.0234375 3.101562 -0.0664062 2.90625 -0.140625 C 2.71875 -0.210938 2.582031 -0.300781 2.5 -0.40625 Z M 4.625 -13.28125 C 5.707031 -13.6875 6.828125 -14.148438 7.984375 -14.671875 C 9.148438 -15.203125 10.238281 -15.8125 11.25 -16.5 C 12.269531 -17.1875 13.164062 -17.96875 13.9375 -18.84375 C 14.707031 -19.726562 15.226562 -20.738281 15.5 -21.875 C 15.332031 -23.082031 14.863281 -23.953125 14.09375 -24.484375 C 13.320312 -25.023438 12.398438 -25.300781 11.328125 -25.3125 C 10.265625 -25.320312 9.132812 -25.097656 7.9375 -24.640625 C 6.75 -24.191406 5.644531 -23.566406 4.625 -22.765625 Z M 4.625 -13.28125 "/></g></g><g transform="translate(25.89906, 39.775342)"><g><path d="M -0.03125 0 C 0.113281 -0.488281 0.347656 -1.289062 0.671875 -2.40625 C 1.003906 -3.53125 1.4375 -5.132812 1.96875 -7.21875 C 2.5 -9.300781 3.148438 -11.945312 3.921875 -15.15625 C 4.691406 -18.363281 5.59375 -22.316406 6.625 -27.015625 C 6.75 -27.222656 6.925781 -27.363281 7.15625 -27.4375 C 7.394531 -27.507812 7.628906 -27.53125 7.859375 -27.5 C 8.097656 -27.46875 8.296875 -27.394531 8.453125 -27.28125 C 8.609375 -27.164062 8.675781 -27.035156 8.65625 -26.890625 L 14.90625 -11.703125 L 18.140625 -12.6875 C 18.410156 -12.6875 18.640625 -12.609375 18.828125 -12.453125 C 19.023438 -12.304688 19.132812 -12.128906 19.15625 -11.921875 C 19.175781 -11.710938 19.097656 -11.484375 18.921875 -11.234375 C 18.753906 -10.992188 18.460938 -10.800781 18.046875 -10.65625 C 17.867188 -10.59375 17.644531 -10.523438 17.375 -10.453125 C 17.101562 -10.378906 16.828125 -10.304688 16.546875 -10.234375 C 16.273438 -10.171875 16.039062 -10.109375 15.84375 -10.046875 C 15.65625 -9.984375 15.5625 -9.921875 15.5625 -9.859375 L 19.09375 -0.46875 C 19.050781 -0.363281 19.003906 -0.234375 18.953125 -0.078125 C 18.910156 0.078125 18.828125 0.203125 18.703125 0.296875 C 18.578125 0.390625 18.382812 0.421875 18.125 0.390625 C 17.875 0.359375 17.519531 0.207031 17.0625 -0.0625 L 13.40625 -9.390625 C 12.96875 -9.253906 12.421875 -9.128906 11.765625 -9.015625 C 11.109375 -8.898438 10.421875 -8.785156 9.703125 -8.671875 C 8.984375 -8.554688 8.257812 -8.414062 7.53125 -8.25 C 6.800781 -8.09375 6.128906 -7.898438 5.515625 -7.671875 C 4.898438 -7.441406 4.378906 -7.160156 3.953125 -6.828125 C 3.535156 -6.503906 3.285156 -6.109375 3.203125 -5.640625 C 3.160156 -5.347656 3.082031 -4.863281 2.96875 -4.1875 C 2.851562 -3.507812 2.738281 -2.832031 2.625 -2.15625 C 2.5 -1.351562 2.351562 -0.488281 2.1875 0.4375 C 1.800781 0.820312 1.457031 0.953125 1.15625 0.828125 C 0.851562 0.703125 0.457031 0.425781 -0.03125 0 Z M 7.921875 -23.53125 L 4.5625 -9.421875 C 4.925781 -9.546875 5.421875 -9.679688 6.046875 -9.828125 C 6.679688 -9.972656 7.367188 -10.128906 8.109375 -10.296875 C 8.859375 -10.472656 9.609375 -10.644531 10.359375 -10.8125 C 11.109375 -10.976562 11.785156 -11.15625 12.390625 -11.34375 Z M 7.921875 -23.53125 "/></g></g><g transform="translate(44.955141, 39.775342)"><g><path d="M 0.890625 -26.546875 C 0.953125 -26.691406 1.082031 -26.804688 1.28125 -26.890625 C 1.476562 -26.972656 1.6875 -27.015625 1.90625 -27.015625 C 2.132812 -27.015625 2.332031 -26.957031 2.5 -26.84375 C 2.675781 -26.726562 2.785156 -26.539062 2.828125 -26.28125 L 3.015625 -24.546875 C 3.410156 -24.628906 3.882812 -24.800781 4.4375 -25.0625 C 4.988281 -25.332031 5.628906 -25.59375 6.359375 -25.84375 C 7.085938 -26.09375 7.90625 -26.300781 8.8125 -26.46875 C 9.71875 -26.644531 10.734375 -26.671875 11.859375 -26.546875 C 13.585938 -26.203125 14.84375 -25.796875 15.625 -25.328125 C 16.414062 -24.867188 16.835938 -24.359375 16.890625 -23.796875 C 16.941406 -23.234375 16.707031 -22.628906 16.1875 -21.984375 C 15.664062 -21.335938 14.972656 -20.6875 14.109375 -20.03125 C 13.242188 -19.382812 12.269531 -18.722656 11.1875 -18.046875 C 10.113281 -17.367188 9.0625 -16.71875 8.03125 -16.09375 C 7.007812 -15.46875 6.0625 -14.875 5.1875 -14.3125 C 4.3125 -13.75 3.648438 -13.238281 3.203125 -12.78125 L 18.078125 -3.84375 C 18.078125 -3.5 17.9375 -3.171875 17.65625 -2.859375 C 17.382812 -2.554688 17.066406 -2.425781 16.703125 -2.46875 L 2.734375 -10.53125 L 2.734375 0 C 2.472656 0.207031 2.253906 0.34375 2.078125 0.40625 C 1.898438 0.46875 1.753906 0.488281 1.640625 0.46875 C 1.535156 0.445312 1.441406 0.390625 1.359375 0.296875 C 1.273438 0.203125 1.203125 0.101562 1.140625 0 Z M 3.015625 -22.15625 C 2.972656 -21.738281 2.941406 -21.234375 2.921875 -20.640625 C 2.898438 -20.046875 2.890625 -19.414062 2.890625 -18.75 C 2.890625 -18.082031 2.890625 -17.425781 2.890625 -16.78125 C 2.890625 -16.144531 2.890625 -15.570312 2.890625 -15.0625 C 2.992188 -15.164062 3.320312 -15.359375 3.875 -15.640625 C 4.4375 -15.929688 5.117188 -16.285156 5.921875 -16.703125 C 6.734375 -17.128906 7.597656 -17.597656 8.515625 -18.109375 C 9.429688 -18.628906 10.300781 -19.164062 11.125 -19.71875 C 11.945312 -20.269531 12.671875 -20.8125 13.296875 -21.34375 C 13.921875 -21.882812 14.320312 -22.390625 14.5 -22.859375 C 14.6875 -23.328125 14.59375 -23.742188 14.21875 -24.109375 C 13.851562 -24.484375 13.097656 -24.773438 11.953125 -24.984375 C 11.316406 -25.023438 10.570312 -25.003906 9.71875 -24.921875 C 8.863281 -24.835938 8.003906 -24.679688 7.140625 -24.453125 C 6.285156 -24.234375 5.488281 -23.929688 4.75 -23.546875 C 4.007812 -23.171875 3.429688 -22.707031 3.015625 -22.15625 Z M 3.015625 -22.15625 "/></g></g><g transform="translate(63.123417, 39.775342)"><g><path d="M 15.0625 -9.390625 C 14.832031 -8.515625 14.546875 -7.535156 14.203125 -6.453125 C 13.867188 -5.378906 13.4375 -4.367188 12.90625 -3.421875 C 12.375 -2.472656 11.734375 -1.671875 10.984375 -1.015625 C 10.234375 -0.359375 9.332031 -0.03125 8.28125 -0.03125 C 7.175781 -0.300781 6.226562 -0.835938 5.4375 -1.640625 C 4.644531 -2.453125 3.972656 -3.425781 3.421875 -4.5625 C 2.867188 -5.707031 2.421875 -6.972656 2.078125 -8.359375 C 1.742188 -9.742188 1.488281 -11.160156 1.3125 -12.609375 C 1.132812 -14.054688 1.019531 -15.484375 0.96875 -16.890625 C 0.914062 -18.296875 0.894531 -19.585938 0.90625 -20.765625 C 0.914062 -21.953125 0.945312 -22.972656 1 -23.828125 C 1.050781 -24.679688 1.097656 -25.289062 1.140625 -25.65625 C 1.078125 -25.988281 1.148438 -26.238281 1.359375 -26.40625 C 1.578125 -26.582031 1.820312 -26.679688 2.09375 -26.703125 C 2.363281 -26.722656 2.617188 -26.675781 2.859375 -26.5625 C 3.109375 -26.457031 3.242188 -26.320312 3.265625 -26.15625 C 2.835938 -23.050781 2.617188 -20.3125 2.609375 -17.9375 C 2.597656 -15.570312 2.71875 -13.503906 2.96875 -11.734375 C 3.226562 -9.972656 3.59375 -8.488281 4.0625 -7.28125 C 4.539062 -6.082031 5.050781 -5.097656 5.59375 -4.328125 C 6.132812 -3.554688 6.691406 -2.972656 7.265625 -2.578125 C 7.835938 -2.191406 8.34375 -1.9375 8.78125 -1.8125 C 9.5 -1.875 10.140625 -2.25 10.703125 -2.9375 C 11.265625 -3.625 11.753906 -4.507812 12.171875 -5.59375 C 12.597656 -6.6875 12.960938 -7.914062 13.265625 -9.28125 C 13.578125 -10.65625 13.835938 -12.070312 14.046875 -13.53125 C 14.253906 -15 14.421875 -16.441406 14.546875 -17.859375 C 14.679688 -19.285156 14.78125 -20.582031 14.84375 -21.75 C 14.90625 -22.914062 14.941406 -23.90625 14.953125 -24.71875 C 14.960938 -25.53125 14.957031 -26.050781 14.9375 -26.28125 C 15.082031 -26.539062 15.253906 -26.710938 15.453125 -26.796875 C 15.660156 -26.878906 15.851562 -26.910156 16.03125 -26.890625 C 16.207031 -26.867188 16.367188 -26.796875 16.515625 -26.671875 C 16.660156 -26.554688 16.769531 -26.425781 16.84375 -26.28125 C 16.863281 -25.738281 16.8125 -24.71875 16.6875 -23.21875 C 16.570312 -21.726562 16.5 -19.859375 16.46875 -17.609375 C 16.4375 -15.359375 16.503906 -12.769531 16.671875 -9.84375 C 16.847656 -6.914062 17.238281 -3.757812 17.84375 -0.375 C 17.84375 -0.164062 17.773438 -0.0078125 17.640625 0.09375 C 17.503906 0.195312 17.34375 0.265625 17.15625 0.296875 C 16.96875 0.328125 16.765625 0.335938 16.546875 0.328125 C 16.335938 0.316406 16.160156 0.300781 16.015625 0.28125 Z M 15.0625 -9.390625 "/></g></g><g transform="translate(81.545352, 39.775342)"><g><path d="M 1.171875 -23.59375 C 1.066406 -23.945312 0.988281 -24.265625 0.9375 -24.546875 C 0.882812 -24.835938 0.878906 -25.15625 0.921875 -25.5 C 0.941406 -25.601562 0.96875 -25.71875 1 -25.84375 C 1.03125 -25.96875 1.082031 -26.066406 1.15625 -26.140625 C 1.226562 -26.210938 1.328125 -26.265625 1.453125 -26.296875 C 1.585938 -26.328125 1.757812 -26.300781 1.96875 -26.21875 C 2.09375 -26.15625 2.21875 -26.046875 2.34375 -25.890625 C 2.46875 -25.734375 2.578125 -25.546875 2.671875 -25.328125 C 2.773438 -25.117188 2.859375 -24.921875 2.921875 -24.734375 C 2.984375 -24.546875 3.023438 -24.382812 3.046875 -24.25 C 3.617188 -24.59375 4.253906 -24.9375 4.953125 -25.28125 C 5.648438 -25.632812 6.375 -25.929688 7.125 -26.171875 C 7.875 -26.421875 8.628906 -26.601562 9.390625 -26.71875 C 10.148438 -26.832031 10.878906 -26.847656 11.578125 -26.765625 C 11.804688 -26.742188 12.070312 -26.679688 12.375 -26.578125 C 12.6875 -26.484375 12.972656 -26.359375 13.234375 -26.203125 C 13.503906 -26.046875 13.726562 -25.851562 13.90625 -25.625 C 14.082031 -25.40625 14.148438 -25.148438 14.109375 -24.859375 C 14.109375 -24.285156 13.984375 -23.691406 13.734375 -23.078125 C 13.492188 -22.460938 13.179688 -21.847656 12.796875 -21.234375 C 12.421875 -20.628906 11.992188 -20.03125 11.515625 -19.4375 C 11.046875 -18.84375 10.582031 -18.285156 10.125 -17.765625 C 9.675781 -17.253906 9.25 -16.785156 8.84375 -16.359375 C 8.445312 -15.941406 8.140625 -15.59375 7.921875 -15.3125 C 8.640625 -15.59375 9.484375 -15.832031 10.453125 -16.03125 C 11.429688 -16.226562 12.390625 -16.296875 13.328125 -16.234375 C 14.273438 -16.171875 15.125 -15.9375 15.875 -15.53125 C 16.625 -15.132812 17.125 -14.484375 17.375 -13.578125 C 17.4375 -13.023438 17.328125 -12.40625 17.046875 -11.71875 C 16.773438 -11.03125 16.382812 -10.316406 15.875 -9.578125 C 15.375 -8.835938 14.78125 -8.09375 14.09375 -7.34375 C 13.40625 -6.59375 12.6875 -5.867188 11.9375 -5.171875 C 11.1875 -4.472656 10.429688 -3.828125 9.671875 -3.234375 C 8.910156 -2.640625 8.207031 -2.125 7.5625 -1.6875 C 6.914062 -1.257812 6.347656 -0.929688 5.859375 -0.703125 C 5.378906 -0.484375 5.03125 -0.394531 4.8125 -0.4375 L 4.0625 -1.71875 C 4.164062 -1.695312 4.5 -1.867188 5.0625 -2.234375 C 5.632812 -2.609375 6.316406 -3.09375 7.109375 -3.6875 C 7.910156 -4.289062 8.765625 -4.976562 9.671875 -5.75 C 10.578125 -6.519531 11.425781 -7.296875 12.21875 -8.078125 C 13.007812 -8.867188 13.679688 -9.628906 14.234375 -10.359375 C 14.785156 -11.085938 15.101562 -11.722656 15.1875 -12.265625 C 15.289062 -13.003906 15.09375 -13.535156 14.59375 -13.859375 C 14.101562 -14.191406 13.429688 -14.359375 12.578125 -14.359375 C 11.734375 -14.359375 10.796875 -14.210938 9.765625 -13.921875 C 8.734375 -13.640625 7.75 -13.269531 6.8125 -12.8125 C 5.882812 -12.363281 5.070312 -11.84375 4.375 -11.25 C 3.675781 -10.664062 3.242188 -10.054688 3.078125 -9.421875 C 2.992188 -8.765625 2.941406 -8.085938 2.921875 -7.390625 C 2.898438 -6.691406 2.882812 -5.988281 2.875 -5.28125 C 2.863281 -4.570312 2.851562 -3.867188 2.84375 -3.171875 C 2.832031 -2.472656 2.78125 -1.804688 2.6875 -1.171875 C 2.625 -0.703125 2.535156 -0.320312 2.421875 -0.03125 C 2.304688 0.257812 1.992188 0.363281 1.484375 0.28125 C 1.441406 0.28125 1.367188 0.269531 1.265625 0.25 C 1.160156 0.226562 1.109375 0.207031 1.109375 0.1875 Z M 3.109375 -21.125 C 3.046875 -20.695312 3 -20.15625 2.96875 -19.5 C 2.9375 -18.84375 2.921875 -18.164062 2.921875 -17.46875 C 2.921875 -16.769531 2.945312 -16.09375 3 -15.4375 C 3.050781 -14.78125 3.128906 -14.234375 3.234375 -13.796875 C 3.617188 -14.109375 4.140625 -14.550781 4.796875 -15.125 C 5.460938 -15.695312 6.171875 -16.335938 6.921875 -17.046875 C 7.671875 -17.753906 8.40625 -18.5 9.125 -19.28125 C 9.84375 -20.0625 10.441406 -20.816406 10.921875 -21.546875 C 11.398438 -22.273438 11.703125 -22.941406 11.828125 -23.546875 C 11.953125 -24.148438 11.804688 -24.628906 11.390625 -24.984375 C 11.003906 -25.023438 10.539062 -25.03125 10 -25 C 9.457031 -24.96875 8.890625 -24.894531 8.296875 -24.78125 C 7.710938 -24.664062 7.125 -24.5 6.53125 -24.28125 C 5.9375 -24.070312 5.394531 -23.8125 4.90625 -23.5 C 4.425781 -23.195312 4.019531 -22.84375 3.6875 -22.4375 C 3.363281 -22.039062 3.171875 -21.601562 3.109375 -21.125 Z M 3.109375 -21.125 "/></g></g><g transform="translate(99.523385, 39.775342)"><g><path d="M -0.03125 0 C 0.113281 -0.488281 0.347656 -1.289062 0.671875 -2.40625 C 1.003906 -3.53125 1.4375 -5.132812 1.96875 -7.21875 C 2.5 -9.300781 3.148438 -11.945312 3.921875 -15.15625 C 4.691406 -18.363281 5.59375 -22.316406 6.625 -27.015625 C 6.75 -27.222656 6.925781 -27.363281 7.15625 -27.4375 C 7.394531 -27.507812 7.628906 -27.53125 7.859375 -27.5 C 8.097656 -27.46875 8.296875 -27.394531 8.453125 -27.28125 C 8.609375 -27.164062 8.675781 -27.035156 8.65625 -26.890625 L 14.90625 -11.703125 L 18.140625 -12.6875 C 18.410156 -12.6875 18.640625 -12.609375 18.828125 -12.453125 C 19.023438 -12.304688 19.132812 -12.128906 19.15625 -11.921875 C 19.175781 -11.710938 19.097656 -11.484375 18.921875 -11.234375 C 18.753906 -10.992188 18.460938 -10.800781 18.046875 -10.65625 C 17.867188 -10.59375 17.644531 -10.523438 17.375 -10.453125 C 17.101562 -10.378906 16.828125 -10.304688 16.546875 -10.234375 C 16.273438 -10.171875 16.039062 -10.109375 15.84375 -10.046875 C 15.65625 -9.984375 15.5625 -9.921875 15.5625 -9.859375 L 19.09375 -0.46875 C 19.050781 -0.363281 19.003906 -0.234375 18.953125 -0.078125 C 18.910156 0.078125 18.828125 0.203125 18.703125 0.296875 C 18.578125 0.390625 18.382812 0.421875 18.125 0.390625 C 17.875 0.359375 17.519531 0.207031 17.0625 -0.0625 L 13.40625 -9.390625 C 12.96875 -9.253906 12.421875 -9.128906 11.765625 -9.015625 C 11.109375 -8.898438 10.421875 -8.785156 9.703125 -8.671875 C 8.984375 -8.554688 8.257812 -8.414062 7.53125 -8.25 C 6.800781 -8.09375 6.128906 -7.898438 5.515625 -7.671875 C 4.898438 -7.441406 4.378906 -7.160156 3.953125 -6.828125 C 3.535156 -6.503906 3.285156 -6.109375 3.203125 -5.640625 C 3.160156 -5.347656 3.082031 -4.863281 2.96875 -4.1875 C 2.851562 -3.507812 2.738281 -2.832031 2.625 -2.15625 C 2.5 -1.351562 2.351562 -0.488281 2.1875 0.4375 C 1.800781 0.820312 1.457031 0.953125 1.15625 0.828125 C 0.851562 0.703125 0.457031 0.425781 -0.03125 0 Z M 7.921875 -23.53125 L 4.5625 -9.421875 C 4.925781 -9.546875 5.421875 -9.679688 6.046875 -9.828125 C 6.679688 -9.972656 7.367188 -10.128906 8.109375 -10.296875 C 8.859375 -10.472656 9.609375 -10.644531 10.359375 -10.8125 C 11.109375 -10.976562 11.785156 -11.15625 12.390625 -11.34375 Z M 7.921875 -23.53125 "/></g></g><g transform="translate(118.579466, 39.775342)"><g><path d="M 18.671875 -23.4375 C 18.585938 -23.476562 18.457031 -23.210938 18.28125 -22.640625 C 18.101562 -22.066406 17.875 -21.328125 17.59375 -20.421875 C 17.320312 -19.515625 17.019531 -18.488281 16.6875 -17.34375 C 16.363281 -16.195312 16.015625 -15.0625 15.640625 -13.9375 C 15.273438 -12.820312 14.898438 -11.78125 14.515625 -10.8125 C 14.140625 -9.84375 13.765625 -9.070312 13.390625 -8.5 C 13.023438 -7.925781 12.675781 -7.613281 12.34375 -7.5625 C 12.019531 -7.507812 11.722656 -7.84375 11.453125 -8.5625 C 11.109375 -9.070312 10.722656 -9.769531 10.296875 -10.65625 C 9.878906 -11.539062 9.429688 -12.5 8.953125 -13.53125 C 8.484375 -14.570312 7.988281 -15.644531 7.46875 -16.75 C 6.945312 -17.863281 6.421875 -18.894531 5.890625 -19.84375 C 5.367188 -20.800781 4.851562 -21.632812 4.34375 -22.34375 C 3.832031 -23.050781 3.347656 -23.539062 2.890625 -23.8125 C 2.890625 -22.164062 2.984375 -20.359375 3.171875 -18.390625 C 3.359375 -16.421875 3.5625 -14.425781 3.78125 -12.40625 C 4.007812 -10.394531 4.21875 -8.40625 4.40625 -6.4375 C 4.59375 -4.46875 4.6875 -2.648438 4.6875 -0.984375 C 4.789062 -0.773438 4.796875 -0.5625 4.703125 -0.34375 C 4.609375 -0.132812 4.46875 0.0195312 4.28125 0.125 C 4.09375 0.226562 3.867188 0.25 3.609375 0.1875 C 3.359375 0.125 3.128906 -0.0625 2.921875 -0.375 C 2.617188 -2.488281 2.40625 -4.644531 2.28125 -6.84375 C 2.15625 -9.039062 2.03125 -11.25 1.90625 -13.46875 C 1.78125 -15.695312 1.625 -17.910156 1.4375 -20.109375 C 1.257812 -22.304688 0.992188 -24.472656 0.640625 -26.609375 C 0.617188 -27.023438 0.691406 -27.285156 0.859375 -27.390625 C 1.023438 -27.492188 1.234375 -27.546875 1.484375 -27.546875 C 2.441406 -27.273438 3.300781 -26.773438 4.0625 -26.046875 C 4.820312 -25.316406 5.515625 -24.457031 6.140625 -23.46875 C 6.765625 -22.488281 7.332031 -21.414062 7.84375 -20.25 C 8.363281 -19.09375 8.875 -17.9375 9.375 -16.78125 C 9.882812 -15.632812 10.394531 -14.535156 10.90625 -13.484375 C 11.414062 -12.441406 11.976562 -11.539062 12.59375 -10.78125 C 12.675781 -10.78125 12.753906 -10.816406 12.828125 -10.890625 C 12.898438 -10.960938 13 -11.160156 13.125 -11.484375 C 13.25 -11.816406 13.425781 -12.320312 13.65625 -13 C 13.894531 -13.675781 14.207031 -14.613281 14.59375 -15.8125 C 14.988281 -17.019531 15.484375 -18.535156 16.078125 -20.359375 C 16.671875 -22.191406 17.390625 -24.421875 18.234375 -27.046875 C 18.273438 -27.171875 18.378906 -27.28125 18.546875 -27.375 C 18.710938 -27.46875 18.894531 -27.515625 19.09375 -27.515625 C 19.300781 -27.515625 19.488281 -27.445312 19.65625 -27.3125 C 19.820312 -27.175781 19.9375 -26.941406 20 -26.609375 C 20.21875 -24.660156 20.414062 -22.601562 20.59375 -20.4375 C 20.769531 -18.269531 20.960938 -16.054688 21.171875 -13.796875 C 21.390625 -11.535156 21.632812 -9.242188 21.90625 -6.921875 C 22.1875 -4.609375 22.523438 -2.332031 22.921875 -0.09375 C 22.878906 0.195312 22.785156 0.398438 22.640625 0.515625 C 22.492188 0.640625 22.3125 0.691406 22.09375 0.671875 C 21.882812 0.648438 21.65625 0.578125 21.40625 0.453125 C 21.164062 0.335938 20.941406 0.195312 20.734375 0.03125 Z M 18.671875 -23.4375 "/></g></g><g transform="translate(142.106274, 39.775342)"><g><path d="M 1.171875 -23.59375 C 1.066406 -23.945312 0.988281 -24.265625 0.9375 -24.546875 C 0.882812 -24.835938 0.878906 -25.15625 0.921875 -25.5 C 0.941406 -25.601562 0.96875 -25.71875 1 -25.84375 C 1.03125 -25.96875 1.082031 -26.066406 1.15625 -26.140625 C 1.226562 -26.210938 1.328125 -26.265625 1.453125 -26.296875 C 1.585938 -26.328125 1.757812 -26.300781 1.96875 -26.21875 C 2.09375 -26.15625 2.21875 -26.046875 2.34375 -25.890625 C 2.46875 -25.734375 2.578125 -25.546875 2.671875 -25.328125 C 2.773438 -25.117188 2.859375 -24.921875 2.921875 -24.734375 C 2.984375 -24.546875 3.023438 -24.382812 3.046875 -24.25 C 3.617188 -24.59375 4.253906 -24.9375 4.953125 -25.28125 C 5.648438 -25.632812 6.375 -25.929688 7.125 -26.171875 C 7.875 -26.421875 8.628906 -26.601562 9.390625 -26.71875 C 10.148438 -26.832031 10.878906 -26.847656 11.578125 -26.765625 C 11.804688 -26.742188 12.070312 -26.679688 12.375 -26.578125 C 12.6875 -26.484375 12.972656 -26.359375 13.234375 -26.203125 C 13.503906 -26.046875 13.726562 -25.851562 13.90625 -25.625 C 14.082031 -25.40625 14.148438 -25.148438 14.109375 -24.859375 C 14.109375 -24.285156 13.984375 -23.691406 13.734375 -23.078125 C 13.492188 -22.460938 13.179688 -21.847656 12.796875 -21.234375 C 12.421875 -20.628906 11.992188 -20.03125 11.515625 -19.4375 C 11.046875 -18.84375 10.582031 -18.285156 10.125 -17.765625 C 9.675781 -17.253906 9.25 -16.785156 8.84375 -16.359375 C 8.445312 -15.941406 8.140625 -15.59375 7.921875 -15.3125 C 8.640625 -15.59375 9.484375 -15.832031 10.453125 -16.03125 C 11.429688 -16.226562 12.390625 -16.296875 13.328125 -16.234375 C 14.273438 -16.171875 15.125 -15.9375 15.875 -15.53125 C 16.625 -15.132812 17.125 -14.484375 17.375 -13.578125 C 17.4375 -13.023438 17.328125 -12.40625 17.046875 -11.71875 C 16.773438 -11.03125 16.382812 -10.316406 15.875 -9.578125 C 15.375 -8.835938 14.78125 -8.09375 14.09375 -7.34375 C 13.40625 -6.59375 12.6875 -5.867188 11.9375 -5.171875 C 11.1875 -4.472656 10.429688 -3.828125 9.671875 -3.234375 C 8.910156 -2.640625 8.207031 -2.125 7.5625 -1.6875 C 6.914062 -1.257812 6.347656 -0.929688 5.859375 -0.703125 C 5.378906 -0.484375 5.03125 -0.394531 4.8125 -0.4375 L 4.0625 -1.71875 C 4.164062 -1.695312 4.5 -1.867188 5.0625 -2.234375 C 5.632812 -2.609375 6.316406 -3.09375 7.109375 -3.6875 C 7.910156 -4.289062 8.765625 -4.976562 9.671875 -5.75 C 10.578125 -6.519531 11.425781 -7.296875 12.21875 -8.078125 C 13.007812 -8.867188 13.679688 -9.628906 14.234375 -10.359375 C 14.785156 -11.085938 15.101562 -11.722656 15.1875 -12.265625 C 15.289062 -13.003906 15.09375 -13.535156 14.59375 -13.859375 C 14.101562 -14.191406 13.429688 -14.359375 12.578125 -14.359375 C 11.734375 -14.359375 10.796875 -14.210938 9.765625 -13.921875 C 8.734375 -13.640625 7.75 -13.269531 6.8125 -12.8125 C 5.882812 -12.363281 5.070312 -11.84375 4.375 -11.25 C 3.675781 -10.664062 3.242188 -10.054688 3.078125 -9.421875 C 2.992188 -8.765625 2.941406 -8.085938 2.921875 -7.390625 C 2.898438 -6.691406 2.882812 -5.988281 2.875 -5.28125 C 2.863281 -4.570312 2.851562 -3.867188 2.84375 -3.171875 C 2.832031 -2.472656 2.78125 -1.804688 2.6875 -1.171875 C 2.625 -0.703125 2.535156 -0.320312 2.421875 -0.03125 C 2.304688 0.257812 1.992188 0.363281 1.484375 0.28125 C 1.441406 0.28125 1.367188 0.269531 1.265625 0.25 C 1.160156 0.226562 1.109375 0.207031 1.109375 0.1875 Z M 3.109375 -21.125 C 3.046875 -20.695312 3 -20.15625 2.96875 -19.5 C 2.9375 -18.84375 2.921875 -18.164062 2.921875 -17.46875 C 2.921875 -16.769531 2.945312 -16.09375 3 -15.4375 C 3.050781 -14.78125 3.128906 -14.234375 3.234375 -13.796875 C 3.617188 -14.109375 4.140625 -14.550781 4.796875 -15.125 C 5.460938 -15.695312 6.171875 -16.335938 6.921875 -17.046875 C 7.671875 -17.753906 8.40625 -18.5 9.125 -19.28125 C 9.84375 -20.0625 10.441406 -20.816406 10.921875 -21.546875 C 11.398438 -22.273438 11.703125 -22.941406 11.828125 -23.546875 C 11.953125 -24.148438 11.804688 -24.628906 11.390625 -24.984375 C 11.003906 -25.023438 10.539062 -25.03125 10 -25 C 9.457031 -24.96875 8.890625 -24.894531 8.296875 -24.78125 C 7.710938 -24.664062 7.125 -24.5 6.53125 -24.28125 C 5.9375 -24.070312 5.394531 -23.8125 4.90625 -23.5 C 4.425781 -23.195312 4.019531 -22.84375 3.6875 -22.4375 C 3.363281 -22.039062 3.171875 -21.601562 3.109375 -21.125 Z M 3.109375 -21.125 "/></g></g><g transform="translate(160.084307, 39.775342)"><g><path d="M -0.03125 0 C 0.113281 -0.488281 0.347656 -1.289062 0.671875 -2.40625 C 1.003906 -3.53125 1.4375 -5.132812 1.96875 -7.21875 C 2.5 -9.300781 3.148438 -11.945312 3.921875 -15.15625 C 4.691406 -18.363281 5.59375 -22.316406 6.625 -27.015625 C 6.75 -27.222656 6.925781 -27.363281 7.15625 -27.4375 C 7.394531 -27.507812 7.628906 -27.53125 7.859375 -27.5 C 8.097656 -27.46875 8.296875 -27.394531 8.453125 -27.28125 C 8.609375 -27.164062 8.675781 -27.035156 8.65625 -26.890625 L 14.90625 -11.703125 L 18.140625 -12.6875 C 18.410156 -12.6875 18.640625 -12.609375 18.828125 -12.453125 C 19.023438 -12.304688 19.132812 -12.128906 19.15625 -11.921875 C 19.175781 -11.710938 19.097656 -11.484375 18.921875 -11.234375 C 18.753906 -10.992188 18.460938 -10.800781 18.046875 -10.65625 C 17.867188 -10.59375 17.644531 -10.523438 17.375 -10.453125 C 17.101562 -10.378906 16.828125 -10.304688 16.546875 -10.234375 C 16.273438 -10.171875 16.039062 -10.109375 15.84375 -10.046875 C 15.65625 -9.984375 15.5625 -9.921875 15.5625 -9.859375 L 19.09375 -0.46875 C 19.050781 -0.363281 19.003906 -0.234375 18.953125 -0.078125 C 18.910156 0.078125 18.828125 0.203125 18.703125 0.296875 C 18.578125 0.390625 18.382812 0.421875 18.125 0.390625 C 17.875 0.359375 17.519531 0.207031 17.0625 -0.0625 L 13.40625 -9.390625 C 12.96875 -9.253906 12.421875 -9.128906 11.765625 -9.015625 C 11.109375 -8.898438 10.421875 -8.785156 9.703125 -8.671875 C 8.984375 -8.554688 8.257812 -8.414062 7.53125 -8.25 C 6.800781 -8.09375 6.128906 -7.898438 5.515625 -7.671875 C 4.898438 -7.441406 4.378906 -7.160156 3.953125 -6.828125 C 3.535156 -6.503906 3.285156 -6.109375 3.203125 -5.640625 C 3.160156 -5.347656 3.082031 -4.863281 2.96875 -4.1875 C 2.851562 -3.507812 2.738281 -2.832031 2.625 -2.15625 C 2.5 -1.351562 2.351562 -0.488281 2.1875 0.4375 C 1.800781 0.820312 1.457031 0.953125 1.15625 0.828125 C 0.851562 0.703125 0.457031 0.425781 -0.03125 0 Z M 7.921875 -23.53125 L 4.5625 -9.421875 C 4.925781 -9.546875 5.421875 -9.679688 6.046875 -9.828125 C 6.679688 -9.972656 7.367188 -10.128906 8.109375 -10.296875 C 8.859375 -10.472656 9.609375 -10.644531 10.359375 -10.8125 C 11.109375 -10.976562 11.785156 -11.15625 12.390625 -11.34375 Z M 7.921875 -23.53125 "/></g></g></g><g fill="#ffffff" fill-opacity="1"><g transform="translate(6.771484, 38.340434)"><g><path d="M 2.5 -0.40625 C 2.5 -2.582031 2.535156 -4.65625 2.609375 -6.625 C 2.691406 -8.59375 2.765625 -10.472656 2.828125 -12.265625 C 2.890625 -14.066406 2.929688 -15.796875 2.953125 -17.453125 C 2.972656 -19.109375 2.921875 -20.722656 2.796875 -22.296875 C 2.679688 -22.234375 2.554688 -22.125 2.421875 -21.96875 C 2.285156 -21.820312 2.148438 -21.675781 2.015625 -21.53125 C 1.878906 -21.382812 1.734375 -21.25 1.578125 -21.125 C 1.429688 -21.007812 1.304688 -20.953125 1.203125 -20.953125 C 1.035156 -20.953125 0.878906 -21.019531 0.734375 -21.15625 C 0.597656 -21.300781 0.53125 -21.476562 0.53125 -21.6875 L 0.53125 -21.78125 C 0.53125 -21.800781 0.546875 -21.832031 0.578125 -21.875 C 0.765625 -22.113281 0.988281 -22.484375 1.25 -22.984375 C 1.519531 -23.492188 1.804688 -24 2.109375 -24.5 C 2.410156 -25.007812 2.703125 -25.457031 2.984375 -25.84375 C 3.273438 -26.238281 3.523438 -26.4375 3.734375 -26.4375 C 3.953125 -26.4375 4.113281 -26.382812 4.21875 -26.28125 C 4.320312 -26.175781 4.410156 -26.050781 4.484375 -25.90625 C 4.554688 -25.757812 4.628906 -25.597656 4.703125 -25.421875 C 4.773438 -25.253906 4.898438 -25.117188 5.078125 -25.015625 C 5.796875 -25.441406 6.578125 -25.804688 7.421875 -26.109375 C 8.265625 -26.421875 9.113281 -26.632812 9.96875 -26.75 C 10.820312 -26.863281 11.648438 -26.882812 12.453125 -26.8125 C 13.265625 -26.738281 14 -26.539062 14.65625 -26.21875 C 15.320312 -25.90625 15.890625 -25.453125 16.359375 -24.859375 C 16.828125 -24.265625 17.132812 -23.523438 17.28125 -22.640625 C 17.257812 -21.472656 16.921875 -20.378906 16.265625 -19.359375 C 15.609375 -18.347656 14.800781 -17.425781 13.84375 -16.59375 C 12.894531 -15.757812 11.867188 -15.019531 10.765625 -14.375 C 9.671875 -13.726562 8.660156 -13.164062 7.734375 -12.6875 C 6.804688 -12.21875 6.046875 -11.84375 5.453125 -11.5625 C 4.859375 -11.289062 4.582031 -11.125 4.625 -11.0625 L 4.21875 -0.46875 C 4.21875 -0.300781 4.140625 -0.179688 3.984375 -0.109375 C 3.835938 -0.0351562 3.671875 -0.00390625 3.484375 -0.015625 C 3.296875 -0.0234375 3.101562 -0.0664062 2.90625 -0.140625 C 2.71875 -0.210938 2.582031 -0.300781 2.5 -0.40625 Z M 4.625 -13.28125 C 5.707031 -13.6875 6.828125 -14.148438 7.984375 -14.671875 C 9.148438 -15.203125 10.238281 -15.8125 11.25 -16.5 C 12.269531 -17.1875 13.164062 -17.96875 13.9375 -18.84375 C 14.707031 -19.726562 15.226562 -20.738281 15.5 -21.875 C 15.332031 -23.082031 14.863281 -23.953125 14.09375 -24.484375 C 13.320312 -25.023438 12.398438 -25.300781 11.328125 -25.3125 C 10.265625 -25.320312 9.132812 -25.097656 7.9375 -24.640625 C 6.75 -24.191406 5.644531 -23.566406 4.625 -22.765625 Z M 4.625 -13.28125 "/></g></g><g transform="translate(24.464152, 38.340434)"><g><path d="M -0.03125 0 C 0.113281 -0.488281 0.347656 -1.289062 0.671875 -2.40625 C 1.003906 -3.53125 1.4375 -5.132812 1.96875 -7.21875 C 2.5 -9.300781 3.148438 -11.945312 3.921875 -15.15625 C 4.691406 -18.363281 5.59375 -22.316406 6.625 -27.015625 C 6.75 -27.222656 6.925781 -27.363281 7.15625 -27.4375 C 7.394531 -27.507812 7.628906 -27.53125 7.859375 -27.5 C 8.097656 -27.46875 8.296875 -27.394531 8.453125 -27.28125 C 8.609375 -27.164062 8.675781 -27.035156 8.65625 -26.890625 L 14.90625 -11.703125 L 18.140625 -12.6875 C 18.410156 -12.6875 18.640625 -12.609375 18.828125 -12.453125 C 19.023438 -12.304688 19.132812 -12.128906 19.15625 -11.921875 C 19.175781 -11.710938 19.097656 -11.484375 18.921875 -11.234375 C 18.753906 -10.992188 18.460938 -10.800781 18.046875 -10.65625 C 17.867188 -10.59375 17.644531 -10.523438 17.375 -10.453125 C 17.101562 -10.378906 16.828125 -10.304688 16.546875 -10.234375 C 16.273438 -10.171875 16.039062 -10.109375 15.84375 -10.046875 C 15.65625 -9.984375 15.5625 -9.921875 15.5625 -9.859375 L 19.09375 -0.46875 C 19.050781 -0.363281 19.003906 -0.234375 18.953125 -0.078125 C 18.910156 0.078125 18.828125 0.203125 18.703125 0.296875 C 18.578125 0.390625 18.382812 0.421875 18.125 0.390625 C 17.875 0.359375 17.519531 0.207031 17.0625 -0.0625 L 13.40625 -9.390625 C 12.96875 -9.253906 12.421875 -9.128906 11.765625 -9.015625 C 11.109375 -8.898438 10.421875 -8.785156 9.703125 -8.671875 C 8.984375 -8.554688 8.257812 -8.414062 7.53125 -8.25 C 6.800781 -8.09375 6.128906 -7.898438 5.515625 -7.671875 C 4.898438 -7.441406 4.378906 -7.160156 3.953125 -6.828125 C 3.535156 -6.503906 3.285156 -6.109375 3.203125 -5.640625 C 3.160156 -5.347656 3.082031 -4.863281 2.96875 -4.1875 C 2.851562 -3.507812 2.738281 -2.832031 2.625 -2.15625 C 2.5 -1.351562 2.351562 -0.488281 2.1875 0.4375 C 1.800781 0.820312 1.457031 0.953125 1.15625 0.828125 C 0.851562 0.703125 0.457031 0.425781 -0.03125 0 Z M 7.921875 -23.53125 L 4.5625 -9.421875 C 4.925781 -9.546875 5.421875 -9.679688 6.046875 -9.828125 C 6.679688 -9.972656 7.367188 -10.128906 8.109375 -10.296875 C 8.859375 -10.472656 9.609375 -10.644531 10.359375 -10.8125 C 11.109375 -10.976562 11.785156 -11.15625 12.390625 -11.34375 Z M 7.921875 -23.53125 "/></g></g><g transform="translate(43.520233, 38.340434)"><g><path d="M 0.890625 -26.546875 C 0.953125 -26.691406 1.082031 -26.804688 1.28125 -26.890625 C 1.476562 -26.972656 1.6875 -27.015625 1.90625 -27.015625 C 2.132812 -27.015625 2.332031 -26.957031 2.5 -26.84375 C 2.675781 -26.726562 2.785156 -26.539062 2.828125 -26.28125 L 3.015625 -24.546875 C 3.410156 -24.628906 3.882812 -24.800781 4.4375 -25.0625 C 4.988281 -25.332031 5.628906 -25.59375 6.359375 -25.84375 C 7.085938 -26.09375 7.90625 -26.300781 8.8125 -26.46875 C 9.71875 -26.644531 10.734375 -26.671875 11.859375 -26.546875 C 13.585938 -26.203125 14.84375 -25.796875 15.625 -25.328125 C 16.414062 -24.867188 16.835938 -24.359375 16.890625 -23.796875 C 16.941406 -23.234375 16.707031 -22.628906 16.1875 -21.984375 C 15.664062 -21.335938 14.972656 -20.6875 14.109375 -20.03125 C 13.242188 -19.382812 12.269531 -18.722656 11.1875 -18.046875 C 10.113281 -17.367188 9.0625 -16.71875 8.03125 -16.09375 C 7.007812 -15.46875 6.0625 -14.875 5.1875 -14.3125 C 4.3125 -13.75 3.648438 -13.238281 3.203125 -12.78125 L 18.078125 -3.84375 C 18.078125 -3.5 17.9375 -3.171875 17.65625 -2.859375 C 17.382812 -2.554688 17.066406 -2.425781 16.703125 -2.46875 L 2.734375 -10.53125 L 2.734375 0 C 2.472656 0.207031 2.253906 0.34375 2.078125 0.40625 C 1.898438 0.46875 1.753906 0.488281 1.640625 0.46875 C 1.535156 0.445312 1.441406 0.390625 1.359375 0.296875 C 1.273438 0.203125 1.203125 0.101562 1.140625 0 Z M 3.015625 -22.15625 C 2.972656 -21.738281 2.941406 -21.234375 2.921875 -20.640625 C 2.898438 -20.046875 2.890625 -19.414062 2.890625 -18.75 C 2.890625 -18.082031 2.890625 -17.425781 2.890625 -16.78125 C 2.890625 -16.144531 2.890625 -15.570312 2.890625 -15.0625 C 2.992188 -15.164062 3.320312 -15.359375 3.875 -15.640625 C 4.4375 -15.929688 5.117188 -16.285156 5.921875 -16.703125 C 6.734375 -17.128906 7.597656 -17.597656 8.515625 -18.109375 C 9.429688 -18.628906 10.300781 -19.164062 11.125 -19.71875 C 11.945312 -20.269531 12.671875 -20.8125 13.296875 -21.34375 C 13.921875 -21.882812 14.320312 -22.390625 14.5 -22.859375 C 14.6875 -23.328125 14.59375 -23.742188 14.21875 -24.109375 C 13.851562 -24.484375 13.097656 -24.773438 11.953125 -24.984375 C 11.316406 -25.023438 10.570312 -25.003906 9.71875 -24.921875 C 8.863281 -24.835938 8.003906 -24.679688 7.140625 -24.453125 C 6.285156 -24.234375 5.488281 -23.929688 4.75 -23.546875 C 4.007812 -23.171875 3.429688 -22.707031 3.015625 -22.15625 Z M 3.015625 -22.15625 "/></g></g><g transform="translate(61.688509, 38.340434)"><g><path d="M 15.0625 -9.390625 C 14.832031 -8.515625 14.546875 -7.535156 14.203125 -6.453125 C 13.867188 -5.378906 13.4375 -4.367188 12.90625 -3.421875 C 12.375 -2.472656 11.734375 -1.671875 10.984375 -1.015625 C 10.234375 -0.359375 9.332031 -0.03125 8.28125 -0.03125 C 7.175781 -0.300781 6.226562 -0.835938 5.4375 -1.640625 C 4.644531 -2.453125 3.972656 -3.425781 3.421875 -4.5625 C 2.867188 -5.707031 2.421875 -6.972656 2.078125 -8.359375 C 1.742188 -9.742188 1.488281 -11.160156 1.3125 -12.609375 C 1.132812 -14.054688 1.019531 -15.484375 0.96875 -16.890625 C 0.914062 -18.296875 0.894531 -19.585938 0.90625 -20.765625 C 0.914062 -21.953125 0.945312 -22.972656 1 -23.828125 C 1.050781 -24.679688 1.097656 -25.289062 1.140625 -25.65625 C 1.078125 -25.988281 1.148438 -26.238281 1.359375 -26.40625 C 1.578125 -26.582031 1.820312 -26.679688 2.09375 -26.703125 C 2.363281 -26.722656 2.617188 -26.675781 2.859375 -26.5625 C 3.109375 -26.457031 3.242188 -26.320312 3.265625 -26.15625 C 2.835938 -23.050781 2.617188 -20.3125 2.609375 -17.9375 C 2.597656 -15.570312 2.71875 -13.503906 2.96875 -11.734375 C 3.226562 -9.972656 3.59375 -8.488281 4.0625 -7.28125 C 4.539062 -6.082031 5.050781 -5.097656 5.59375 -4.328125 C 6.132812 -3.554688 6.691406 -2.972656 7.265625 -2.578125 C 7.835938 -2.191406 8.34375 -1.9375 8.78125 -1.8125 C 9.5 -1.875 10.140625 -2.25 10.703125 -2.9375 C 11.265625 -3.625 11.753906 -4.507812 12.171875 -5.59375 C 12.597656 -6.6875 12.960938 -7.914062 13.265625 -9.28125 C 13.578125 -10.65625 13.835938 -12.070312 14.046875 -13.53125 C 14.253906 -15 14.421875 -16.441406 14.546875 -17.859375 C 14.679688 -19.285156 14.78125 -20.582031 14.84375 -21.75 C 14.90625 -22.914062 14.941406 -23.90625 14.953125 -24.71875 C 14.960938 -25.53125 14.957031 -26.050781 14.9375 -26.28125 C 15.082031 -26.539062 15.253906 -26.710938 15.453125 -26.796875 C 15.660156 -26.878906 15.851562 -26.910156 16.03125 -26.890625 C 16.207031 -26.867188 16.367188 -26.796875 16.515625 -26.671875 C 16.660156 -26.554688 16.769531 -26.425781 16.84375 -26.28125 C 16.863281 -25.738281 16.8125 -24.71875 16.6875 -23.21875 C 16.570312 -21.726562 16.5 -19.859375 16.46875 -17.609375 C 16.4375 -15.359375 16.503906 -12.769531 16.671875 -9.84375 C 16.847656 -6.914062 17.238281 -3.757812 17.84375 -0.375 C 17.84375 -0.164062 17.773438 -0.0078125 17.640625 0.09375 C 17.503906 0.195312 17.34375 0.265625 17.15625 0.296875 C 16.96875 0.328125 16.765625 0.335938 16.546875 0.328125 C 16.335938 0.316406 16.160156 0.300781 16.015625 0.28125 Z M 15.0625 -9.390625 "/></g></g><g transform="translate(80.110444, 38.340434)"><g><path d="M 1.171875 -23.59375 C 1.066406 -23.945312 0.988281 -24.265625 0.9375 -24.546875 C 0.882812 -24.835938 0.878906 -25.15625 0.921875 -25.5 C 0.941406 -25.601562 0.96875 -25.71875 1 -25.84375 C 1.03125 -25.96875 1.082031 -26.066406 1.15625 -26.140625 C 1.226562 -26.210938 1.328125 -26.265625 1.453125 -26.296875 C 1.585938 -26.328125 1.757812 -26.300781 1.96875 -26.21875 C 2.09375 -26.15625 2.21875 -26.046875 2.34375 -25.890625 C 2.46875 -25.734375 2.578125 -25.546875 2.671875 -25.328125 C 2.773438 -25.117188 2.859375 -24.921875 2.921875 -24.734375 C 2.984375 -24.546875 3.023438 -24.382812 3.046875 -24.25 C 3.617188 -24.59375 4.253906 -24.9375 4.953125 -25.28125 C 5.648438 -25.632812 6.375 -25.929688 7.125 -26.171875 C 7.875 -26.421875 8.628906 -26.601562 9.390625 -26.71875 C 10.148438 -26.832031 10.878906 -26.847656 11.578125 -26.765625 C 11.804688 -26.742188 12.070312 -26.679688 12.375 -26.578125 C 12.6875 -26.484375 12.972656 -26.359375 13.234375 -26.203125 C 13.503906 -26.046875 13.726562 -25.851562 13.90625 -25.625 C 14.082031 -25.40625 14.148438 -25.148438 14.109375 -24.859375 C 14.109375 -24.285156 13.984375 -23.691406 13.734375 -23.078125 C 13.492188 -22.460938 13.179688 -21.847656 12.796875 -21.234375 C 12.421875 -20.628906 11.992188 -20.03125 11.515625 -19.4375 C 11.046875 -18.84375 10.582031 -18.285156 10.125 -17.765625 C 9.675781 -17.253906 9.25 -16.785156 8.84375 -16.359375 C 8.445312 -15.941406 8.140625 -15.59375 7.921875 -15.3125 C 8.640625 -15.59375 9.484375 -15.832031 10.453125 -16.03125 C 11.429688 -16.226562 12.390625 -16.296875 13.328125 -16.234375 C 14.273438 -16.171875 15.125 -15.9375 15.875 -15.53125 C 16.625 -15.132812 17.125 -14.484375 17.375 -13.578125 C 17.4375 -13.023438 17.328125 -12.40625 17.046875 -11.71875 C 16.773438 -11.03125 16.382812 -10.316406 15.875 -9.578125 C 15.375 -8.835938 14.78125 -8.09375 14.09375 -7.34375 C 13.40625 -6.59375 12.6875 -5.867188 11.9375 -5.171875 C 11.1875 -4.472656 10.429688 -3.828125 9.671875 -3.234375 C 8.910156 -2.640625 8.207031 -2.125 7.5625 -1.6875 C 6.914062 -1.257812 6.347656 -0.929688 5.859375 -0.703125 C 5.378906 -0.484375 5.03125 -0.394531 4.8125 -0.4375 L 4.0625 -1.71875 C 4.164062 -1.695312 4.5 -1.867188 5.0625 -2.234375 C 5.632812 -2.609375 6.316406 -3.09375 7.109375 -3.6875 C 7.910156 -4.289062 8.765625 -4.976562 9.671875 -5.75 C 10.578125 -6.519531 11.425781 -7.296875 12.21875 -8.078125 C 13.007812 -8.867188 13.679688 -9.628906 14.234375 -10.359375 C 14.785156 -11.085938 15.101562 -11.722656 15.1875 -12.265625 C 15.289062 -13.003906 15.09375 -13.535156 14.59375 -13.859375 C 14.101562 -14.191406 13.429688 -14.359375 12.578125 -14.359375 C 11.734375 -14.359375 10.796875 -14.210938 9.765625 -13.921875 C 8.734375 -13.640625 7.75 -13.269531 6.8125 -12.8125 C 5.882812 -12.363281 5.070312 -11.84375 4.375 -11.25 C 3.675781 -10.664062 3.242188 -10.054688 3.078125 -9.421875 C 2.992188 -8.765625 2.941406 -8.085938 2.921875 -7.390625 C 2.898438 -6.691406 2.882812 -5.988281 2.875 -5.28125 C 2.863281 -4.570312 2.851562 -3.867188 2.84375 -3.171875 C 2.832031 -2.472656 2.78125 -1.804688 2.6875 -1.171875 C 2.625 -0.703125 2.535156 -0.320312 2.421875 -0.03125 C 2.304688 0.257812 1.992188 0.363281 1.484375 0.28125 C 1.441406 0.28125 1.367188 0.269531 1.265625 0.25 C 1.160156 0.226562 1.109375 0.207031 1.109375 0.1875 Z M 3.109375 -21.125 C 3.046875 -20.695312 3 -20.15625 2.96875 -19.5 C 2.9375 -18.84375 2.921875 -18.164062 2.921875 -17.46875 C 2.921875 -16.769531 2.945312 -16.09375 3 -15.4375 C 3.050781 -14.78125 3.128906 -14.234375 3.234375 -13.796875 C 3.617188 -14.109375 4.140625 -14.550781 4.796875 -15.125 C 5.460938 -15.695312 6.171875 -16.335938 6.921875 -17.046875 C 7.671875 -17.753906 8.40625 -18.5 9.125 -19.28125 C 9.84375 -20.0625 10.441406 -20.816406 10.921875 -21.546875 C 11.398438 -22.273438 11.703125 -22.941406 11.828125 -23.546875 C 11.953125 -24.148438 11.804688 -24.628906 11.390625 -24.984375 C 11.003906 -25.023438 10.539062 -25.03125 10 -25 C 9.457031 -24.96875 8.890625 -24.894531 8.296875 -24.78125 C 7.710938 -24.664062 7.125 -24.5 6.53125 -24.28125 C 5.9375 -24.070312 5.394531 -23.8125 4.90625 -23.5 C 4.425781 -23.195312 4.019531 -22.84375 3.6875 -22.4375 C 3.363281 -22.039062 3.171875 -21.601562 3.109375 -21.125 Z M 3.109375 -21.125 "/></g></g><g transform="translate(98.088477, 38.340434)"><g><path d="M -0.03125 0 C 0.113281 -0.488281 0.347656 -1.289062 0.671875 -2.40625 C 1.003906 -3.53125 1.4375 -5.132812 1.96875 -7.21875 C 2.5 -9.300781 3.148438 -11.945312 3.921875 -15.15625 C 4.691406 -18.363281 5.59375 -22.316406 6.625 -27.015625 C 6.75 -27.222656 6.925781 -27.363281 7.15625 -27.4375 C 7.394531 -27.507812 7.628906 -27.53125 7.859375 -27.5 C 8.097656 -27.46875 8.296875 -27.394531 8.453125 -27.28125 C 8.609375 -27.164062 8.675781 -27.035156 8.65625 -26.890625 L 14.90625 -11.703125 L 18.140625 -12.6875 C 18.410156 -12.6875 18.640625 -12.609375 18.828125 -12.453125 C 19.023438 -12.304688 19.132812 -12.128906 19.15625 -11.921875 C 19.175781 -11.710938 19.097656 -11.484375 18.921875 -11.234375 C 18.753906 -10.992188 18.460938 -10.800781 18.046875 -10.65625 C 17.867188 -10.59375 17.644531 -10.523438 17.375 -10.453125 C 17.101562 -10.378906 16.828125 -10.304688 16.546875 -10.234375 C 16.273438 -10.171875 16.039062 -10.109375 15.84375 -10.046875 C 15.65625 -9.984375 15.5625 -9.921875 15.5625 -9.859375 L 19.09375 -0.46875 C 19.050781 -0.363281 19.003906 -0.234375 18.953125 -0.078125 C 18.910156 0.078125 18.828125 0.203125 18.703125 0.296875 C 18.578125 0.390625 18.382812 0.421875 18.125 0.390625 C 17.875 0.359375 17.519531 0.207031 17.0625 -0.0625 L 13.40625 -9.390625 C 12.96875 -9.253906 12.421875 -9.128906 11.765625 -9.015625 C 11.109375 -8.898438 10.421875 -8.785156 9.703125 -8.671875 C 8.984375 -8.554688 8.257812 -8.414062 7.53125 -8.25 C 6.800781 -8.09375 6.128906 -7.898438 5.515625 -7.671875 C 4.898438 -7.441406 4.378906 -7.160156 3.953125 -6.828125 C 3.535156 -6.503906 3.285156 -6.109375 3.203125 -5.640625 C 3.160156 -5.347656 3.082031 -4.863281 2.96875 -4.1875 C 2.851562 -3.507812 2.738281 -2.832031 2.625 -2.15625 C 2.5 -1.351562 2.351562 -0.488281 2.1875 0.4375 C 1.800781 0.820312 1.457031 0.953125 1.15625 0.828125 C 0.851562 0.703125 0.457031 0.425781 -0.03125 0 Z M 7.921875 -23.53125 L 4.5625 -9.421875 C 4.925781 -9.546875 5.421875 -9.679688 6.046875 -9.828125 C 6.679688 -9.972656 7.367188 -10.128906 8.109375 -10.296875 C 8.859375 -10.472656 9.609375 -10.644531 10.359375 -10.8125 C 11.109375 -10.976562 11.785156 -11.15625 12.390625 -11.34375 Z M 7.921875 -23.53125 "/></g></g><g transform="translate(117.144557, 38.340434)"><g><path d="M 18.671875 -23.4375 C 18.585938 -23.476562 18.457031 -23.210938 18.28125 -22.640625 C 18.101562 -22.066406 17.875 -21.328125 17.59375 -20.421875 C 17.320312 -19.515625 17.019531 -18.488281 16.6875 -17.34375 C 16.363281 -16.195312 16.015625 -15.0625 15.640625 -13.9375 C 15.273438 -12.820312 14.898438 -11.78125 14.515625 -10.8125 C 14.140625 -9.84375 13.765625 -9.070312 13.390625 -8.5 C 13.023438 -7.925781 12.675781 -7.613281 12.34375 -7.5625 C 12.019531 -7.507812 11.722656 -7.84375 11.453125 -8.5625 C 11.109375 -9.070312 10.722656 -9.769531 10.296875 -10.65625 C 9.878906 -11.539062 9.429688 -12.5 8.953125 -13.53125 C 8.484375 -14.570312 7.988281 -15.644531 7.46875 -16.75 C 6.945312 -17.863281 6.421875 -18.894531 5.890625 -19.84375 C 5.367188 -20.800781 4.851562 -21.632812 4.34375 -22.34375 C 3.832031 -23.050781 3.347656 -23.539062 2.890625 -23.8125 C 2.890625 -22.164062 2.984375 -20.359375 3.171875 -18.390625 C 3.359375 -16.421875 3.5625 -14.425781 3.78125 -12.40625 C 4.007812 -10.394531 4.21875 -8.40625 4.40625 -6.4375 C 4.59375 -4.46875 4.6875 -2.648438 4.6875 -0.984375 C 4.789062 -0.773438 4.796875 -0.5625 4.703125 -0.34375 C 4.609375 -0.132812 4.46875 0.0195312 4.28125 0.125 C 4.09375 0.226562 3.867188 0.25 3.609375 0.1875 C 3.359375 0.125 3.128906 -0.0625 2.921875 -0.375 C 2.617188 -2.488281 2.40625 -4.644531 2.28125 -6.84375 C 2.15625 -9.039062 2.03125 -11.25 1.90625 -13.46875 C 1.78125 -15.695312 1.625 -17.910156 1.4375 -20.109375 C 1.257812 -22.304688 0.992188 -24.472656 0.640625 -26.609375 C 0.617188 -27.023438 0.691406 -27.285156 0.859375 -27.390625 C 1.023438 -27.492188 1.234375 -27.546875 1.484375 -27.546875 C 2.441406 -27.273438 3.300781 -26.773438 4.0625 -26.046875 C 4.820312 -25.316406 5.515625 -24.457031 6.140625 -23.46875 C 6.765625 -22.488281 7.332031 -21.414062 7.84375 -20.25 C 8.363281 -19.09375 8.875 -17.9375 9.375 -16.78125 C 9.882812 -15.632812 10.394531 -14.535156 10.90625 -13.484375 C 11.414062 -12.441406 11.976562 -11.539062 12.59375 -10.78125 C 12.675781 -10.78125 12.753906 -10.816406 12.828125 -10.890625 C 12.898438 -10.960938 13 -11.160156 13.125 -11.484375 C 13.25 -11.816406 13.425781 -12.320312 13.65625 -13 C 13.894531 -13.675781 14.207031 -14.613281 14.59375 -15.8125 C 14.988281 -17.019531 15.484375 -18.535156 16.078125 -20.359375 C 16.671875 -22.191406 17.390625 -24.421875 18.234375 -27.046875 C 18.273438 -27.171875 18.378906 -27.28125 18.546875 -27.375 C 18.710938 -27.46875 18.894531 -27.515625 19.09375 -27.515625 C 19.300781 -27.515625 19.488281 -27.445312 19.65625 -27.3125 C 19.820312 -27.175781 19.9375 -26.941406 20 -26.609375 C 20.21875 -24.660156 20.414062 -22.601562 20.59375 -20.4375 C 20.769531 -18.269531 20.960938 -16.054688 21.171875 -13.796875 C 21.390625 -11.535156 21.632812 -9.242188 21.90625 -6.921875 C 22.1875 -4.609375 22.523438 -2.332031 22.921875 -0.09375 C 22.878906 0.195312 22.785156 0.398438 22.640625 0.515625 C 22.492188 0.640625 22.3125 0.691406 22.09375 0.671875 C 21.882812 0.648438 21.65625 0.578125 21.40625 0.453125 C 21.164062 0.335938 20.941406 0.195312 20.734375 0.03125 Z M 18.671875 -23.4375 "/></g></g><g transform="translate(140.671366, 38.340434)"><g><path d="M 1.171875 -23.59375 C 1.066406 -23.945312 0.988281 -24.265625 0.9375 -24.546875 C 0.882812 -24.835938 0.878906 -25.15625 0.921875 -25.5 C 0.941406 -25.601562 0.96875 -25.71875 1 -25.84375 C 1.03125 -25.96875 1.082031 -26.066406 1.15625 -26.140625 C 1.226562 -26.210938 1.328125 -26.265625 1.453125 -26.296875 C 1.585938 -26.328125 1.757812 -26.300781 1.96875 -26.21875 C 2.09375 -26.15625 2.21875 -26.046875 2.34375 -25.890625 C 2.46875 -25.734375 2.578125 -25.546875 2.671875 -25.328125 C 2.773438 -25.117188 2.859375 -24.921875 2.921875 -24.734375 C 2.984375 -24.546875 3.023438 -24.382812 3.046875 -24.25 C 3.617188 -24.59375 4.253906 -24.9375 4.953125 -25.28125 C 5.648438 -25.632812 6.375 -25.929688 7.125 -26.171875 C 7.875 -26.421875 8.628906 -26.601562 9.390625 -26.71875 C 10.148438 -26.832031 10.878906 -26.847656 11.578125 -26.765625 C 11.804688 -26.742188 12.070312 -26.679688 12.375 -26.578125 C 12.6875 -26.484375 12.972656 -26.359375 13.234375 -26.203125 C 13.503906 -26.046875 13.726562 -25.851562 13.90625 -25.625 C 14.082031 -25.40625 14.148438 -25.148438 14.109375 -24.859375 C 14.109375 -24.285156 13.984375 -23.691406 13.734375 -23.078125 C 13.492188 -22.460938 13.179688 -21.847656 12.796875 -21.234375 C 12.421875 -20.628906 11.992188 -20.03125 11.515625 -19.4375 C 11.046875 -18.84375 10.582031 -18.285156 10.125 -17.765625 C 9.675781 -17.253906 9.25 -16.785156 8.84375 -16.359375 C 8.445312 -15.941406 8.140625 -15.59375 7.921875 -15.3125 C 8.640625 -15.59375 9.484375 -15.832031 10.453125 -16.03125 C 11.429688 -16.226562 12.390625 -16.296875 13.328125 -16.234375 C 14.273438 -16.171875 15.125 -15.9375 15.875 -15.53125 C 16.625 -15.132812 17.125 -14.484375 17.375 -13.578125 C 17.4375 -13.023438 17.328125 -12.40625 17.046875 -11.71875 C 16.773438 -11.03125 16.382812 -10.316406 15.875 -9.578125 C 15.375 -8.835938 14.78125 -8.09375 14.09375 -7.34375 C 13.40625 -6.59375 12.6875 -5.867188 11.9375 -5.171875 C 11.1875 -4.472656 10.429688 -3.828125 9.671875 -3.234375 C 8.910156 -2.640625 8.207031 -2.125 7.5625 -1.6875 C 6.914062 -1.257812 6.347656 -0.929688 5.859375 -0.703125 C 5.378906 -0.484375 5.03125 -0.394531 4.8125 -0.4375 L 4.0625 -1.71875 C 4.164062 -1.695312 4.5 -1.867188 5.0625 -2.234375 C 5.632812 -2.609375 6.316406 -3.09375 7.109375 -3.6875 C 7.910156 -4.289062 8.765625 -4.976562 9.671875 -5.75 C 10.578125 -6.519531 11.425781 -7.296875 12.21875 -8.078125 C 13.007812 -8.867188 13.679688 -9.628906 14.234375 -10.359375 C 14.785156 -11.085938 15.101562 -11.722656 15.1875 -12.265625 C 15.289062 -13.003906 15.09375 -13.535156 14.59375 -13.859375 C 14.101562 -14.191406 13.429688 -14.359375 12.578125 -14.359375 C 11.734375 -14.359375 10.796875 -14.210938 9.765625 -13.921875 C 8.734375 -13.640625 7.75 -13.269531 6.8125 -12.8125 C 5.882812 -12.363281 5.070312 -11.84375 4.375 -11.25 C 3.675781 -10.664062 3.242188 -10.054688 3.078125 -9.421875 C 2.992188 -8.765625 2.941406 -8.085938 2.921875 -7.390625 C 2.898438 -6.691406 2.882812 -5.988281 2.875 -5.28125 C 2.863281 -4.570312 2.851562 -3.867188 2.84375 -3.171875 C 2.832031 -2.472656 2.78125 -1.804688 2.6875 -1.171875 C 2.625 -0.703125 2.535156 -0.320312 2.421875 -0.03125 C 2.304688 0.257812 1.992188 0.363281 1.484375 0.28125 C 1.441406 0.28125 1.367188 0.269531 1.265625 0.25 C 1.160156 0.226562 1.109375 0.207031 1.109375 0.1875 Z M 3.109375 -21.125 C 3.046875 -20.695312 3 -20.15625 2.96875 -19.5 C 2.9375 -18.84375 2.921875 -18.164062 2.921875 -17.46875 C 2.921875 -16.769531 2.945312 -16.09375 3 -15.4375 C 3.050781 -14.78125 3.128906 -14.234375 3.234375 -13.796875 C 3.617188 -14.109375 4.140625 -14.550781 4.796875 -15.125 C 5.460938 -15.695312 6.171875 -16.335938 6.921875 -17.046875 C 7.671875 -17.753906 8.40625 -18.5 9.125 -19.28125 C 9.84375 -20.0625 10.441406 -20.816406 10.921875 -21.546875 C 11.398438 -22.273438 11.703125 -22.941406 11.828125 -23.546875 C 11.953125 -24.148438 11.804688 -24.628906 11.390625 -24.984375 C 11.003906 -25.023438 10.539062 -25.03125 10 -25 C 9.457031 -24.96875 8.890625 -24.894531 8.296875 -24.78125 C 7.710938 -24.664062 7.125 -24.5 6.53125 -24.28125 C 5.9375 -24.070312 5.394531 -23.8125 4.90625 -23.5 C 4.425781 -23.195312 4.019531 -22.84375 3.6875 -22.4375 C 3.363281 -22.039062 3.171875 -21.601562 3.109375 -21.125 Z M 3.109375 -21.125 "/></g></g><g transform="translate(158.649399, 38.340434)"><g><path d="M -0.03125 0 C 0.113281 -0.488281 0.347656 -1.289062 0.671875 -2.40625 C 1.003906 -3.53125 1.4375 -5.132812 1.96875 -7.21875 C 2.5 -9.300781 3.148438 -11.945312 3.921875 -15.15625 C 4.691406 -18.363281 5.59375 -22.316406 6.625 -27.015625 C 6.75 -27.222656 6.925781 -27.363281 7.15625 -27.4375 C 7.394531 -27.507812 7.628906 -27.53125 7.859375 -27.5 C 8.097656 -27.46875 8.296875 -27.394531 8.453125 -27.28125 C 8.609375 -27.164062 8.675781 -27.035156 8.65625 -26.890625 L 14.90625 -11.703125 L 18.140625 -12.6875 C 18.410156 -12.6875 18.640625 -12.609375 18.828125 -12.453125 C 19.023438 -12.304688 19.132812 -12.128906 19.15625 -11.921875 C 19.175781 -11.710938 19.097656 -11.484375 18.921875 -11.234375 C 18.753906 -10.992188 18.460938 -10.800781 18.046875 -10.65625 C 17.867188 -10.59375 17.644531 -10.523438 17.375 -10.453125 C 17.101562 -10.378906 16.828125 -10.304688 16.546875 -10.234375 C 16.273438 -10.171875 16.039062 -10.109375 15.84375 -10.046875 C 15.65625 -9.984375 15.5625 -9.921875 15.5625 -9.859375 L 19.09375 -0.46875 C 19.050781 -0.363281 19.003906 -0.234375 18.953125 -0.078125 C 18.910156 0.078125 18.828125 0.203125 18.703125 0.296875 C 18.578125 0.390625 18.382812 0.421875 18.125 0.390625 C 17.875 0.359375 17.519531 0.207031 17.0625 -0.0625 L 13.40625 -9.390625 C 12.96875 -9.253906 12.421875 -9.128906 11.765625 -9.015625 C 11.109375 -8.898438 10.421875 -8.785156 9.703125 -8.671875 C 8.984375 -8.554688 8.257812 -8.414062 7.53125 -8.25 C 6.800781 -8.09375 6.128906 -7.898438 5.515625 -7.671875 C 4.898438 -7.441406 4.378906 -7.160156 3.953125 -6.828125 C 3.535156 -6.503906 3.285156 -6.109375 3.203125 -5.640625 C 3.160156 -5.347656 3.082031 -4.863281 2.96875 -4.1875 C 2.851562 -3.507812 2.738281 -2.832031 2.625 -2.15625 C 2.5 -1.351562 2.351562 -0.488281 2.1875 0.4375 C 1.800781 0.820312 1.457031 0.953125 1.15625 0.828125 C 0.851562 0.703125 0.457031 0.425781 -0.03125 0 Z M 7.921875 -23.53125 L 4.5625 -9.421875 C 4.925781 -9.546875 5.421875 -9.679688 6.046875 -9.828125 C 6.679688 -9.972656 7.367188 -10.128906 8.109375 -10.296875 C 8.859375 -10.472656 9.609375 -10.644531 10.359375 -10.8125 C 11.109375 -10.976562 11.785156 -11.15625 12.390625 -11.34375 Z M 7.921875 -23.53125 "/></g></g></g></svg>