<svg xmlns="http://www.w3.org/2000/svg" xmlns:xlink="http://www.w3.org/1999/xlink" width="246" zoomAndPan="magnify" viewBox="0 0 184.5 54.75" height="73" preserveAspectRatio="xMidYMid meet" version="1.0"><defs><g/></defs><g fill="#a6a6a6" fill-opacity="0.4"><g transform="translate(30.137124, 25.627926)"><g><path d="M 6.203125 -5.5 C 6.023438 -4.882812 5.882812 -4.335938 5.78125 -3.859375 C 5.6875 -3.378906 5.640625 -3.023438 5.640625 -2.796875 C 5.640625 -1.734375 6.648438 -1.203125 8.671875 -1.203125 L 8.375 0 L -0.453125 0 L -0.15625 -1.0625 C 0.6875 -1.0625 1.375 -1.3125 1.90625 -1.8125 C 2.445312 -2.320312 2.867188 -3.128906 3.171875 -4.234375 L 6.296875 -15.953125 C 6.523438 -16.804688 6.640625 -17.472656 6.640625 -17.953125 C 6.640625 -18.210938 6.59375 -18.429688 6.5 -18.609375 C 6.414062 -18.785156 6.269531 -18.929688 6.0625 -19.046875 C 5.851562 -19.171875 5.570312 -19.257812 5.21875 -19.3125 C 4.863281 -19.363281 4.414062 -19.394531 3.875 -19.40625 L 4.171875 -20.484375 L 11.5625 -20.484375 C 13.851562 -20.484375 15.632812 -20.078125 16.90625 -19.265625 C 18.1875 -18.460938 18.828125 -17.34375 18.828125 -15.90625 C 18.828125 -14.976562 18.585938 -14.125 18.109375 -13.34375 C 17.628906 -12.570312 16.960938 -11.898438 16.109375 -11.328125 C 15.265625 -10.765625 14.25 -10.320312 13.0625 -10 C 11.882812 -9.675781 10.609375 -9.515625 9.234375 -9.515625 L 7.3125 -9.515625 Z M 7.65625 -10.875 L 8.96875 -10.875 C 9.976562 -10.875 10.898438 -11 11.734375 -11.25 C 12.578125 -11.507812 13.304688 -11.867188 13.921875 -12.328125 C 14.535156 -12.796875 15.015625 -13.34375 15.359375 -13.96875 C 15.703125 -14.601562 15.875 -15.300781 15.875 -16.0625 C 15.875 -18.207031 14.457031 -19.28125 11.625 -19.28125 C 11.269531 -19.28125 10.972656 -19.25 10.734375 -19.1875 C 10.492188 -19.125 10.285156 -19.007812 10.109375 -18.84375 C 9.941406 -18.6875 9.796875 -18.472656 9.671875 -18.203125 C 9.554688 -17.929688 9.441406 -17.582031 9.328125 -17.15625 Z M 7.65625 -10.875 "/></g></g></g><g fill="#a6a6a6" fill-opacity="0.4"><g transform="translate(49.227094, 25.627926)"><g><path d="M 5.3125 -15.921875 C 5.40625 -16.285156 5.488281 -16.65625 5.5625 -17.03125 C 5.632812 -17.414062 5.671875 -17.734375 5.671875 -17.984375 C 5.671875 -18.515625 5.484375 -18.882812 5.109375 -19.09375 C 4.734375 -19.300781 4.085938 -19.40625 3.171875 -19.40625 L 3.515625 -20.484375 L 12 -20.484375 L 11.703125 -19.40625 C 11.066406 -19.40625 10.550781 -19.359375 10.15625 -19.265625 C 9.769531 -19.171875 9.4375 -18.972656 9.15625 -18.671875 C 8.882812 -18.367188 8.644531 -17.925781 8.4375 -17.34375 C 8.238281 -16.757812 8.015625 -15.988281 7.765625 -15.03125 L 6.03125 -8.34375 C 5.90625 -7.882812 5.816406 -7.445312 5.765625 -7.03125 C 5.710938 -6.613281 5.6875 -6.21875 5.6875 -5.84375 C 5.6875 -4.425781 6.050781 -3.300781 6.78125 -2.46875 C 7.507812 -1.632812 8.570312 -1.21875 9.96875 -1.21875 C 10.84375 -1.21875 11.617188 -1.378906 12.296875 -1.703125 C 12.984375 -2.035156 13.59375 -2.488281 14.125 -3.0625 C 14.65625 -3.644531 15.113281 -4.328125 15.5 -5.109375 C 15.894531 -5.898438 16.242188 -6.769531 16.546875 -7.71875 C 16.804688 -8.5625 17.066406 -9.503906 17.328125 -10.546875 C 17.585938 -11.597656 17.816406 -12.609375 18.015625 -13.578125 C 18.222656 -14.554688 18.382812 -15.429688 18.5 -16.203125 C 18.613281 -16.972656 18.671875 -17.507812 18.671875 -17.8125 C 18.671875 -18.34375 18.425781 -18.734375 17.9375 -18.984375 C 17.445312 -19.234375 16.785156 -19.375 15.953125 -19.40625 L 16.28125 -20.484375 L 23.265625 -20.484375 L 22.953125 -19.40625 C 22.523438 -19.40625 22.160156 -19.363281 21.859375 -19.28125 C 21.554688 -19.207031 21.296875 -19.035156 21.078125 -18.765625 C 20.867188 -18.503906 20.6875 -18.132812 20.53125 -17.65625 C 20.375 -17.175781 20.207031 -16.539062 20.03125 -15.75 L 18.875 -10.421875 C 18.113281 -6.890625 16.976562 -4.222656 15.46875 -2.421875 C 13.96875 -0.628906 12.066406 0.265625 9.765625 0.265625 C 7.492188 0.265625 5.800781 -0.257812 4.6875 -1.3125 C 3.582031 -2.375 3.03125 -3.878906 3.03125 -5.828125 C 3.03125 -6.390625 3.070312 -6.957031 3.15625 -7.53125 C 3.25 -8.113281 3.382812 -8.734375 3.5625 -9.390625 Z M 5.3125 -15.921875 "/></g></g></g><g fill="#a6a6a6" fill-opacity="0.4"><g transform="translate(72.065891, 25.627926)"><g><path d="M -0.40625 -1.0625 C 0.1875 -1.0625 0.671875 -1.101562 1.046875 -1.1875 C 1.429688 -1.28125 1.75 -1.445312 2 -1.6875 C 2.257812 -1.925781 2.476562 -2.242188 2.65625 -2.640625 C 2.832031 -3.046875 3.003906 -3.566406 3.171875 -4.203125 L 6.25 -15.921875 C 6.375 -16.390625 6.46875 -16.789062 6.53125 -17.125 C 6.59375 -17.457031 6.625 -17.75 6.625 -18 C 6.625 -18.582031 6.421875 -18.960938 6.015625 -19.140625 C 5.609375 -19.316406 4.925781 -19.40625 3.96875 -19.40625 L 4.25 -20.484375 L 18.78125 -20.484375 L 18.78125 -15.109375 L 17.765625 -15.109375 C 17.535156 -15.953125 17.273438 -16.644531 16.984375 -17.1875 C 16.703125 -17.726562 16.378906 -18.15625 16.015625 -18.46875 C 15.660156 -18.78125 15.253906 -19 14.796875 -19.125 C 14.347656 -19.25 13.847656 -19.3125 13.296875 -19.3125 L 9.84375 -19.3125 L 7.765625 -11.40625 L 9.4375 -11.40625 C 9.914062 -11.40625 10.320312 -11.445312 10.65625 -11.53125 C 11 -11.625 11.304688 -11.78125 11.578125 -12 C 11.859375 -12.226562 12.117188 -12.535156 12.359375 -12.921875 C 12.597656 -13.316406 12.859375 -13.820312 13.140625 -14.4375 L 14.125 -14.4375 L 12.53125 -6.5625 L 11.46875 -6.5625 C 11.519531 -7.09375 11.546875 -7.554688 11.546875 -7.953125 C 11.546875 -8.742188 11.394531 -9.320312 11.09375 -9.6875 C 10.789062 -10.050781 10.234375 -10.234375 9.421875 -10.234375 L 7.421875 -10.234375 L 5.90625 -4.515625 C 5.75 -3.929688 5.671875 -3.4375 5.671875 -3.03125 C 5.671875 -2.394531 5.953125 -1.921875 6.515625 -1.609375 C 7.078125 -1.296875 8.050781 -1.140625 9.4375 -1.140625 C 10.445312 -1.140625 11.328125 -1.21875 12.078125 -1.375 C 12.835938 -1.539062 13.492188 -1.796875 14.046875 -2.140625 C 14.609375 -2.484375 15.097656 -2.9375 15.515625 -3.5 C 15.929688 -4.070312 16.328125 -4.773438 16.703125 -5.609375 L 17.953125 -5.609375 L 15.875 0 L -0.6875 0 Z M -0.40625 -1.0625 "/></g></g></g><g fill="#a6a6a6" fill-opacity="0.4"><g transform="translate(93.096746, 25.627926)"><g><path d="M 6.140625 -5.5 C 6.085938 -5.34375 6.03125 -5.140625 5.96875 -4.890625 C 5.90625 -4.640625 5.847656 -4.390625 5.796875 -4.140625 C 5.742188 -3.898438 5.691406 -3.65625 5.640625 -3.40625 C 5.597656 -3.15625 5.578125 -2.953125 5.578125 -2.796875 C 5.578125 -2.441406 5.65625 -2.15625 5.8125 -1.9375 C 5.976562 -1.726562 6.179688 -1.566406 6.421875 -1.453125 C 6.660156 -1.347656 6.925781 -1.28125 7.21875 -1.25 C 7.507812 -1.21875 7.796875 -1.203125 8.078125 -1.203125 C 9.054688 -1.203125 9.929688 -1.328125 10.703125 -1.578125 C 11.472656 -1.835938 12.125 -2.195312 12.65625 -2.65625 C 13.1875 -3.113281 13.585938 -3.65625 13.859375 -4.28125 C 14.140625 -4.914062 14.28125 -5.609375 14.28125 -6.359375 C 14.28125 -7.703125 13.84375 -8.679688 12.96875 -9.296875 C 12.101562 -9.921875 10.769531 -10.234375 8.96875 -10.234375 L 7.453125 -10.234375 Z M -0.484375 -1.0625 C 0.046875 -1.0625 0.5 -1.097656 0.875 -1.171875 C 1.25 -1.242188 1.566406 -1.390625 1.828125 -1.609375 C 2.097656 -1.828125 2.328125 -2.144531 2.515625 -2.5625 C 2.710938 -2.976562 2.910156 -3.535156 3.109375 -4.234375 L 6.25 -15.953125 C 6.445312 -16.734375 6.546875 -17.347656 6.546875 -17.796875 C 6.546875 -18.398438 6.359375 -18.816406 5.984375 -19.046875 C 5.609375 -19.285156 4.976562 -19.40625 4.09375 -19.40625 L 4.390625 -20.484375 L 11.515625 -20.484375 C 12.273438 -20.484375 13.050781 -20.414062 13.84375 -20.28125 C 14.644531 -20.144531 15.367188 -19.90625 16.015625 -19.5625 C 16.671875 -19.21875 17.207031 -18.75 17.625 -18.15625 C 18.039062 -17.5625 18.25 -16.800781 18.25 -15.875 C 18.25 -15.007812 18.066406 -14.28125 17.703125 -13.6875 C 17.347656 -13.101562 16.894531 -12.617188 16.34375 -12.234375 C 15.800781 -11.859375 15.195312 -11.566406 14.53125 -11.359375 C 13.863281 -11.160156 13.222656 -11.019531 12.609375 -10.9375 L 12.609375 -10.828125 C 14.171875 -10.503906 15.359375 -9.921875 16.171875 -9.078125 C 16.984375 -8.234375 17.390625 -7.164062 17.390625 -5.875 C 17.390625 -4.96875 17.175781 -4.148438 16.75 -3.421875 C 16.320312 -2.703125 15.734375 -2.085938 14.984375 -1.578125 C 14.242188 -1.078125 13.359375 -0.6875 12.328125 -0.40625 C 11.304688 -0.132812 10.1875 0 8.96875 0 L -0.765625 0 Z M 7.796875 -11.59375 L 9.765625 -11.59375 C 10.597656 -11.59375 11.363281 -11.695312 12.0625 -11.90625 C 12.757812 -12.125 13.351562 -12.425781 13.84375 -12.8125 C 14.34375 -13.207031 14.726562 -13.675781 15 -14.21875 C 15.28125 -14.757812 15.421875 -15.359375 15.421875 -16.015625 C 15.421875 -17.160156 15.097656 -17.988281 14.453125 -18.5 C 13.804688 -19.019531 12.710938 -19.28125 11.171875 -19.28125 C 10.691406 -19.28125 10.304688 -19.113281 10.015625 -18.78125 C 9.722656 -18.457031 9.476562 -17.914062 9.28125 -17.15625 Z M 7.796875 -11.59375 "/></g></g></g><g fill="#a6a6a6" fill-opacity="0.4"><g transform="translate(114.021251, 25.627926)"><g><path d="M -0.375 -1.0625 C 0.207031 -1.0625 0.691406 -1.101562 1.078125 -1.1875 C 1.460938 -1.28125 1.78125 -1.445312 2.03125 -1.6875 C 2.289062 -1.925781 2.507812 -2.242188 2.6875 -2.640625 C 2.863281 -3.046875 3.03125 -3.566406 3.1875 -4.203125 L 6.203125 -15.953125 C 6.316406 -16.453125 6.410156 -16.878906 6.484375 -17.234375 C 6.554688 -17.585938 6.59375 -17.890625 6.59375 -18.140625 C 6.59375 -18.617188 6.4375 -18.945312 6.125 -19.125 C 5.820312 -19.3125 5.296875 -19.40625 4.546875 -19.40625 L 3.96875 -19.40625 L 4.25 -20.484375 L 12.890625 -20.484375 L 12.609375 -19.40625 C 12.023438 -19.40625 11.535156 -19.347656 11.140625 -19.234375 C 10.753906 -19.117188 10.414062 -18.898438 10.125 -18.578125 C 9.84375 -18.265625 9.59375 -17.820312 9.375 -17.25 C 9.15625 -16.6875 8.929688 -15.953125 8.703125 -15.046875 L 5.9375 -4.515625 C 5.769531 -3.929688 5.6875 -3.4375 5.6875 -3.03125 C 5.6875 -2.394531 5.90625 -1.921875 6.34375 -1.609375 C 6.78125 -1.296875 7.554688 -1.140625 8.671875 -1.140625 C 9.734375 -1.140625 10.648438 -1.226562 11.421875 -1.40625 C 12.191406 -1.582031 12.867188 -1.867188 13.453125 -2.265625 C 14.035156 -2.671875 14.546875 -3.1875 14.984375 -3.8125 C 15.421875 -4.445312 15.828125 -5.222656 16.203125 -6.140625 L 17.453125 -6.140625 L 15.109375 0 L -0.671875 0 Z M -0.375 -1.0625 "/></g></g></g><g fill="#a6a6a6" fill-opacity="0.4"><g transform="translate(134.041784, 25.627926)"><g><path d="M 13.4375 -20.75 C 14.5625 -20.75 15.582031 -20.550781 16.5 -20.15625 C 17.414062 -19.769531 18.195312 -19.21875 18.84375 -18.5 C 19.488281 -17.78125 19.984375 -16.910156 20.328125 -15.890625 C 20.671875 -14.867188 20.84375 -13.726562 20.84375 -12.46875 C 20.84375 -10.769531 20.535156 -9.148438 19.921875 -7.609375 C 19.316406 -6.066406 18.488281 -4.707031 17.4375 -3.53125 C 16.394531 -2.363281 15.1875 -1.4375 13.8125 -0.75 C 12.4375 -0.0703125 10.988281 0.265625 9.46875 0.265625 C 8.332031 0.265625 7.300781 0.0664062 6.375 -0.328125 C 5.457031 -0.734375 4.671875 -1.296875 4.015625 -2.015625 C 3.359375 -2.742188 2.851562 -3.617188 2.5 -4.640625 C 2.144531 -5.660156 1.96875 -6.800781 1.96875 -8.0625 C 1.96875 -9.757812 2.273438 -11.375 2.890625 -12.90625 C 3.515625 -14.445312 4.347656 -15.796875 5.390625 -16.953125 C 6.441406 -18.117188 7.660156 -19.039062 9.046875 -19.71875 C 10.441406 -20.40625 11.90625 -20.75 13.4375 -20.75 Z M 13.4375 -19.359375 C 12.28125 -19.359375 11.203125 -19.066406 10.203125 -18.484375 C 9.203125 -17.898438 8.328125 -17.09375 7.578125 -16.0625 C 6.835938 -15.03125 6.253906 -13.820312 5.828125 -12.4375 C 5.398438 -11.0625 5.1875 -9.578125 5.1875 -7.984375 C 5.1875 -5.710938 5.578125 -4.007812 6.359375 -2.875 C 7.148438 -1.738281 8.3125 -1.171875 9.84375 -1.171875 C 10.957031 -1.171875 11.988281 -1.472656 12.9375 -2.078125 C 13.882812 -2.679688 14.707031 -3.515625 15.40625 -4.578125 C 16.113281 -5.640625 16.660156 -6.90625 17.046875 -8.375 C 17.429688 -9.84375 17.625 -11.445312 17.625 -13.1875 C 17.625 -15.3125 17.28125 -16.867188 16.59375 -17.859375 C 15.914062 -18.859375 14.863281 -19.359375 13.4375 -19.359375 Z M 13.4375 -19.359375 "/></g></g></g><g fill="#ffffff" fill-opacity="1"><g transform="translate(28.961955, 24.452756)"><g><path d="M 6.203125 -5.5 C 6.023438 -4.882812 5.882812 -4.335938 5.78125 -3.859375 C 5.6875 -3.378906 5.640625 -3.023438 5.640625 -2.796875 C 5.640625 -1.734375 6.648438 -1.203125 8.671875 -1.203125 L 8.375 0 L -0.453125 0 L -0.15625 -1.0625 C 0.6875 -1.0625 1.375 -1.3125 1.90625 -1.8125 C 2.445312 -2.320312 2.867188 -3.128906 3.171875 -4.234375 L 6.296875 -15.953125 C 6.523438 -16.804688 6.640625 -17.472656 6.640625 -17.953125 C 6.640625 -18.210938 6.59375 -18.429688 6.5 -18.609375 C 6.414062 -18.785156 6.269531 -18.929688 6.0625 -19.046875 C 5.851562 -19.171875 5.570312 -19.257812 5.21875 -19.3125 C 4.863281 -19.363281 4.414062 -19.394531 3.875 -19.40625 L 4.171875 -20.484375 L 11.5625 -20.484375 C 13.851562 -20.484375 15.632812 -20.078125 16.90625 -19.265625 C 18.1875 -18.460938 18.828125 -17.34375 18.828125 -15.90625 C 18.828125 -14.976562 18.585938 -14.125 18.109375 -13.34375 C 17.628906 -12.570312 16.960938 -11.898438 16.109375 -11.328125 C 15.265625 -10.765625 14.25 -10.320312 13.0625 -10 C 11.882812 -9.675781 10.609375 -9.515625 9.234375 -9.515625 L 7.3125 -9.515625 Z M 7.65625 -10.875 L 8.96875 -10.875 C 9.976562 -10.875 10.898438 -11 11.734375 -11.25 C 12.578125 -11.507812 13.304688 -11.867188 13.921875 -12.328125 C 14.535156 -12.796875 15.015625 -13.34375 15.359375 -13.96875 C 15.703125 -14.601562 15.875 -15.300781 15.875 -16.0625 C 15.875 -18.207031 14.457031 -19.28125 11.625 -19.28125 C 11.269531 -19.28125 10.972656 -19.25 10.734375 -19.1875 C 10.492188 -19.125 10.285156 -19.007812 10.109375 -18.84375 C 9.941406 -18.6875 9.796875 -18.472656 9.671875 -18.203125 C 9.554688 -17.929688 9.441406 -17.582031 9.328125 -17.15625 Z M 7.65625 -10.875 "/></g></g></g><g fill="#ffffff" fill-opacity="1"><g transform="translate(48.051925, 24.452756)"><g><path d="M 5.3125 -15.921875 C 5.40625 -16.285156 5.488281 -16.65625 5.5625 -17.03125 C 5.632812 -17.414062 5.671875 -17.734375 5.671875 -17.984375 C 5.671875 -18.515625 5.484375 -18.882812 5.109375 -19.09375 C 4.734375 -19.300781 4.085938 -19.40625 3.171875 -19.40625 L 3.515625 -20.484375 L 12 -20.484375 L 11.703125 -19.40625 C 11.066406 -19.40625 10.550781 -19.359375 10.15625 -19.265625 C 9.769531 -19.171875 9.4375 -18.972656 9.15625 -18.671875 C 8.882812 -18.367188 8.644531 -17.925781 8.4375 -17.34375 C 8.238281 -16.757812 8.015625 -15.988281 7.765625 -15.03125 L 6.03125 -8.34375 C 5.90625 -7.882812 5.816406 -7.445312 5.765625 -7.03125 C 5.710938 -6.613281 5.6875 -6.21875 5.6875 -5.84375 C 5.6875 -4.425781 6.050781 -3.300781 6.78125 -2.46875 C 7.507812 -1.632812 8.570312 -1.21875 9.96875 -1.21875 C 10.84375 -1.21875 11.617188 -1.378906 12.296875 -1.703125 C 12.984375 -2.035156 13.59375 -2.488281 14.125 -3.0625 C 14.65625 -3.644531 15.113281 -4.328125 15.5 -5.109375 C 15.894531 -5.898438 16.242188 -6.769531 16.546875 -7.71875 C 16.804688 -8.5625 17.066406 -9.503906 17.328125 -10.546875 C 17.585938 -11.597656 17.816406 -12.609375 18.015625 -13.578125 C 18.222656 -14.554688 18.382812 -15.429688 18.5 -16.203125 C 18.613281 -16.972656 18.671875 -17.507812 18.671875 -17.8125 C 18.671875 -18.34375 18.425781 -18.734375 17.9375 -18.984375 C 17.445312 -19.234375 16.785156 -19.375 15.953125 -19.40625 L 16.28125 -20.484375 L 23.265625 -20.484375 L 22.953125 -19.40625 C 22.523438 -19.40625 22.160156 -19.363281 21.859375 -19.28125 C 21.554688 -19.207031 21.296875 -19.035156 21.078125 -18.765625 C 20.867188 -18.503906 20.6875 -18.132812 20.53125 -17.65625 C 20.375 -17.175781 20.207031 -16.539062 20.03125 -15.75 L 18.875 -10.421875 C 18.113281 -6.890625 16.976562 -4.222656 15.46875 -2.421875 C 13.96875 -0.628906 12.066406 0.265625 9.765625 0.265625 C 7.492188 0.265625 5.800781 -0.257812 4.6875 -1.3125 C 3.582031 -2.375 3.03125 -3.878906 3.03125 -5.828125 C 3.03125 -6.390625 3.070312 -6.957031 3.15625 -7.53125 C 3.25 -8.113281 3.382812 -8.734375 3.5625 -9.390625 Z M 5.3125 -15.921875 "/></g></g></g><g fill="#ffffff" fill-opacity="1"><g transform="translate(70.890722, 24.452756)"><g><path d="M -0.40625 -1.0625 C 0.1875 -1.0625 0.671875 -1.101562 1.046875 -1.1875 C 1.429688 -1.28125 1.75 -1.445312 2 -1.6875 C 2.257812 -1.925781 2.476562 -2.242188 2.65625 -2.640625 C 2.832031 -3.046875 3.003906 -3.566406 3.171875 -4.203125 L 6.25 -15.921875 C 6.375 -16.390625 6.46875 -16.789062 6.53125 -17.125 C 6.59375 -17.457031 6.625 -17.75 6.625 -18 C 6.625 -18.582031 6.421875 -18.960938 6.015625 -19.140625 C 5.609375 -19.316406 4.925781 -19.40625 3.96875 -19.40625 L 4.25 -20.484375 L 18.78125 -20.484375 L 18.78125 -15.109375 L 17.765625 -15.109375 C 17.535156 -15.953125 17.273438 -16.644531 16.984375 -17.1875 C 16.703125 -17.726562 16.378906 -18.15625 16.015625 -18.46875 C 15.660156 -18.78125 15.253906 -19 14.796875 -19.125 C 14.347656 -19.25 13.847656 -19.3125 13.296875 -19.3125 L 9.84375 -19.3125 L 7.765625 -11.40625 L 9.4375 -11.40625 C 9.914062 -11.40625 10.320312 -11.445312 10.65625 -11.53125 C 11 -11.625 11.304688 -11.78125 11.578125 -12 C 11.859375 -12.226562 12.117188 -12.535156 12.359375 -12.921875 C 12.597656 -13.316406 12.859375 -13.820312 13.140625 -14.4375 L 14.125 -14.4375 L 12.53125 -6.5625 L 11.46875 -6.5625 C 11.519531 -7.09375 11.546875 -7.554688 11.546875 -7.953125 C 11.546875 -8.742188 11.394531 -9.320312 11.09375 -9.6875 C 10.789062 -10.050781 10.234375 -10.234375 9.421875 -10.234375 L 7.421875 -10.234375 L 5.90625 -4.515625 C 5.75 -3.929688 5.671875 -3.4375 5.671875 -3.03125 C 5.671875 -2.394531 5.953125 -1.921875 6.515625 -1.609375 C 7.078125 -1.296875 8.050781 -1.140625 9.4375 -1.140625 C 10.445312 -1.140625 11.328125 -1.21875 12.078125 -1.375 C 12.835938 -1.539062 13.492188 -1.796875 14.046875 -2.140625 C 14.609375 -2.484375 15.097656 -2.9375 15.515625 -3.5 C 15.929688 -4.070312 16.328125 -4.773438 16.703125 -5.609375 L 17.953125 -5.609375 L 15.875 0 L -0.6875 0 Z M -0.40625 -1.0625 "/></g></g></g><g fill="#ffffff" fill-opacity="1"><g transform="translate(91.921577, 24.452756)"><g><path d="M 6.140625 -5.5 C 6.085938 -5.34375 6.03125 -5.140625 5.96875 -4.890625 C 5.90625 -4.640625 5.847656 -4.390625 5.796875 -4.140625 C 5.742188 -3.898438 5.691406 -3.65625 5.640625 -3.40625 C 5.597656 -3.15625 5.578125 -2.953125 5.578125 -2.796875 C 5.578125 -2.441406 5.65625 -2.15625 5.8125 -1.9375 C 5.976562 -1.726562 6.179688 -1.566406 6.421875 -1.453125 C 6.660156 -1.347656 6.925781 -1.28125 7.21875 -1.25 C 7.507812 -1.21875 7.796875 -1.203125 8.078125 -1.203125 C 9.054688 -1.203125 9.929688 -1.328125 10.703125 -1.578125 C 11.472656 -1.835938 12.125 -2.195312 12.65625 -2.65625 C 13.1875 -3.113281 13.585938 -3.65625 13.859375 -4.28125 C 14.140625 -4.914062 14.28125 -5.609375 14.28125 -6.359375 C 14.28125 -7.703125 13.84375 -8.679688 12.96875 -9.296875 C 12.101562 -9.921875 10.769531 -10.234375 8.96875 -10.234375 L 7.453125 -10.234375 Z M -0.484375 -1.0625 C 0.046875 -1.0625 0.5 -1.097656 0.875 -1.171875 C 1.25 -1.242188 1.566406 -1.390625 1.828125 -1.609375 C 2.097656 -1.828125 2.328125 -2.144531 2.515625 -2.5625 C 2.710938 -2.976562 2.910156 -3.535156 3.109375 -4.234375 L 6.25 -15.953125 C 6.445312 -16.734375 6.546875 -17.347656 6.546875 -17.796875 C 6.546875 -18.398438 6.359375 -18.816406 5.984375 -19.046875 C 5.609375 -19.285156 4.976562 -19.40625 4.09375 -19.40625 L 4.390625 -20.484375 L 11.515625 -20.484375 C 12.273438 -20.484375 13.050781 -20.414062 13.84375 -20.28125 C 14.644531 -20.144531 15.367188 -19.90625 16.015625 -19.5625 C 16.671875 -19.21875 17.207031 -18.75 17.625 -18.15625 C 18.039062 -17.5625 18.25 -16.800781 18.25 -15.875 C 18.25 -15.007812 18.066406 -14.28125 17.703125 -13.6875 C 17.347656 -13.101562 16.894531 -12.617188 16.34375 -12.234375 C 15.800781 -11.859375 15.195312 -11.566406 14.53125 -11.359375 C 13.863281 -11.160156 13.222656 -11.019531 12.609375 -10.9375 L 12.609375 -10.828125 C 14.171875 -10.503906 15.359375 -9.921875 16.171875 -9.078125 C 16.984375 -8.234375 17.390625 -7.164062 17.390625 -5.875 C 17.390625 -4.96875 17.175781 -4.148438 16.75 -3.421875 C 16.320312 -2.703125 15.734375 -2.085938 14.984375 -1.578125 C 14.242188 -1.078125 13.359375 -0.6875 12.328125 -0.40625 C 11.304688 -0.132812 10.1875 0 8.96875 0 L -0.765625 0 Z M 7.796875 -11.59375 L 9.765625 -11.59375 C 10.597656 -11.59375 11.363281 -11.695312 12.0625 -11.90625 C 12.757812 -12.125 13.351562 -12.425781 13.84375 -12.8125 C 14.34375 -13.207031 14.726562 -13.675781 15 -14.21875 C 15.28125 -14.757812 15.421875 -15.359375 15.421875 -16.015625 C 15.421875 -17.160156 15.097656 -17.988281 14.453125 -18.5 C 13.804688 -19.019531 12.710938 -19.28125 11.171875 -19.28125 C 10.691406 -19.28125 10.304688 -19.113281 10.015625 -18.78125 C 9.722656 -18.457031 9.476562 -17.914062 9.28125 -17.15625 Z M 7.796875 -11.59375 "/></g></g></g><g fill="#ffffff" fill-opacity="1"><g transform="translate(112.846081, 24.452756)"><g><path d="M -0.375 -1.0625 C 0.207031 -1.0625 0.691406 -1.101562 1.078125 -1.1875 C 1.460938 -1.28125 1.78125 -1.445312 2.03125 -1.6875 C 2.289062 -1.925781 2.507812 -2.242188 2.6875 -2.640625 C 2.863281 -3.046875 3.03125 -3.566406 3.1875 -4.203125 L 6.203125 -15.953125 C 6.316406 -16.453125 6.410156 -16.878906 6.484375 -17.234375 C 6.554688 -17.585938 6.59375 -17.890625 6.59375 -18.140625 C 6.59375 -18.617188 6.4375 -18.945312 6.125 -19.125 C 5.820312 -19.3125 5.296875 -19.40625 4.546875 -19.40625 L 3.96875 -19.40625 L 4.25 -20.484375 L 12.890625 -20.484375 L 12.609375 -19.40625 C 12.023438 -19.40625 11.535156 -19.347656 11.140625 -19.234375 C 10.753906 -19.117188 10.414062 -18.898438 10.125 -18.578125 C 9.84375 -18.265625 9.59375 -17.820312 9.375 -17.25 C 9.15625 -16.6875 8.929688 -15.953125 8.703125 -15.046875 L 5.9375 -4.515625 C 5.769531 -3.929688 5.6875 -3.4375 5.6875 -3.03125 C 5.6875 -2.394531 5.90625 -1.921875 6.34375 -1.609375 C 6.78125 -1.296875 7.554688 -1.140625 8.671875 -1.140625 C 9.734375 -1.140625 10.648438 -1.226562 11.421875 -1.40625 C 12.191406 -1.582031 12.867188 -1.867188 13.453125 -2.265625 C 14.035156 -2.671875 14.546875 -3.1875 14.984375 -3.8125 C 15.421875 -4.445312 15.828125 -5.222656 16.203125 -6.140625 L 17.453125 -6.140625 L 15.109375 0 L -0.671875 0 Z M -0.375 -1.0625 "/></g></g></g><g fill="#ffffff" fill-opacity="1"><g transform="translate(132.866614, 24.452756)"><g><path d="M 13.4375 -20.75 C 14.5625 -20.75 15.582031 -20.550781 16.5 -20.15625 C 17.414062 -19.769531 18.195312 -19.21875 18.84375 -18.5 C 19.488281 -17.78125 19.984375 -16.910156 20.328125 -15.890625 C 20.671875 -14.867188 20.84375 -13.726562 20.84375 -12.46875 C 20.84375 -10.769531 20.535156 -9.148438 19.921875 -7.609375 C 19.316406 -6.066406 18.488281 -4.707031 17.4375 -3.53125 C 16.394531 -2.363281 15.1875 -1.4375 13.8125 -0.75 C 12.4375 -0.0703125 10.988281 0.265625 9.46875 0.265625 C 8.332031 0.265625 7.300781 0.0664062 6.375 -0.328125 C 5.457031 -0.734375 4.671875 -1.296875 4.015625 -2.015625 C 3.359375 -2.742188 2.851562 -3.617188 2.5 -4.640625 C 2.144531 -5.660156 1.96875 -6.800781 1.96875 -8.0625 C 1.96875 -9.757812 2.273438 -11.375 2.890625 -12.90625 C 3.515625 -14.445312 4.347656 -15.796875 5.390625 -16.953125 C 6.441406 -18.117188 7.660156 -19.039062 9.046875 -19.71875 C 10.441406 -20.40625 11.90625 -20.75 13.4375 -20.75 Z M 13.4375 -19.359375 C 12.28125 -19.359375 11.203125 -19.066406 10.203125 -18.484375 C 9.203125 -17.898438 8.328125 -17.09375 7.578125 -16.0625 C 6.835938 -15.03125 6.253906 -13.820312 5.828125 -12.4375 C 5.398438 -11.0625 5.1875 -9.578125 5.1875 -7.984375 C 5.1875 -5.710938 5.578125 -4.007812 6.359375 -2.875 C 7.148438 -1.738281 8.3125 -1.171875 9.84375 -1.171875 C 10.957031 -1.171875 11.988281 -1.472656 12.9375 -2.078125 C 13.882812 -2.679688 14.707031 -3.515625 15.40625 -4.578125 C 16.113281 -5.640625 16.660156 -6.90625 17.046875 -8.375 C 17.429688 -9.84375 17.625 -11.445312 17.625 -13.1875 C 17.625 -15.3125 17.28125 -16.867188 16.59375 -17.859375 C 15.914062 -18.859375 14.863281 -19.359375 13.4375 -19.359375 Z M 13.4375 -19.359375 "/></g></g></g><g fill="#a6a6a6" fill-opacity="0.4"><g transform="translate(157.190975, 25.627926)"><g/></g></g><g fill="#a6a6a6" fill-opacity="0.4"><g transform="translate(165.858662, 25.627926)"><g/></g></g><g fill="#ffffff" fill-opacity="1"><g transform="translate(156.015806, 24.452756)"><g/></g></g><g fill="#ffffff" fill-opacity="1"><g transform="translate(164.683492, 24.452756)"><g/></g></g><g fill="#a6a6a6" fill-opacity="0.4"><g transform="translate(38.044361, 53.326648)"><g><path d="M 15.421875 0 L 8.453125 -16.015625 L 8.34375 -16.015625 L 5.3125 -4.46875 C 5.207031 -4.039062 5.15625 -3.660156 5.15625 -3.328125 C 5.15625 -2.578125 5.375 -2.015625 5.8125 -1.640625 C 6.257812 -1.273438 6.882812 -1.082031 7.6875 -1.0625 L 7.359375 0 L -0.234375 0 L 0.046875 -1.0625 C 0.878906 -1.0625 1.625 -1.359375 2.28125 -1.953125 C 2.9375 -2.546875 3.390625 -3.296875 3.640625 -4.203125 L 6.78125 -16.015625 C 6.851562 -16.273438 6.890625 -16.546875 6.890625 -16.828125 C 6.890625 -17.679688 6.53125 -18.320312 5.8125 -18.75 C 5.09375 -19.175781 4.148438 -19.394531 2.984375 -19.40625 L 3.296875 -20.484375 L 9.546875 -20.484375 L 16.203125 -5.234375 L 16.296875 -5.234375 L 19.125 -16.015625 C 19.207031 -16.398438 19.25 -16.726562 19.25 -17 C 19.25 -17.757812 19.03125 -18.347656 18.59375 -18.765625 C 18.164062 -19.179688 17.640625 -19.394531 17.015625 -19.40625 L 17.34375 -20.484375 L 24.140625 -20.484375 L 23.859375 -19.40625 C 23.515625 -19.40625 23.179688 -19.328125 22.859375 -19.171875 C 22.546875 -19.015625 22.253906 -18.796875 21.984375 -18.515625 C 21.722656 -18.242188 21.488281 -17.910156 21.28125 -17.515625 C 21.082031 -17.128906 20.921875 -16.71875 20.796875 -16.28125 L 16.484375 0 Z M 15.421875 0 "/></g></g></g><g fill="#a6a6a6" fill-opacity="0.4"><g transform="translate(61.787125, 53.326648)"><g><path d="M 5.3125 -15.921875 C 5.40625 -16.285156 5.488281 -16.65625 5.5625 -17.03125 C 5.632812 -17.414062 5.671875 -17.734375 5.671875 -17.984375 C 5.671875 -18.515625 5.484375 -18.882812 5.109375 -19.09375 C 4.734375 -19.300781 4.085938 -19.40625 3.171875 -19.40625 L 3.515625 -20.484375 L 12 -20.484375 L 11.703125 -19.40625 C 11.066406 -19.40625 10.550781 -19.359375 10.15625 -19.265625 C 9.769531 -19.171875 9.4375 -18.972656 9.15625 -18.671875 C 8.882812 -18.367188 8.644531 -17.925781 8.4375 -17.34375 C 8.238281 -16.757812 8.015625 -15.988281 7.765625 -15.03125 L 6.03125 -8.34375 C 5.90625 -7.882812 5.816406 -7.445312 5.765625 -7.03125 C 5.710938 -6.613281 5.6875 -6.21875 5.6875 -5.84375 C 5.6875 -4.425781 6.050781 -3.300781 6.78125 -2.46875 C 7.507812 -1.632812 8.570312 -1.21875 9.96875 -1.21875 C 10.84375 -1.21875 11.617188 -1.378906 12.296875 -1.703125 C 12.984375 -2.035156 13.59375 -2.488281 14.125 -3.0625 C 14.65625 -3.644531 15.113281 -4.328125 15.5 -5.109375 C 15.894531 -5.898438 16.242188 -6.769531 16.546875 -7.71875 C 16.804688 -8.5625 17.066406 -9.503906 17.328125 -10.546875 C 17.585938 -11.597656 17.816406 -12.609375 18.015625 -13.578125 C 18.222656 -14.554688 18.382812 -15.429688 18.5 -16.203125 C 18.613281 -16.972656 18.671875 -17.507812 18.671875 -17.8125 C 18.671875 -18.34375 18.425781 -18.734375 17.9375 -18.984375 C 17.445312 -19.234375 16.785156 -19.375 15.953125 -19.40625 L 16.28125 -20.484375 L 23.265625 -20.484375 L 22.953125 -19.40625 C 22.523438 -19.40625 22.160156 -19.363281 21.859375 -19.28125 C 21.554688 -19.207031 21.296875 -19.035156 21.078125 -18.765625 C 20.867188 -18.503906 20.6875 -18.132812 20.53125 -17.65625 C 20.375 -17.175781 20.207031 -16.539062 20.03125 -15.75 L 18.875 -10.421875 C 18.113281 -6.890625 16.976562 -4.222656 15.46875 -2.421875 C 13.96875 -0.628906 12.066406 0.265625 9.765625 0.265625 C 7.492188 0.265625 5.800781 -0.257812 4.6875 -1.3125 C 3.582031 -2.375 3.03125 -3.878906 3.03125 -5.828125 C 3.03125 -6.390625 3.070312 -6.957031 3.15625 -7.53125 C 3.25 -8.113281 3.382812 -8.734375 3.5625 -9.390625 Z M 5.3125 -15.921875 "/></g></g></g><g fill="#a6a6a6" fill-opacity="0.4"><g transform="translate(84.625922, 53.326648)"><g><path d="M -0.40625 -1.0625 C 0.1875 -1.0625 0.671875 -1.101562 1.046875 -1.1875 C 1.429688 -1.28125 1.75 -1.445312 2 -1.6875 C 2.257812 -1.925781 2.476562 -2.242188 2.65625 -2.640625 C 2.832031 -3.046875 3.003906 -3.566406 3.171875 -4.203125 L 6.25 -15.921875 C 6.375 -16.390625 6.46875 -16.789062 6.53125 -17.125 C 6.59375 -17.457031 6.625 -17.75 6.625 -18 C 6.625 -18.582031 6.421875 -18.960938 6.015625 -19.140625 C 5.609375 -19.316406 4.925781 -19.40625 3.96875 -19.40625 L 4.25 -20.484375 L 18.78125 -20.484375 L 18.78125 -15.109375 L 17.765625 -15.109375 C 17.535156 -15.953125 17.273438 -16.644531 16.984375 -17.1875 C 16.703125 -17.726562 16.378906 -18.15625 16.015625 -18.46875 C 15.660156 -18.78125 15.253906 -19 14.796875 -19.125 C 14.347656 -19.25 13.847656 -19.3125 13.296875 -19.3125 L 9.84375 -19.3125 L 7.765625 -11.40625 L 9.4375 -11.40625 C 9.914062 -11.40625 10.320312 -11.445312 10.65625 -11.53125 C 11 -11.625 11.304688 -11.78125 11.578125 -12 C 11.859375 -12.226562 12.117188 -12.535156 12.359375 -12.921875 C 12.597656 -13.316406 12.859375 -13.820312 13.140625 -14.4375 L 14.125 -14.4375 L 12.53125 -6.5625 L 11.46875 -6.5625 C 11.519531 -7.09375 11.546875 -7.554688 11.546875 -7.953125 C 11.546875 -8.742188 11.394531 -9.320312 11.09375 -9.6875 C 10.789062 -10.050781 10.234375 -10.234375 9.421875 -10.234375 L 7.421875 -10.234375 L 5.90625 -4.515625 C 5.75 -3.929688 5.671875 -3.4375 5.671875 -3.03125 C 5.671875 -2.394531 5.953125 -1.921875 6.515625 -1.609375 C 7.078125 -1.296875 8.050781 -1.140625 9.4375 -1.140625 C 10.445312 -1.140625 11.328125 -1.21875 12.078125 -1.375 C 12.835938 -1.539062 13.492188 -1.796875 14.046875 -2.140625 C 14.609375 -2.484375 15.097656 -2.9375 15.515625 -3.5 C 15.929688 -4.070312 16.328125 -4.773438 16.703125 -5.609375 L 17.953125 -5.609375 L 15.875 0 L -0.6875 0 Z M -0.40625 -1.0625 "/></g></g></g><g fill="#a6a6a6" fill-opacity="0.4"><g transform="translate(105.656777, 53.326648)"><g><path d="M 15.578125 -14.515625 C 16.585938 -15.722656 17.335938 -16.640625 17.828125 -17.265625 C 18.316406 -17.898438 18.5625 -18.394531 18.5625 -18.75 C 18.5625 -19.007812 18.410156 -19.179688 18.109375 -19.265625 C 17.804688 -19.359375 17.347656 -19.40625 16.734375 -19.40625 L 17 -20.484375 L 23.875 -20.484375 L 23.609375 -19.40625 C 23.191406 -19.40625 22.773438 -19.328125 22.359375 -19.171875 C 21.941406 -19.015625 21.476562 -18.738281 20.96875 -18.34375 C 20.46875 -17.957031 19.90625 -17.4375 19.28125 -16.78125 C 18.65625 -16.125 17.945312 -15.304688 17.15625 -14.328125 L 5.15625 0.265625 L 2.921875 0.265625 L 6.625 -16.0625 C 6.832031 -16.988281 6.9375 -17.671875 6.9375 -18.109375 C 6.9375 -18.617188 6.769531 -18.960938 6.4375 -19.140625 C 6.101562 -19.316406 5.445312 -19.40625 4.46875 -19.40625 L 4.734375 -20.484375 L 12.609375 -20.484375 L 12.34375 -19.40625 C 11.820312 -19.40625 11.394531 -19.363281 11.0625 -19.28125 C 10.726562 -19.207031 10.441406 -19.050781 10.203125 -18.8125 C 9.972656 -18.570312 9.785156 -18.226562 9.640625 -17.78125 C 9.492188 -17.34375 9.335938 -16.757812 9.171875 -16.03125 L 6.484375 -3.78125 L 6.59375 -3.78125 Z M 15.578125 -14.515625 "/></g></g></g><g fill="#a6a6a6" fill-opacity="0.4"><g transform="translate(127.006672, 53.326648)"><g><path d="M 13.4375 -20.75 C 14.5625 -20.75 15.582031 -20.550781 16.5 -20.15625 C 17.414062 -19.769531 18.195312 -19.21875 18.84375 -18.5 C 19.488281 -17.78125 19.984375 -16.910156 20.328125 -15.890625 C 20.671875 -14.867188 20.84375 -13.726562 20.84375 -12.46875 C 20.84375 -10.769531 20.535156 -9.148438 19.921875 -7.609375 C 19.316406 -6.066406 18.488281 -4.707031 17.4375 -3.53125 C 16.394531 -2.363281 15.1875 -1.4375 13.8125 -0.75 C 12.4375 -0.0703125 10.988281 0.265625 9.46875 0.265625 C 8.332031 0.265625 7.300781 0.0664062 6.375 -0.328125 C 5.457031 -0.734375 4.671875 -1.296875 4.015625 -2.015625 C 3.359375 -2.742188 2.851562 -3.617188 2.5 -4.640625 C 2.144531 -5.660156 1.96875 -6.800781 1.96875 -8.0625 C 1.96875 -9.757812 2.273438 -11.375 2.890625 -12.90625 C 3.515625 -14.445312 4.347656 -15.796875 5.390625 -16.953125 C 6.441406 -18.117188 7.660156 -19.039062 9.046875 -19.71875 C 10.441406 -20.40625 11.90625 -20.75 13.4375 -20.75 Z M 13.4375 -19.359375 C 12.28125 -19.359375 11.203125 -19.066406 10.203125 -18.484375 C 9.203125 -17.898438 8.328125 -17.09375 7.578125 -16.0625 C 6.835938 -15.03125 6.253906 -13.820312 5.828125 -12.4375 C 5.398438 -11.0625 5.1875 -9.578125 5.1875 -7.984375 C 5.1875 -5.710938 5.578125 -4.007812 6.359375 -2.875 C 7.148438 -1.738281 8.3125 -1.171875 9.84375 -1.171875 C 10.957031 -1.171875 11.988281 -1.472656 12.9375 -2.078125 C 13.882812 -2.679688 14.707031 -3.515625 15.40625 -4.578125 C 16.113281 -5.640625 16.660156 -6.90625 17.046875 -8.375 C 17.429688 -9.84375 17.625 -11.445312 17.625 -13.1875 C 17.625 -15.3125 17.28125 -16.867188 16.59375 -17.859375 C 15.914062 -18.859375 14.863281 -19.359375 13.4375 -19.359375 Z M 13.4375 -19.359375 "/></g></g></g><g fill="#ffffff" fill-opacity="1"><g transform="translate(36.869191, 52.151478)"><g><path d="M 15.421875 0 L 8.453125 -16.015625 L 8.34375 -16.015625 L 5.3125 -4.46875 C 5.207031 -4.039062 5.15625 -3.660156 5.15625 -3.328125 C 5.15625 -2.578125 5.375 -2.015625 5.8125 -1.640625 C 6.257812 -1.273438 6.882812 -1.082031 7.6875 -1.0625 L 7.359375 0 L -0.234375 0 L 0.046875 -1.0625 C 0.878906 -1.0625 1.625 -1.359375 2.28125 -1.953125 C 2.9375 -2.546875 3.390625 -3.296875 3.640625 -4.203125 L 6.78125 -16.015625 C 6.851562 -16.273438 6.890625 -16.546875 6.890625 -16.828125 C 6.890625 -17.679688 6.53125 -18.320312 5.8125 -18.75 C 5.09375 -19.175781 4.148438 -19.394531 2.984375 -19.40625 L 3.296875 -20.484375 L 9.546875 -20.484375 L 16.203125 -5.234375 L 16.296875 -5.234375 L 19.125 -16.015625 C 19.207031 -16.398438 19.25 -16.726562 19.25 -17 C 19.25 -17.757812 19.03125 -18.347656 18.59375 -18.765625 C 18.164062 -19.179688 17.640625 -19.394531 17.015625 -19.40625 L 17.34375 -20.484375 L 24.140625 -20.484375 L 23.859375 -19.40625 C 23.515625 -19.40625 23.179688 -19.328125 22.859375 -19.171875 C 22.546875 -19.015625 22.253906 -18.796875 21.984375 -18.515625 C 21.722656 -18.242188 21.488281 -17.910156 21.28125 -17.515625 C 21.082031 -17.128906 20.921875 -16.71875 20.796875 -16.28125 L 16.484375 0 Z M 15.421875 0 "/></g></g></g><g fill="#ffffff" fill-opacity="1"><g transform="translate(60.611955, 52.151478)"><g><path d="M 5.3125 -15.921875 C 5.40625 -16.285156 5.488281 -16.65625 5.5625 -17.03125 C 5.632812 -17.414062 5.671875 -17.734375 5.671875 -17.984375 C 5.671875 -18.515625 5.484375 -18.882812 5.109375 -19.09375 C 4.734375 -19.300781 4.085938 -19.40625 3.171875 -19.40625 L 3.515625 -20.484375 L 12 -20.484375 L 11.703125 -19.40625 C 11.066406 -19.40625 10.550781 -19.359375 10.15625 -19.265625 C 9.769531 -19.171875 9.4375 -18.972656 9.15625 -18.671875 C 8.882812 -18.367188 8.644531 -17.925781 8.4375 -17.34375 C 8.238281 -16.757812 8.015625 -15.988281 7.765625 -15.03125 L 6.03125 -8.34375 C 5.90625 -7.882812 5.816406 -7.445312 5.765625 -7.03125 C 5.710938 -6.613281 5.6875 -6.21875 5.6875 -5.84375 C 5.6875 -4.425781 6.050781 -3.300781 6.78125 -2.46875 C 7.507812 -1.632812 8.570312 -1.21875 9.96875 -1.21875 C 10.84375 -1.21875 11.617188 -1.378906 12.296875 -1.703125 C 12.984375 -2.035156 13.59375 -2.488281 14.125 -3.0625 C 14.65625 -3.644531 15.113281 -4.328125 15.5 -5.109375 C 15.894531 -5.898438 16.242188 -6.769531 16.546875 -7.71875 C 16.804688 -8.5625 17.066406 -9.503906 17.328125 -10.546875 C 17.585938 -11.597656 17.816406 -12.609375 18.015625 -13.578125 C 18.222656 -14.554688 18.382812 -15.429688 18.5 -16.203125 C 18.613281 -16.972656 18.671875 -17.507812 18.671875 -17.8125 C 18.671875 -18.34375 18.425781 -18.734375 17.9375 -18.984375 C 17.445312 -19.234375 16.785156 -19.375 15.953125 -19.40625 L 16.28125 -20.484375 L 23.265625 -20.484375 L 22.953125 -19.40625 C 22.523438 -19.40625 22.160156 -19.363281 21.859375 -19.28125 C 21.554688 -19.207031 21.296875 -19.035156 21.078125 -18.765625 C 20.867188 -18.503906 20.6875 -18.132812 20.53125 -17.65625 C 20.375 -17.175781 20.207031 -16.539062 20.03125 -15.75 L 18.875 -10.421875 C 18.113281 -6.890625 16.976562 -4.222656 15.46875 -2.421875 C 13.96875 -0.628906 12.066406 0.265625 9.765625 0.265625 C 7.492188 0.265625 5.800781 -0.257812 4.6875 -1.3125 C 3.582031 -2.375 3.03125 -3.878906 3.03125 -5.828125 C 3.03125 -6.390625 3.070312 -6.957031 3.15625 -7.53125 C 3.25 -8.113281 3.382812 -8.734375 3.5625 -9.390625 Z M 5.3125 -15.921875 "/></g></g></g><g fill="#ffffff" fill-opacity="1"><g transform="translate(83.450752, 52.151478)"><g><path d="M -0.40625 -1.0625 C 0.1875 -1.0625 0.671875 -1.101562 1.046875 -1.1875 C 1.429688 -1.28125 1.75 -1.445312 2 -1.6875 C 2.257812 -1.925781 2.476562 -2.242188 2.65625 -2.640625 C 2.832031 -3.046875 3.003906 -3.566406 3.171875 -4.203125 L 6.25 -15.921875 C 6.375 -16.390625 6.46875 -16.789062 6.53125 -17.125 C 6.59375 -17.457031 6.625 -17.75 6.625 -18 C 6.625 -18.582031 6.421875 -18.960938 6.015625 -19.140625 C 5.609375 -19.316406 4.925781 -19.40625 3.96875 -19.40625 L 4.25 -20.484375 L 18.78125 -20.484375 L 18.78125 -15.109375 L 17.765625 -15.109375 C 17.535156 -15.953125 17.273438 -16.644531 16.984375 -17.1875 C 16.703125 -17.726562 16.378906 -18.15625 16.015625 -18.46875 C 15.660156 -18.78125 15.253906 -19 14.796875 -19.125 C 14.347656 -19.25 13.847656 -19.3125 13.296875 -19.3125 L 9.84375 -19.3125 L 7.765625 -11.40625 L 9.4375 -11.40625 C 9.914062 -11.40625 10.320312 -11.445312 10.65625 -11.53125 C 11 -11.625 11.304688 -11.78125 11.578125 -12 C 11.859375 -12.226562 12.117188 -12.535156 12.359375 -12.921875 C 12.597656 -13.316406 12.859375 -13.820312 13.140625 -14.4375 L 14.125 -14.4375 L 12.53125 -6.5625 L 11.46875 -6.5625 C 11.519531 -7.09375 11.546875 -7.554688 11.546875 -7.953125 C 11.546875 -8.742188 11.394531 -9.320312 11.09375 -9.6875 C 10.789062 -10.050781 10.234375 -10.234375 9.421875 -10.234375 L 7.421875 -10.234375 L 5.90625 -4.515625 C 5.75 -3.929688 5.671875 -3.4375 5.671875 -3.03125 C 5.671875 -2.394531 5.953125 -1.921875 6.515625 -1.609375 C 7.078125 -1.296875 8.050781 -1.140625 9.4375 -1.140625 C 10.445312 -1.140625 11.328125 -1.21875 12.078125 -1.375 C 12.835938 -1.539062 13.492188 -1.796875 14.046875 -2.140625 C 14.609375 -2.484375 15.097656 -2.9375 15.515625 -3.5 C 15.929688 -4.070312 16.328125 -4.773438 16.703125 -5.609375 L 17.953125 -5.609375 L 15.875 0 L -0.6875 0 Z M -0.40625 -1.0625 "/></g></g></g><g fill="#ffffff" fill-opacity="1"><g transform="translate(104.481607, 52.151478)"><g><path d="M 15.578125 -14.515625 C 16.585938 -15.722656 17.335938 -16.640625 17.828125 -17.265625 C 18.316406 -17.898438 18.5625 -18.394531 18.5625 -18.75 C 18.5625 -19.007812 18.410156 -19.179688 18.109375 -19.265625 C 17.804688 -19.359375 17.347656 -19.40625 16.734375 -19.40625 L 17 -20.484375 L 23.875 -20.484375 L 23.609375 -19.40625 C 23.191406 -19.40625 22.773438 -19.328125 22.359375 -19.171875 C 21.941406 -19.015625 21.476562 -18.738281 20.96875 -18.34375 C 20.46875 -17.957031 19.90625 -17.4375 19.28125 -16.78125 C 18.65625 -16.125 17.945312 -15.304688 17.15625 -14.328125 L 5.15625 0.265625 L 2.921875 0.265625 L 6.625 -16.0625 C 6.832031 -16.988281 6.9375 -17.671875 6.9375 -18.109375 C 6.9375 -18.617188 6.769531 -18.960938 6.4375 -19.140625 C 6.101562 -19.316406 5.445312 -19.40625 4.46875 -19.40625 L 4.734375 -20.484375 L 12.609375 -20.484375 L 12.34375 -19.40625 C 11.820312 -19.40625 11.394531 -19.363281 11.0625 -19.28125 C 10.726562 -19.207031 10.441406 -19.050781 10.203125 -18.8125 C 9.972656 -18.570312 9.785156 -18.226562 9.640625 -17.78125 C 9.492188 -17.34375 9.335938 -16.757812 9.171875 -16.03125 L 6.484375 -3.78125 L 6.59375 -3.78125 Z M 15.578125 -14.515625 "/></g></g></g><g fill="#ffffff" fill-opacity="1"><g transform="translate(125.831502, 52.151478)"><g><path d="M 13.4375 -20.75 C 14.5625 -20.75 15.582031 -20.550781 16.5 -20.15625 C 17.414062 -19.769531 18.195312 -19.21875 18.84375 -18.5 C 19.488281 -17.78125 19.984375 -16.910156 20.328125 -15.890625 C 20.671875 -14.867188 20.84375 -13.726562 20.84375 -12.46875 C 20.84375 -10.769531 20.535156 -9.148438 19.921875 -7.609375 C 19.316406 -6.066406 18.488281 -4.707031 17.4375 -3.53125 C 16.394531 -2.363281 15.1875 -1.4375 13.8125 -0.75 C 12.4375 -0.0703125 10.988281 0.265625 9.46875 0.265625 C 8.332031 0.265625 7.300781 0.0664062 6.375 -0.328125 C 5.457031 -0.734375 4.671875 -1.296875 4.015625 -2.015625 C 3.359375 -2.742188 2.851562 -3.617188 2.5 -4.640625 C 2.144531 -5.660156 1.96875 -6.800781 1.96875 -8.0625 C 1.96875 -9.757812 2.273438 -11.375 2.890625 -12.90625 C 3.515625 -14.445312 4.347656 -15.796875 5.390625 -16.953125 C 6.441406 -18.117188 7.660156 -19.039062 9.046875 -19.71875 C 10.441406 -20.40625 11.90625 -20.75 13.4375 -20.75 Z M 13.4375 -19.359375 C 12.28125 -19.359375 11.203125 -19.066406 10.203125 -18.484375 C 9.203125 -17.898438 8.328125 -17.09375 7.578125 -16.0625 C 6.835938 -15.03125 6.253906 -13.820312 5.828125 -12.4375 C 5.398438 -11.0625 5.1875 -9.578125 5.1875 -7.984375 C 5.1875 -5.710938 5.578125 -4.007812 6.359375 -2.875 C 7.148438 -1.738281 8.3125 -1.171875 9.84375 -1.171875 C 10.957031 -1.171875 11.988281 -1.472656 12.9375 -2.078125 C 13.882812 -2.679688 14.707031 -3.515625 15.40625 -4.578125 C 16.113281 -5.640625 16.660156 -6.90625 17.046875 -8.375 C 17.429688 -9.84375 17.625 -11.445312 17.625 -13.1875 C 17.625 -15.3125 17.28125 -16.867188 16.59375 -17.859375 C 15.914062 -18.859375 14.863281 -19.359375 13.4375 -19.359375 Z M 13.4375 -19.359375 "/></g></g></g></svg>