<svg xmlns="http://www.w3.org/2000/svg" xmlns:xlink="http://www.w3.org/1999/xlink" width="246" zoomAndPan="magnify" viewBox="0 0 184.5 54.75" height="73" preserveAspectRatio="xMidYMid meet" version="1.0"><defs><g/></defs><g fill="#a6a6a6" fill-opacity="0.4"><g transform="translate(19.497971, 39.781382)"><g><path d="M 10.90625 -24.390625 C 10.082031 -24.492188 9.257812 -24.503906 8.4375 -24.421875 C 7.613281 -24.347656 6.789062 -24.257812 5.96875 -24.15625 C 5.15625 -24.050781 4.335938 -23.953125 3.515625 -23.859375 C 2.691406 -23.765625 1.867188 -23.75 1.046875 -23.8125 C 0.816406 -23.832031 0.578125 -23.882812 0.328125 -23.96875 C 0.0859375 -24.050781 -0.0078125 -24.273438 0.03125 -24.640625 C 0.0507812 -24.867188 0.164062 -25.097656 0.375 -25.328125 C 0.59375 -25.566406 0.816406 -25.675781 1.046875 -25.65625 L 10.59375 -26.21875 C 10.613281 -26.320312 10.65625 -26.472656 10.71875 -26.671875 C 10.78125 -26.878906 10.863281 -27.078125 10.96875 -27.265625 C 11.070312 -27.453125 11.195312 -27.613281 11.34375 -27.75 C 11.5 -27.894531 11.671875 -27.957031 11.859375 -27.9375 C 12.128906 -27.914062 12.34375 -27.820312 12.5 -27.65625 C 12.664062 -27.5 12.800781 -27.332031 12.90625 -27.15625 C 13.007812 -26.976562 13.101562 -26.8125 13.1875 -26.65625 C 13.269531 -26.507812 13.375 -26.425781 13.5 -26.40625 C 16.90625 -26.40625 20.40625 -26.472656 24 -26.609375 C 24.0625 -26.609375 24.226562 -26.601562 24.5 -26.59375 C 24.78125 -26.582031 24.972656 -26.566406 25.078125 -26.546875 C 25.203125 -26.179688 25.066406 -25.894531 24.671875 -25.6875 C 24.285156 -25.488281 23.726562 -25.335938 23 -25.234375 C 22.269531 -25.128906 21.441406 -25.054688 20.515625 -25.015625 C 19.585938 -24.972656 18.660156 -24.941406 17.734375 -24.921875 C 16.816406 -24.898438 15.953125 -24.867188 15.140625 -24.828125 C 14.328125 -24.785156 13.6875 -24.722656 13.21875 -24.640625 C 13.050781 -23.535156 12.957031 -22.347656 12.9375 -21.078125 C 12.914062 -19.816406 12.921875 -18.507812 12.953125 -17.15625 C 12.984375 -15.800781 13.039062 -14.425781 13.125 -13.03125 C 13.207031 -11.632812 13.285156 -10.257812 13.359375 -8.90625 C 13.429688 -7.550781 13.476562 -6.238281 13.5 -4.96875 C 13.53125 -3.707031 13.5 -2.523438 13.40625 -1.421875 C 13.539062 -0.742188 13.484375 -0.359375 13.234375 -0.265625 C 12.992188 -0.171875 12.535156 -0.175781 11.859375 -0.28125 C 11.691406 -1.144531 11.5625 -2.195312 11.46875 -3.4375 C 11.382812 -4.675781 11.320312 -6.019531 11.28125 -7.46875 C 11.238281 -8.914062 11.21875 -10.414062 11.21875 -11.96875 C 11.21875 -13.519531 11.207031 -15.046875 11.1875 -16.546875 C 11.164062 -18.046875 11.140625 -19.46875 11.109375 -20.8125 C 11.078125 -22.15625 11.007812 -23.347656 10.90625 -24.390625 Z M 10.90625 -24.390625 "/></g></g><g transform="translate(40.995513, 39.781382)"><g><path d="M -0.03125 0 C 0.113281 -0.488281 0.347656 -1.289062 0.671875 -2.40625 C 1.003906 -3.53125 1.4375 -5.132812 1.96875 -7.21875 C 2.5 -9.300781 3.148438 -11.945312 3.921875 -15.15625 C 4.691406 -18.363281 5.59375 -22.316406 6.625 -27.015625 C 6.75 -27.222656 6.925781 -27.363281 7.15625 -27.4375 C 7.394531 -27.507812 7.628906 -27.53125 7.859375 -27.5 C 8.097656 -27.46875 8.296875 -27.394531 8.453125 -27.28125 C 8.609375 -27.164062 8.675781 -27.035156 8.65625 -26.890625 L 14.90625 -11.703125 L 18.140625 -12.6875 C 18.410156 -12.6875 18.640625 -12.609375 18.828125 -12.453125 C 19.023438 -12.304688 19.132812 -12.128906 19.15625 -11.921875 C 19.175781 -11.710938 19.097656 -11.484375 18.921875 -11.234375 C 18.753906 -10.992188 18.460938 -10.800781 18.046875 -10.65625 C 17.867188 -10.59375 17.644531 -10.523438 17.375 -10.453125 C 17.101562 -10.378906 16.828125 -10.304688 16.546875 -10.234375 C 16.273438 -10.171875 16.039062 -10.109375 15.84375 -10.046875 C 15.65625 -9.984375 15.5625 -9.921875 15.5625 -9.859375 L 19.09375 -0.46875 C 19.050781 -0.363281 19.003906 -0.234375 18.953125 -0.078125 C 18.910156 0.078125 18.828125 0.203125 18.703125 0.296875 C 18.578125 0.390625 18.382812 0.421875 18.125 0.390625 C 17.875 0.359375 17.519531 0.207031 17.0625 -0.0625 L 13.40625 -9.390625 C 12.96875 -9.253906 12.421875 -9.128906 11.765625 -9.015625 C 11.109375 -8.898438 10.421875 -8.785156 9.703125 -8.671875 C 8.984375 -8.554688 8.257812 -8.414062 7.53125 -8.25 C 6.800781 -8.09375 6.128906 -7.898438 5.515625 -7.671875 C 4.898438 -7.441406 4.378906 -7.160156 3.953125 -6.828125 C 3.535156 -6.503906 3.285156 -6.109375 3.203125 -5.640625 C 3.160156 -5.347656 3.082031 -4.863281 2.96875 -4.1875 C 2.851562 -3.507812 2.738281 -2.832031 2.625 -2.15625 C 2.5 -1.351562 2.351562 -0.488281 2.1875 0.4375 C 1.800781 0.820312 1.457031 0.953125 1.15625 0.828125 C 0.851562 0.703125 0.457031 0.425781 -0.03125 0 Z M 7.921875 -23.53125 L 4.5625 -9.421875 C 4.925781 -9.546875 5.421875 -9.679688 6.046875 -9.828125 C 6.679688 -9.972656 7.367188 -10.128906 8.109375 -10.296875 C 8.859375 -10.472656 9.609375 -10.644531 10.359375 -10.8125 C 11.109375 -10.976562 11.785156 -11.15625 12.390625 -11.34375 Z M 7.921875 -23.53125 "/></g></g><g transform="translate(60.051594, 39.781382)"><g><path d="M 0.890625 -6.3125 C 0.890625 -7.070312 0.96875 -8.109375 1.125 -9.421875 C 1.28125 -10.734375 1.507812 -12.148438 1.8125 -13.671875 C 2.125 -15.191406 2.519531 -16.726562 3 -18.28125 C 3.488281 -19.832031 4.0625 -21.238281 4.71875 -22.5 C 5.375 -23.757812 6.117188 -24.789062 6.953125 -25.59375 C 7.796875 -26.394531 8.722656 -26.796875 9.734375 -26.796875 C 10.304688 -26.796875 10.796875 -26.6875 11.203125 -26.46875 C 11.617188 -26.257812 11.960938 -25.972656 12.234375 -25.609375 C 12.515625 -25.253906 12.71875 -24.84375 12.84375 -24.375 C 12.96875 -23.914062 13.03125 -23.421875 13.03125 -22.890625 C 12.457031 -22.617188 12.019531 -22.554688 11.71875 -22.703125 C 11.425781 -22.847656 11.191406 -23.070312 11.015625 -23.375 C 10.835938 -23.6875 10.660156 -24.007812 10.484375 -24.34375 C 10.316406 -24.6875 10.078125 -24.898438 9.765625 -24.984375 C 9.003906 -24.984375 8.304688 -24.617188 7.671875 -23.890625 C 7.035156 -23.160156 6.460938 -22.234375 5.953125 -21.109375 C 5.453125 -19.992188 5.007812 -18.75 4.625 -17.375 C 4.25 -16 3.929688 -14.660156 3.671875 -13.359375 C 3.421875 -12.066406 3.234375 -10.890625 3.109375 -9.828125 C 2.984375 -8.773438 2.921875 -7.992188 2.921875 -7.484375 C 2.921875 -6.804688 2.945312 -6.15625 3 -5.53125 C 3.050781 -4.90625 3.1875 -4.347656 3.40625 -3.859375 C 3.625 -3.378906 3.957031 -2.992188 4.40625 -2.703125 C 4.851562 -2.421875 5.476562 -2.28125 6.28125 -2.28125 C 7.226562 -2.28125 8.160156 -2.554688 9.078125 -3.109375 C 10.003906 -3.660156 10.851562 -4.347656 11.625 -5.171875 C 12.394531 -5.992188 13.066406 -6.875 13.640625 -7.8125 C 14.222656 -8.757812 14.644531 -9.613281 14.90625 -10.375 C 14.945312 -10.394531 15.050781 -10.410156 15.21875 -10.421875 C 15.382812 -10.429688 15.488281 -10.4375 15.53125 -10.4375 C 15.8125 -10.4375 16.078125 -10.398438 16.328125 -10.328125 C 16.578125 -10.265625 16.703125 -10.054688 16.703125 -9.703125 C 16.554688 -8.941406 16.222656 -8.144531 15.703125 -7.3125 C 15.191406 -6.476562 14.582031 -5.660156 13.875 -4.859375 C 13.164062 -4.066406 12.394531 -3.328125 11.5625 -2.640625 C 10.726562 -1.953125 9.90625 -1.375 9.09375 -0.90625 C 8.289062 -0.445312 7.546875 -0.128906 6.859375 0.046875 C 6.171875 0.222656 5.617188 0.207031 5.203125 0 C 4.441406 0 3.785156 -0.210938 3.234375 -0.640625 C 2.679688 -1.078125 2.226562 -1.613281 1.875 -2.25 C 1.53125 -2.882812 1.28125 -3.566406 1.125 -4.296875 C 0.96875 -5.023438 0.890625 -5.695312 0.890625 -6.3125 Z M 0.890625 -6.3125 "/></g></g><g transform="translate(77.205237, 39.781382)"><g><path d="M 3.296875 -0.953125 C 3.316406 -1.078125 3.617188 -1.234375 4.203125 -1.421875 C 4.785156 -1.617188 5.507812 -1.847656 6.375 -2.109375 C 7.238281 -2.367188 8.195312 -2.671875 9.25 -3.015625 C 10.3125 -3.367188 11.332031 -3.769531 12.3125 -4.21875 C 13.300781 -4.664062 14.1875 -5.15625 14.96875 -5.6875 C 15.75 -6.226562 16.316406 -6.828125 16.671875 -7.484375 C 16.671875 -7.816406 16.4375 -8.078125 15.96875 -8.265625 C 15.507812 -8.460938 14.898438 -8.625 14.140625 -8.75 C 13.378906 -8.875 12.507812 -8.976562 11.53125 -9.0625 C 10.5625 -9.144531 9.5625 -9.257812 8.53125 -9.40625 C 7.507812 -9.5625 6.515625 -9.753906 5.546875 -9.984375 C 4.578125 -10.222656 3.710938 -10.546875 2.953125 -10.953125 C 2.191406 -11.367188 1.578125 -11.882812 1.109375 -12.5 C 0.640625 -13.125 0.40625 -13.90625 0.40625 -14.84375 C 0.40625 -15.75 0.613281 -16.671875 1.03125 -17.609375 C 1.445312 -18.554688 1.988281 -19.472656 2.65625 -20.359375 C 3.332031 -21.242188 4.109375 -22.078125 4.984375 -22.859375 C 5.867188 -23.640625 6.785156 -24.328125 7.734375 -24.921875 C 8.679688 -25.515625 9.617188 -25.976562 10.546875 -26.3125 C 11.484375 -26.65625 12.351562 -26.828125 13.15625 -26.828125 C 13.363281 -26.828125 13.582031 -26.832031 13.8125 -26.84375 C 14.050781 -26.851562 14.257812 -26.835938 14.4375 -26.796875 C 14.625 -26.753906 14.773438 -26.660156 14.890625 -26.515625 C 15.003906 -26.378906 15.0625 -26.175781 15.0625 -25.90625 C 15.0625 -25.226562 14.835938 -24.738281 14.390625 -24.4375 C 13.953125 -24.144531 13.414062 -24 12.78125 -24 L 11.421875 -24.453125 C 10.890625 -24.453125 10.289062 -24.296875 9.625 -23.984375 C 8.957031 -23.679688 8.285156 -23.269531 7.609375 -22.75 C 6.929688 -22.226562 6.269531 -21.632812 5.625 -20.96875 C 4.976562 -20.300781 4.40625 -19.613281 3.90625 -18.90625 C 3.414062 -18.195312 3.015625 -17.488281 2.703125 -16.78125 C 2.398438 -16.082031 2.25 -15.445312 2.25 -14.875 C 2.25 -14.15625 2.476562 -13.566406 2.9375 -13.109375 C 3.40625 -12.648438 4.019531 -12.285156 4.78125 -12.015625 C 5.539062 -11.742188 6.410156 -11.535156 7.390625 -11.390625 C 8.378906 -11.253906 9.378906 -11.132812 10.390625 -11.03125 C 11.410156 -10.925781 12.410156 -10.8125 13.390625 -10.6875 C 14.378906 -10.5625 15.253906 -10.382812 16.015625 -10.15625 C 16.773438 -9.9375 17.382812 -9.628906 17.84375 -9.234375 C 18.3125 -8.847656 18.546875 -8.328125 18.546875 -7.671875 C 18.546875 -7.035156 18.289062 -6.398438 17.78125 -5.765625 C 17.28125 -5.128906 16.613281 -4.519531 15.78125 -3.9375 C 14.957031 -3.363281 14.007812 -2.828125 12.9375 -2.328125 C 11.875 -1.828125 10.804688 -1.398438 9.734375 -1.046875 C 8.660156 -0.703125 7.609375 -0.4375 6.578125 -0.25 C 5.554688 -0.0625 4.675781 0.0195312 3.9375 0 C 3.71875 0 3.535156 -0.0703125 3.390625 -0.21875 C 3.242188 -0.363281 3.210938 -0.609375 3.296875 -0.953125 Z M 3.296875 -0.953125 "/></g></g><g transform="translate(96.451562, 39.781382)"><g><path d="M 12.390625 -14.78125 C 12.222656 -14.675781 11.914062 -14.53125 11.46875 -14.34375 C 11.03125 -14.164062 10.519531 -13.96875 9.9375 -13.75 C 9.351562 -13.539062 8.738281 -13.320312 8.09375 -13.09375 C 7.457031 -12.863281 6.847656 -12.632812 6.265625 -12.40625 C 5.679688 -12.1875 5.160156 -11.988281 4.703125 -11.8125 C 4.253906 -11.632812 3.941406 -11.476562 3.765625 -11.34375 C 3.390625 -11.070312 3.101562 -10.6875 2.90625 -10.1875 C 2.71875 -9.695312 2.582031 -9.140625 2.5 -8.515625 C 2.414062 -7.890625 2.375 -7.222656 2.375 -6.515625 C 2.375 -5.804688 2.394531 -5.113281 2.4375 -4.4375 C 2.476562 -3.757812 2.523438 -3.113281 2.578125 -2.5 C 2.628906 -1.882812 2.664062 -1.367188 2.6875 -0.953125 C 2.664062 -0.609375 2.546875 -0.304688 2.328125 -0.046875 C 2.109375 0.210938 1.828125 0.34375 1.484375 0.34375 C 1.359375 0.34375 1.210938 0.3125 1.046875 0.25 C 0.878906 0.1875 0.804688 0.0703125 0.828125 -0.09375 L 0.734375 -26 C 0.734375 -26.289062 0.796875 -26.503906 0.921875 -26.640625 C 1.046875 -26.785156 1.203125 -26.863281 1.390625 -26.875 C 1.585938 -26.882812 1.789062 -26.847656 2 -26.765625 C 2.207031 -26.679688 2.394531 -26.570312 2.5625 -26.4375 C 2.582031 -25.507812 2.59375 -24.441406 2.59375 -23.234375 C 2.59375 -22.035156 2.597656 -20.820312 2.609375 -19.59375 C 2.617188 -18.363281 2.648438 -17.175781 2.703125 -16.03125 C 2.765625 -14.894531 2.867188 -13.925781 3.015625 -13.125 C 4.046875 -13.570312 5.097656 -13.945312 6.171875 -14.25 C 7.253906 -14.5625 8.234375 -14.921875 9.109375 -15.328125 C 9.992188 -15.742188 10.71875 -16.273438 11.28125 -16.921875 C 11.851562 -17.566406 12.171875 -18.4375 12.234375 -19.53125 C 12.273438 -20.101562 12.296875 -20.609375 12.296875 -21.046875 C 12.296875 -21.492188 12.28125 -21.9375 12.25 -22.375 C 12.21875 -22.820312 12.15625 -23.296875 12.0625 -23.796875 C 11.96875 -24.296875 11.847656 -24.882812 11.703125 -25.5625 C 11.703125 -25.976562 11.789062 -26.242188 11.96875 -26.359375 C 12.144531 -26.484375 12.375 -26.546875 12.65625 -26.546875 C 12.945312 -26.546875 13.171875 -26.46875 13.328125 -26.3125 C 13.492188 -26.164062 13.613281 -25.976562 13.6875 -25.75 C 13.757812 -25.53125 13.804688 -25.285156 13.828125 -25.015625 C 13.847656 -24.742188 13.859375 -24.488281 13.859375 -24.25 C 13.878906 -23.894531 13.898438 -23.335938 13.921875 -22.578125 C 13.941406 -21.816406 13.960938 -20.960938 13.984375 -20.015625 C 14.003906 -19.078125 14.03125 -18.078125 14.0625 -17.015625 C 14.09375 -15.960938 14.117188 -14.96875 14.140625 -14.03125 C 14.160156 -13.09375 14.179688 -12.242188 14.203125 -11.484375 C 14.222656 -10.722656 14.234375 -10.160156 14.234375 -9.796875 C 14.253906 -9.347656 14.265625 -8.753906 14.265625 -8.015625 C 14.265625 -7.273438 14.265625 -6.503906 14.265625 -5.703125 C 14.265625 -4.898438 14.253906 -4.125 14.234375 -3.375 C 14.210938 -2.625 14.191406 -2.023438 14.171875 -1.578125 C 14.148438 -1.390625 14.132812 -1.203125 14.125 -1.015625 C 14.113281 -0.828125 14.082031 -0.644531 14.03125 -0.46875 C 13.976562 -0.300781 13.882812 -0.15625 13.75 -0.03125 C 13.613281 0.09375 13.40625 0.1875 13.125 0.25 C 12.707031 -0.0195312 12.476562 -0.34375 12.4375 -0.71875 C 12.40625 -1.101562 12.378906 -1.519531 12.359375 -1.96875 C 12.359375 -2.21875 12.363281 -2.675781 12.375 -3.34375 C 12.382812 -4.007812 12.390625 -4.773438 12.390625 -5.640625 C 12.390625 -6.503906 12.394531 -7.414062 12.40625 -8.375 C 12.414062 -9.34375 12.421875 -10.253906 12.421875 -11.109375 C 12.421875 -11.960938 12.421875 -12.722656 12.421875 -13.390625 C 12.421875 -14.054688 12.410156 -14.519531 12.390625 -14.78125 Z M 12.390625 -14.78125 "/></g></g><g transform="translate(111.227159, 39.781382)"><g><path d="M -0.03125 0 C 0.113281 -0.488281 0.347656 -1.289062 0.671875 -2.40625 C 1.003906 -3.53125 1.4375 -5.132812 1.96875 -7.21875 C 2.5 -9.300781 3.148438 -11.945312 3.921875 -15.15625 C 4.691406 -18.363281 5.59375 -22.316406 6.625 -27.015625 C 6.75 -27.222656 6.925781 -27.363281 7.15625 -27.4375 C 7.394531 -27.507812 7.628906 -27.53125 7.859375 -27.5 C 8.097656 -27.46875 8.296875 -27.394531 8.453125 -27.28125 C 8.609375 -27.164062 8.675781 -27.035156 8.65625 -26.890625 L 14.90625 -11.703125 L 18.140625 -12.6875 C 18.410156 -12.6875 18.640625 -12.609375 18.828125 -12.453125 C 19.023438 -12.304688 19.132812 -12.128906 19.15625 -11.921875 C 19.175781 -11.710938 19.097656 -11.484375 18.921875 -11.234375 C 18.753906 -10.992188 18.460938 -10.800781 18.046875 -10.65625 C 17.867188 -10.59375 17.644531 -10.523438 17.375 -10.453125 C 17.101562 -10.378906 16.828125 -10.304688 16.546875 -10.234375 C 16.273438 -10.171875 16.039062 -10.109375 15.84375 -10.046875 C 15.65625 -9.984375 15.5625 -9.921875 15.5625 -9.859375 L 19.09375 -0.46875 C 19.050781 -0.363281 19.003906 -0.234375 18.953125 -0.078125 C 18.910156 0.078125 18.828125 0.203125 18.703125 0.296875 C 18.578125 0.390625 18.382812 0.421875 18.125 0.390625 C 17.875 0.359375 17.519531 0.207031 17.0625 -0.0625 L 13.40625 -9.390625 C 12.96875 -9.253906 12.421875 -9.128906 11.765625 -9.015625 C 11.109375 -8.898438 10.421875 -8.785156 9.703125 -8.671875 C 8.984375 -8.554688 8.257812 -8.414062 7.53125 -8.25 C 6.800781 -8.09375 6.128906 -7.898438 5.515625 -7.671875 C 4.898438 -7.441406 4.378906 -7.160156 3.953125 -6.828125 C 3.535156 -6.503906 3.285156 -6.109375 3.203125 -5.640625 C 3.160156 -5.347656 3.082031 -4.863281 2.96875 -4.1875 C 2.851562 -3.507812 2.738281 -2.832031 2.625 -2.15625 C 2.5 -1.351562 2.351562 -0.488281 2.1875 0.4375 C 1.800781 0.820312 1.457031 0.953125 1.15625 0.828125 C 0.851562 0.703125 0.457031 0.425781 -0.03125 0 Z M 7.921875 -23.53125 L 4.5625 -9.421875 C 4.925781 -9.546875 5.421875 -9.679688 6.046875 -9.828125 C 6.679688 -9.972656 7.367188 -10.128906 8.109375 -10.296875 C 8.859375 -10.472656 9.609375 -10.644531 10.359375 -10.8125 C 11.109375 -10.976562 11.785156 -11.15625 12.390625 -11.34375 Z M 7.921875 -23.53125 "/></g></g><g transform="translate(130.283239, 39.781382)"><g><path d="M 0.859375 -26.671875 C 1.085938 -27.003906 1.363281 -27.101562 1.6875 -26.96875 C 2.019531 -26.832031 2.328125 -26.617188 2.609375 -26.328125 C 2.898438 -26.046875 3.128906 -25.757812 3.296875 -25.46875 C 3.460938 -25.1875 3.503906 -25.054688 3.421875 -25.078125 L 15.0625 -5.203125 C 15.125 -5.515625 15.179688 -6.023438 15.234375 -6.734375 C 15.285156 -7.441406 15.320312 -8.273438 15.34375 -9.234375 C 15.363281 -10.203125 15.367188 -11.253906 15.359375 -12.390625 C 15.347656 -13.535156 15.328125 -14.675781 15.296875 -15.8125 C 15.265625 -16.957031 15.21875 -18.078125 15.15625 -19.171875 C 15.09375 -20.273438 15.019531 -21.265625 14.9375 -22.140625 C 14.851562 -23.023438 14.753906 -23.753906 14.640625 -24.328125 C 14.535156 -24.910156 14.410156 -25.265625 14.265625 -25.390625 C 14.265625 -25.734375 14.328125 -26.054688 14.453125 -26.359375 C 14.585938 -26.671875 14.84375 -26.828125 15.21875 -26.828125 C 15.582031 -26.828125 15.878906 -26.613281 16.109375 -26.1875 C 16.335938 -25.769531 16.515625 -25.296875 16.640625 -24.765625 C 16.773438 -24.234375 16.867188 -23.710938 16.921875 -23.203125 C 16.972656 -22.703125 17 -22.378906 17 -22.234375 C 17.019531 -21.804688 17.035156 -21.128906 17.046875 -20.203125 C 17.054688 -19.285156 17.066406 -18.234375 17.078125 -17.046875 C 17.085938 -15.867188 17.097656 -14.628906 17.109375 -13.328125 C 17.117188 -12.035156 17.128906 -10.796875 17.140625 -9.609375 C 17.148438 -8.421875 17.15625 -7.363281 17.15625 -6.4375 C 17.15625 -5.507812 17.164062 -4.832031 17.1875 -4.40625 C 17.207031 -3.8125 17.285156 -3.289062 17.421875 -2.84375 C 17.554688 -2.40625 17.625 -1.898438 17.625 -1.328125 C 17.625 -0.867188 17.445312 -0.519531 17.09375 -0.28125 C 16.75 -0.0507812 16.367188 0.0625 15.953125 0.0625 C 15.710938 0.0625 15.503906 0.03125 15.328125 -0.03125 C 15.148438 -0.09375 15.007812 -0.195312 14.90625 -0.34375 C 14.800781 -0.5 14.742188 -0.695312 14.734375 -0.9375 C 14.722656 -1.175781 14.769531 -1.476562 14.875 -1.84375 C 14.488281 -2.28125 14 -3.019531 13.40625 -4.0625 C 12.820312 -5.113281 12.175781 -6.300781 11.46875 -7.625 C 10.757812 -8.945312 10.015625 -10.335938 9.234375 -11.796875 C 8.460938 -13.253906 7.722656 -14.632812 7.015625 -15.9375 C 6.316406 -17.238281 5.660156 -18.375 5.046875 -19.34375 C 4.429688 -20.3125 3.929688 -20.976562 3.546875 -21.34375 C 3.441406 -19.96875 3.410156 -18.375 3.453125 -16.5625 C 3.492188 -14.757812 3.566406 -12.910156 3.671875 -11.015625 C 3.785156 -9.128906 3.898438 -7.285156 4.015625 -5.484375 C 4.128906 -3.691406 4.1875 -2.109375 4.1875 -0.734375 C 4.1875 -0.285156 4.054688 -0.00390625 3.796875 0.109375 C 3.546875 0.222656 3.28125 0.25 3 0.1875 C 2.726562 0.125 2.5 0.015625 2.3125 -0.140625 C 2.125 -0.296875 2.09375 -0.414062 2.21875 -0.5 Z M 0.859375 -26.671875 "/></g></g><g transform="translate(148.800296, 39.781382)"><g><path d="M -0.03125 0 C 0.113281 -0.488281 0.347656 -1.289062 0.671875 -2.40625 C 1.003906 -3.53125 1.4375 -5.132812 1.96875 -7.21875 C 2.5 -9.300781 3.148438 -11.945312 3.921875 -15.15625 C 4.691406 -18.363281 5.59375 -22.316406 6.625 -27.015625 C 6.75 -27.222656 6.925781 -27.363281 7.15625 -27.4375 C 7.394531 -27.507812 7.628906 -27.53125 7.859375 -27.5 C 8.097656 -27.46875 8.296875 -27.394531 8.453125 -27.28125 C 8.609375 -27.164062 8.675781 -27.035156 8.65625 -26.890625 L 14.90625 -11.703125 L 18.140625 -12.6875 C 18.410156 -12.6875 18.640625 -12.609375 18.828125 -12.453125 C 19.023438 -12.304688 19.132812 -12.128906 19.15625 -11.921875 C 19.175781 -11.710938 19.097656 -11.484375 18.921875 -11.234375 C 18.753906 -10.992188 18.460938 -10.800781 18.046875 -10.65625 C 17.867188 -10.59375 17.644531 -10.523438 17.375 -10.453125 C 17.101562 -10.378906 16.828125 -10.304688 16.546875 -10.234375 C 16.273438 -10.171875 16.039062 -10.109375 15.84375 -10.046875 C 15.65625 -9.984375 15.5625 -9.921875 15.5625 -9.859375 L 19.09375 -0.46875 C 19.050781 -0.363281 19.003906 -0.234375 18.953125 -0.078125 C 18.910156 0.078125 18.828125 0.203125 18.703125 0.296875 C 18.578125 0.390625 18.382812 0.421875 18.125 0.390625 C 17.875 0.359375 17.519531 0.207031 17.0625 -0.0625 L 13.40625 -9.390625 C 12.96875 -9.253906 12.421875 -9.128906 11.765625 -9.015625 C 11.109375 -8.898438 10.421875 -8.785156 9.703125 -8.671875 C 8.984375 -8.554688 8.257812 -8.414062 7.53125 -8.25 C 6.800781 -8.09375 6.128906 -7.898438 5.515625 -7.671875 C 4.898438 -7.441406 4.378906 -7.160156 3.953125 -6.828125 C 3.535156 -6.503906 3.285156 -6.109375 3.203125 -5.640625 C 3.160156 -5.347656 3.082031 -4.863281 2.96875 -4.1875 C 2.851562 -3.507812 2.738281 -2.832031 2.625 -2.15625 C 2.5 -1.351562 2.351562 -0.488281 2.1875 0.4375 C 1.800781 0.820312 1.457031 0.953125 1.15625 0.828125 C 0.851562 0.703125 0.457031 0.425781 -0.03125 0 Z M 7.921875 -23.53125 L 4.5625 -9.421875 C 4.925781 -9.546875 5.421875 -9.679688 6.046875 -9.828125 C 6.679688 -9.972656 7.367188 -10.128906 8.109375 -10.296875 C 8.859375 -10.472656 9.609375 -10.644531 10.359375 -10.8125 C 11.109375 -10.976562 11.785156 -11.15625 12.390625 -11.34375 Z M 7.921875 -23.53125 "/></g></g></g><g fill="#ffffff" fill-opacity="1"><g transform="translate(18.063063, 38.346474)"><g><path d="M 10.90625 -24.390625 C 10.082031 -24.492188 9.257812 -24.503906 8.4375 -24.421875 C 7.613281 -24.347656 6.789062 -24.257812 5.96875 -24.15625 C 5.15625 -24.050781 4.335938 -23.953125 3.515625 -23.859375 C 2.691406 -23.765625 1.867188 -23.75 1.046875 -23.8125 C 0.816406 -23.832031 0.578125 -23.882812 0.328125 -23.96875 C 0.0859375 -24.050781 -0.0078125 -24.273438 0.03125 -24.640625 C 0.0507812 -24.867188 0.164062 -25.097656 0.375 -25.328125 C 0.59375 -25.566406 0.816406 -25.675781 1.046875 -25.65625 L 10.59375 -26.21875 C 10.613281 -26.320312 10.65625 -26.472656 10.71875 -26.671875 C 10.78125 -26.878906 10.863281 -27.078125 10.96875 -27.265625 C 11.070312 -27.453125 11.195312 -27.613281 11.34375 -27.75 C 11.5 -27.894531 11.671875 -27.957031 11.859375 -27.9375 C 12.128906 -27.914062 12.34375 -27.820312 12.5 -27.65625 C 12.664062 -27.5 12.800781 -27.332031 12.90625 -27.15625 C 13.007812 -26.976562 13.101562 -26.8125 13.1875 -26.65625 C 13.269531 -26.507812 13.375 -26.425781 13.5 -26.40625 C 16.90625 -26.40625 20.40625 -26.472656 24 -26.609375 C 24.0625 -26.609375 24.226562 -26.601562 24.5 -26.59375 C 24.78125 -26.582031 24.972656 -26.566406 25.078125 -26.546875 C 25.203125 -26.179688 25.066406 -25.894531 24.671875 -25.6875 C 24.285156 -25.488281 23.726562 -25.335938 23 -25.234375 C 22.269531 -25.128906 21.441406 -25.054688 20.515625 -25.015625 C 19.585938 -24.972656 18.660156 -24.941406 17.734375 -24.921875 C 16.816406 -24.898438 15.953125 -24.867188 15.140625 -24.828125 C 14.328125 -24.785156 13.6875 -24.722656 13.21875 -24.640625 C 13.050781 -23.535156 12.957031 -22.347656 12.9375 -21.078125 C 12.914062 -19.816406 12.921875 -18.507812 12.953125 -17.15625 C 12.984375 -15.800781 13.039062 -14.425781 13.125 -13.03125 C 13.207031 -11.632812 13.285156 -10.257812 13.359375 -8.90625 C 13.429688 -7.550781 13.476562 -6.238281 13.5 -4.96875 C 13.53125 -3.707031 13.5 -2.523438 13.40625 -1.421875 C 13.539062 -0.742188 13.484375 -0.359375 13.234375 -0.265625 C 12.992188 -0.171875 12.535156 -0.175781 11.859375 -0.28125 C 11.691406 -1.144531 11.5625 -2.195312 11.46875 -3.4375 C 11.382812 -4.675781 11.320312 -6.019531 11.28125 -7.46875 C 11.238281 -8.914062 11.21875 -10.414062 11.21875 -11.96875 C 11.21875 -13.519531 11.207031 -15.046875 11.1875 -16.546875 C 11.164062 -18.046875 11.140625 -19.46875 11.109375 -20.8125 C 11.078125 -22.15625 11.007812 -23.347656 10.90625 -24.390625 Z M 10.90625 -24.390625 "/></g></g><g transform="translate(39.560605, 38.346474)"><g><path d="M -0.03125 0 C 0.113281 -0.488281 0.347656 -1.289062 0.671875 -2.40625 C 1.003906 -3.53125 1.4375 -5.132812 1.96875 -7.21875 C 2.5 -9.300781 3.148438 -11.945312 3.921875 -15.15625 C 4.691406 -18.363281 5.59375 -22.316406 6.625 -27.015625 C 6.75 -27.222656 6.925781 -27.363281 7.15625 -27.4375 C 7.394531 -27.507812 7.628906 -27.53125 7.859375 -27.5 C 8.097656 -27.46875 8.296875 -27.394531 8.453125 -27.28125 C 8.609375 -27.164062 8.675781 -27.035156 8.65625 -26.890625 L 14.90625 -11.703125 L 18.140625 -12.6875 C 18.410156 -12.6875 18.640625 -12.609375 18.828125 -12.453125 C 19.023438 -12.304688 19.132812 -12.128906 19.15625 -11.921875 C 19.175781 -11.710938 19.097656 -11.484375 18.921875 -11.234375 C 18.753906 -10.992188 18.460938 -10.800781 18.046875 -10.65625 C 17.867188 -10.59375 17.644531 -10.523438 17.375 -10.453125 C 17.101562 -10.378906 16.828125 -10.304688 16.546875 -10.234375 C 16.273438 -10.171875 16.039062 -10.109375 15.84375 -10.046875 C 15.65625 -9.984375 15.5625 -9.921875 15.5625 -9.859375 L 19.09375 -0.46875 C 19.050781 -0.363281 19.003906 -0.234375 18.953125 -0.078125 C 18.910156 0.078125 18.828125 0.203125 18.703125 0.296875 C 18.578125 0.390625 18.382812 0.421875 18.125 0.390625 C 17.875 0.359375 17.519531 0.207031 17.0625 -0.0625 L 13.40625 -9.390625 C 12.96875 -9.253906 12.421875 -9.128906 11.765625 -9.015625 C 11.109375 -8.898438 10.421875 -8.785156 9.703125 -8.671875 C 8.984375 -8.554688 8.257812 -8.414062 7.53125 -8.25 C 6.800781 -8.09375 6.128906 -7.898438 5.515625 -7.671875 C 4.898438 -7.441406 4.378906 -7.160156 3.953125 -6.828125 C 3.535156 -6.503906 3.285156 -6.109375 3.203125 -5.640625 C 3.160156 -5.347656 3.082031 -4.863281 2.96875 -4.1875 C 2.851562 -3.507812 2.738281 -2.832031 2.625 -2.15625 C 2.5 -1.351562 2.351562 -0.488281 2.1875 0.4375 C 1.800781 0.820312 1.457031 0.953125 1.15625 0.828125 C 0.851562 0.703125 0.457031 0.425781 -0.03125 0 Z M 7.921875 -23.53125 L 4.5625 -9.421875 C 4.925781 -9.546875 5.421875 -9.679688 6.046875 -9.828125 C 6.679688 -9.972656 7.367188 -10.128906 8.109375 -10.296875 C 8.859375 -10.472656 9.609375 -10.644531 10.359375 -10.8125 C 11.109375 -10.976562 11.785156 -11.15625 12.390625 -11.34375 Z M 7.921875 -23.53125 "/></g></g><g transform="translate(58.616686, 38.346474)"><g><path d="M 0.890625 -6.3125 C 0.890625 -7.070312 0.96875 -8.109375 1.125 -9.421875 C 1.28125 -10.734375 1.507812 -12.148438 1.8125 -13.671875 C 2.125 -15.191406 2.519531 -16.726562 3 -18.28125 C 3.488281 -19.832031 4.0625 -21.238281 4.71875 -22.5 C 5.375 -23.757812 6.117188 -24.789062 6.953125 -25.59375 C 7.796875 -26.394531 8.722656 -26.796875 9.734375 -26.796875 C 10.304688 -26.796875 10.796875 -26.6875 11.203125 -26.46875 C 11.617188 -26.257812 11.960938 -25.972656 12.234375 -25.609375 C 12.515625 -25.253906 12.71875 -24.84375 12.84375 -24.375 C 12.96875 -23.914062 13.03125 -23.421875 13.03125 -22.890625 C 12.457031 -22.617188 12.019531 -22.554688 11.71875 -22.703125 C 11.425781 -22.847656 11.191406 -23.070312 11.015625 -23.375 C 10.835938 -23.6875 10.660156 -24.007812 10.484375 -24.34375 C 10.316406 -24.6875 10.078125 -24.898438 9.765625 -24.984375 C 9.003906 -24.984375 8.304688 -24.617188 7.671875 -23.890625 C 7.035156 -23.160156 6.460938 -22.234375 5.953125 -21.109375 C 5.453125 -19.992188 5.007812 -18.75 4.625 -17.375 C 4.25 -16 3.929688 -14.660156 3.671875 -13.359375 C 3.421875 -12.066406 3.234375 -10.890625 3.109375 -9.828125 C 2.984375 -8.773438 2.921875 -7.992188 2.921875 -7.484375 C 2.921875 -6.804688 2.945312 -6.15625 3 -5.53125 C 3.050781 -4.90625 3.1875 -4.347656 3.40625 -3.859375 C 3.625 -3.378906 3.957031 -2.992188 4.40625 -2.703125 C 4.851562 -2.421875 5.476562 -2.28125 6.28125 -2.28125 C 7.226562 -2.28125 8.160156 -2.554688 9.078125 -3.109375 C 10.003906 -3.660156 10.851562 -4.347656 11.625 -5.171875 C 12.394531 -5.992188 13.066406 -6.875 13.640625 -7.8125 C 14.222656 -8.757812 14.644531 -9.613281 14.90625 -10.375 C 14.945312 -10.394531 15.050781 -10.410156 15.21875 -10.421875 C 15.382812 -10.429688 15.488281 -10.4375 15.53125 -10.4375 C 15.8125 -10.4375 16.078125 -10.398438 16.328125 -10.328125 C 16.578125 -10.265625 16.703125 -10.054688 16.703125 -9.703125 C 16.554688 -8.941406 16.222656 -8.144531 15.703125 -7.3125 C 15.191406 -6.476562 14.582031 -5.660156 13.875 -4.859375 C 13.164062 -4.066406 12.394531 -3.328125 11.5625 -2.640625 C 10.726562 -1.953125 9.90625 -1.375 9.09375 -0.90625 C 8.289062 -0.445312 7.546875 -0.128906 6.859375 0.046875 C 6.171875 0.222656 5.617188 0.207031 5.203125 0 C 4.441406 0 3.785156 -0.210938 3.234375 -0.640625 C 2.679688 -1.078125 2.226562 -1.613281 1.875 -2.25 C 1.53125 -2.882812 1.28125 -3.566406 1.125 -4.296875 C 0.96875 -5.023438 0.890625 -5.695312 0.890625 -6.3125 Z M 0.890625 -6.3125 "/></g></g><g transform="translate(75.770329, 38.346474)"><g><path d="M 3.296875 -0.953125 C 3.316406 -1.078125 3.617188 -1.234375 4.203125 -1.421875 C 4.785156 -1.617188 5.507812 -1.847656 6.375 -2.109375 C 7.238281 -2.367188 8.195312 -2.671875 9.25 -3.015625 C 10.3125 -3.367188 11.332031 -3.769531 12.3125 -4.21875 C 13.300781 -4.664062 14.1875 -5.15625 14.96875 -5.6875 C 15.75 -6.226562 16.316406 -6.828125 16.671875 -7.484375 C 16.671875 -7.816406 16.4375 -8.078125 15.96875 -8.265625 C 15.507812 -8.460938 14.898438 -8.625 14.140625 -8.75 C 13.378906 -8.875 12.507812 -8.976562 11.53125 -9.0625 C 10.5625 -9.144531 9.5625 -9.257812 8.53125 -9.40625 C 7.507812 -9.5625 6.515625 -9.753906 5.546875 -9.984375 C 4.578125 -10.222656 3.710938 -10.546875 2.953125 -10.953125 C 2.191406 -11.367188 1.578125 -11.882812 1.109375 -12.5 C 0.640625 -13.125 0.40625 -13.90625 0.40625 -14.84375 C 0.40625 -15.75 0.613281 -16.671875 1.03125 -17.609375 C 1.445312 -18.554688 1.988281 -19.472656 2.65625 -20.359375 C 3.332031 -21.242188 4.109375 -22.078125 4.984375 -22.859375 C 5.867188 -23.640625 6.785156 -24.328125 7.734375 -24.921875 C 8.679688 -25.515625 9.617188 -25.976562 10.546875 -26.3125 C 11.484375 -26.65625 12.351562 -26.828125 13.15625 -26.828125 C 13.363281 -26.828125 13.582031 -26.832031 13.8125 -26.84375 C 14.050781 -26.851562 14.257812 -26.835938 14.4375 -26.796875 C 14.625 -26.753906 14.773438 -26.660156 14.890625 -26.515625 C 15.003906 -26.378906 15.0625 -26.175781 15.0625 -25.90625 C 15.0625 -25.226562 14.835938 -24.738281 14.390625 -24.4375 C 13.953125 -24.144531 13.414062 -24 12.78125 -24 L 11.421875 -24.453125 C 10.890625 -24.453125 10.289062 -24.296875 9.625 -23.984375 C 8.957031 -23.679688 8.285156 -23.269531 7.609375 -22.75 C 6.929688 -22.226562 6.269531 -21.632812 5.625 -20.96875 C 4.976562 -20.300781 4.40625 -19.613281 3.90625 -18.90625 C 3.414062 -18.195312 3.015625 -17.488281 2.703125 -16.78125 C 2.398438 -16.082031 2.25 -15.445312 2.25 -14.875 C 2.25 -14.15625 2.476562 -13.566406 2.9375 -13.109375 C 3.40625 -12.648438 4.019531 -12.285156 4.78125 -12.015625 C 5.539062 -11.742188 6.410156 -11.535156 7.390625 -11.390625 C 8.378906 -11.253906 9.378906 -11.132812 10.390625 -11.03125 C 11.410156 -10.925781 12.410156 -10.8125 13.390625 -10.6875 C 14.378906 -10.5625 15.253906 -10.382812 16.015625 -10.15625 C 16.773438 -9.9375 17.382812 -9.628906 17.84375 -9.234375 C 18.3125 -8.847656 18.546875 -8.328125 18.546875 -7.671875 C 18.546875 -7.035156 18.289062 -6.398438 17.78125 -5.765625 C 17.28125 -5.128906 16.613281 -4.519531 15.78125 -3.9375 C 14.957031 -3.363281 14.007812 -2.828125 12.9375 -2.328125 C 11.875 -1.828125 10.804688 -1.398438 9.734375 -1.046875 C 8.660156 -0.703125 7.609375 -0.4375 6.578125 -0.25 C 5.554688 -0.0625 4.675781 0.0195312 3.9375 0 C 3.71875 0 3.535156 -0.0703125 3.390625 -0.21875 C 3.242188 -0.363281 3.210938 -0.609375 3.296875 -0.953125 Z M 3.296875 -0.953125 "/></g></g><g transform="translate(95.016653, 38.346474)"><g><path d="M 12.390625 -14.78125 C 12.222656 -14.675781 11.914062 -14.53125 11.46875 -14.34375 C 11.03125 -14.164062 10.519531 -13.96875 9.9375 -13.75 C 9.351562 -13.539062 8.738281 -13.320312 8.09375 -13.09375 C 7.457031 -12.863281 6.847656 -12.632812 6.265625 -12.40625 C 5.679688 -12.1875 5.160156 -11.988281 4.703125 -11.8125 C 4.253906 -11.632812 3.941406 -11.476562 3.765625 -11.34375 C 3.390625 -11.070312 3.101562 -10.6875 2.90625 -10.1875 C 2.71875 -9.695312 2.582031 -9.140625 2.5 -8.515625 C 2.414062 -7.890625 2.375 -7.222656 2.375 -6.515625 C 2.375 -5.804688 2.394531 -5.113281 2.4375 -4.4375 C 2.476562 -3.757812 2.523438 -3.113281 2.578125 -2.5 C 2.628906 -1.882812 2.664062 -1.367188 2.6875 -0.953125 C 2.664062 -0.609375 2.546875 -0.304688 2.328125 -0.046875 C 2.109375 0.210938 1.828125 0.34375 1.484375 0.34375 C 1.359375 0.34375 1.210938 0.3125 1.046875 0.25 C 0.878906 0.1875 0.804688 0.0703125 0.828125 -0.09375 L 0.734375 -26 C 0.734375 -26.289062 0.796875 -26.503906 0.921875 -26.640625 C 1.046875 -26.785156 1.203125 -26.863281 1.390625 -26.875 C 1.585938 -26.882812 1.789062 -26.847656 2 -26.765625 C 2.207031 -26.679688 2.394531 -26.570312 2.5625 -26.4375 C 2.582031 -25.507812 2.59375 -24.441406 2.59375 -23.234375 C 2.59375 -22.035156 2.597656 -20.820312 2.609375 -19.59375 C 2.617188 -18.363281 2.648438 -17.175781 2.703125 -16.03125 C 2.765625 -14.894531 2.867188 -13.925781 3.015625 -13.125 C 4.046875 -13.570312 5.097656 -13.945312 6.171875 -14.25 C 7.253906 -14.5625 8.234375 -14.921875 9.109375 -15.328125 C 9.992188 -15.742188 10.71875 -16.273438 11.28125 -16.921875 C 11.851562 -17.566406 12.171875 -18.4375 12.234375 -19.53125 C 12.273438 -20.101562 12.296875 -20.609375 12.296875 -21.046875 C 12.296875 -21.492188 12.28125 -21.9375 12.25 -22.375 C 12.21875 -22.820312 12.15625 -23.296875 12.0625 -23.796875 C 11.96875 -24.296875 11.847656 -24.882812 11.703125 -25.5625 C 11.703125 -25.976562 11.789062 -26.242188 11.96875 -26.359375 C 12.144531 -26.484375 12.375 -26.546875 12.65625 -26.546875 C 12.945312 -26.546875 13.171875 -26.46875 13.328125 -26.3125 C 13.492188 -26.164062 13.613281 -25.976562 13.6875 -25.75 C 13.757812 -25.53125 13.804688 -25.285156 13.828125 -25.015625 C 13.847656 -24.742188 13.859375 -24.488281 13.859375 -24.25 C 13.878906 -23.894531 13.898438 -23.335938 13.921875 -22.578125 C 13.941406 -21.816406 13.960938 -20.960938 13.984375 -20.015625 C 14.003906 -19.078125 14.03125 -18.078125 14.0625 -17.015625 C 14.09375 -15.960938 14.117188 -14.96875 14.140625 -14.03125 C 14.160156 -13.09375 14.179688 -12.242188 14.203125 -11.484375 C 14.222656 -10.722656 14.234375 -10.160156 14.234375 -9.796875 C 14.253906 -9.347656 14.265625 -8.753906 14.265625 -8.015625 C 14.265625 -7.273438 14.265625 -6.503906 14.265625 -5.703125 C 14.265625 -4.898438 14.253906 -4.125 14.234375 -3.375 C 14.210938 -2.625 14.191406 -2.023438 14.171875 -1.578125 C 14.148438 -1.390625 14.132812 -1.203125 14.125 -1.015625 C 14.113281 -0.828125 14.082031 -0.644531 14.03125 -0.46875 C 13.976562 -0.300781 13.882812 -0.15625 13.75 -0.03125 C 13.613281 0.09375 13.40625 0.1875 13.125 0.25 C 12.707031 -0.0195312 12.476562 -0.34375 12.4375 -0.71875 C 12.40625 -1.101562 12.378906 -1.519531 12.359375 -1.96875 C 12.359375 -2.21875 12.363281 -2.675781 12.375 -3.34375 C 12.382812 -4.007812 12.390625 -4.773438 12.390625 -5.640625 C 12.390625 -6.503906 12.394531 -7.414062 12.40625 -8.375 C 12.414062 -9.34375 12.421875 -10.253906 12.421875 -11.109375 C 12.421875 -11.960938 12.421875 -12.722656 12.421875 -13.390625 C 12.421875 -14.054688 12.410156 -14.519531 12.390625 -14.78125 Z M 12.390625 -14.78125 "/></g></g><g transform="translate(109.79225, 38.346474)"><g><path d="M -0.03125 0 C 0.113281 -0.488281 0.347656 -1.289062 0.671875 -2.40625 C 1.003906 -3.53125 1.4375 -5.132812 1.96875 -7.21875 C 2.5 -9.300781 3.148438 -11.945312 3.921875 -15.15625 C 4.691406 -18.363281 5.59375 -22.316406 6.625 -27.015625 C 6.75 -27.222656 6.925781 -27.363281 7.15625 -27.4375 C 7.394531 -27.507812 7.628906 -27.53125 7.859375 -27.5 C 8.097656 -27.46875 8.296875 -27.394531 8.453125 -27.28125 C 8.609375 -27.164062 8.675781 -27.035156 8.65625 -26.890625 L 14.90625 -11.703125 L 18.140625 -12.6875 C 18.410156 -12.6875 18.640625 -12.609375 18.828125 -12.453125 C 19.023438 -12.304688 19.132812 -12.128906 19.15625 -11.921875 C 19.175781 -11.710938 19.097656 -11.484375 18.921875 -11.234375 C 18.753906 -10.992188 18.460938 -10.800781 18.046875 -10.65625 C 17.867188 -10.59375 17.644531 -10.523438 17.375 -10.453125 C 17.101562 -10.378906 16.828125 -10.304688 16.546875 -10.234375 C 16.273438 -10.171875 16.039062 -10.109375 15.84375 -10.046875 C 15.65625 -9.984375 15.5625 -9.921875 15.5625 -9.859375 L 19.09375 -0.46875 C 19.050781 -0.363281 19.003906 -0.234375 18.953125 -0.078125 C 18.910156 0.078125 18.828125 0.203125 18.703125 0.296875 C 18.578125 0.390625 18.382812 0.421875 18.125 0.390625 C 17.875 0.359375 17.519531 0.207031 17.0625 -0.0625 L 13.40625 -9.390625 C 12.96875 -9.253906 12.421875 -9.128906 11.765625 -9.015625 C 11.109375 -8.898438 10.421875 -8.785156 9.703125 -8.671875 C 8.984375 -8.554688 8.257812 -8.414062 7.53125 -8.25 C 6.800781 -8.09375 6.128906 -7.898438 5.515625 -7.671875 C 4.898438 -7.441406 4.378906 -7.160156 3.953125 -6.828125 C 3.535156 -6.503906 3.285156 -6.109375 3.203125 -5.640625 C 3.160156 -5.347656 3.082031 -4.863281 2.96875 -4.1875 C 2.851562 -3.507812 2.738281 -2.832031 2.625 -2.15625 C 2.5 -1.351562 2.351562 -0.488281 2.1875 0.4375 C 1.800781 0.820312 1.457031 0.953125 1.15625 0.828125 C 0.851562 0.703125 0.457031 0.425781 -0.03125 0 Z M 7.921875 -23.53125 L 4.5625 -9.421875 C 4.925781 -9.546875 5.421875 -9.679688 6.046875 -9.828125 C 6.679688 -9.972656 7.367188 -10.128906 8.109375 -10.296875 C 8.859375 -10.472656 9.609375 -10.644531 10.359375 -10.8125 C 11.109375 -10.976562 11.785156 -11.15625 12.390625 -11.34375 Z M 7.921875 -23.53125 "/></g></g><g transform="translate(128.848331, 38.346474)"><g><path d="M 0.859375 -26.671875 C 1.085938 -27.003906 1.363281 -27.101562 1.6875 -26.96875 C 2.019531 -26.832031 2.328125 -26.617188 2.609375 -26.328125 C 2.898438 -26.046875 3.128906 -25.757812 3.296875 -25.46875 C 3.460938 -25.1875 3.503906 -25.054688 3.421875 -25.078125 L 15.0625 -5.203125 C 15.125 -5.515625 15.179688 -6.023438 15.234375 -6.734375 C 15.285156 -7.441406 15.320312 -8.273438 15.34375 -9.234375 C 15.363281 -10.203125 15.367188 -11.253906 15.359375 -12.390625 C 15.347656 -13.535156 15.328125 -14.675781 15.296875 -15.8125 C 15.265625 -16.957031 15.21875 -18.078125 15.15625 -19.171875 C 15.09375 -20.273438 15.019531 -21.265625 14.9375 -22.140625 C 14.851562 -23.023438 14.753906 -23.753906 14.640625 -24.328125 C 14.535156 -24.910156 14.410156 -25.265625 14.265625 -25.390625 C 14.265625 -25.734375 14.328125 -26.054688 14.453125 -26.359375 C 14.585938 -26.671875 14.84375 -26.828125 15.21875 -26.828125 C 15.582031 -26.828125 15.878906 -26.613281 16.109375 -26.1875 C 16.335938 -25.769531 16.515625 -25.296875 16.640625 -24.765625 C 16.773438 -24.234375 16.867188 -23.710938 16.921875 -23.203125 C 16.972656 -22.703125 17 -22.378906 17 -22.234375 C 17.019531 -21.804688 17.035156 -21.128906 17.046875 -20.203125 C 17.054688 -19.285156 17.066406 -18.234375 17.078125 -17.046875 C 17.085938 -15.867188 17.097656 -14.628906 17.109375 -13.328125 C 17.117188 -12.035156 17.128906 -10.796875 17.140625 -9.609375 C 17.148438 -8.421875 17.15625 -7.363281 17.15625 -6.4375 C 17.15625 -5.507812 17.164062 -4.832031 17.1875 -4.40625 C 17.207031 -3.8125 17.285156 -3.289062 17.421875 -2.84375 C 17.554688 -2.40625 17.625 -1.898438 17.625 -1.328125 C 17.625 -0.867188 17.445312 -0.519531 17.09375 -0.28125 C 16.75 -0.0507812 16.367188 0.0625 15.953125 0.0625 C 15.710938 0.0625 15.503906 0.03125 15.328125 -0.03125 C 15.148438 -0.09375 15.007812 -0.195312 14.90625 -0.34375 C 14.800781 -0.5 14.742188 -0.695312 14.734375 -0.9375 C 14.722656 -1.175781 14.769531 -1.476562 14.875 -1.84375 C 14.488281 -2.28125 14 -3.019531 13.40625 -4.0625 C 12.820312 -5.113281 12.175781 -6.300781 11.46875 -7.625 C 10.757812 -8.945312 10.015625 -10.335938 9.234375 -11.796875 C 8.460938 -13.253906 7.722656 -14.632812 7.015625 -15.9375 C 6.316406 -17.238281 5.660156 -18.375 5.046875 -19.34375 C 4.429688 -20.3125 3.929688 -20.976562 3.546875 -21.34375 C 3.441406 -19.96875 3.410156 -18.375 3.453125 -16.5625 C 3.492188 -14.757812 3.566406 -12.910156 3.671875 -11.015625 C 3.785156 -9.128906 3.898438 -7.285156 4.015625 -5.484375 C 4.128906 -3.691406 4.1875 -2.109375 4.1875 -0.734375 C 4.1875 -0.285156 4.054688 -0.00390625 3.796875 0.109375 C 3.546875 0.222656 3.28125 0.25 3 0.1875 C 2.726562 0.125 2.5 0.015625 2.3125 -0.140625 C 2.125 -0.296875 2.09375 -0.414062 2.21875 -0.5 Z M 0.859375 -26.671875 "/></g></g><g transform="translate(147.365388, 38.346474)"><g><path d="M -0.03125 0 C 0.113281 -0.488281 0.347656 -1.289062 0.671875 -2.40625 C 1.003906 -3.53125 1.4375 -5.132812 1.96875 -7.21875 C 2.5 -9.300781 3.148438 -11.945312 3.921875 -15.15625 C 4.691406 -18.363281 5.59375 -22.316406 6.625 -27.015625 C 6.75 -27.222656 6.925781 -27.363281 7.15625 -27.4375 C 7.394531 -27.507812 7.628906 -27.53125 7.859375 -27.5 C 8.097656 -27.46875 8.296875 -27.394531 8.453125 -27.28125 C 8.609375 -27.164062 8.675781 -27.035156 8.65625 -26.890625 L 14.90625 -11.703125 L 18.140625 -12.6875 C 18.410156 -12.6875 18.640625 -12.609375 18.828125 -12.453125 C 19.023438 -12.304688 19.132812 -12.128906 19.15625 -11.921875 C 19.175781 -11.710938 19.097656 -11.484375 18.921875 -11.234375 C 18.753906 -10.992188 18.460938 -10.800781 18.046875 -10.65625 C 17.867188 -10.59375 17.644531 -10.523438 17.375 -10.453125 C 17.101562 -10.378906 16.828125 -10.304688 16.546875 -10.234375 C 16.273438 -10.171875 16.039062 -10.109375 15.84375 -10.046875 C 15.65625 -9.984375 15.5625 -9.921875 15.5625 -9.859375 L 19.09375 -0.46875 C 19.050781 -0.363281 19.003906 -0.234375 18.953125 -0.078125 C 18.910156 0.078125 18.828125 0.203125 18.703125 0.296875 C 18.578125 0.390625 18.382812 0.421875 18.125 0.390625 C 17.875 0.359375 17.519531 0.207031 17.0625 -0.0625 L 13.40625 -9.390625 C 12.96875 -9.253906 12.421875 -9.128906 11.765625 -9.015625 C 11.109375 -8.898438 10.421875 -8.785156 9.703125 -8.671875 C 8.984375 -8.554688 8.257812 -8.414062 7.53125 -8.25 C 6.800781 -8.09375 6.128906 -7.898438 5.515625 -7.671875 C 4.898438 -7.441406 4.378906 -7.160156 3.953125 -6.828125 C 3.535156 -6.503906 3.285156 -6.109375 3.203125 -5.640625 C 3.160156 -5.347656 3.082031 -4.863281 2.96875 -4.1875 C 2.851562 -3.507812 2.738281 -2.832031 2.625 -2.15625 C 2.5 -1.351562 2.351562 -0.488281 2.1875 0.4375 C 1.800781 0.820312 1.457031 0.953125 1.15625 0.828125 C 0.851562 0.703125 0.457031 0.425781 -0.03125 0 Z M 7.921875 -23.53125 L 4.5625 -9.421875 C 4.925781 -9.546875 5.421875 -9.679688 6.046875 -9.828125 C 6.679688 -9.972656 7.367188 -10.128906 8.109375 -10.296875 C 8.859375 -10.472656 9.609375 -10.644531 10.359375 -10.8125 C 11.109375 -10.976562 11.785156 -11.15625 12.390625 -11.34375 Z M 7.921875 -23.53125 "/></g></g></g></svg>